G04 #@! TF.GenerationSoftware,KiCad,Pcbnew,5.1.5+dfsg1-2build2*
G04 #@! TF.CreationDate,2020-12-17T01:47:48-07:00*
G04 #@! TF.ProjectId,eurorackBus,6575726f-7261-4636-9b42-75732e6b6963,rev?*
G04 #@! TF.SameCoordinates,Original*
G04 #@! TF.FileFunction,Copper,L2,Bot*
G04 #@! TF.FilePolarity,Positive*
%FSLAX46Y46*%
G04 Gerber Fmt 4.6, Leading zero omitted, Abs format (unit mm)*
G04 Created by KiCad (PCBNEW 5.1.5+dfsg1-2build2) date 2020-12-17 01:47:48*
%MOMM*%
%LPD*%
G04 APERTURE LIST*
%ADD10C,5.499999*%
%ADD11R,1.700000X1.700000*%
%ADD12O,1.700000X1.700000*%
%ADD13C,0.100000*%
%ADD14O,2.700000X3.300000*%
%ADD15C,0.508000*%
%ADD16C,0.254000*%
G04 APERTURE END LIST*
D10*
X167640000Y-116840000D03*
X167640000Y-76200000D03*
X231140000Y-76200000D03*
X231140000Y-116840000D03*
X307340000Y-76200000D03*
X307340000Y-116840000D03*
X88900000Y-76200000D03*
X88900000Y-116840000D03*
X15240000Y-116840000D03*
X15240000Y-76200000D03*
D11*
X67310000Y-77470000D03*
D12*
X67310000Y-80010000D03*
D11*
X118110000Y-84725001D03*
D12*
X115570000Y-84725001D03*
X118110000Y-87265001D03*
X115570000Y-87265001D03*
X118110000Y-89805001D03*
X115570000Y-89805001D03*
X118110000Y-92345001D03*
X115570000Y-92345001D03*
X118110000Y-94885001D03*
X115570000Y-94885001D03*
X118110000Y-97425001D03*
X115570000Y-97425001D03*
X118110000Y-99965001D03*
X115570000Y-99965001D03*
X118110000Y-102505001D03*
X115570000Y-102505001D03*
X140970000Y-102505001D03*
X143510000Y-102505001D03*
X140970000Y-99965001D03*
X143510000Y-99965001D03*
X140970000Y-97425001D03*
X143510000Y-97425001D03*
X140970000Y-94885001D03*
X143510000Y-94885001D03*
X140970000Y-92345001D03*
X143510000Y-92345001D03*
X140970000Y-89805001D03*
X143510000Y-89805001D03*
X140970000Y-87265001D03*
X143510000Y-87265001D03*
X140970000Y-84725001D03*
D11*
X143510000Y-84725001D03*
X168910000Y-84725001D03*
D12*
X166370000Y-84725001D03*
X168910000Y-87265001D03*
X166370000Y-87265001D03*
X168910000Y-89805001D03*
X166370000Y-89805001D03*
X168910000Y-92345001D03*
X166370000Y-92345001D03*
X168910000Y-94885001D03*
X166370000Y-94885001D03*
X168910000Y-97425001D03*
X166370000Y-97425001D03*
X168910000Y-99965001D03*
X166370000Y-99965001D03*
X168910000Y-102505001D03*
X166370000Y-102505001D03*
D11*
X191770000Y-84725001D03*
D12*
X194310000Y-84725001D03*
X191770000Y-87265001D03*
X194310000Y-87265001D03*
X191770000Y-89805001D03*
X194310000Y-89805001D03*
X191770000Y-92345001D03*
X194310000Y-92345001D03*
X191770000Y-94885001D03*
X194310000Y-94885001D03*
X191770000Y-97425001D03*
X194310000Y-97425001D03*
X191770000Y-99965001D03*
X194310000Y-99965001D03*
X191770000Y-102505001D03*
X194310000Y-102505001D03*
X217170000Y-102505001D03*
X219710000Y-102505001D03*
X217170000Y-99965001D03*
X219710000Y-99965001D03*
X217170000Y-97425001D03*
X219710000Y-97425001D03*
X217170000Y-94885001D03*
X219710000Y-94885001D03*
X217170000Y-92345001D03*
X219710000Y-92345001D03*
X217170000Y-89805001D03*
X219710000Y-89805001D03*
X217170000Y-87265001D03*
X219710000Y-87265001D03*
X217170000Y-84725001D03*
D11*
X219710000Y-84725001D03*
X245110000Y-84725001D03*
D12*
X242570000Y-84725001D03*
X245110000Y-87265001D03*
X242570000Y-87265001D03*
X245110000Y-89805001D03*
X242570000Y-89805001D03*
X245110000Y-92345001D03*
X242570000Y-92345001D03*
X245110000Y-94885001D03*
X242570000Y-94885001D03*
X245110000Y-97425001D03*
X242570000Y-97425001D03*
X245110000Y-99965001D03*
X242570000Y-99965001D03*
X245110000Y-102505001D03*
X242570000Y-102505001D03*
X267495001Y-102505001D03*
X270035001Y-102505001D03*
X267495001Y-99965001D03*
X270035001Y-99965001D03*
X267495001Y-97425001D03*
X270035001Y-97425001D03*
X267495001Y-94885001D03*
X270035001Y-94885001D03*
X267495001Y-92345001D03*
X270035001Y-92345001D03*
X267495001Y-89805001D03*
X270035001Y-89805001D03*
X267495001Y-87265001D03*
X270035001Y-87265001D03*
X267495001Y-84725001D03*
D11*
X270035001Y-84725001D03*
X308610000Y-84725001D03*
D12*
X306070000Y-84725001D03*
X308610000Y-87265001D03*
X306070000Y-87265001D03*
X308610000Y-89805001D03*
X306070000Y-89805001D03*
X308610000Y-92345001D03*
X306070000Y-92345001D03*
X308610000Y-94885001D03*
X306070000Y-94885001D03*
X308610000Y-97425001D03*
X306070000Y-97425001D03*
X308610000Y-99965001D03*
X306070000Y-99965001D03*
X308610000Y-102505001D03*
X306070000Y-102505001D03*
G04 #@! TA.AperFunction,ComponentPad*
D13*
G36*
X76054503Y-93601204D02*
G01*
X76078772Y-93604804D01*
X76102570Y-93610765D01*
X76125670Y-93619030D01*
X76147849Y-93629520D01*
X76168892Y-93642133D01*
X76188598Y-93656748D01*
X76206776Y-93673224D01*
X76223252Y-93691402D01*
X76237867Y-93711108D01*
X76250480Y-93732151D01*
X76260970Y-93754330D01*
X76269235Y-93777430D01*
X76275196Y-93801228D01*
X76278796Y-93825497D01*
X76280000Y-93850001D01*
X76280000Y-96649999D01*
X76278796Y-96674503D01*
X76275196Y-96698772D01*
X76269235Y-96722570D01*
X76260970Y-96745670D01*
X76250480Y-96767849D01*
X76237867Y-96788892D01*
X76223252Y-96808598D01*
X76206776Y-96826776D01*
X76188598Y-96843252D01*
X76168892Y-96857867D01*
X76147849Y-96870480D01*
X76125670Y-96880970D01*
X76102570Y-96889235D01*
X76078772Y-96895196D01*
X76054503Y-96898796D01*
X76029999Y-96900000D01*
X73830001Y-96900000D01*
X73805497Y-96898796D01*
X73781228Y-96895196D01*
X73757430Y-96889235D01*
X73734330Y-96880970D01*
X73712151Y-96870480D01*
X73691108Y-96857867D01*
X73671402Y-96843252D01*
X73653224Y-96826776D01*
X73636748Y-96808598D01*
X73622133Y-96788892D01*
X73609520Y-96767849D01*
X73599030Y-96745670D01*
X73590765Y-96722570D01*
X73584804Y-96698772D01*
X73581204Y-96674503D01*
X73580000Y-96649999D01*
X73580000Y-93850001D01*
X73581204Y-93825497D01*
X73584804Y-93801228D01*
X73590765Y-93777430D01*
X73599030Y-93754330D01*
X73609520Y-93732151D01*
X73622133Y-93711108D01*
X73636748Y-93691402D01*
X73653224Y-93673224D01*
X73671402Y-93656748D01*
X73691108Y-93642133D01*
X73712151Y-93629520D01*
X73734330Y-93619030D01*
X73757430Y-93610765D01*
X73781228Y-93604804D01*
X73805497Y-93601204D01*
X73830001Y-93600000D01*
X76029999Y-93600000D01*
X76054503Y-93601204D01*
G37*
G04 #@! TD.AperFunction*
D14*
X70730000Y-95250000D03*
X66530000Y-95250000D03*
X62330000Y-95250000D03*
X58130000Y-95250000D03*
X53930000Y-95250000D03*
X49730000Y-95250000D03*
X45530000Y-95250000D03*
X41330000Y-95250000D03*
X37130000Y-95250000D03*
X32930000Y-95250000D03*
X28730000Y-95250000D03*
X74930000Y-89750000D03*
X70730000Y-89750000D03*
X66530000Y-89750000D03*
X62330000Y-89750000D03*
X58130000Y-89750000D03*
X53930000Y-89750000D03*
X49730000Y-89750000D03*
X45530000Y-89750000D03*
X41330000Y-89750000D03*
X37130000Y-89750000D03*
X32930000Y-89750000D03*
X28730000Y-89750000D03*
D15*
X70730000Y-87592000D02*
X71962000Y-86360000D01*
X70730000Y-89750000D02*
X70730000Y-87592000D01*
X71962000Y-86360000D02*
X81280000Y-86360000D01*
X97425001Y-102505001D02*
X115570000Y-102505001D01*
X81280000Y-86360000D02*
X97425001Y-102505001D01*
X115570000Y-102505001D02*
X118110000Y-102505001D01*
X119312081Y-102505001D02*
X140970000Y-102505001D01*
X118110000Y-102505001D02*
X119312081Y-102505001D01*
X140970000Y-102505001D02*
X143510000Y-102505001D01*
X144712081Y-102505001D02*
X166370000Y-102505001D01*
X143510000Y-102505001D02*
X144712081Y-102505001D01*
X166370000Y-102505001D02*
X168910000Y-102505001D01*
X170112081Y-102505001D02*
X191770000Y-102505001D01*
X168910000Y-102505001D02*
X170112081Y-102505001D01*
X191770000Y-102505001D02*
X194310000Y-102505001D01*
X195512081Y-102505001D02*
X217170000Y-102505001D01*
X194310000Y-102505001D02*
X195512081Y-102505001D01*
X217170000Y-102505001D02*
X219710000Y-102505001D01*
X220912081Y-102505001D02*
X242570000Y-102505001D01*
X219710000Y-102505001D02*
X220912081Y-102505001D01*
X245110000Y-102505001D02*
X242570000Y-102505001D01*
X246312081Y-102505001D02*
X267495001Y-102505001D01*
X245110000Y-102505001D02*
X246312081Y-102505001D01*
X267495001Y-102505001D02*
X270035001Y-102505001D01*
X270035001Y-102505001D02*
X306070000Y-102505001D01*
X306070000Y-102505001D02*
X308610000Y-102505001D01*
D16*
G36*
X313563000Y-120523000D02*
G01*
X11557000Y-120523000D01*
X11557000Y-119220928D01*
X13038678Y-119220928D01*
X13344860Y-119664502D01*
X13932307Y-119979954D01*
X14570009Y-120174739D01*
X15233458Y-120241372D01*
X15897159Y-120177292D01*
X16535605Y-119984961D01*
X17124262Y-119671771D01*
X17135140Y-119664502D01*
X17441322Y-119220928D01*
X86698678Y-119220928D01*
X87004860Y-119664502D01*
X87592307Y-119979954D01*
X88230009Y-120174739D01*
X88893458Y-120241372D01*
X89557159Y-120177292D01*
X90195605Y-119984961D01*
X90784262Y-119671771D01*
X90795140Y-119664502D01*
X91101322Y-119220928D01*
X165438678Y-119220928D01*
X165744860Y-119664502D01*
X166332307Y-119979954D01*
X166970009Y-120174739D01*
X167633458Y-120241372D01*
X168297159Y-120177292D01*
X168935605Y-119984961D01*
X169524262Y-119671771D01*
X169535140Y-119664502D01*
X169841322Y-119220928D01*
X228938678Y-119220928D01*
X229244860Y-119664502D01*
X229832307Y-119979954D01*
X230470009Y-120174739D01*
X231133458Y-120241372D01*
X231797159Y-120177292D01*
X232435605Y-119984961D01*
X233024262Y-119671771D01*
X233035140Y-119664502D01*
X233341322Y-119220928D01*
X305138678Y-119220928D01*
X305444860Y-119664502D01*
X306032307Y-119979954D01*
X306670009Y-120174739D01*
X307333458Y-120241372D01*
X307997159Y-120177292D01*
X308635605Y-119984961D01*
X309224262Y-119671771D01*
X309235140Y-119664502D01*
X309541322Y-119220928D01*
X307340000Y-117019605D01*
X305138678Y-119220928D01*
X233341322Y-119220928D01*
X231140000Y-117019605D01*
X228938678Y-119220928D01*
X169841322Y-119220928D01*
X167640000Y-117019605D01*
X165438678Y-119220928D01*
X91101322Y-119220928D01*
X88900000Y-117019605D01*
X86698678Y-119220928D01*
X17441322Y-119220928D01*
X15240000Y-117019605D01*
X13038678Y-119220928D01*
X11557000Y-119220928D01*
X11557000Y-116833458D01*
X11838628Y-116833458D01*
X11902708Y-117497159D01*
X12095039Y-118135605D01*
X12408229Y-118724262D01*
X12415498Y-118735140D01*
X12859072Y-119041322D01*
X15060395Y-116840000D01*
X15419605Y-116840000D01*
X17620928Y-119041322D01*
X18064502Y-118735140D01*
X18379954Y-118147693D01*
X18574739Y-117509991D01*
X18641372Y-116846542D01*
X18640109Y-116833458D01*
X85498628Y-116833458D01*
X85562708Y-117497159D01*
X85755039Y-118135605D01*
X86068229Y-118724262D01*
X86075498Y-118735140D01*
X86519072Y-119041322D01*
X88720395Y-116840000D01*
X89079605Y-116840000D01*
X91280928Y-119041322D01*
X91724502Y-118735140D01*
X92039954Y-118147693D01*
X92234739Y-117509991D01*
X92301372Y-116846542D01*
X92300109Y-116833458D01*
X164238628Y-116833458D01*
X164302708Y-117497159D01*
X164495039Y-118135605D01*
X164808229Y-118724262D01*
X164815498Y-118735140D01*
X165259072Y-119041322D01*
X167460395Y-116840000D01*
X167819605Y-116840000D01*
X170020928Y-119041322D01*
X170464502Y-118735140D01*
X170779954Y-118147693D01*
X170974739Y-117509991D01*
X171041372Y-116846542D01*
X171040109Y-116833458D01*
X227738628Y-116833458D01*
X227802708Y-117497159D01*
X227995039Y-118135605D01*
X228308229Y-118724262D01*
X228315498Y-118735140D01*
X228759072Y-119041322D01*
X230960395Y-116840000D01*
X231319605Y-116840000D01*
X233520928Y-119041322D01*
X233964502Y-118735140D01*
X234279954Y-118147693D01*
X234474739Y-117509991D01*
X234541372Y-116846542D01*
X234540109Y-116833458D01*
X303938628Y-116833458D01*
X304002708Y-117497159D01*
X304195039Y-118135605D01*
X304508229Y-118724262D01*
X304515498Y-118735140D01*
X304959072Y-119041322D01*
X307160395Y-116840000D01*
X307519605Y-116840000D01*
X309720928Y-119041322D01*
X310164502Y-118735140D01*
X310479954Y-118147693D01*
X310674739Y-117509991D01*
X310741372Y-116846542D01*
X310677292Y-116182841D01*
X310484961Y-115544395D01*
X310171771Y-114955738D01*
X310164502Y-114944860D01*
X309720928Y-114638678D01*
X307519605Y-116840000D01*
X307160395Y-116840000D01*
X304959072Y-114638678D01*
X304515498Y-114944860D01*
X304200046Y-115532307D01*
X304005261Y-116170009D01*
X303938628Y-116833458D01*
X234540109Y-116833458D01*
X234477292Y-116182841D01*
X234284961Y-115544395D01*
X233971771Y-114955738D01*
X233964502Y-114944860D01*
X233520928Y-114638678D01*
X231319605Y-116840000D01*
X230960395Y-116840000D01*
X228759072Y-114638678D01*
X228315498Y-114944860D01*
X228000046Y-115532307D01*
X227805261Y-116170009D01*
X227738628Y-116833458D01*
X171040109Y-116833458D01*
X170977292Y-116182841D01*
X170784961Y-115544395D01*
X170471771Y-114955738D01*
X170464502Y-114944860D01*
X170020928Y-114638678D01*
X167819605Y-116840000D01*
X167460395Y-116840000D01*
X165259072Y-114638678D01*
X164815498Y-114944860D01*
X164500046Y-115532307D01*
X164305261Y-116170009D01*
X164238628Y-116833458D01*
X92300109Y-116833458D01*
X92237292Y-116182841D01*
X92044961Y-115544395D01*
X91731771Y-114955738D01*
X91724502Y-114944860D01*
X91280928Y-114638678D01*
X89079605Y-116840000D01*
X88720395Y-116840000D01*
X86519072Y-114638678D01*
X86075498Y-114944860D01*
X85760046Y-115532307D01*
X85565261Y-116170009D01*
X85498628Y-116833458D01*
X18640109Y-116833458D01*
X18577292Y-116182841D01*
X18384961Y-115544395D01*
X18071771Y-114955738D01*
X18064502Y-114944860D01*
X17620928Y-114638678D01*
X15419605Y-116840000D01*
X15060395Y-116840000D01*
X12859072Y-114638678D01*
X12415498Y-114944860D01*
X12100046Y-115532307D01*
X11905261Y-116170009D01*
X11838628Y-116833458D01*
X11557000Y-116833458D01*
X11557000Y-114459072D01*
X13038678Y-114459072D01*
X15240000Y-116660395D01*
X17441322Y-114459072D01*
X86698678Y-114459072D01*
X88900000Y-116660395D01*
X91101322Y-114459072D01*
X165438678Y-114459072D01*
X167640000Y-116660395D01*
X169841322Y-114459072D01*
X228938678Y-114459072D01*
X231140000Y-116660395D01*
X233341322Y-114459072D01*
X305138678Y-114459072D01*
X307340000Y-116660395D01*
X309541322Y-114459072D01*
X309235140Y-114015498D01*
X308647693Y-113700046D01*
X308009991Y-113505261D01*
X307346542Y-113438628D01*
X306682841Y-113502708D01*
X306044395Y-113695039D01*
X305455738Y-114008229D01*
X305444860Y-114015498D01*
X305138678Y-114459072D01*
X233341322Y-114459072D01*
X233035140Y-114015498D01*
X232447693Y-113700046D01*
X231809991Y-113505261D01*
X231146542Y-113438628D01*
X230482841Y-113502708D01*
X229844395Y-113695039D01*
X229255738Y-114008229D01*
X229244860Y-114015498D01*
X228938678Y-114459072D01*
X169841322Y-114459072D01*
X169535140Y-114015498D01*
X168947693Y-113700046D01*
X168309991Y-113505261D01*
X167646542Y-113438628D01*
X166982841Y-113502708D01*
X166344395Y-113695039D01*
X165755738Y-114008229D01*
X165744860Y-114015498D01*
X165438678Y-114459072D01*
X91101322Y-114459072D01*
X90795140Y-114015498D01*
X90207693Y-113700046D01*
X89569991Y-113505261D01*
X88906542Y-113438628D01*
X88242841Y-113502708D01*
X87604395Y-113695039D01*
X87015738Y-114008229D01*
X87004860Y-114015498D01*
X86698678Y-114459072D01*
X17441322Y-114459072D01*
X17135140Y-114015498D01*
X16547693Y-113700046D01*
X15909991Y-113505261D01*
X15246542Y-113438628D01*
X14582841Y-113502708D01*
X13944395Y-113695039D01*
X13355738Y-114008229D01*
X13344860Y-114015498D01*
X13038678Y-114459072D01*
X11557000Y-114459072D01*
X11557000Y-94852490D01*
X26745000Y-94852490D01*
X26745000Y-95647509D01*
X26773722Y-95939127D01*
X26887226Y-96313301D01*
X27071547Y-96658143D01*
X27319602Y-96960398D01*
X27621857Y-97208453D01*
X27966698Y-97392774D01*
X28340872Y-97506278D01*
X28730000Y-97544604D01*
X29119127Y-97506278D01*
X29493301Y-97392774D01*
X29838143Y-97208453D01*
X30140398Y-96960398D01*
X30388453Y-96658143D01*
X30572774Y-96313302D01*
X30686278Y-95939128D01*
X30715000Y-95647510D01*
X30715000Y-94852491D01*
X30715000Y-94852490D01*
X30945000Y-94852490D01*
X30945000Y-95647509D01*
X30973722Y-95939127D01*
X31087226Y-96313301D01*
X31271547Y-96658143D01*
X31519602Y-96960398D01*
X31821857Y-97208453D01*
X32166698Y-97392774D01*
X32540872Y-97506278D01*
X32930000Y-97544604D01*
X33319127Y-97506278D01*
X33693301Y-97392774D01*
X34038143Y-97208453D01*
X34340398Y-96960398D01*
X34588453Y-96658143D01*
X34772774Y-96313302D01*
X34886278Y-95939128D01*
X34915000Y-95647510D01*
X34915000Y-94852491D01*
X34915000Y-94852490D01*
X35145000Y-94852490D01*
X35145000Y-95647509D01*
X35173722Y-95939127D01*
X35287226Y-96313301D01*
X35471547Y-96658143D01*
X35719602Y-96960398D01*
X36021857Y-97208453D01*
X36366698Y-97392774D01*
X36740872Y-97506278D01*
X37130000Y-97544604D01*
X37519127Y-97506278D01*
X37893301Y-97392774D01*
X38238143Y-97208453D01*
X38540398Y-96960398D01*
X38788453Y-96658143D01*
X38972774Y-96313302D01*
X39086278Y-95939128D01*
X39115000Y-95647510D01*
X39115000Y-94852491D01*
X39115000Y-94852490D01*
X39345000Y-94852490D01*
X39345000Y-95647509D01*
X39373722Y-95939127D01*
X39487226Y-96313301D01*
X39671547Y-96658143D01*
X39919602Y-96960398D01*
X40221857Y-97208453D01*
X40566698Y-97392774D01*
X40940872Y-97506278D01*
X41330000Y-97544604D01*
X41719127Y-97506278D01*
X42093301Y-97392774D01*
X42438143Y-97208453D01*
X42740398Y-96960398D01*
X42988453Y-96658143D01*
X43172774Y-96313302D01*
X43286278Y-95939128D01*
X43315000Y-95647510D01*
X43315000Y-94852491D01*
X43315000Y-94852490D01*
X43545000Y-94852490D01*
X43545000Y-95647509D01*
X43573722Y-95939127D01*
X43687226Y-96313301D01*
X43871547Y-96658143D01*
X44119602Y-96960398D01*
X44421857Y-97208453D01*
X44766698Y-97392774D01*
X45140872Y-97506278D01*
X45530000Y-97544604D01*
X45919127Y-97506278D01*
X46293301Y-97392774D01*
X46638143Y-97208453D01*
X46940398Y-96960398D01*
X47188453Y-96658143D01*
X47372774Y-96313302D01*
X47486278Y-95939128D01*
X47515000Y-95647510D01*
X47515000Y-95377000D01*
X47745000Y-95377000D01*
X47745000Y-95677000D01*
X47807918Y-96061814D01*
X47944700Y-96426959D01*
X48150090Y-96758403D01*
X48416195Y-97043409D01*
X48732789Y-97271024D01*
X49087705Y-97432501D01*
X49294677Y-97486677D01*
X49603000Y-97371829D01*
X49603000Y-95377000D01*
X49857000Y-95377000D01*
X49857000Y-97371829D01*
X50165323Y-97486677D01*
X50372295Y-97432501D01*
X50727211Y-97271024D01*
X51043805Y-97043409D01*
X51309910Y-96758403D01*
X51515300Y-96426959D01*
X51652082Y-96061814D01*
X51715000Y-95677000D01*
X51715000Y-95377000D01*
X49857000Y-95377000D01*
X49603000Y-95377000D01*
X47745000Y-95377000D01*
X47515000Y-95377000D01*
X47515000Y-94852491D01*
X47512096Y-94823000D01*
X47745000Y-94823000D01*
X47745000Y-95123000D01*
X49603000Y-95123000D01*
X49603000Y-93128171D01*
X49857000Y-93128171D01*
X49857000Y-95123000D01*
X51715000Y-95123000D01*
X51715000Y-94852490D01*
X51945000Y-94852490D01*
X51945000Y-95647509D01*
X51973722Y-95939127D01*
X52087226Y-96313301D01*
X52271547Y-96658143D01*
X52519602Y-96960398D01*
X52821857Y-97208453D01*
X53166698Y-97392774D01*
X53540872Y-97506278D01*
X53930000Y-97544604D01*
X54319127Y-97506278D01*
X54693301Y-97392774D01*
X55038143Y-97208453D01*
X55340398Y-96960398D01*
X55588453Y-96658143D01*
X55772774Y-96313302D01*
X55886278Y-95939128D01*
X55915000Y-95647510D01*
X55915000Y-95377000D01*
X56145000Y-95377000D01*
X56145000Y-95677000D01*
X56207918Y-96061814D01*
X56344700Y-96426959D01*
X56550090Y-96758403D01*
X56816195Y-97043409D01*
X57132789Y-97271024D01*
X57487705Y-97432501D01*
X57694677Y-97486677D01*
X58003000Y-97371829D01*
X58003000Y-95377000D01*
X58257000Y-95377000D01*
X58257000Y-97371829D01*
X58565323Y-97486677D01*
X58772295Y-97432501D01*
X59127211Y-97271024D01*
X59443805Y-97043409D01*
X59709910Y-96758403D01*
X59915300Y-96426959D01*
X60052082Y-96061814D01*
X60115000Y-95677000D01*
X60115000Y-95377000D01*
X58257000Y-95377000D01*
X58003000Y-95377000D01*
X56145000Y-95377000D01*
X55915000Y-95377000D01*
X55915000Y-94852491D01*
X55912096Y-94823000D01*
X56145000Y-94823000D01*
X56145000Y-95123000D01*
X58003000Y-95123000D01*
X58003000Y-93128171D01*
X58257000Y-93128171D01*
X58257000Y-95123000D01*
X60115000Y-95123000D01*
X60115000Y-94852490D01*
X60345000Y-94852490D01*
X60345000Y-95647509D01*
X60373722Y-95939127D01*
X60487226Y-96313301D01*
X60671547Y-96658143D01*
X60919602Y-96960398D01*
X61221857Y-97208453D01*
X61566698Y-97392774D01*
X61940872Y-97506278D01*
X62330000Y-97544604D01*
X62719127Y-97506278D01*
X63093301Y-97392774D01*
X63438143Y-97208453D01*
X63740398Y-96960398D01*
X63988453Y-96658143D01*
X64172774Y-96313302D01*
X64286278Y-95939128D01*
X64315000Y-95647510D01*
X64315000Y-95377000D01*
X64545000Y-95377000D01*
X64545000Y-95677000D01*
X64607918Y-96061814D01*
X64744700Y-96426959D01*
X64950090Y-96758403D01*
X65216195Y-97043409D01*
X65532789Y-97271024D01*
X65887705Y-97432501D01*
X66094677Y-97486677D01*
X66403000Y-97371829D01*
X66403000Y-95377000D01*
X66657000Y-95377000D01*
X66657000Y-97371829D01*
X66965323Y-97486677D01*
X67172295Y-97432501D01*
X67527211Y-97271024D01*
X67843805Y-97043409D01*
X68109910Y-96758403D01*
X68315300Y-96426959D01*
X68452082Y-96061814D01*
X68515000Y-95677000D01*
X68515000Y-95377000D01*
X66657000Y-95377000D01*
X66403000Y-95377000D01*
X64545000Y-95377000D01*
X64315000Y-95377000D01*
X64315000Y-94852491D01*
X64312096Y-94823000D01*
X64545000Y-94823000D01*
X64545000Y-95123000D01*
X66403000Y-95123000D01*
X66403000Y-93128171D01*
X66657000Y-93128171D01*
X66657000Y-95123000D01*
X68515000Y-95123000D01*
X68515000Y-94852490D01*
X68745000Y-94852490D01*
X68745000Y-95647509D01*
X68773722Y-95939127D01*
X68887226Y-96313301D01*
X69071547Y-96658143D01*
X69319602Y-96960398D01*
X69621857Y-97208453D01*
X69966698Y-97392774D01*
X70340872Y-97506278D01*
X70730000Y-97544604D01*
X71119127Y-97506278D01*
X71493301Y-97392774D01*
X71838143Y-97208453D01*
X72140398Y-96960398D01*
X72388453Y-96658143D01*
X72572774Y-96313302D01*
X72686278Y-95939128D01*
X72715000Y-95647510D01*
X72715000Y-94852491D01*
X72686278Y-94560873D01*
X72572774Y-94186698D01*
X72392807Y-93850001D01*
X72941928Y-93850001D01*
X72941928Y-96649999D01*
X72958992Y-96823253D01*
X73009529Y-96989850D01*
X73091595Y-97143386D01*
X73202039Y-97277961D01*
X73336614Y-97388405D01*
X73490150Y-97470471D01*
X73656747Y-97521008D01*
X73830001Y-97538072D01*
X76029999Y-97538072D01*
X76203253Y-97521008D01*
X76369850Y-97470471D01*
X76523386Y-97388405D01*
X76657961Y-97277961D01*
X76768405Y-97143386D01*
X76850471Y-96989850D01*
X76901008Y-96823253D01*
X76918072Y-96649999D01*
X76918072Y-93850001D01*
X76901008Y-93676747D01*
X76850471Y-93510150D01*
X76768405Y-93356614D01*
X76657961Y-93222039D01*
X76523386Y-93111595D01*
X76369850Y-93029529D01*
X76203253Y-92978992D01*
X76029999Y-92961928D01*
X73830001Y-92961928D01*
X73656747Y-92978992D01*
X73490150Y-93029529D01*
X73336614Y-93111595D01*
X73202039Y-93222039D01*
X73091595Y-93356614D01*
X73009529Y-93510150D01*
X72958992Y-93676747D01*
X72941928Y-93850001D01*
X72392807Y-93850001D01*
X72388453Y-93841857D01*
X72140398Y-93539602D01*
X71838143Y-93291547D01*
X71493302Y-93107226D01*
X71119128Y-92993722D01*
X70730000Y-92955396D01*
X70340873Y-92993722D01*
X69966699Y-93107226D01*
X69621858Y-93291547D01*
X69319603Y-93539602D01*
X69071547Y-93841857D01*
X68887226Y-94186698D01*
X68773722Y-94560872D01*
X68745000Y-94852490D01*
X68515000Y-94852490D01*
X68515000Y-94823000D01*
X68452082Y-94438186D01*
X68315300Y-94073041D01*
X68109910Y-93741597D01*
X67843805Y-93456591D01*
X67527211Y-93228976D01*
X67172295Y-93067499D01*
X66965323Y-93013323D01*
X66657000Y-93128171D01*
X66403000Y-93128171D01*
X66094677Y-93013323D01*
X65887705Y-93067499D01*
X65532789Y-93228976D01*
X65216195Y-93456591D01*
X64950090Y-93741597D01*
X64744700Y-94073041D01*
X64607918Y-94438186D01*
X64545000Y-94823000D01*
X64312096Y-94823000D01*
X64286278Y-94560873D01*
X64172774Y-94186698D01*
X63988453Y-93841857D01*
X63740398Y-93539602D01*
X63438143Y-93291547D01*
X63093302Y-93107226D01*
X62719128Y-92993722D01*
X62330000Y-92955396D01*
X61940873Y-92993722D01*
X61566699Y-93107226D01*
X61221858Y-93291547D01*
X60919603Y-93539602D01*
X60671547Y-93841857D01*
X60487226Y-94186698D01*
X60373722Y-94560872D01*
X60345000Y-94852490D01*
X60115000Y-94852490D01*
X60115000Y-94823000D01*
X60052082Y-94438186D01*
X59915300Y-94073041D01*
X59709910Y-93741597D01*
X59443805Y-93456591D01*
X59127211Y-93228976D01*
X58772295Y-93067499D01*
X58565323Y-93013323D01*
X58257000Y-93128171D01*
X58003000Y-93128171D01*
X57694677Y-93013323D01*
X57487705Y-93067499D01*
X57132789Y-93228976D01*
X56816195Y-93456591D01*
X56550090Y-93741597D01*
X56344700Y-94073041D01*
X56207918Y-94438186D01*
X56145000Y-94823000D01*
X55912096Y-94823000D01*
X55886278Y-94560873D01*
X55772774Y-94186698D01*
X55588453Y-93841857D01*
X55340398Y-93539602D01*
X55038143Y-93291547D01*
X54693302Y-93107226D01*
X54319128Y-92993722D01*
X53930000Y-92955396D01*
X53540873Y-92993722D01*
X53166699Y-93107226D01*
X52821858Y-93291547D01*
X52519603Y-93539602D01*
X52271547Y-93841857D01*
X52087226Y-94186698D01*
X51973722Y-94560872D01*
X51945000Y-94852490D01*
X51715000Y-94852490D01*
X51715000Y-94823000D01*
X51652082Y-94438186D01*
X51515300Y-94073041D01*
X51309910Y-93741597D01*
X51043805Y-93456591D01*
X50727211Y-93228976D01*
X50372295Y-93067499D01*
X50165323Y-93013323D01*
X49857000Y-93128171D01*
X49603000Y-93128171D01*
X49294677Y-93013323D01*
X49087705Y-93067499D01*
X48732789Y-93228976D01*
X48416195Y-93456591D01*
X48150090Y-93741597D01*
X47944700Y-94073041D01*
X47807918Y-94438186D01*
X47745000Y-94823000D01*
X47512096Y-94823000D01*
X47486278Y-94560873D01*
X47372774Y-94186698D01*
X47188453Y-93841857D01*
X46940398Y-93539602D01*
X46638143Y-93291547D01*
X46293302Y-93107226D01*
X45919128Y-92993722D01*
X45530000Y-92955396D01*
X45140873Y-92993722D01*
X44766699Y-93107226D01*
X44421858Y-93291547D01*
X44119603Y-93539602D01*
X43871547Y-93841857D01*
X43687226Y-94186698D01*
X43573722Y-94560872D01*
X43545000Y-94852490D01*
X43315000Y-94852490D01*
X43286278Y-94560873D01*
X43172774Y-94186698D01*
X42988453Y-93841857D01*
X42740398Y-93539602D01*
X42438143Y-93291547D01*
X42093302Y-93107226D01*
X41719128Y-92993722D01*
X41330000Y-92955396D01*
X40940873Y-92993722D01*
X40566699Y-93107226D01*
X40221858Y-93291547D01*
X39919603Y-93539602D01*
X39671547Y-93841857D01*
X39487226Y-94186698D01*
X39373722Y-94560872D01*
X39345000Y-94852490D01*
X39115000Y-94852490D01*
X39086278Y-94560873D01*
X38972774Y-94186698D01*
X38788453Y-93841857D01*
X38540398Y-93539602D01*
X38238143Y-93291547D01*
X37893302Y-93107226D01*
X37519128Y-92993722D01*
X37130000Y-92955396D01*
X36740873Y-92993722D01*
X36366699Y-93107226D01*
X36021858Y-93291547D01*
X35719603Y-93539602D01*
X35471547Y-93841857D01*
X35287226Y-94186698D01*
X35173722Y-94560872D01*
X35145000Y-94852490D01*
X34915000Y-94852490D01*
X34886278Y-94560873D01*
X34772774Y-94186698D01*
X34588453Y-93841857D01*
X34340398Y-93539602D01*
X34038143Y-93291547D01*
X33693302Y-93107226D01*
X33319128Y-92993722D01*
X32930000Y-92955396D01*
X32540873Y-92993722D01*
X32166699Y-93107226D01*
X31821858Y-93291547D01*
X31519603Y-93539602D01*
X31271547Y-93841857D01*
X31087226Y-94186698D01*
X30973722Y-94560872D01*
X30945000Y-94852490D01*
X30715000Y-94852490D01*
X30686278Y-94560873D01*
X30572774Y-94186698D01*
X30388453Y-93841857D01*
X30140398Y-93539602D01*
X29838143Y-93291547D01*
X29493302Y-93107226D01*
X29119128Y-92993722D01*
X28730000Y-92955396D01*
X28340873Y-92993722D01*
X27966699Y-93107226D01*
X27621858Y-93291547D01*
X27319603Y-93539602D01*
X27071547Y-93841857D01*
X26887226Y-94186698D01*
X26773722Y-94560872D01*
X26745000Y-94852490D01*
X11557000Y-94852490D01*
X11557000Y-89999721D01*
X21895000Y-89999721D01*
X21895000Y-90420279D01*
X21977047Y-90832756D01*
X22137988Y-91221302D01*
X22371637Y-91570983D01*
X22669017Y-91868363D01*
X23018698Y-92102012D01*
X23407244Y-92262953D01*
X23819721Y-92345000D01*
X24240279Y-92345000D01*
X24652756Y-92262953D01*
X25041302Y-92102012D01*
X25390983Y-91868363D01*
X25688363Y-91570983D01*
X25922012Y-91221302D01*
X26082953Y-90832756D01*
X26165000Y-90420279D01*
X26165000Y-89999721D01*
X26082953Y-89587244D01*
X25985715Y-89352490D01*
X26745000Y-89352490D01*
X26745000Y-90147509D01*
X26773722Y-90439127D01*
X26887226Y-90813301D01*
X27071547Y-91158143D01*
X27319602Y-91460398D01*
X27621857Y-91708453D01*
X27966698Y-91892774D01*
X28340872Y-92006278D01*
X28730000Y-92044604D01*
X29119127Y-92006278D01*
X29493301Y-91892774D01*
X29838143Y-91708453D01*
X30140398Y-91460398D01*
X30388453Y-91158143D01*
X30572774Y-90813302D01*
X30686278Y-90439128D01*
X30715000Y-90147510D01*
X30715000Y-89352491D01*
X30715000Y-89352490D01*
X30945000Y-89352490D01*
X30945000Y-90147509D01*
X30973722Y-90439127D01*
X31087226Y-90813301D01*
X31271547Y-91158143D01*
X31519602Y-91460398D01*
X31821857Y-91708453D01*
X32166698Y-91892774D01*
X32540872Y-92006278D01*
X32930000Y-92044604D01*
X33319127Y-92006278D01*
X33693301Y-91892774D01*
X34038143Y-91708453D01*
X34340398Y-91460398D01*
X34588453Y-91158143D01*
X34772774Y-90813302D01*
X34886278Y-90439128D01*
X34915000Y-90147510D01*
X34915000Y-89352491D01*
X34915000Y-89352490D01*
X35145000Y-89352490D01*
X35145000Y-90147509D01*
X35173722Y-90439127D01*
X35287226Y-90813301D01*
X35471547Y-91158143D01*
X35719602Y-91460398D01*
X36021857Y-91708453D01*
X36366698Y-91892774D01*
X36740872Y-92006278D01*
X37130000Y-92044604D01*
X37519127Y-92006278D01*
X37893301Y-91892774D01*
X38238143Y-91708453D01*
X38540398Y-91460398D01*
X38788453Y-91158143D01*
X38972774Y-90813302D01*
X39086278Y-90439128D01*
X39115000Y-90147510D01*
X39115000Y-89352491D01*
X39115000Y-89352490D01*
X39345000Y-89352490D01*
X39345000Y-90147509D01*
X39373722Y-90439127D01*
X39487226Y-90813301D01*
X39671547Y-91158143D01*
X39919602Y-91460398D01*
X40221857Y-91708453D01*
X40566698Y-91892774D01*
X40940872Y-92006278D01*
X41330000Y-92044604D01*
X41719127Y-92006278D01*
X42093301Y-91892774D01*
X42438143Y-91708453D01*
X42740398Y-91460398D01*
X42988453Y-91158143D01*
X43172774Y-90813302D01*
X43286278Y-90439128D01*
X43315000Y-90147510D01*
X43315000Y-89352491D01*
X43315000Y-89352490D01*
X43545000Y-89352490D01*
X43545000Y-90147509D01*
X43573722Y-90439127D01*
X43687226Y-90813301D01*
X43871547Y-91158143D01*
X44119602Y-91460398D01*
X44421857Y-91708453D01*
X44766698Y-91892774D01*
X45140872Y-92006278D01*
X45530000Y-92044604D01*
X45919127Y-92006278D01*
X46293301Y-91892774D01*
X46638143Y-91708453D01*
X46940398Y-91460398D01*
X47188453Y-91158143D01*
X47372774Y-90813302D01*
X47486278Y-90439128D01*
X47515000Y-90147510D01*
X47515000Y-89877000D01*
X47745000Y-89877000D01*
X47745000Y-90177000D01*
X47807918Y-90561814D01*
X47944700Y-90926959D01*
X48150090Y-91258403D01*
X48416195Y-91543409D01*
X48732789Y-91771024D01*
X49087705Y-91932501D01*
X49294677Y-91986677D01*
X49603000Y-91871829D01*
X49603000Y-89877000D01*
X49857000Y-89877000D01*
X49857000Y-91871829D01*
X50165323Y-91986677D01*
X50372295Y-91932501D01*
X50727211Y-91771024D01*
X51043805Y-91543409D01*
X51309910Y-91258403D01*
X51515300Y-90926959D01*
X51652082Y-90561814D01*
X51715000Y-90177000D01*
X51715000Y-89877000D01*
X51945000Y-89877000D01*
X51945000Y-90177000D01*
X52007918Y-90561814D01*
X52144700Y-90926959D01*
X52350090Y-91258403D01*
X52616195Y-91543409D01*
X52932789Y-91771024D01*
X53287705Y-91932501D01*
X53494677Y-91986677D01*
X53803000Y-91871829D01*
X53803000Y-89877000D01*
X54057000Y-89877000D01*
X54057000Y-91871829D01*
X54365323Y-91986677D01*
X54572295Y-91932501D01*
X54927211Y-91771024D01*
X55243805Y-91543409D01*
X55509910Y-91258403D01*
X55715300Y-90926959D01*
X55852082Y-90561814D01*
X55915000Y-90177000D01*
X55915000Y-89877000D01*
X56145000Y-89877000D01*
X56145000Y-90177000D01*
X56207918Y-90561814D01*
X56344700Y-90926959D01*
X56550090Y-91258403D01*
X56816195Y-91543409D01*
X57132789Y-91771024D01*
X57487705Y-91932501D01*
X57694677Y-91986677D01*
X58003000Y-91871829D01*
X58003000Y-89877000D01*
X58257000Y-89877000D01*
X58257000Y-91871829D01*
X58565323Y-91986677D01*
X58772295Y-91932501D01*
X59127211Y-91771024D01*
X59443805Y-91543409D01*
X59709910Y-91258403D01*
X59915300Y-90926959D01*
X60052082Y-90561814D01*
X60115000Y-90177000D01*
X60115000Y-89877000D01*
X58257000Y-89877000D01*
X58003000Y-89877000D01*
X56145000Y-89877000D01*
X55915000Y-89877000D01*
X54057000Y-89877000D01*
X53803000Y-89877000D01*
X51945000Y-89877000D01*
X51715000Y-89877000D01*
X49857000Y-89877000D01*
X49603000Y-89877000D01*
X47745000Y-89877000D01*
X47515000Y-89877000D01*
X47515000Y-89352491D01*
X47512096Y-89323000D01*
X47745000Y-89323000D01*
X47745000Y-89623000D01*
X49603000Y-89623000D01*
X49603000Y-87628171D01*
X49857000Y-87628171D01*
X49857000Y-89623000D01*
X51715000Y-89623000D01*
X51715000Y-89323000D01*
X51945000Y-89323000D01*
X51945000Y-89623000D01*
X53803000Y-89623000D01*
X53803000Y-87628171D01*
X54057000Y-87628171D01*
X54057000Y-89623000D01*
X55915000Y-89623000D01*
X55915000Y-89323000D01*
X56145000Y-89323000D01*
X56145000Y-89623000D01*
X58003000Y-89623000D01*
X58003000Y-87628171D01*
X58257000Y-87628171D01*
X58257000Y-89623000D01*
X60115000Y-89623000D01*
X60115000Y-89352490D01*
X60345000Y-89352490D01*
X60345000Y-90147509D01*
X60373722Y-90439127D01*
X60487226Y-90813301D01*
X60671547Y-91158143D01*
X60919602Y-91460398D01*
X61221857Y-91708453D01*
X61566698Y-91892774D01*
X61940872Y-92006278D01*
X62330000Y-92044604D01*
X62719127Y-92006278D01*
X63093301Y-91892774D01*
X63438143Y-91708453D01*
X63740398Y-91460398D01*
X63988453Y-91158143D01*
X64172774Y-90813302D01*
X64286278Y-90439128D01*
X64315000Y-90147510D01*
X64315000Y-89877000D01*
X64545000Y-89877000D01*
X64545000Y-90177000D01*
X64607918Y-90561814D01*
X64744700Y-90926959D01*
X64950090Y-91258403D01*
X65216195Y-91543409D01*
X65532789Y-91771024D01*
X65887705Y-91932501D01*
X66094677Y-91986677D01*
X66403000Y-91871829D01*
X66403000Y-89877000D01*
X66657000Y-89877000D01*
X66657000Y-91871829D01*
X66965323Y-91986677D01*
X67172295Y-91932501D01*
X67527211Y-91771024D01*
X67843805Y-91543409D01*
X68109910Y-91258403D01*
X68315300Y-90926959D01*
X68452082Y-90561814D01*
X68515000Y-90177000D01*
X68515000Y-89877000D01*
X66657000Y-89877000D01*
X66403000Y-89877000D01*
X64545000Y-89877000D01*
X64315000Y-89877000D01*
X64315000Y-89352491D01*
X64312096Y-89323000D01*
X64545000Y-89323000D01*
X64545000Y-89623000D01*
X66403000Y-89623000D01*
X66403000Y-87628171D01*
X66657000Y-87628171D01*
X66657000Y-89623000D01*
X68515000Y-89623000D01*
X68515000Y-89352490D01*
X68745000Y-89352490D01*
X68745000Y-90147509D01*
X68773722Y-90439127D01*
X68887226Y-90813301D01*
X69071547Y-91158143D01*
X69319602Y-91460398D01*
X69621857Y-91708453D01*
X69966698Y-91892774D01*
X70340872Y-92006278D01*
X70730000Y-92044604D01*
X71119127Y-92006278D01*
X71493301Y-91892774D01*
X71838143Y-91708453D01*
X72140398Y-91460398D01*
X72388453Y-91158143D01*
X72572774Y-90813302D01*
X72686278Y-90439128D01*
X72715000Y-90147510D01*
X72715000Y-89352491D01*
X72715000Y-89352490D01*
X72945000Y-89352490D01*
X72945000Y-90147509D01*
X72973722Y-90439127D01*
X73087226Y-90813301D01*
X73271547Y-91158143D01*
X73519602Y-91460398D01*
X73821857Y-91708453D01*
X74166698Y-91892774D01*
X74540872Y-92006278D01*
X74930000Y-92044604D01*
X75319127Y-92006278D01*
X75693301Y-91892774D01*
X76038143Y-91708453D01*
X76340398Y-91460398D01*
X76588453Y-91158143D01*
X76772774Y-90813302D01*
X76886278Y-90439128D01*
X76915000Y-90147510D01*
X76915000Y-89999721D01*
X77495000Y-89999721D01*
X77495000Y-90420279D01*
X77577047Y-90832756D01*
X77737988Y-91221302D01*
X77971637Y-91570983D01*
X78269017Y-91868363D01*
X78618698Y-92102012D01*
X79007244Y-92262953D01*
X79419721Y-92345000D01*
X79840279Y-92345000D01*
X80252756Y-92262953D01*
X80641302Y-92102012D01*
X80990983Y-91868363D01*
X81288363Y-91570983D01*
X81522012Y-91221302D01*
X81682953Y-90832756D01*
X81765000Y-90420279D01*
X81765000Y-89999721D01*
X81682953Y-89587244D01*
X81522012Y-89198698D01*
X81288363Y-88849017D01*
X80990983Y-88551637D01*
X80641302Y-88317988D01*
X80252756Y-88157047D01*
X79840279Y-88075000D01*
X79419721Y-88075000D01*
X79007244Y-88157047D01*
X78618698Y-88317988D01*
X78269017Y-88551637D01*
X77971637Y-88849017D01*
X77737988Y-89198698D01*
X77577047Y-89587244D01*
X77495000Y-89999721D01*
X76915000Y-89999721D01*
X76915000Y-89352491D01*
X76886278Y-89060873D01*
X76772774Y-88686698D01*
X76588453Y-88341857D01*
X76340398Y-88039602D01*
X76038143Y-87791547D01*
X75693302Y-87607226D01*
X75319128Y-87493722D01*
X74930000Y-87455396D01*
X74540873Y-87493722D01*
X74166699Y-87607226D01*
X73821858Y-87791547D01*
X73519603Y-88039602D01*
X73271547Y-88341857D01*
X73087226Y-88686698D01*
X72973722Y-89060872D01*
X72945000Y-89352490D01*
X72715000Y-89352490D01*
X72686278Y-89060873D01*
X72572774Y-88686698D01*
X72388453Y-88341857D01*
X72140398Y-88039602D01*
X71838143Y-87791547D01*
X71805263Y-87773972D01*
X72330236Y-87249000D01*
X80911765Y-87249000D01*
X96765502Y-103102737D01*
X96793342Y-103136660D01*
X96928710Y-103247754D01*
X97083150Y-103330304D01*
X97149059Y-103350297D01*
X97250725Y-103381137D01*
X97283925Y-103384407D01*
X97381334Y-103394001D01*
X97381340Y-103394001D01*
X97425000Y-103398301D01*
X97468660Y-103394001D01*
X114378017Y-103394001D01*
X114416525Y-103451633D01*
X114623368Y-103658476D01*
X114866589Y-103820991D01*
X115136842Y-103932933D01*
X115423740Y-103990001D01*
X115716260Y-103990001D01*
X116003158Y-103932933D01*
X116273411Y-103820991D01*
X116516632Y-103658476D01*
X116723475Y-103451633D01*
X116761983Y-103394001D01*
X116918017Y-103394001D01*
X116956525Y-103451633D01*
X117163368Y-103658476D01*
X117406589Y-103820991D01*
X117676842Y-103932933D01*
X117963740Y-103990001D01*
X118256260Y-103990001D01*
X118543158Y-103932933D01*
X118813411Y-103820991D01*
X119056632Y-103658476D01*
X119263475Y-103451633D01*
X119301983Y-103394001D01*
X139778017Y-103394001D01*
X139816525Y-103451633D01*
X140023368Y-103658476D01*
X140266589Y-103820991D01*
X140536842Y-103932933D01*
X140823740Y-103990001D01*
X141116260Y-103990001D01*
X141403158Y-103932933D01*
X141673411Y-103820991D01*
X141916632Y-103658476D01*
X142123475Y-103451633D01*
X142161983Y-103394001D01*
X142318017Y-103394001D01*
X142356525Y-103451633D01*
X142563368Y-103658476D01*
X142806589Y-103820991D01*
X143076842Y-103932933D01*
X143363740Y-103990001D01*
X143656260Y-103990001D01*
X143943158Y-103932933D01*
X144213411Y-103820991D01*
X144456632Y-103658476D01*
X144663475Y-103451633D01*
X144701983Y-103394001D01*
X165178017Y-103394001D01*
X165216525Y-103451633D01*
X165423368Y-103658476D01*
X165666589Y-103820991D01*
X165936842Y-103932933D01*
X166223740Y-103990001D01*
X166516260Y-103990001D01*
X166803158Y-103932933D01*
X167073411Y-103820991D01*
X167316632Y-103658476D01*
X167523475Y-103451633D01*
X167561983Y-103394001D01*
X167718017Y-103394001D01*
X167756525Y-103451633D01*
X167963368Y-103658476D01*
X168206589Y-103820991D01*
X168476842Y-103932933D01*
X168763740Y-103990001D01*
X169056260Y-103990001D01*
X169343158Y-103932933D01*
X169613411Y-103820991D01*
X169856632Y-103658476D01*
X170063475Y-103451633D01*
X170101983Y-103394001D01*
X190578017Y-103394001D01*
X190616525Y-103451633D01*
X190823368Y-103658476D01*
X191066589Y-103820991D01*
X191336842Y-103932933D01*
X191623740Y-103990001D01*
X191916260Y-103990001D01*
X192203158Y-103932933D01*
X192473411Y-103820991D01*
X192716632Y-103658476D01*
X192923475Y-103451633D01*
X192961983Y-103394001D01*
X193118017Y-103394001D01*
X193156525Y-103451633D01*
X193363368Y-103658476D01*
X193606589Y-103820991D01*
X193876842Y-103932933D01*
X194163740Y-103990001D01*
X194456260Y-103990001D01*
X194743158Y-103932933D01*
X195013411Y-103820991D01*
X195256632Y-103658476D01*
X195463475Y-103451633D01*
X195501983Y-103394001D01*
X215978017Y-103394001D01*
X216016525Y-103451633D01*
X216223368Y-103658476D01*
X216466589Y-103820991D01*
X216736842Y-103932933D01*
X217023740Y-103990001D01*
X217316260Y-103990001D01*
X217603158Y-103932933D01*
X217873411Y-103820991D01*
X218116632Y-103658476D01*
X218323475Y-103451633D01*
X218361983Y-103394001D01*
X218518017Y-103394001D01*
X218556525Y-103451633D01*
X218763368Y-103658476D01*
X219006589Y-103820991D01*
X219276842Y-103932933D01*
X219563740Y-103990001D01*
X219856260Y-103990001D01*
X220143158Y-103932933D01*
X220413411Y-103820991D01*
X220656632Y-103658476D01*
X220863475Y-103451633D01*
X220901983Y-103394001D01*
X241378017Y-103394001D01*
X241416525Y-103451633D01*
X241623368Y-103658476D01*
X241866589Y-103820991D01*
X242136842Y-103932933D01*
X242423740Y-103990001D01*
X242716260Y-103990001D01*
X243003158Y-103932933D01*
X243273411Y-103820991D01*
X243516632Y-103658476D01*
X243723475Y-103451633D01*
X243761983Y-103394001D01*
X243918017Y-103394001D01*
X243956525Y-103451633D01*
X244163368Y-103658476D01*
X244406589Y-103820991D01*
X244676842Y-103932933D01*
X244963740Y-103990001D01*
X245256260Y-103990001D01*
X245543158Y-103932933D01*
X245813411Y-103820991D01*
X246056632Y-103658476D01*
X246263475Y-103451633D01*
X246301983Y-103394001D01*
X266303018Y-103394001D01*
X266341526Y-103451633D01*
X266548369Y-103658476D01*
X266791590Y-103820991D01*
X267061843Y-103932933D01*
X267348741Y-103990001D01*
X267641261Y-103990001D01*
X267928159Y-103932933D01*
X268198412Y-103820991D01*
X268441633Y-103658476D01*
X268648476Y-103451633D01*
X268686984Y-103394001D01*
X268843018Y-103394001D01*
X268881526Y-103451633D01*
X269088369Y-103658476D01*
X269331590Y-103820991D01*
X269601843Y-103932933D01*
X269888741Y-103990001D01*
X270181261Y-103990001D01*
X270468159Y-103932933D01*
X270738412Y-103820991D01*
X270981633Y-103658476D01*
X271188476Y-103451633D01*
X271226984Y-103394001D01*
X304878017Y-103394001D01*
X304916525Y-103451633D01*
X305123368Y-103658476D01*
X305366589Y-103820991D01*
X305636842Y-103932933D01*
X305923740Y-103990001D01*
X306216260Y-103990001D01*
X306503158Y-103932933D01*
X306773411Y-103820991D01*
X307016632Y-103658476D01*
X307223475Y-103451633D01*
X307261983Y-103394001D01*
X307418017Y-103394001D01*
X307456525Y-103451633D01*
X307663368Y-103658476D01*
X307906589Y-103820991D01*
X308176842Y-103932933D01*
X308463740Y-103990001D01*
X308756260Y-103990001D01*
X309043158Y-103932933D01*
X309313411Y-103820991D01*
X309556632Y-103658476D01*
X309763475Y-103451633D01*
X309925990Y-103208412D01*
X310037932Y-102938159D01*
X310095000Y-102651261D01*
X310095000Y-102358741D01*
X310037932Y-102071843D01*
X309925990Y-101801590D01*
X309763475Y-101558369D01*
X309556632Y-101351526D01*
X309374466Y-101229806D01*
X309491355Y-101160179D01*
X309707588Y-100965270D01*
X309881641Y-100731921D01*
X310006825Y-100469100D01*
X310051476Y-100321891D01*
X309930155Y-100092001D01*
X308737000Y-100092001D01*
X308737000Y-100112001D01*
X308483000Y-100112001D01*
X308483000Y-100092001D01*
X306197000Y-100092001D01*
X306197000Y-100112001D01*
X305943000Y-100112001D01*
X305943000Y-100092001D01*
X304749845Y-100092001D01*
X304628524Y-100321891D01*
X304673175Y-100469100D01*
X304798359Y-100731921D01*
X304972412Y-100965270D01*
X305188645Y-101160179D01*
X305305534Y-101229806D01*
X305123368Y-101351526D01*
X304916525Y-101558369D01*
X304878017Y-101616001D01*
X271226984Y-101616001D01*
X271188476Y-101558369D01*
X270981633Y-101351526D01*
X270799467Y-101229806D01*
X270916356Y-101160179D01*
X271132589Y-100965270D01*
X271306642Y-100731921D01*
X271431826Y-100469100D01*
X271476477Y-100321891D01*
X271355156Y-100092001D01*
X270162001Y-100092001D01*
X270162001Y-100112001D01*
X269908001Y-100112001D01*
X269908001Y-100092001D01*
X267622001Y-100092001D01*
X267622001Y-100112001D01*
X267368001Y-100112001D01*
X267368001Y-100092001D01*
X266174846Y-100092001D01*
X266053525Y-100321891D01*
X266098176Y-100469100D01*
X266223360Y-100731921D01*
X266397413Y-100965270D01*
X266613646Y-101160179D01*
X266730535Y-101229806D01*
X266548369Y-101351526D01*
X266341526Y-101558369D01*
X266303018Y-101616001D01*
X246301983Y-101616001D01*
X246263475Y-101558369D01*
X246056632Y-101351526D01*
X245874466Y-101229806D01*
X245991355Y-101160179D01*
X246207588Y-100965270D01*
X246381641Y-100731921D01*
X246506825Y-100469100D01*
X246551476Y-100321891D01*
X246430155Y-100092001D01*
X245237000Y-100092001D01*
X245237000Y-100112001D01*
X244983000Y-100112001D01*
X244983000Y-100092001D01*
X242697000Y-100092001D01*
X242697000Y-100112001D01*
X242443000Y-100112001D01*
X242443000Y-100092001D01*
X241249845Y-100092001D01*
X241128524Y-100321891D01*
X241173175Y-100469100D01*
X241298359Y-100731921D01*
X241472412Y-100965270D01*
X241688645Y-101160179D01*
X241805534Y-101229806D01*
X241623368Y-101351526D01*
X241416525Y-101558369D01*
X241378017Y-101616001D01*
X220901983Y-101616001D01*
X220863475Y-101558369D01*
X220656632Y-101351526D01*
X220474466Y-101229806D01*
X220591355Y-101160179D01*
X220807588Y-100965270D01*
X220981641Y-100731921D01*
X221106825Y-100469100D01*
X221151476Y-100321891D01*
X221030155Y-100092001D01*
X219837000Y-100092001D01*
X219837000Y-100112001D01*
X219583000Y-100112001D01*
X219583000Y-100092001D01*
X217297000Y-100092001D01*
X217297000Y-100112001D01*
X217043000Y-100112001D01*
X217043000Y-100092001D01*
X215849845Y-100092001D01*
X215728524Y-100321891D01*
X215773175Y-100469100D01*
X215898359Y-100731921D01*
X216072412Y-100965270D01*
X216288645Y-101160179D01*
X216405534Y-101229806D01*
X216223368Y-101351526D01*
X216016525Y-101558369D01*
X215978017Y-101616001D01*
X195501983Y-101616001D01*
X195463475Y-101558369D01*
X195256632Y-101351526D01*
X195074466Y-101229806D01*
X195191355Y-101160179D01*
X195407588Y-100965270D01*
X195581641Y-100731921D01*
X195706825Y-100469100D01*
X195751476Y-100321891D01*
X195630155Y-100092001D01*
X194437000Y-100092001D01*
X194437000Y-100112001D01*
X194183000Y-100112001D01*
X194183000Y-100092001D01*
X191897000Y-100092001D01*
X191897000Y-100112001D01*
X191643000Y-100112001D01*
X191643000Y-100092001D01*
X190449845Y-100092001D01*
X190328524Y-100321891D01*
X190373175Y-100469100D01*
X190498359Y-100731921D01*
X190672412Y-100965270D01*
X190888645Y-101160179D01*
X191005534Y-101229806D01*
X190823368Y-101351526D01*
X190616525Y-101558369D01*
X190578017Y-101616001D01*
X170101983Y-101616001D01*
X170063475Y-101558369D01*
X169856632Y-101351526D01*
X169674466Y-101229806D01*
X169791355Y-101160179D01*
X170007588Y-100965270D01*
X170181641Y-100731921D01*
X170306825Y-100469100D01*
X170351476Y-100321891D01*
X170230155Y-100092001D01*
X169037000Y-100092001D01*
X169037000Y-100112001D01*
X168783000Y-100112001D01*
X168783000Y-100092001D01*
X166497000Y-100092001D01*
X166497000Y-100112001D01*
X166243000Y-100112001D01*
X166243000Y-100092001D01*
X165049845Y-100092001D01*
X164928524Y-100321891D01*
X164973175Y-100469100D01*
X165098359Y-100731921D01*
X165272412Y-100965270D01*
X165488645Y-101160179D01*
X165605534Y-101229806D01*
X165423368Y-101351526D01*
X165216525Y-101558369D01*
X165178017Y-101616001D01*
X144701983Y-101616001D01*
X144663475Y-101558369D01*
X144456632Y-101351526D01*
X144274466Y-101229806D01*
X144391355Y-101160179D01*
X144607588Y-100965270D01*
X144781641Y-100731921D01*
X144906825Y-100469100D01*
X144951476Y-100321891D01*
X144830155Y-100092001D01*
X143637000Y-100092001D01*
X143637000Y-100112001D01*
X143383000Y-100112001D01*
X143383000Y-100092001D01*
X141097000Y-100092001D01*
X141097000Y-100112001D01*
X140843000Y-100112001D01*
X140843000Y-100092001D01*
X139649845Y-100092001D01*
X139528524Y-100321891D01*
X139573175Y-100469100D01*
X139698359Y-100731921D01*
X139872412Y-100965270D01*
X140088645Y-101160179D01*
X140205534Y-101229806D01*
X140023368Y-101351526D01*
X139816525Y-101558369D01*
X139778017Y-101616001D01*
X119301983Y-101616001D01*
X119263475Y-101558369D01*
X119056632Y-101351526D01*
X118874466Y-101229806D01*
X118991355Y-101160179D01*
X119207588Y-100965270D01*
X119381641Y-100731921D01*
X119506825Y-100469100D01*
X119551476Y-100321891D01*
X119430155Y-100092001D01*
X118237000Y-100092001D01*
X118237000Y-100112001D01*
X117983000Y-100112001D01*
X117983000Y-100092001D01*
X115697000Y-100092001D01*
X115697000Y-100112001D01*
X115443000Y-100112001D01*
X115443000Y-100092001D01*
X114249845Y-100092001D01*
X114128524Y-100321891D01*
X114173175Y-100469100D01*
X114298359Y-100731921D01*
X114472412Y-100965270D01*
X114688645Y-101160179D01*
X114805534Y-101229806D01*
X114623368Y-101351526D01*
X114416525Y-101558369D01*
X114378017Y-101616001D01*
X97793236Y-101616001D01*
X93959126Y-97781891D01*
X114128524Y-97781891D01*
X114173175Y-97929100D01*
X114298359Y-98191921D01*
X114472412Y-98425270D01*
X114688645Y-98620179D01*
X114814255Y-98695001D01*
X114688645Y-98769823D01*
X114472412Y-98964732D01*
X114298359Y-99198081D01*
X114173175Y-99460902D01*
X114128524Y-99608111D01*
X114249845Y-99838001D01*
X115443000Y-99838001D01*
X115443000Y-97552001D01*
X115697000Y-97552001D01*
X115697000Y-99838001D01*
X117983000Y-99838001D01*
X117983000Y-97552001D01*
X118237000Y-97552001D01*
X118237000Y-99838001D01*
X119430155Y-99838001D01*
X119551476Y-99608111D01*
X119506825Y-99460902D01*
X119381641Y-99198081D01*
X119207588Y-98964732D01*
X118991355Y-98769823D01*
X118865745Y-98695001D01*
X118991355Y-98620179D01*
X119207588Y-98425270D01*
X119381641Y-98191921D01*
X119506825Y-97929100D01*
X119551476Y-97781891D01*
X139528524Y-97781891D01*
X139573175Y-97929100D01*
X139698359Y-98191921D01*
X139872412Y-98425270D01*
X140088645Y-98620179D01*
X140214255Y-98695001D01*
X140088645Y-98769823D01*
X139872412Y-98964732D01*
X139698359Y-99198081D01*
X139573175Y-99460902D01*
X139528524Y-99608111D01*
X139649845Y-99838001D01*
X140843000Y-99838001D01*
X140843000Y-97552001D01*
X141097000Y-97552001D01*
X141097000Y-99838001D01*
X143383000Y-99838001D01*
X143383000Y-97552001D01*
X143637000Y-97552001D01*
X143637000Y-99838001D01*
X144830155Y-99838001D01*
X144951476Y-99608111D01*
X144906825Y-99460902D01*
X144781641Y-99198081D01*
X144607588Y-98964732D01*
X144391355Y-98769823D01*
X144265745Y-98695001D01*
X144391355Y-98620179D01*
X144607588Y-98425270D01*
X144781641Y-98191921D01*
X144906825Y-97929100D01*
X144951476Y-97781891D01*
X164928524Y-97781891D01*
X164973175Y-97929100D01*
X165098359Y-98191921D01*
X165272412Y-98425270D01*
X165488645Y-98620179D01*
X165614255Y-98695001D01*
X165488645Y-98769823D01*
X165272412Y-98964732D01*
X165098359Y-99198081D01*
X164973175Y-99460902D01*
X164928524Y-99608111D01*
X165049845Y-99838001D01*
X166243000Y-99838001D01*
X166243000Y-97552001D01*
X166497000Y-97552001D01*
X166497000Y-99838001D01*
X168783000Y-99838001D01*
X168783000Y-97552001D01*
X169037000Y-97552001D01*
X169037000Y-99838001D01*
X170230155Y-99838001D01*
X170351476Y-99608111D01*
X170306825Y-99460902D01*
X170181641Y-99198081D01*
X170007588Y-98964732D01*
X169791355Y-98769823D01*
X169665745Y-98695001D01*
X169791355Y-98620179D01*
X170007588Y-98425270D01*
X170181641Y-98191921D01*
X170306825Y-97929100D01*
X170351476Y-97781891D01*
X190328524Y-97781891D01*
X190373175Y-97929100D01*
X190498359Y-98191921D01*
X190672412Y-98425270D01*
X190888645Y-98620179D01*
X191014255Y-98695001D01*
X190888645Y-98769823D01*
X190672412Y-98964732D01*
X190498359Y-99198081D01*
X190373175Y-99460902D01*
X190328524Y-99608111D01*
X190449845Y-99838001D01*
X191643000Y-99838001D01*
X191643000Y-97552001D01*
X191897000Y-97552001D01*
X191897000Y-99838001D01*
X194183000Y-99838001D01*
X194183000Y-97552001D01*
X194437000Y-97552001D01*
X194437000Y-99838001D01*
X195630155Y-99838001D01*
X195751476Y-99608111D01*
X195706825Y-99460902D01*
X195581641Y-99198081D01*
X195407588Y-98964732D01*
X195191355Y-98769823D01*
X195065745Y-98695001D01*
X195191355Y-98620179D01*
X195407588Y-98425270D01*
X195581641Y-98191921D01*
X195706825Y-97929100D01*
X195751476Y-97781891D01*
X215728524Y-97781891D01*
X215773175Y-97929100D01*
X215898359Y-98191921D01*
X216072412Y-98425270D01*
X216288645Y-98620179D01*
X216414255Y-98695001D01*
X216288645Y-98769823D01*
X216072412Y-98964732D01*
X215898359Y-99198081D01*
X215773175Y-99460902D01*
X215728524Y-99608111D01*
X215849845Y-99838001D01*
X217043000Y-99838001D01*
X217043000Y-97552001D01*
X217297000Y-97552001D01*
X217297000Y-99838001D01*
X219583000Y-99838001D01*
X219583000Y-97552001D01*
X219837000Y-97552001D01*
X219837000Y-99838001D01*
X221030155Y-99838001D01*
X221151476Y-99608111D01*
X221106825Y-99460902D01*
X220981641Y-99198081D01*
X220807588Y-98964732D01*
X220591355Y-98769823D01*
X220465745Y-98695001D01*
X220591355Y-98620179D01*
X220807588Y-98425270D01*
X220981641Y-98191921D01*
X221106825Y-97929100D01*
X221151476Y-97781891D01*
X241128524Y-97781891D01*
X241173175Y-97929100D01*
X241298359Y-98191921D01*
X241472412Y-98425270D01*
X241688645Y-98620179D01*
X241814255Y-98695001D01*
X241688645Y-98769823D01*
X241472412Y-98964732D01*
X241298359Y-99198081D01*
X241173175Y-99460902D01*
X241128524Y-99608111D01*
X241249845Y-99838001D01*
X242443000Y-99838001D01*
X242443000Y-97552001D01*
X242697000Y-97552001D01*
X242697000Y-99838001D01*
X244983000Y-99838001D01*
X244983000Y-97552001D01*
X245237000Y-97552001D01*
X245237000Y-99838001D01*
X246430155Y-99838001D01*
X246551476Y-99608111D01*
X246506825Y-99460902D01*
X246381641Y-99198081D01*
X246207588Y-98964732D01*
X245991355Y-98769823D01*
X245865745Y-98695001D01*
X245991355Y-98620179D01*
X246207588Y-98425270D01*
X246381641Y-98191921D01*
X246506825Y-97929100D01*
X246551476Y-97781891D01*
X266053525Y-97781891D01*
X266098176Y-97929100D01*
X266223360Y-98191921D01*
X266397413Y-98425270D01*
X266613646Y-98620179D01*
X266739256Y-98695001D01*
X266613646Y-98769823D01*
X266397413Y-98964732D01*
X266223360Y-99198081D01*
X266098176Y-99460902D01*
X266053525Y-99608111D01*
X266174846Y-99838001D01*
X267368001Y-99838001D01*
X267368001Y-97552001D01*
X267622001Y-97552001D01*
X267622001Y-99838001D01*
X269908001Y-99838001D01*
X269908001Y-97552001D01*
X270162001Y-97552001D01*
X270162001Y-99838001D01*
X271355156Y-99838001D01*
X271476477Y-99608111D01*
X271431826Y-99460902D01*
X271306642Y-99198081D01*
X271132589Y-98964732D01*
X270916356Y-98769823D01*
X270790746Y-98695001D01*
X270916356Y-98620179D01*
X271132589Y-98425270D01*
X271306642Y-98191921D01*
X271431826Y-97929100D01*
X271476477Y-97781891D01*
X304628524Y-97781891D01*
X304673175Y-97929100D01*
X304798359Y-98191921D01*
X304972412Y-98425270D01*
X305188645Y-98620179D01*
X305314255Y-98695001D01*
X305188645Y-98769823D01*
X304972412Y-98964732D01*
X304798359Y-99198081D01*
X304673175Y-99460902D01*
X304628524Y-99608111D01*
X304749845Y-99838001D01*
X305943000Y-99838001D01*
X305943000Y-97552001D01*
X306197000Y-97552001D01*
X306197000Y-99838001D01*
X308483000Y-99838001D01*
X308483000Y-97552001D01*
X308737000Y-97552001D01*
X308737000Y-99838001D01*
X309930155Y-99838001D01*
X310051476Y-99608111D01*
X310006825Y-99460902D01*
X309881641Y-99198081D01*
X309707588Y-98964732D01*
X309491355Y-98769823D01*
X309365745Y-98695001D01*
X309491355Y-98620179D01*
X309707588Y-98425270D01*
X309881641Y-98191921D01*
X310006825Y-97929100D01*
X310051476Y-97781891D01*
X309930155Y-97552001D01*
X308737000Y-97552001D01*
X308483000Y-97552001D01*
X306197000Y-97552001D01*
X305943000Y-97552001D01*
X304749845Y-97552001D01*
X304628524Y-97781891D01*
X271476477Y-97781891D01*
X271355156Y-97552001D01*
X270162001Y-97552001D01*
X269908001Y-97552001D01*
X267622001Y-97552001D01*
X267368001Y-97552001D01*
X266174846Y-97552001D01*
X266053525Y-97781891D01*
X246551476Y-97781891D01*
X246430155Y-97552001D01*
X245237000Y-97552001D01*
X244983000Y-97552001D01*
X242697000Y-97552001D01*
X242443000Y-97552001D01*
X241249845Y-97552001D01*
X241128524Y-97781891D01*
X221151476Y-97781891D01*
X221030155Y-97552001D01*
X219837000Y-97552001D01*
X219583000Y-97552001D01*
X217297000Y-97552001D01*
X217043000Y-97552001D01*
X215849845Y-97552001D01*
X215728524Y-97781891D01*
X195751476Y-97781891D01*
X195630155Y-97552001D01*
X194437000Y-97552001D01*
X194183000Y-97552001D01*
X191897000Y-97552001D01*
X191643000Y-97552001D01*
X190449845Y-97552001D01*
X190328524Y-97781891D01*
X170351476Y-97781891D01*
X170230155Y-97552001D01*
X169037000Y-97552001D01*
X168783000Y-97552001D01*
X166497000Y-97552001D01*
X166243000Y-97552001D01*
X165049845Y-97552001D01*
X164928524Y-97781891D01*
X144951476Y-97781891D01*
X144830155Y-97552001D01*
X143637000Y-97552001D01*
X143383000Y-97552001D01*
X141097000Y-97552001D01*
X140843000Y-97552001D01*
X139649845Y-97552001D01*
X139528524Y-97781891D01*
X119551476Y-97781891D01*
X119430155Y-97552001D01*
X118237000Y-97552001D01*
X117983000Y-97552001D01*
X115697000Y-97552001D01*
X115443000Y-97552001D01*
X114249845Y-97552001D01*
X114128524Y-97781891D01*
X93959126Y-97781891D01*
X91419126Y-95241891D01*
X114128524Y-95241891D01*
X114173175Y-95389100D01*
X114298359Y-95651921D01*
X114472412Y-95885270D01*
X114688645Y-96080179D01*
X114814255Y-96155001D01*
X114688645Y-96229823D01*
X114472412Y-96424732D01*
X114298359Y-96658081D01*
X114173175Y-96920902D01*
X114128524Y-97068111D01*
X114249845Y-97298001D01*
X115443000Y-97298001D01*
X115443000Y-95012001D01*
X115697000Y-95012001D01*
X115697000Y-97298001D01*
X117983000Y-97298001D01*
X117983000Y-95012001D01*
X118237000Y-95012001D01*
X118237000Y-97298001D01*
X119430155Y-97298001D01*
X119551476Y-97068111D01*
X119506825Y-96920902D01*
X119381641Y-96658081D01*
X119207588Y-96424732D01*
X118991355Y-96229823D01*
X118865745Y-96155001D01*
X118991355Y-96080179D01*
X119207588Y-95885270D01*
X119381641Y-95651921D01*
X119506825Y-95389100D01*
X119551476Y-95241891D01*
X139528524Y-95241891D01*
X139573175Y-95389100D01*
X139698359Y-95651921D01*
X139872412Y-95885270D01*
X140088645Y-96080179D01*
X140214255Y-96155001D01*
X140088645Y-96229823D01*
X139872412Y-96424732D01*
X139698359Y-96658081D01*
X139573175Y-96920902D01*
X139528524Y-97068111D01*
X139649845Y-97298001D01*
X140843000Y-97298001D01*
X140843000Y-95012001D01*
X141097000Y-95012001D01*
X141097000Y-97298001D01*
X143383000Y-97298001D01*
X143383000Y-95012001D01*
X143637000Y-95012001D01*
X143637000Y-97298001D01*
X144830155Y-97298001D01*
X144951476Y-97068111D01*
X144906825Y-96920902D01*
X144781641Y-96658081D01*
X144607588Y-96424732D01*
X144391355Y-96229823D01*
X144265745Y-96155001D01*
X144391355Y-96080179D01*
X144607588Y-95885270D01*
X144781641Y-95651921D01*
X144906825Y-95389100D01*
X144951476Y-95241891D01*
X164928524Y-95241891D01*
X164973175Y-95389100D01*
X165098359Y-95651921D01*
X165272412Y-95885270D01*
X165488645Y-96080179D01*
X165614255Y-96155001D01*
X165488645Y-96229823D01*
X165272412Y-96424732D01*
X165098359Y-96658081D01*
X164973175Y-96920902D01*
X164928524Y-97068111D01*
X165049845Y-97298001D01*
X166243000Y-97298001D01*
X166243000Y-95012001D01*
X166497000Y-95012001D01*
X166497000Y-97298001D01*
X168783000Y-97298001D01*
X168783000Y-95012001D01*
X169037000Y-95012001D01*
X169037000Y-97298001D01*
X170230155Y-97298001D01*
X170351476Y-97068111D01*
X170306825Y-96920902D01*
X170181641Y-96658081D01*
X170007588Y-96424732D01*
X169791355Y-96229823D01*
X169665745Y-96155001D01*
X169791355Y-96080179D01*
X170007588Y-95885270D01*
X170181641Y-95651921D01*
X170306825Y-95389100D01*
X170351476Y-95241891D01*
X190328524Y-95241891D01*
X190373175Y-95389100D01*
X190498359Y-95651921D01*
X190672412Y-95885270D01*
X190888645Y-96080179D01*
X191014255Y-96155001D01*
X190888645Y-96229823D01*
X190672412Y-96424732D01*
X190498359Y-96658081D01*
X190373175Y-96920902D01*
X190328524Y-97068111D01*
X190449845Y-97298001D01*
X191643000Y-97298001D01*
X191643000Y-95012001D01*
X191897000Y-95012001D01*
X191897000Y-97298001D01*
X194183000Y-97298001D01*
X194183000Y-95012001D01*
X194437000Y-95012001D01*
X194437000Y-97298001D01*
X195630155Y-97298001D01*
X195751476Y-97068111D01*
X195706825Y-96920902D01*
X195581641Y-96658081D01*
X195407588Y-96424732D01*
X195191355Y-96229823D01*
X195065745Y-96155001D01*
X195191355Y-96080179D01*
X195407588Y-95885270D01*
X195581641Y-95651921D01*
X195706825Y-95389100D01*
X195751476Y-95241891D01*
X215728524Y-95241891D01*
X215773175Y-95389100D01*
X215898359Y-95651921D01*
X216072412Y-95885270D01*
X216288645Y-96080179D01*
X216414255Y-96155001D01*
X216288645Y-96229823D01*
X216072412Y-96424732D01*
X215898359Y-96658081D01*
X215773175Y-96920902D01*
X215728524Y-97068111D01*
X215849845Y-97298001D01*
X217043000Y-97298001D01*
X217043000Y-95012001D01*
X217297000Y-95012001D01*
X217297000Y-97298001D01*
X219583000Y-97298001D01*
X219583000Y-95012001D01*
X219837000Y-95012001D01*
X219837000Y-97298001D01*
X221030155Y-97298001D01*
X221151476Y-97068111D01*
X221106825Y-96920902D01*
X220981641Y-96658081D01*
X220807588Y-96424732D01*
X220591355Y-96229823D01*
X220465745Y-96155001D01*
X220591355Y-96080179D01*
X220807588Y-95885270D01*
X220981641Y-95651921D01*
X221106825Y-95389100D01*
X221151476Y-95241891D01*
X241128524Y-95241891D01*
X241173175Y-95389100D01*
X241298359Y-95651921D01*
X241472412Y-95885270D01*
X241688645Y-96080179D01*
X241814255Y-96155001D01*
X241688645Y-96229823D01*
X241472412Y-96424732D01*
X241298359Y-96658081D01*
X241173175Y-96920902D01*
X241128524Y-97068111D01*
X241249845Y-97298001D01*
X242443000Y-97298001D01*
X242443000Y-95012001D01*
X242697000Y-95012001D01*
X242697000Y-97298001D01*
X244983000Y-97298001D01*
X244983000Y-95012001D01*
X245237000Y-95012001D01*
X245237000Y-97298001D01*
X246430155Y-97298001D01*
X246551476Y-97068111D01*
X246506825Y-96920902D01*
X246381641Y-96658081D01*
X246207588Y-96424732D01*
X245991355Y-96229823D01*
X245865745Y-96155001D01*
X245991355Y-96080179D01*
X246207588Y-95885270D01*
X246381641Y-95651921D01*
X246506825Y-95389100D01*
X246551476Y-95241891D01*
X266053525Y-95241891D01*
X266098176Y-95389100D01*
X266223360Y-95651921D01*
X266397413Y-95885270D01*
X266613646Y-96080179D01*
X266739256Y-96155001D01*
X266613646Y-96229823D01*
X266397413Y-96424732D01*
X266223360Y-96658081D01*
X266098176Y-96920902D01*
X266053525Y-97068111D01*
X266174846Y-97298001D01*
X267368001Y-97298001D01*
X267368001Y-95012001D01*
X267622001Y-95012001D01*
X267622001Y-97298001D01*
X269908001Y-97298001D01*
X269908001Y-95012001D01*
X270162001Y-95012001D01*
X270162001Y-97298001D01*
X271355156Y-97298001D01*
X271476477Y-97068111D01*
X271431826Y-96920902D01*
X271306642Y-96658081D01*
X271132589Y-96424732D01*
X270916356Y-96229823D01*
X270790746Y-96155001D01*
X270916356Y-96080179D01*
X271132589Y-95885270D01*
X271306642Y-95651921D01*
X271431826Y-95389100D01*
X271476477Y-95241891D01*
X304628524Y-95241891D01*
X304673175Y-95389100D01*
X304798359Y-95651921D01*
X304972412Y-95885270D01*
X305188645Y-96080179D01*
X305314255Y-96155001D01*
X305188645Y-96229823D01*
X304972412Y-96424732D01*
X304798359Y-96658081D01*
X304673175Y-96920902D01*
X304628524Y-97068111D01*
X304749845Y-97298001D01*
X305943000Y-97298001D01*
X305943000Y-95012001D01*
X306197000Y-95012001D01*
X306197000Y-97298001D01*
X308483000Y-97298001D01*
X308483000Y-95012001D01*
X308737000Y-95012001D01*
X308737000Y-97298001D01*
X309930155Y-97298001D01*
X310051476Y-97068111D01*
X310006825Y-96920902D01*
X309881641Y-96658081D01*
X309707588Y-96424732D01*
X309491355Y-96229823D01*
X309365745Y-96155001D01*
X309491355Y-96080179D01*
X309707588Y-95885270D01*
X309881641Y-95651921D01*
X310006825Y-95389100D01*
X310051476Y-95241891D01*
X309930155Y-95012001D01*
X308737000Y-95012001D01*
X308483000Y-95012001D01*
X306197000Y-95012001D01*
X305943000Y-95012001D01*
X304749845Y-95012001D01*
X304628524Y-95241891D01*
X271476477Y-95241891D01*
X271355156Y-95012001D01*
X270162001Y-95012001D01*
X269908001Y-95012001D01*
X267622001Y-95012001D01*
X267368001Y-95012001D01*
X266174846Y-95012001D01*
X266053525Y-95241891D01*
X246551476Y-95241891D01*
X246430155Y-95012001D01*
X245237000Y-95012001D01*
X244983000Y-95012001D01*
X242697000Y-95012001D01*
X242443000Y-95012001D01*
X241249845Y-95012001D01*
X241128524Y-95241891D01*
X221151476Y-95241891D01*
X221030155Y-95012001D01*
X219837000Y-95012001D01*
X219583000Y-95012001D01*
X217297000Y-95012001D01*
X217043000Y-95012001D01*
X215849845Y-95012001D01*
X215728524Y-95241891D01*
X195751476Y-95241891D01*
X195630155Y-95012001D01*
X194437000Y-95012001D01*
X194183000Y-95012001D01*
X191897000Y-95012001D01*
X191643000Y-95012001D01*
X190449845Y-95012001D01*
X190328524Y-95241891D01*
X170351476Y-95241891D01*
X170230155Y-95012001D01*
X169037000Y-95012001D01*
X168783000Y-95012001D01*
X166497000Y-95012001D01*
X166243000Y-95012001D01*
X165049845Y-95012001D01*
X164928524Y-95241891D01*
X144951476Y-95241891D01*
X144830155Y-95012001D01*
X143637000Y-95012001D01*
X143383000Y-95012001D01*
X141097000Y-95012001D01*
X140843000Y-95012001D01*
X139649845Y-95012001D01*
X139528524Y-95241891D01*
X119551476Y-95241891D01*
X119430155Y-95012001D01*
X118237000Y-95012001D01*
X117983000Y-95012001D01*
X115697000Y-95012001D01*
X115443000Y-95012001D01*
X114249845Y-95012001D01*
X114128524Y-95241891D01*
X91419126Y-95241891D01*
X81939499Y-85762264D01*
X81911659Y-85728341D01*
X81776291Y-85617247D01*
X81621851Y-85534697D01*
X81454274Y-85483864D01*
X81323667Y-85471000D01*
X81323660Y-85471000D01*
X81280000Y-85466700D01*
X81236340Y-85471000D01*
X72005659Y-85471000D01*
X71961999Y-85466700D01*
X71918339Y-85471000D01*
X71918333Y-85471000D01*
X71820924Y-85480594D01*
X71787724Y-85483864D01*
X71686058Y-85514704D01*
X71620149Y-85534697D01*
X71465709Y-85617247D01*
X71330341Y-85728341D01*
X71302505Y-85762259D01*
X70132259Y-86932506D01*
X70098342Y-86960341D01*
X70070507Y-86994258D01*
X70070505Y-86994260D01*
X69987248Y-87095709D01*
X69904698Y-87250148D01*
X69853864Y-87417726D01*
X69836700Y-87592000D01*
X69841001Y-87635670D01*
X69841001Y-87674413D01*
X69621858Y-87791547D01*
X69319603Y-88039602D01*
X69071547Y-88341857D01*
X68887226Y-88686698D01*
X68773722Y-89060872D01*
X68745000Y-89352490D01*
X68515000Y-89352490D01*
X68515000Y-89323000D01*
X68452082Y-88938186D01*
X68315300Y-88573041D01*
X68109910Y-88241597D01*
X67843805Y-87956591D01*
X67527211Y-87728976D01*
X67172295Y-87567499D01*
X66965323Y-87513323D01*
X66657000Y-87628171D01*
X66403000Y-87628171D01*
X66094677Y-87513323D01*
X65887705Y-87567499D01*
X65532789Y-87728976D01*
X65216195Y-87956591D01*
X64950090Y-88241597D01*
X64744700Y-88573041D01*
X64607918Y-88938186D01*
X64545000Y-89323000D01*
X64312096Y-89323000D01*
X64286278Y-89060873D01*
X64172774Y-88686698D01*
X63988453Y-88341857D01*
X63740398Y-88039602D01*
X63438143Y-87791547D01*
X63093302Y-87607226D01*
X62719128Y-87493722D01*
X62330000Y-87455396D01*
X61940873Y-87493722D01*
X61566699Y-87607226D01*
X61221858Y-87791547D01*
X60919603Y-88039602D01*
X60671547Y-88341857D01*
X60487226Y-88686698D01*
X60373722Y-89060872D01*
X60345000Y-89352490D01*
X60115000Y-89352490D01*
X60115000Y-89323000D01*
X60052082Y-88938186D01*
X59915300Y-88573041D01*
X59709910Y-88241597D01*
X59443805Y-87956591D01*
X59127211Y-87728976D01*
X58772295Y-87567499D01*
X58565323Y-87513323D01*
X58257000Y-87628171D01*
X58003000Y-87628171D01*
X57694677Y-87513323D01*
X57487705Y-87567499D01*
X57132789Y-87728976D01*
X56816195Y-87956591D01*
X56550090Y-88241597D01*
X56344700Y-88573041D01*
X56207918Y-88938186D01*
X56145000Y-89323000D01*
X55915000Y-89323000D01*
X55852082Y-88938186D01*
X55715300Y-88573041D01*
X55509910Y-88241597D01*
X55243805Y-87956591D01*
X54927211Y-87728976D01*
X54572295Y-87567499D01*
X54365323Y-87513323D01*
X54057000Y-87628171D01*
X53803000Y-87628171D01*
X53494677Y-87513323D01*
X53287705Y-87567499D01*
X52932789Y-87728976D01*
X52616195Y-87956591D01*
X52350090Y-88241597D01*
X52144700Y-88573041D01*
X52007918Y-88938186D01*
X51945000Y-89323000D01*
X51715000Y-89323000D01*
X51652082Y-88938186D01*
X51515300Y-88573041D01*
X51309910Y-88241597D01*
X51043805Y-87956591D01*
X50727211Y-87728976D01*
X50372295Y-87567499D01*
X50165323Y-87513323D01*
X49857000Y-87628171D01*
X49603000Y-87628171D01*
X49294677Y-87513323D01*
X49087705Y-87567499D01*
X48732789Y-87728976D01*
X48416195Y-87956591D01*
X48150090Y-88241597D01*
X47944700Y-88573041D01*
X47807918Y-88938186D01*
X47745000Y-89323000D01*
X47512096Y-89323000D01*
X47486278Y-89060873D01*
X47372774Y-88686698D01*
X47188453Y-88341857D01*
X46940398Y-88039602D01*
X46638143Y-87791547D01*
X46293302Y-87607226D01*
X45919128Y-87493722D01*
X45530000Y-87455396D01*
X45140873Y-87493722D01*
X44766699Y-87607226D01*
X44421858Y-87791547D01*
X44119603Y-88039602D01*
X43871547Y-88341857D01*
X43687226Y-88686698D01*
X43573722Y-89060872D01*
X43545000Y-89352490D01*
X43315000Y-89352490D01*
X43286278Y-89060873D01*
X43172774Y-88686698D01*
X42988453Y-88341857D01*
X42740398Y-88039602D01*
X42438143Y-87791547D01*
X42093302Y-87607226D01*
X41719128Y-87493722D01*
X41330000Y-87455396D01*
X40940873Y-87493722D01*
X40566699Y-87607226D01*
X40221858Y-87791547D01*
X39919603Y-88039602D01*
X39671547Y-88341857D01*
X39487226Y-88686698D01*
X39373722Y-89060872D01*
X39345000Y-89352490D01*
X39115000Y-89352490D01*
X39086278Y-89060873D01*
X38972774Y-88686698D01*
X38788453Y-88341857D01*
X38540398Y-88039602D01*
X38238143Y-87791547D01*
X37893302Y-87607226D01*
X37519128Y-87493722D01*
X37130000Y-87455396D01*
X36740873Y-87493722D01*
X36366699Y-87607226D01*
X36021858Y-87791547D01*
X35719603Y-88039602D01*
X35471547Y-88341857D01*
X35287226Y-88686698D01*
X35173722Y-89060872D01*
X35145000Y-89352490D01*
X34915000Y-89352490D01*
X34886278Y-89060873D01*
X34772774Y-88686698D01*
X34588453Y-88341857D01*
X34340398Y-88039602D01*
X34038143Y-87791547D01*
X33693302Y-87607226D01*
X33319128Y-87493722D01*
X32930000Y-87455396D01*
X32540873Y-87493722D01*
X32166699Y-87607226D01*
X31821858Y-87791547D01*
X31519603Y-88039602D01*
X31271547Y-88341857D01*
X31087226Y-88686698D01*
X30973722Y-89060872D01*
X30945000Y-89352490D01*
X30715000Y-89352490D01*
X30686278Y-89060873D01*
X30572774Y-88686698D01*
X30388453Y-88341857D01*
X30140398Y-88039602D01*
X29838143Y-87791547D01*
X29493302Y-87607226D01*
X29119128Y-87493722D01*
X28730000Y-87455396D01*
X28340873Y-87493722D01*
X27966699Y-87607226D01*
X27621858Y-87791547D01*
X27319603Y-88039602D01*
X27071547Y-88341857D01*
X26887226Y-88686698D01*
X26773722Y-89060872D01*
X26745000Y-89352490D01*
X25985715Y-89352490D01*
X25922012Y-89198698D01*
X25688363Y-88849017D01*
X25390983Y-88551637D01*
X25041302Y-88317988D01*
X24652756Y-88157047D01*
X24240279Y-88075000D01*
X23819721Y-88075000D01*
X23407244Y-88157047D01*
X23018698Y-88317988D01*
X22669017Y-88551637D01*
X22371637Y-88849017D01*
X22137988Y-89198698D01*
X21977047Y-89587244D01*
X21895000Y-89999721D01*
X11557000Y-89999721D01*
X11557000Y-84578741D01*
X114085000Y-84578741D01*
X114085000Y-84871261D01*
X114142068Y-85158159D01*
X114254010Y-85428412D01*
X114416525Y-85671633D01*
X114623368Y-85878476D01*
X114797760Y-85995001D01*
X114623368Y-86111526D01*
X114416525Y-86318369D01*
X114254010Y-86561590D01*
X114142068Y-86831843D01*
X114085000Y-87118741D01*
X114085000Y-87411261D01*
X114142068Y-87698159D01*
X114254010Y-87968412D01*
X114416525Y-88211633D01*
X114623368Y-88418476D01*
X114797760Y-88535001D01*
X114623368Y-88651526D01*
X114416525Y-88858369D01*
X114254010Y-89101590D01*
X114142068Y-89371843D01*
X114085000Y-89658741D01*
X114085000Y-89951261D01*
X114142068Y-90238159D01*
X114254010Y-90508412D01*
X114416525Y-90751633D01*
X114623368Y-90958476D01*
X114797760Y-91075001D01*
X114623368Y-91191526D01*
X114416525Y-91398369D01*
X114254010Y-91641590D01*
X114142068Y-91911843D01*
X114085000Y-92198741D01*
X114085000Y-92491261D01*
X114142068Y-92778159D01*
X114254010Y-93048412D01*
X114416525Y-93291633D01*
X114623368Y-93498476D01*
X114805534Y-93620196D01*
X114688645Y-93689823D01*
X114472412Y-93884732D01*
X114298359Y-94118081D01*
X114173175Y-94380902D01*
X114128524Y-94528111D01*
X114249845Y-94758001D01*
X115443000Y-94758001D01*
X115443000Y-94738001D01*
X115697000Y-94738001D01*
X115697000Y-94758001D01*
X117983000Y-94758001D01*
X117983000Y-94738001D01*
X118237000Y-94738001D01*
X118237000Y-94758001D01*
X119430155Y-94758001D01*
X119551476Y-94528111D01*
X119506825Y-94380902D01*
X119381641Y-94118081D01*
X119207588Y-93884732D01*
X118991355Y-93689823D01*
X118874466Y-93620196D01*
X119056632Y-93498476D01*
X119263475Y-93291633D01*
X119425990Y-93048412D01*
X119537932Y-92778159D01*
X119595000Y-92491261D01*
X119595000Y-92198741D01*
X119537932Y-91911843D01*
X119425990Y-91641590D01*
X119263475Y-91398369D01*
X119056632Y-91191526D01*
X118882240Y-91075001D01*
X119056632Y-90958476D01*
X119263475Y-90751633D01*
X119425990Y-90508412D01*
X119537932Y-90238159D01*
X119595000Y-89951261D01*
X119595000Y-89658741D01*
X119537932Y-89371843D01*
X119425990Y-89101590D01*
X119263475Y-88858369D01*
X119056632Y-88651526D01*
X118882240Y-88535001D01*
X119056632Y-88418476D01*
X119263475Y-88211633D01*
X119425990Y-87968412D01*
X119537932Y-87698159D01*
X119595000Y-87411261D01*
X119595000Y-87118741D01*
X119537932Y-86831843D01*
X119425990Y-86561590D01*
X119263475Y-86318369D01*
X119131620Y-86186514D01*
X119204180Y-86164503D01*
X119314494Y-86105538D01*
X119411185Y-86026186D01*
X119490537Y-85929495D01*
X119549502Y-85819181D01*
X119585812Y-85699483D01*
X119598072Y-85575001D01*
X119598072Y-84578741D01*
X139485000Y-84578741D01*
X139485000Y-84871261D01*
X139542068Y-85158159D01*
X139654010Y-85428412D01*
X139816525Y-85671633D01*
X140023368Y-85878476D01*
X140197760Y-85995001D01*
X140023368Y-86111526D01*
X139816525Y-86318369D01*
X139654010Y-86561590D01*
X139542068Y-86831843D01*
X139485000Y-87118741D01*
X139485000Y-87411261D01*
X139542068Y-87698159D01*
X139654010Y-87968412D01*
X139816525Y-88211633D01*
X140023368Y-88418476D01*
X140197760Y-88535001D01*
X140023368Y-88651526D01*
X139816525Y-88858369D01*
X139654010Y-89101590D01*
X139542068Y-89371843D01*
X139485000Y-89658741D01*
X139485000Y-89951261D01*
X139542068Y-90238159D01*
X139654010Y-90508412D01*
X139816525Y-90751633D01*
X140023368Y-90958476D01*
X140197760Y-91075001D01*
X140023368Y-91191526D01*
X139816525Y-91398369D01*
X139654010Y-91641590D01*
X139542068Y-91911843D01*
X139485000Y-92198741D01*
X139485000Y-92491261D01*
X139542068Y-92778159D01*
X139654010Y-93048412D01*
X139816525Y-93291633D01*
X140023368Y-93498476D01*
X140205534Y-93620196D01*
X140088645Y-93689823D01*
X139872412Y-93884732D01*
X139698359Y-94118081D01*
X139573175Y-94380902D01*
X139528524Y-94528111D01*
X139649845Y-94758001D01*
X140843000Y-94758001D01*
X140843000Y-94738001D01*
X141097000Y-94738001D01*
X141097000Y-94758001D01*
X143383000Y-94758001D01*
X143383000Y-94738001D01*
X143637000Y-94738001D01*
X143637000Y-94758001D01*
X144830155Y-94758001D01*
X144951476Y-94528111D01*
X144906825Y-94380902D01*
X144781641Y-94118081D01*
X144607588Y-93884732D01*
X144391355Y-93689823D01*
X144274466Y-93620196D01*
X144456632Y-93498476D01*
X144663475Y-93291633D01*
X144825990Y-93048412D01*
X144937932Y-92778159D01*
X144995000Y-92491261D01*
X144995000Y-92198741D01*
X144937932Y-91911843D01*
X144825990Y-91641590D01*
X144663475Y-91398369D01*
X144456632Y-91191526D01*
X144282240Y-91075001D01*
X144456632Y-90958476D01*
X144663475Y-90751633D01*
X144825990Y-90508412D01*
X144937932Y-90238159D01*
X144995000Y-89951261D01*
X144995000Y-89658741D01*
X144937932Y-89371843D01*
X144825990Y-89101590D01*
X144663475Y-88858369D01*
X144456632Y-88651526D01*
X144282240Y-88535001D01*
X144456632Y-88418476D01*
X144663475Y-88211633D01*
X144825990Y-87968412D01*
X144937932Y-87698159D01*
X144995000Y-87411261D01*
X144995000Y-87118741D01*
X144937932Y-86831843D01*
X144825990Y-86561590D01*
X144663475Y-86318369D01*
X144531620Y-86186514D01*
X144604180Y-86164503D01*
X144714494Y-86105538D01*
X144811185Y-86026186D01*
X144890537Y-85929495D01*
X144949502Y-85819181D01*
X144985812Y-85699483D01*
X144998072Y-85575001D01*
X144998072Y-84578741D01*
X164885000Y-84578741D01*
X164885000Y-84871261D01*
X164942068Y-85158159D01*
X165054010Y-85428412D01*
X165216525Y-85671633D01*
X165423368Y-85878476D01*
X165597760Y-85995001D01*
X165423368Y-86111526D01*
X165216525Y-86318369D01*
X165054010Y-86561590D01*
X164942068Y-86831843D01*
X164885000Y-87118741D01*
X164885000Y-87411261D01*
X164942068Y-87698159D01*
X165054010Y-87968412D01*
X165216525Y-88211633D01*
X165423368Y-88418476D01*
X165597760Y-88535001D01*
X165423368Y-88651526D01*
X165216525Y-88858369D01*
X165054010Y-89101590D01*
X164942068Y-89371843D01*
X164885000Y-89658741D01*
X164885000Y-89951261D01*
X164942068Y-90238159D01*
X165054010Y-90508412D01*
X165216525Y-90751633D01*
X165423368Y-90958476D01*
X165597760Y-91075001D01*
X165423368Y-91191526D01*
X165216525Y-91398369D01*
X165054010Y-91641590D01*
X164942068Y-91911843D01*
X164885000Y-92198741D01*
X164885000Y-92491261D01*
X164942068Y-92778159D01*
X165054010Y-93048412D01*
X165216525Y-93291633D01*
X165423368Y-93498476D01*
X165605534Y-93620196D01*
X165488645Y-93689823D01*
X165272412Y-93884732D01*
X165098359Y-94118081D01*
X164973175Y-94380902D01*
X164928524Y-94528111D01*
X165049845Y-94758001D01*
X166243000Y-94758001D01*
X166243000Y-94738001D01*
X166497000Y-94738001D01*
X166497000Y-94758001D01*
X168783000Y-94758001D01*
X168783000Y-94738001D01*
X169037000Y-94738001D01*
X169037000Y-94758001D01*
X170230155Y-94758001D01*
X170351476Y-94528111D01*
X170306825Y-94380902D01*
X170181641Y-94118081D01*
X170007588Y-93884732D01*
X169791355Y-93689823D01*
X169674466Y-93620196D01*
X169856632Y-93498476D01*
X170063475Y-93291633D01*
X170225990Y-93048412D01*
X170337932Y-92778159D01*
X170395000Y-92491261D01*
X170395000Y-92198741D01*
X170337932Y-91911843D01*
X170225990Y-91641590D01*
X170063475Y-91398369D01*
X169856632Y-91191526D01*
X169682240Y-91075001D01*
X169856632Y-90958476D01*
X170063475Y-90751633D01*
X170225990Y-90508412D01*
X170337932Y-90238159D01*
X170395000Y-89951261D01*
X170395000Y-89658741D01*
X170337932Y-89371843D01*
X170225990Y-89101590D01*
X170063475Y-88858369D01*
X169856632Y-88651526D01*
X169682240Y-88535001D01*
X169856632Y-88418476D01*
X170063475Y-88211633D01*
X170225990Y-87968412D01*
X170337932Y-87698159D01*
X170395000Y-87411261D01*
X170395000Y-87118741D01*
X170337932Y-86831843D01*
X170225990Y-86561590D01*
X170063475Y-86318369D01*
X169931620Y-86186514D01*
X170004180Y-86164503D01*
X170114494Y-86105538D01*
X170211185Y-86026186D01*
X170290537Y-85929495D01*
X170349502Y-85819181D01*
X170385812Y-85699483D01*
X170398072Y-85575001D01*
X170398072Y-83875001D01*
X190281928Y-83875001D01*
X190281928Y-85575001D01*
X190294188Y-85699483D01*
X190330498Y-85819181D01*
X190389463Y-85929495D01*
X190468815Y-86026186D01*
X190565506Y-86105538D01*
X190675820Y-86164503D01*
X190748380Y-86186514D01*
X190616525Y-86318369D01*
X190454010Y-86561590D01*
X190342068Y-86831843D01*
X190285000Y-87118741D01*
X190285000Y-87411261D01*
X190342068Y-87698159D01*
X190454010Y-87968412D01*
X190616525Y-88211633D01*
X190823368Y-88418476D01*
X190997760Y-88535001D01*
X190823368Y-88651526D01*
X190616525Y-88858369D01*
X190454010Y-89101590D01*
X190342068Y-89371843D01*
X190285000Y-89658741D01*
X190285000Y-89951261D01*
X190342068Y-90238159D01*
X190454010Y-90508412D01*
X190616525Y-90751633D01*
X190823368Y-90958476D01*
X190997760Y-91075001D01*
X190823368Y-91191526D01*
X190616525Y-91398369D01*
X190454010Y-91641590D01*
X190342068Y-91911843D01*
X190285000Y-92198741D01*
X190285000Y-92491261D01*
X190342068Y-92778159D01*
X190454010Y-93048412D01*
X190616525Y-93291633D01*
X190823368Y-93498476D01*
X191005534Y-93620196D01*
X190888645Y-93689823D01*
X190672412Y-93884732D01*
X190498359Y-94118081D01*
X190373175Y-94380902D01*
X190328524Y-94528111D01*
X190449845Y-94758001D01*
X191643000Y-94758001D01*
X191643000Y-94738001D01*
X191897000Y-94738001D01*
X191897000Y-94758001D01*
X194183000Y-94758001D01*
X194183000Y-94738001D01*
X194437000Y-94738001D01*
X194437000Y-94758001D01*
X195630155Y-94758001D01*
X195751476Y-94528111D01*
X195706825Y-94380902D01*
X195581641Y-94118081D01*
X195407588Y-93884732D01*
X195191355Y-93689823D01*
X195074466Y-93620196D01*
X195256632Y-93498476D01*
X195463475Y-93291633D01*
X195625990Y-93048412D01*
X195737932Y-92778159D01*
X195795000Y-92491261D01*
X195795000Y-92198741D01*
X195737932Y-91911843D01*
X195625990Y-91641590D01*
X195463475Y-91398369D01*
X195256632Y-91191526D01*
X195082240Y-91075001D01*
X195256632Y-90958476D01*
X195463475Y-90751633D01*
X195625990Y-90508412D01*
X195737932Y-90238159D01*
X195795000Y-89951261D01*
X195795000Y-89658741D01*
X195737932Y-89371843D01*
X195625990Y-89101590D01*
X195463475Y-88858369D01*
X195256632Y-88651526D01*
X195082240Y-88535001D01*
X195256632Y-88418476D01*
X195463475Y-88211633D01*
X195625990Y-87968412D01*
X195737932Y-87698159D01*
X195795000Y-87411261D01*
X195795000Y-87118741D01*
X195737932Y-86831843D01*
X195625990Y-86561590D01*
X195463475Y-86318369D01*
X195256632Y-86111526D01*
X195082240Y-85995001D01*
X195256632Y-85878476D01*
X195463475Y-85671633D01*
X195625990Y-85428412D01*
X195737932Y-85158159D01*
X195795000Y-84871261D01*
X195795000Y-84578741D01*
X215685000Y-84578741D01*
X215685000Y-84871261D01*
X215742068Y-85158159D01*
X215854010Y-85428412D01*
X216016525Y-85671633D01*
X216223368Y-85878476D01*
X216397760Y-85995001D01*
X216223368Y-86111526D01*
X216016525Y-86318369D01*
X215854010Y-86561590D01*
X215742068Y-86831843D01*
X215685000Y-87118741D01*
X215685000Y-87411261D01*
X215742068Y-87698159D01*
X215854010Y-87968412D01*
X216016525Y-88211633D01*
X216223368Y-88418476D01*
X216397760Y-88535001D01*
X216223368Y-88651526D01*
X216016525Y-88858369D01*
X215854010Y-89101590D01*
X215742068Y-89371843D01*
X215685000Y-89658741D01*
X215685000Y-89951261D01*
X215742068Y-90238159D01*
X215854010Y-90508412D01*
X216016525Y-90751633D01*
X216223368Y-90958476D01*
X216397760Y-91075001D01*
X216223368Y-91191526D01*
X216016525Y-91398369D01*
X215854010Y-91641590D01*
X215742068Y-91911843D01*
X215685000Y-92198741D01*
X215685000Y-92491261D01*
X215742068Y-92778159D01*
X215854010Y-93048412D01*
X216016525Y-93291633D01*
X216223368Y-93498476D01*
X216405534Y-93620196D01*
X216288645Y-93689823D01*
X216072412Y-93884732D01*
X215898359Y-94118081D01*
X215773175Y-94380902D01*
X215728524Y-94528111D01*
X215849845Y-94758001D01*
X217043000Y-94758001D01*
X217043000Y-94738001D01*
X217297000Y-94738001D01*
X217297000Y-94758001D01*
X219583000Y-94758001D01*
X219583000Y-94738001D01*
X219837000Y-94738001D01*
X219837000Y-94758001D01*
X221030155Y-94758001D01*
X221151476Y-94528111D01*
X221106825Y-94380902D01*
X220981641Y-94118081D01*
X220807588Y-93884732D01*
X220591355Y-93689823D01*
X220474466Y-93620196D01*
X220656632Y-93498476D01*
X220863475Y-93291633D01*
X221025990Y-93048412D01*
X221137932Y-92778159D01*
X221195000Y-92491261D01*
X221195000Y-92198741D01*
X221137932Y-91911843D01*
X221025990Y-91641590D01*
X220863475Y-91398369D01*
X220656632Y-91191526D01*
X220482240Y-91075001D01*
X220656632Y-90958476D01*
X220863475Y-90751633D01*
X221025990Y-90508412D01*
X221137932Y-90238159D01*
X221195000Y-89951261D01*
X221195000Y-89658741D01*
X221137932Y-89371843D01*
X221025990Y-89101590D01*
X220863475Y-88858369D01*
X220656632Y-88651526D01*
X220482240Y-88535001D01*
X220656632Y-88418476D01*
X220863475Y-88211633D01*
X221025990Y-87968412D01*
X221137932Y-87698159D01*
X221195000Y-87411261D01*
X221195000Y-87118741D01*
X221137932Y-86831843D01*
X221025990Y-86561590D01*
X220863475Y-86318369D01*
X220731620Y-86186514D01*
X220804180Y-86164503D01*
X220914494Y-86105538D01*
X221011185Y-86026186D01*
X221090537Y-85929495D01*
X221149502Y-85819181D01*
X221185812Y-85699483D01*
X221198072Y-85575001D01*
X221198072Y-84578741D01*
X241085000Y-84578741D01*
X241085000Y-84871261D01*
X241142068Y-85158159D01*
X241254010Y-85428412D01*
X241416525Y-85671633D01*
X241623368Y-85878476D01*
X241797760Y-85995001D01*
X241623368Y-86111526D01*
X241416525Y-86318369D01*
X241254010Y-86561590D01*
X241142068Y-86831843D01*
X241085000Y-87118741D01*
X241085000Y-87411261D01*
X241142068Y-87698159D01*
X241254010Y-87968412D01*
X241416525Y-88211633D01*
X241623368Y-88418476D01*
X241797760Y-88535001D01*
X241623368Y-88651526D01*
X241416525Y-88858369D01*
X241254010Y-89101590D01*
X241142068Y-89371843D01*
X241085000Y-89658741D01*
X241085000Y-89951261D01*
X241142068Y-90238159D01*
X241254010Y-90508412D01*
X241416525Y-90751633D01*
X241623368Y-90958476D01*
X241797760Y-91075001D01*
X241623368Y-91191526D01*
X241416525Y-91398369D01*
X241254010Y-91641590D01*
X241142068Y-91911843D01*
X241085000Y-92198741D01*
X241085000Y-92491261D01*
X241142068Y-92778159D01*
X241254010Y-93048412D01*
X241416525Y-93291633D01*
X241623368Y-93498476D01*
X241805534Y-93620196D01*
X241688645Y-93689823D01*
X241472412Y-93884732D01*
X241298359Y-94118081D01*
X241173175Y-94380902D01*
X241128524Y-94528111D01*
X241249845Y-94758001D01*
X242443000Y-94758001D01*
X242443000Y-94738001D01*
X242697000Y-94738001D01*
X242697000Y-94758001D01*
X244983000Y-94758001D01*
X244983000Y-94738001D01*
X245237000Y-94738001D01*
X245237000Y-94758001D01*
X246430155Y-94758001D01*
X246551476Y-94528111D01*
X246506825Y-94380902D01*
X246381641Y-94118081D01*
X246207588Y-93884732D01*
X245991355Y-93689823D01*
X245874466Y-93620196D01*
X246056632Y-93498476D01*
X246263475Y-93291633D01*
X246425990Y-93048412D01*
X246537932Y-92778159D01*
X246595000Y-92491261D01*
X246595000Y-92198741D01*
X246537932Y-91911843D01*
X246425990Y-91641590D01*
X246263475Y-91398369D01*
X246056632Y-91191526D01*
X245882240Y-91075001D01*
X246056632Y-90958476D01*
X246263475Y-90751633D01*
X246425990Y-90508412D01*
X246537932Y-90238159D01*
X246595000Y-89951261D01*
X246595000Y-89658741D01*
X246537932Y-89371843D01*
X246425990Y-89101590D01*
X246263475Y-88858369D01*
X246056632Y-88651526D01*
X245882240Y-88535001D01*
X246056632Y-88418476D01*
X246263475Y-88211633D01*
X246425990Y-87968412D01*
X246537932Y-87698159D01*
X246595000Y-87411261D01*
X246595000Y-87118741D01*
X246537932Y-86831843D01*
X246425990Y-86561590D01*
X246263475Y-86318369D01*
X246131620Y-86186514D01*
X246204180Y-86164503D01*
X246314494Y-86105538D01*
X246411185Y-86026186D01*
X246490537Y-85929495D01*
X246549502Y-85819181D01*
X246585812Y-85699483D01*
X246598072Y-85575001D01*
X246598072Y-84578741D01*
X266010001Y-84578741D01*
X266010001Y-84871261D01*
X266067069Y-85158159D01*
X266179011Y-85428412D01*
X266341526Y-85671633D01*
X266548369Y-85878476D01*
X266722761Y-85995001D01*
X266548369Y-86111526D01*
X266341526Y-86318369D01*
X266179011Y-86561590D01*
X266067069Y-86831843D01*
X266010001Y-87118741D01*
X266010001Y-87411261D01*
X266067069Y-87698159D01*
X266179011Y-87968412D01*
X266341526Y-88211633D01*
X266548369Y-88418476D01*
X266722761Y-88535001D01*
X266548369Y-88651526D01*
X266341526Y-88858369D01*
X266179011Y-89101590D01*
X266067069Y-89371843D01*
X266010001Y-89658741D01*
X266010001Y-89951261D01*
X266067069Y-90238159D01*
X266179011Y-90508412D01*
X266341526Y-90751633D01*
X266548369Y-90958476D01*
X266722761Y-91075001D01*
X266548369Y-91191526D01*
X266341526Y-91398369D01*
X266179011Y-91641590D01*
X266067069Y-91911843D01*
X266010001Y-92198741D01*
X266010001Y-92491261D01*
X266067069Y-92778159D01*
X266179011Y-93048412D01*
X266341526Y-93291633D01*
X266548369Y-93498476D01*
X266730535Y-93620196D01*
X266613646Y-93689823D01*
X266397413Y-93884732D01*
X266223360Y-94118081D01*
X266098176Y-94380902D01*
X266053525Y-94528111D01*
X266174846Y-94758001D01*
X267368001Y-94758001D01*
X267368001Y-94738001D01*
X267622001Y-94738001D01*
X267622001Y-94758001D01*
X269908001Y-94758001D01*
X269908001Y-94738001D01*
X270162001Y-94738001D01*
X270162001Y-94758001D01*
X271355156Y-94758001D01*
X271476477Y-94528111D01*
X271431826Y-94380902D01*
X271306642Y-94118081D01*
X271132589Y-93884732D01*
X270916356Y-93689823D01*
X270799467Y-93620196D01*
X270981633Y-93498476D01*
X271188476Y-93291633D01*
X271350991Y-93048412D01*
X271462933Y-92778159D01*
X271520001Y-92491261D01*
X271520001Y-92198741D01*
X271462933Y-91911843D01*
X271350991Y-91641590D01*
X271188476Y-91398369D01*
X270981633Y-91191526D01*
X270807241Y-91075001D01*
X270981633Y-90958476D01*
X271188476Y-90751633D01*
X271350991Y-90508412D01*
X271462933Y-90238159D01*
X271520001Y-89951261D01*
X271520001Y-89658741D01*
X271462933Y-89371843D01*
X271350991Y-89101590D01*
X271188476Y-88858369D01*
X270981633Y-88651526D01*
X270807241Y-88535001D01*
X270981633Y-88418476D01*
X271188476Y-88211633D01*
X271350991Y-87968412D01*
X271462933Y-87698159D01*
X271520001Y-87411261D01*
X271520001Y-87118741D01*
X271462933Y-86831843D01*
X271350991Y-86561590D01*
X271188476Y-86318369D01*
X271056621Y-86186514D01*
X271129181Y-86164503D01*
X271239495Y-86105538D01*
X271336186Y-86026186D01*
X271415538Y-85929495D01*
X271474503Y-85819181D01*
X271510813Y-85699483D01*
X271523073Y-85575001D01*
X271523073Y-84578741D01*
X304585000Y-84578741D01*
X304585000Y-84871261D01*
X304642068Y-85158159D01*
X304754010Y-85428412D01*
X304916525Y-85671633D01*
X305123368Y-85878476D01*
X305297760Y-85995001D01*
X305123368Y-86111526D01*
X304916525Y-86318369D01*
X304754010Y-86561590D01*
X304642068Y-86831843D01*
X304585000Y-87118741D01*
X304585000Y-87411261D01*
X304642068Y-87698159D01*
X304754010Y-87968412D01*
X304916525Y-88211633D01*
X305123368Y-88418476D01*
X305297760Y-88535001D01*
X305123368Y-88651526D01*
X304916525Y-88858369D01*
X304754010Y-89101590D01*
X304642068Y-89371843D01*
X304585000Y-89658741D01*
X304585000Y-89951261D01*
X304642068Y-90238159D01*
X304754010Y-90508412D01*
X304916525Y-90751633D01*
X305123368Y-90958476D01*
X305297760Y-91075001D01*
X305123368Y-91191526D01*
X304916525Y-91398369D01*
X304754010Y-91641590D01*
X304642068Y-91911843D01*
X304585000Y-92198741D01*
X304585000Y-92491261D01*
X304642068Y-92778159D01*
X304754010Y-93048412D01*
X304916525Y-93291633D01*
X305123368Y-93498476D01*
X305305534Y-93620196D01*
X305188645Y-93689823D01*
X304972412Y-93884732D01*
X304798359Y-94118081D01*
X304673175Y-94380902D01*
X304628524Y-94528111D01*
X304749845Y-94758001D01*
X305943000Y-94758001D01*
X305943000Y-94738001D01*
X306197000Y-94738001D01*
X306197000Y-94758001D01*
X308483000Y-94758001D01*
X308483000Y-94738001D01*
X308737000Y-94738001D01*
X308737000Y-94758001D01*
X309930155Y-94758001D01*
X310051476Y-94528111D01*
X310006825Y-94380902D01*
X309881641Y-94118081D01*
X309707588Y-93884732D01*
X309491355Y-93689823D01*
X309374466Y-93620196D01*
X309556632Y-93498476D01*
X309763475Y-93291633D01*
X309925990Y-93048412D01*
X310037932Y-92778159D01*
X310095000Y-92491261D01*
X310095000Y-92198741D01*
X310037932Y-91911843D01*
X309925990Y-91641590D01*
X309763475Y-91398369D01*
X309556632Y-91191526D01*
X309382240Y-91075001D01*
X309556632Y-90958476D01*
X309763475Y-90751633D01*
X309925990Y-90508412D01*
X310037932Y-90238159D01*
X310095000Y-89951261D01*
X310095000Y-89658741D01*
X310037932Y-89371843D01*
X309925990Y-89101590D01*
X309763475Y-88858369D01*
X309556632Y-88651526D01*
X309382240Y-88535001D01*
X309556632Y-88418476D01*
X309763475Y-88211633D01*
X309925990Y-87968412D01*
X310037932Y-87698159D01*
X310095000Y-87411261D01*
X310095000Y-87118741D01*
X310037932Y-86831843D01*
X309925990Y-86561590D01*
X309763475Y-86318369D01*
X309631620Y-86186514D01*
X309704180Y-86164503D01*
X309814494Y-86105538D01*
X309911185Y-86026186D01*
X309990537Y-85929495D01*
X310049502Y-85819181D01*
X310085812Y-85699483D01*
X310098072Y-85575001D01*
X310098072Y-83875001D01*
X310085812Y-83750519D01*
X310049502Y-83630821D01*
X309990537Y-83520507D01*
X309911185Y-83423816D01*
X309814494Y-83344464D01*
X309704180Y-83285499D01*
X309584482Y-83249189D01*
X309460000Y-83236929D01*
X307760000Y-83236929D01*
X307635518Y-83249189D01*
X307515820Y-83285499D01*
X307405506Y-83344464D01*
X307308815Y-83423816D01*
X307229463Y-83520507D01*
X307170498Y-83630821D01*
X307148487Y-83703381D01*
X307016632Y-83571526D01*
X306773411Y-83409011D01*
X306503158Y-83297069D01*
X306216260Y-83240001D01*
X305923740Y-83240001D01*
X305636842Y-83297069D01*
X305366589Y-83409011D01*
X305123368Y-83571526D01*
X304916525Y-83778369D01*
X304754010Y-84021590D01*
X304642068Y-84291843D01*
X304585000Y-84578741D01*
X271523073Y-84578741D01*
X271523073Y-83875001D01*
X271510813Y-83750519D01*
X271474503Y-83630821D01*
X271415538Y-83520507D01*
X271336186Y-83423816D01*
X271239495Y-83344464D01*
X271129181Y-83285499D01*
X271009483Y-83249189D01*
X270885001Y-83236929D01*
X269185001Y-83236929D01*
X269060519Y-83249189D01*
X268940821Y-83285499D01*
X268830507Y-83344464D01*
X268733816Y-83423816D01*
X268654464Y-83520507D01*
X268595499Y-83630821D01*
X268573488Y-83703381D01*
X268441633Y-83571526D01*
X268198412Y-83409011D01*
X267928159Y-83297069D01*
X267641261Y-83240001D01*
X267348741Y-83240001D01*
X267061843Y-83297069D01*
X266791590Y-83409011D01*
X266548369Y-83571526D01*
X266341526Y-83778369D01*
X266179011Y-84021590D01*
X266067069Y-84291843D01*
X266010001Y-84578741D01*
X246598072Y-84578741D01*
X246598072Y-83875001D01*
X246585812Y-83750519D01*
X246549502Y-83630821D01*
X246490537Y-83520507D01*
X246411185Y-83423816D01*
X246314494Y-83344464D01*
X246204180Y-83285499D01*
X246084482Y-83249189D01*
X245960000Y-83236929D01*
X244260000Y-83236929D01*
X244135518Y-83249189D01*
X244015820Y-83285499D01*
X243905506Y-83344464D01*
X243808815Y-83423816D01*
X243729463Y-83520507D01*
X243670498Y-83630821D01*
X243648487Y-83703381D01*
X243516632Y-83571526D01*
X243273411Y-83409011D01*
X243003158Y-83297069D01*
X242716260Y-83240001D01*
X242423740Y-83240001D01*
X242136842Y-83297069D01*
X241866589Y-83409011D01*
X241623368Y-83571526D01*
X241416525Y-83778369D01*
X241254010Y-84021590D01*
X241142068Y-84291843D01*
X241085000Y-84578741D01*
X221198072Y-84578741D01*
X221198072Y-83875001D01*
X221185812Y-83750519D01*
X221149502Y-83630821D01*
X221090537Y-83520507D01*
X221011185Y-83423816D01*
X220914494Y-83344464D01*
X220804180Y-83285499D01*
X220684482Y-83249189D01*
X220560000Y-83236929D01*
X218860000Y-83236929D01*
X218735518Y-83249189D01*
X218615820Y-83285499D01*
X218505506Y-83344464D01*
X218408815Y-83423816D01*
X218329463Y-83520507D01*
X218270498Y-83630821D01*
X218248487Y-83703381D01*
X218116632Y-83571526D01*
X217873411Y-83409011D01*
X217603158Y-83297069D01*
X217316260Y-83240001D01*
X217023740Y-83240001D01*
X216736842Y-83297069D01*
X216466589Y-83409011D01*
X216223368Y-83571526D01*
X216016525Y-83778369D01*
X215854010Y-84021590D01*
X215742068Y-84291843D01*
X215685000Y-84578741D01*
X195795000Y-84578741D01*
X195737932Y-84291843D01*
X195625990Y-84021590D01*
X195463475Y-83778369D01*
X195256632Y-83571526D01*
X195013411Y-83409011D01*
X194743158Y-83297069D01*
X194456260Y-83240001D01*
X194163740Y-83240001D01*
X193876842Y-83297069D01*
X193606589Y-83409011D01*
X193363368Y-83571526D01*
X193231513Y-83703381D01*
X193209502Y-83630821D01*
X193150537Y-83520507D01*
X193071185Y-83423816D01*
X192974494Y-83344464D01*
X192864180Y-83285499D01*
X192744482Y-83249189D01*
X192620000Y-83236929D01*
X190920000Y-83236929D01*
X190795518Y-83249189D01*
X190675820Y-83285499D01*
X190565506Y-83344464D01*
X190468815Y-83423816D01*
X190389463Y-83520507D01*
X190330498Y-83630821D01*
X190294188Y-83750519D01*
X190281928Y-83875001D01*
X170398072Y-83875001D01*
X170385812Y-83750519D01*
X170349502Y-83630821D01*
X170290537Y-83520507D01*
X170211185Y-83423816D01*
X170114494Y-83344464D01*
X170004180Y-83285499D01*
X169884482Y-83249189D01*
X169760000Y-83236929D01*
X168060000Y-83236929D01*
X167935518Y-83249189D01*
X167815820Y-83285499D01*
X167705506Y-83344464D01*
X167608815Y-83423816D01*
X167529463Y-83520507D01*
X167470498Y-83630821D01*
X167448487Y-83703381D01*
X167316632Y-83571526D01*
X167073411Y-83409011D01*
X166803158Y-83297069D01*
X166516260Y-83240001D01*
X166223740Y-83240001D01*
X165936842Y-83297069D01*
X165666589Y-83409011D01*
X165423368Y-83571526D01*
X165216525Y-83778369D01*
X165054010Y-84021590D01*
X164942068Y-84291843D01*
X164885000Y-84578741D01*
X144998072Y-84578741D01*
X144998072Y-83875001D01*
X144985812Y-83750519D01*
X144949502Y-83630821D01*
X144890537Y-83520507D01*
X144811185Y-83423816D01*
X144714494Y-83344464D01*
X144604180Y-83285499D01*
X144484482Y-83249189D01*
X144360000Y-83236929D01*
X142660000Y-83236929D01*
X142535518Y-83249189D01*
X142415820Y-83285499D01*
X142305506Y-83344464D01*
X142208815Y-83423816D01*
X142129463Y-83520507D01*
X142070498Y-83630821D01*
X142048487Y-83703381D01*
X141916632Y-83571526D01*
X141673411Y-83409011D01*
X141403158Y-83297069D01*
X141116260Y-83240001D01*
X140823740Y-83240001D01*
X140536842Y-83297069D01*
X140266589Y-83409011D01*
X140023368Y-83571526D01*
X139816525Y-83778369D01*
X139654010Y-84021590D01*
X139542068Y-84291843D01*
X139485000Y-84578741D01*
X119598072Y-84578741D01*
X119598072Y-83875001D01*
X119585812Y-83750519D01*
X119549502Y-83630821D01*
X119490537Y-83520507D01*
X119411185Y-83423816D01*
X119314494Y-83344464D01*
X119204180Y-83285499D01*
X119084482Y-83249189D01*
X118960000Y-83236929D01*
X117260000Y-83236929D01*
X117135518Y-83249189D01*
X117015820Y-83285499D01*
X116905506Y-83344464D01*
X116808815Y-83423816D01*
X116729463Y-83520507D01*
X116670498Y-83630821D01*
X116648487Y-83703381D01*
X116516632Y-83571526D01*
X116273411Y-83409011D01*
X116003158Y-83297069D01*
X115716260Y-83240001D01*
X115423740Y-83240001D01*
X115136842Y-83297069D01*
X114866589Y-83409011D01*
X114623368Y-83571526D01*
X114416525Y-83778369D01*
X114254010Y-84021590D01*
X114142068Y-84291843D01*
X114085000Y-84578741D01*
X11557000Y-84578741D01*
X11557000Y-80366890D01*
X65868524Y-80366890D01*
X65913175Y-80514099D01*
X66038359Y-80776920D01*
X66212412Y-81010269D01*
X66428645Y-81205178D01*
X66678748Y-81354157D01*
X66953109Y-81451481D01*
X67183000Y-81330814D01*
X67183000Y-80137000D01*
X67437000Y-80137000D01*
X67437000Y-81330814D01*
X67666891Y-81451481D01*
X67941252Y-81354157D01*
X68191355Y-81205178D01*
X68407588Y-81010269D01*
X68581641Y-80776920D01*
X68706825Y-80514099D01*
X68751476Y-80366890D01*
X68630155Y-80137000D01*
X67437000Y-80137000D01*
X67183000Y-80137000D01*
X65989845Y-80137000D01*
X65868524Y-80366890D01*
X11557000Y-80366890D01*
X11557000Y-78580928D01*
X13038678Y-78580928D01*
X13344860Y-79024502D01*
X13932307Y-79339954D01*
X14570009Y-79534739D01*
X15233458Y-79601372D01*
X15897159Y-79537292D01*
X16535605Y-79344961D01*
X17124262Y-79031771D01*
X17135140Y-79024502D01*
X17441322Y-78580928D01*
X15240000Y-76379605D01*
X13038678Y-78580928D01*
X11557000Y-78580928D01*
X11557000Y-76193458D01*
X11838628Y-76193458D01*
X11902708Y-76857159D01*
X12095039Y-77495605D01*
X12408229Y-78084262D01*
X12415498Y-78095140D01*
X12859072Y-78401322D01*
X15060395Y-76200000D01*
X15419605Y-76200000D01*
X17620928Y-78401322D01*
X18064502Y-78095140D01*
X18379954Y-77507693D01*
X18574739Y-76869991D01*
X18599846Y-76620000D01*
X65821928Y-76620000D01*
X65821928Y-78320000D01*
X65834188Y-78444482D01*
X65870498Y-78564180D01*
X65929463Y-78674494D01*
X66008815Y-78771185D01*
X66105506Y-78850537D01*
X66215820Y-78909502D01*
X66296466Y-78933966D01*
X66212412Y-79009731D01*
X66038359Y-79243080D01*
X65913175Y-79505901D01*
X65868524Y-79653110D01*
X65989845Y-79883000D01*
X67183000Y-79883000D01*
X67183000Y-79863000D01*
X67437000Y-79863000D01*
X67437000Y-79883000D01*
X68630155Y-79883000D01*
X68751476Y-79653110D01*
X68706825Y-79505901D01*
X68581641Y-79243080D01*
X68407588Y-79009731D01*
X68323534Y-78933966D01*
X68404180Y-78909502D01*
X68514494Y-78850537D01*
X68611185Y-78771185D01*
X68690537Y-78674494D01*
X68740549Y-78580928D01*
X86698678Y-78580928D01*
X87004860Y-79024502D01*
X87592307Y-79339954D01*
X88230009Y-79534739D01*
X88893458Y-79601372D01*
X89557159Y-79537292D01*
X90195605Y-79344961D01*
X90784262Y-79031771D01*
X90795140Y-79024502D01*
X91101322Y-78580928D01*
X165438678Y-78580928D01*
X165744860Y-79024502D01*
X166332307Y-79339954D01*
X166970009Y-79534739D01*
X167633458Y-79601372D01*
X168297159Y-79537292D01*
X168935605Y-79344961D01*
X169524262Y-79031771D01*
X169535140Y-79024502D01*
X169841322Y-78580928D01*
X228938678Y-78580928D01*
X229244860Y-79024502D01*
X229832307Y-79339954D01*
X230470009Y-79534739D01*
X231133458Y-79601372D01*
X231797159Y-79537292D01*
X232435605Y-79344961D01*
X233024262Y-79031771D01*
X233035140Y-79024502D01*
X233341322Y-78580928D01*
X305138678Y-78580928D01*
X305444860Y-79024502D01*
X306032307Y-79339954D01*
X306670009Y-79534739D01*
X307333458Y-79601372D01*
X307997159Y-79537292D01*
X308635605Y-79344961D01*
X309224262Y-79031771D01*
X309235140Y-79024502D01*
X309541322Y-78580928D01*
X307340000Y-76379605D01*
X305138678Y-78580928D01*
X233341322Y-78580928D01*
X231140000Y-76379605D01*
X228938678Y-78580928D01*
X169841322Y-78580928D01*
X167640000Y-76379605D01*
X165438678Y-78580928D01*
X91101322Y-78580928D01*
X88900000Y-76379605D01*
X86698678Y-78580928D01*
X68740549Y-78580928D01*
X68749502Y-78564180D01*
X68785812Y-78444482D01*
X68798072Y-78320000D01*
X68798072Y-76620000D01*
X68785812Y-76495518D01*
X68749502Y-76375820D01*
X68690537Y-76265506D01*
X68631409Y-76193458D01*
X85498628Y-76193458D01*
X85562708Y-76857159D01*
X85755039Y-77495605D01*
X86068229Y-78084262D01*
X86075498Y-78095140D01*
X86519072Y-78401322D01*
X88720395Y-76200000D01*
X89079605Y-76200000D01*
X91280928Y-78401322D01*
X91724502Y-78095140D01*
X92039954Y-77507693D01*
X92234739Y-76869991D01*
X92301372Y-76206542D01*
X92300109Y-76193458D01*
X164238628Y-76193458D01*
X164302708Y-76857159D01*
X164495039Y-77495605D01*
X164808229Y-78084262D01*
X164815498Y-78095140D01*
X165259072Y-78401322D01*
X167460395Y-76200000D01*
X167819605Y-76200000D01*
X170020928Y-78401322D01*
X170464502Y-78095140D01*
X170779954Y-77507693D01*
X170974739Y-76869991D01*
X171041372Y-76206542D01*
X171040109Y-76193458D01*
X227738628Y-76193458D01*
X227802708Y-76857159D01*
X227995039Y-77495605D01*
X228308229Y-78084262D01*
X228315498Y-78095140D01*
X228759072Y-78401322D01*
X230960395Y-76200000D01*
X231319605Y-76200000D01*
X233520928Y-78401322D01*
X233964502Y-78095140D01*
X234279954Y-77507693D01*
X234474739Y-76869991D01*
X234541372Y-76206542D01*
X234540109Y-76193458D01*
X303938628Y-76193458D01*
X304002708Y-76857159D01*
X304195039Y-77495605D01*
X304508229Y-78084262D01*
X304515498Y-78095140D01*
X304959072Y-78401322D01*
X307160395Y-76200000D01*
X307519605Y-76200000D01*
X309720928Y-78401322D01*
X310164502Y-78095140D01*
X310479954Y-77507693D01*
X310674739Y-76869991D01*
X310741372Y-76206542D01*
X310677292Y-75542841D01*
X310484961Y-74904395D01*
X310171771Y-74315738D01*
X310164502Y-74304860D01*
X309720928Y-73998678D01*
X307519605Y-76200000D01*
X307160395Y-76200000D01*
X304959072Y-73998678D01*
X304515498Y-74304860D01*
X304200046Y-74892307D01*
X304005261Y-75530009D01*
X303938628Y-76193458D01*
X234540109Y-76193458D01*
X234477292Y-75542841D01*
X234284961Y-74904395D01*
X233971771Y-74315738D01*
X233964502Y-74304860D01*
X233520928Y-73998678D01*
X231319605Y-76200000D01*
X230960395Y-76200000D01*
X228759072Y-73998678D01*
X228315498Y-74304860D01*
X228000046Y-74892307D01*
X227805261Y-75530009D01*
X227738628Y-76193458D01*
X171040109Y-76193458D01*
X170977292Y-75542841D01*
X170784961Y-74904395D01*
X170471771Y-74315738D01*
X170464502Y-74304860D01*
X170020928Y-73998678D01*
X167819605Y-76200000D01*
X167460395Y-76200000D01*
X165259072Y-73998678D01*
X164815498Y-74304860D01*
X164500046Y-74892307D01*
X164305261Y-75530009D01*
X164238628Y-76193458D01*
X92300109Y-76193458D01*
X92237292Y-75542841D01*
X92044961Y-74904395D01*
X91731771Y-74315738D01*
X91724502Y-74304860D01*
X91280928Y-73998678D01*
X89079605Y-76200000D01*
X88720395Y-76200000D01*
X86519072Y-73998678D01*
X86075498Y-74304860D01*
X85760046Y-74892307D01*
X85565261Y-75530009D01*
X85498628Y-76193458D01*
X68631409Y-76193458D01*
X68611185Y-76168815D01*
X68514494Y-76089463D01*
X68404180Y-76030498D01*
X68284482Y-75994188D01*
X68160000Y-75981928D01*
X66460000Y-75981928D01*
X66335518Y-75994188D01*
X66215820Y-76030498D01*
X66105506Y-76089463D01*
X66008815Y-76168815D01*
X65929463Y-76265506D01*
X65870498Y-76375820D01*
X65834188Y-76495518D01*
X65821928Y-76620000D01*
X18599846Y-76620000D01*
X18641372Y-76206542D01*
X18577292Y-75542841D01*
X18384961Y-74904395D01*
X18071771Y-74315738D01*
X18064502Y-74304860D01*
X17620928Y-73998678D01*
X15419605Y-76200000D01*
X15060395Y-76200000D01*
X12859072Y-73998678D01*
X12415498Y-74304860D01*
X12100046Y-74892307D01*
X11905261Y-75530009D01*
X11838628Y-76193458D01*
X11557000Y-76193458D01*
X11557000Y-73819072D01*
X13038678Y-73819072D01*
X15240000Y-76020395D01*
X17441322Y-73819072D01*
X86698678Y-73819072D01*
X88900000Y-76020395D01*
X91101322Y-73819072D01*
X165438678Y-73819072D01*
X167640000Y-76020395D01*
X169841322Y-73819072D01*
X228938678Y-73819072D01*
X231140000Y-76020395D01*
X233341322Y-73819072D01*
X305138678Y-73819072D01*
X307340000Y-76020395D01*
X309541322Y-73819072D01*
X309235140Y-73375498D01*
X308647693Y-73060046D01*
X308009991Y-72865261D01*
X307346542Y-72798628D01*
X306682841Y-72862708D01*
X306044395Y-73055039D01*
X305455738Y-73368229D01*
X305444860Y-73375498D01*
X305138678Y-73819072D01*
X233341322Y-73819072D01*
X233035140Y-73375498D01*
X232447693Y-73060046D01*
X231809991Y-72865261D01*
X231146542Y-72798628D01*
X230482841Y-72862708D01*
X229844395Y-73055039D01*
X229255738Y-73368229D01*
X229244860Y-73375498D01*
X228938678Y-73819072D01*
X169841322Y-73819072D01*
X169535140Y-73375498D01*
X168947693Y-73060046D01*
X168309991Y-72865261D01*
X167646542Y-72798628D01*
X166982841Y-72862708D01*
X166344395Y-73055039D01*
X165755738Y-73368229D01*
X165744860Y-73375498D01*
X165438678Y-73819072D01*
X91101322Y-73819072D01*
X90795140Y-73375498D01*
X90207693Y-73060046D01*
X89569991Y-72865261D01*
X88906542Y-72798628D01*
X88242841Y-72862708D01*
X87604395Y-73055039D01*
X87015738Y-73368229D01*
X87004860Y-73375498D01*
X86698678Y-73819072D01*
X17441322Y-73819072D01*
X17135140Y-73375498D01*
X16547693Y-73060046D01*
X15909991Y-72865261D01*
X15246542Y-72798628D01*
X14582841Y-72862708D01*
X13944395Y-73055039D01*
X13355738Y-73368229D01*
X13344860Y-73375498D01*
X13038678Y-73819072D01*
X11557000Y-73819072D01*
X11557000Y-72517000D01*
X313563000Y-72517000D01*
X313563000Y-120523000D01*
G37*
X313563000Y-120523000D02*
X11557000Y-120523000D01*
X11557000Y-119220928D01*
X13038678Y-119220928D01*
X13344860Y-119664502D01*
X13932307Y-119979954D01*
X14570009Y-120174739D01*
X15233458Y-120241372D01*
X15897159Y-120177292D01*
X16535605Y-119984961D01*
X17124262Y-119671771D01*
X17135140Y-119664502D01*
X17441322Y-119220928D01*
X86698678Y-119220928D01*
X87004860Y-119664502D01*
X87592307Y-119979954D01*
X88230009Y-120174739D01*
X88893458Y-120241372D01*
X89557159Y-120177292D01*
X90195605Y-119984961D01*
X90784262Y-119671771D01*
X90795140Y-119664502D01*
X91101322Y-119220928D01*
X165438678Y-119220928D01*
X165744860Y-119664502D01*
X166332307Y-119979954D01*
X166970009Y-120174739D01*
X167633458Y-120241372D01*
X168297159Y-120177292D01*
X168935605Y-119984961D01*
X169524262Y-119671771D01*
X169535140Y-119664502D01*
X169841322Y-119220928D01*
X228938678Y-119220928D01*
X229244860Y-119664502D01*
X229832307Y-119979954D01*
X230470009Y-120174739D01*
X231133458Y-120241372D01*
X231797159Y-120177292D01*
X232435605Y-119984961D01*
X233024262Y-119671771D01*
X233035140Y-119664502D01*
X233341322Y-119220928D01*
X305138678Y-119220928D01*
X305444860Y-119664502D01*
X306032307Y-119979954D01*
X306670009Y-120174739D01*
X307333458Y-120241372D01*
X307997159Y-120177292D01*
X308635605Y-119984961D01*
X309224262Y-119671771D01*
X309235140Y-119664502D01*
X309541322Y-119220928D01*
X307340000Y-117019605D01*
X305138678Y-119220928D01*
X233341322Y-119220928D01*
X231140000Y-117019605D01*
X228938678Y-119220928D01*
X169841322Y-119220928D01*
X167640000Y-117019605D01*
X165438678Y-119220928D01*
X91101322Y-119220928D01*
X88900000Y-117019605D01*
X86698678Y-119220928D01*
X17441322Y-119220928D01*
X15240000Y-117019605D01*
X13038678Y-119220928D01*
X11557000Y-119220928D01*
X11557000Y-116833458D01*
X11838628Y-116833458D01*
X11902708Y-117497159D01*
X12095039Y-118135605D01*
X12408229Y-118724262D01*
X12415498Y-118735140D01*
X12859072Y-119041322D01*
X15060395Y-116840000D01*
X15419605Y-116840000D01*
X17620928Y-119041322D01*
X18064502Y-118735140D01*
X18379954Y-118147693D01*
X18574739Y-117509991D01*
X18641372Y-116846542D01*
X18640109Y-116833458D01*
X85498628Y-116833458D01*
X85562708Y-117497159D01*
X85755039Y-118135605D01*
X86068229Y-118724262D01*
X86075498Y-118735140D01*
X86519072Y-119041322D01*
X88720395Y-116840000D01*
X89079605Y-116840000D01*
X91280928Y-119041322D01*
X91724502Y-118735140D01*
X92039954Y-118147693D01*
X92234739Y-117509991D01*
X92301372Y-116846542D01*
X92300109Y-116833458D01*
X164238628Y-116833458D01*
X164302708Y-117497159D01*
X164495039Y-118135605D01*
X164808229Y-118724262D01*
X164815498Y-118735140D01*
X165259072Y-119041322D01*
X167460395Y-116840000D01*
X167819605Y-116840000D01*
X170020928Y-119041322D01*
X170464502Y-118735140D01*
X170779954Y-118147693D01*
X170974739Y-117509991D01*
X171041372Y-116846542D01*
X171040109Y-116833458D01*
X227738628Y-116833458D01*
X227802708Y-117497159D01*
X227995039Y-118135605D01*
X228308229Y-118724262D01*
X228315498Y-118735140D01*
X228759072Y-119041322D01*
X230960395Y-116840000D01*
X231319605Y-116840000D01*
X233520928Y-119041322D01*
X233964502Y-118735140D01*
X234279954Y-118147693D01*
X234474739Y-117509991D01*
X234541372Y-116846542D01*
X234540109Y-116833458D01*
X303938628Y-116833458D01*
X304002708Y-117497159D01*
X304195039Y-118135605D01*
X304508229Y-118724262D01*
X304515498Y-118735140D01*
X304959072Y-119041322D01*
X307160395Y-116840000D01*
X307519605Y-116840000D01*
X309720928Y-119041322D01*
X310164502Y-118735140D01*
X310479954Y-118147693D01*
X310674739Y-117509991D01*
X310741372Y-116846542D01*
X310677292Y-116182841D01*
X310484961Y-115544395D01*
X310171771Y-114955738D01*
X310164502Y-114944860D01*
X309720928Y-114638678D01*
X307519605Y-116840000D01*
X307160395Y-116840000D01*
X304959072Y-114638678D01*
X304515498Y-114944860D01*
X304200046Y-115532307D01*
X304005261Y-116170009D01*
X303938628Y-116833458D01*
X234540109Y-116833458D01*
X234477292Y-116182841D01*
X234284961Y-115544395D01*
X233971771Y-114955738D01*
X233964502Y-114944860D01*
X233520928Y-114638678D01*
X231319605Y-116840000D01*
X230960395Y-116840000D01*
X228759072Y-114638678D01*
X228315498Y-114944860D01*
X228000046Y-115532307D01*
X227805261Y-116170009D01*
X227738628Y-116833458D01*
X171040109Y-116833458D01*
X170977292Y-116182841D01*
X170784961Y-115544395D01*
X170471771Y-114955738D01*
X170464502Y-114944860D01*
X170020928Y-114638678D01*
X167819605Y-116840000D01*
X167460395Y-116840000D01*
X165259072Y-114638678D01*
X164815498Y-114944860D01*
X164500046Y-115532307D01*
X164305261Y-116170009D01*
X164238628Y-116833458D01*
X92300109Y-116833458D01*
X92237292Y-116182841D01*
X92044961Y-115544395D01*
X91731771Y-114955738D01*
X91724502Y-114944860D01*
X91280928Y-114638678D01*
X89079605Y-116840000D01*
X88720395Y-116840000D01*
X86519072Y-114638678D01*
X86075498Y-114944860D01*
X85760046Y-115532307D01*
X85565261Y-116170009D01*
X85498628Y-116833458D01*
X18640109Y-116833458D01*
X18577292Y-116182841D01*
X18384961Y-115544395D01*
X18071771Y-114955738D01*
X18064502Y-114944860D01*
X17620928Y-114638678D01*
X15419605Y-116840000D01*
X15060395Y-116840000D01*
X12859072Y-114638678D01*
X12415498Y-114944860D01*
X12100046Y-115532307D01*
X11905261Y-116170009D01*
X11838628Y-116833458D01*
X11557000Y-116833458D01*
X11557000Y-114459072D01*
X13038678Y-114459072D01*
X15240000Y-116660395D01*
X17441322Y-114459072D01*
X86698678Y-114459072D01*
X88900000Y-116660395D01*
X91101322Y-114459072D01*
X165438678Y-114459072D01*
X167640000Y-116660395D01*
X169841322Y-114459072D01*
X228938678Y-114459072D01*
X231140000Y-116660395D01*
X233341322Y-114459072D01*
X305138678Y-114459072D01*
X307340000Y-116660395D01*
X309541322Y-114459072D01*
X309235140Y-114015498D01*
X308647693Y-113700046D01*
X308009991Y-113505261D01*
X307346542Y-113438628D01*
X306682841Y-113502708D01*
X306044395Y-113695039D01*
X305455738Y-114008229D01*
X305444860Y-114015498D01*
X305138678Y-114459072D01*
X233341322Y-114459072D01*
X233035140Y-114015498D01*
X232447693Y-113700046D01*
X231809991Y-113505261D01*
X231146542Y-113438628D01*
X230482841Y-113502708D01*
X229844395Y-113695039D01*
X229255738Y-114008229D01*
X229244860Y-114015498D01*
X228938678Y-114459072D01*
X169841322Y-114459072D01*
X169535140Y-114015498D01*
X168947693Y-113700046D01*
X168309991Y-113505261D01*
X167646542Y-113438628D01*
X166982841Y-113502708D01*
X166344395Y-113695039D01*
X165755738Y-114008229D01*
X165744860Y-114015498D01*
X165438678Y-114459072D01*
X91101322Y-114459072D01*
X90795140Y-114015498D01*
X90207693Y-113700046D01*
X89569991Y-113505261D01*
X88906542Y-113438628D01*
X88242841Y-113502708D01*
X87604395Y-113695039D01*
X87015738Y-114008229D01*
X87004860Y-114015498D01*
X86698678Y-114459072D01*
X17441322Y-114459072D01*
X17135140Y-114015498D01*
X16547693Y-113700046D01*
X15909991Y-113505261D01*
X15246542Y-113438628D01*
X14582841Y-113502708D01*
X13944395Y-113695039D01*
X13355738Y-114008229D01*
X13344860Y-114015498D01*
X13038678Y-114459072D01*
X11557000Y-114459072D01*
X11557000Y-94852490D01*
X26745000Y-94852490D01*
X26745000Y-95647509D01*
X26773722Y-95939127D01*
X26887226Y-96313301D01*
X27071547Y-96658143D01*
X27319602Y-96960398D01*
X27621857Y-97208453D01*
X27966698Y-97392774D01*
X28340872Y-97506278D01*
X28730000Y-97544604D01*
X29119127Y-97506278D01*
X29493301Y-97392774D01*
X29838143Y-97208453D01*
X30140398Y-96960398D01*
X30388453Y-96658143D01*
X30572774Y-96313302D01*
X30686278Y-95939128D01*
X30715000Y-95647510D01*
X30715000Y-94852491D01*
X30715000Y-94852490D01*
X30945000Y-94852490D01*
X30945000Y-95647509D01*
X30973722Y-95939127D01*
X31087226Y-96313301D01*
X31271547Y-96658143D01*
X31519602Y-96960398D01*
X31821857Y-97208453D01*
X32166698Y-97392774D01*
X32540872Y-97506278D01*
X32930000Y-97544604D01*
X33319127Y-97506278D01*
X33693301Y-97392774D01*
X34038143Y-97208453D01*
X34340398Y-96960398D01*
X34588453Y-96658143D01*
X34772774Y-96313302D01*
X34886278Y-95939128D01*
X34915000Y-95647510D01*
X34915000Y-94852491D01*
X34915000Y-94852490D01*
X35145000Y-94852490D01*
X35145000Y-95647509D01*
X35173722Y-95939127D01*
X35287226Y-96313301D01*
X35471547Y-96658143D01*
X35719602Y-96960398D01*
X36021857Y-97208453D01*
X36366698Y-97392774D01*
X36740872Y-97506278D01*
X37130000Y-97544604D01*
X37519127Y-97506278D01*
X37893301Y-97392774D01*
X38238143Y-97208453D01*
X38540398Y-96960398D01*
X38788453Y-96658143D01*
X38972774Y-96313302D01*
X39086278Y-95939128D01*
X39115000Y-95647510D01*
X39115000Y-94852491D01*
X39115000Y-94852490D01*
X39345000Y-94852490D01*
X39345000Y-95647509D01*
X39373722Y-95939127D01*
X39487226Y-96313301D01*
X39671547Y-96658143D01*
X39919602Y-96960398D01*
X40221857Y-97208453D01*
X40566698Y-97392774D01*
X40940872Y-97506278D01*
X41330000Y-97544604D01*
X41719127Y-97506278D01*
X42093301Y-97392774D01*
X42438143Y-97208453D01*
X42740398Y-96960398D01*
X42988453Y-96658143D01*
X43172774Y-96313302D01*
X43286278Y-95939128D01*
X43315000Y-95647510D01*
X43315000Y-94852491D01*
X43315000Y-94852490D01*
X43545000Y-94852490D01*
X43545000Y-95647509D01*
X43573722Y-95939127D01*
X43687226Y-96313301D01*
X43871547Y-96658143D01*
X44119602Y-96960398D01*
X44421857Y-97208453D01*
X44766698Y-97392774D01*
X45140872Y-97506278D01*
X45530000Y-97544604D01*
X45919127Y-97506278D01*
X46293301Y-97392774D01*
X46638143Y-97208453D01*
X46940398Y-96960398D01*
X47188453Y-96658143D01*
X47372774Y-96313302D01*
X47486278Y-95939128D01*
X47515000Y-95647510D01*
X47515000Y-95377000D01*
X47745000Y-95377000D01*
X47745000Y-95677000D01*
X47807918Y-96061814D01*
X47944700Y-96426959D01*
X48150090Y-96758403D01*
X48416195Y-97043409D01*
X48732789Y-97271024D01*
X49087705Y-97432501D01*
X49294677Y-97486677D01*
X49603000Y-97371829D01*
X49603000Y-95377000D01*
X49857000Y-95377000D01*
X49857000Y-97371829D01*
X50165323Y-97486677D01*
X50372295Y-97432501D01*
X50727211Y-97271024D01*
X51043805Y-97043409D01*
X51309910Y-96758403D01*
X51515300Y-96426959D01*
X51652082Y-96061814D01*
X51715000Y-95677000D01*
X51715000Y-95377000D01*
X49857000Y-95377000D01*
X49603000Y-95377000D01*
X47745000Y-95377000D01*
X47515000Y-95377000D01*
X47515000Y-94852491D01*
X47512096Y-94823000D01*
X47745000Y-94823000D01*
X47745000Y-95123000D01*
X49603000Y-95123000D01*
X49603000Y-93128171D01*
X49857000Y-93128171D01*
X49857000Y-95123000D01*
X51715000Y-95123000D01*
X51715000Y-94852490D01*
X51945000Y-94852490D01*
X51945000Y-95647509D01*
X51973722Y-95939127D01*
X52087226Y-96313301D01*
X52271547Y-96658143D01*
X52519602Y-96960398D01*
X52821857Y-97208453D01*
X53166698Y-97392774D01*
X53540872Y-97506278D01*
X53930000Y-97544604D01*
X54319127Y-97506278D01*
X54693301Y-97392774D01*
X55038143Y-97208453D01*
X55340398Y-96960398D01*
X55588453Y-96658143D01*
X55772774Y-96313302D01*
X55886278Y-95939128D01*
X55915000Y-95647510D01*
X55915000Y-95377000D01*
X56145000Y-95377000D01*
X56145000Y-95677000D01*
X56207918Y-96061814D01*
X56344700Y-96426959D01*
X56550090Y-96758403D01*
X56816195Y-97043409D01*
X57132789Y-97271024D01*
X57487705Y-97432501D01*
X57694677Y-97486677D01*
X58003000Y-97371829D01*
X58003000Y-95377000D01*
X58257000Y-95377000D01*
X58257000Y-97371829D01*
X58565323Y-97486677D01*
X58772295Y-97432501D01*
X59127211Y-97271024D01*
X59443805Y-97043409D01*
X59709910Y-96758403D01*
X59915300Y-96426959D01*
X60052082Y-96061814D01*
X60115000Y-95677000D01*
X60115000Y-95377000D01*
X58257000Y-95377000D01*
X58003000Y-95377000D01*
X56145000Y-95377000D01*
X55915000Y-95377000D01*
X55915000Y-94852491D01*
X55912096Y-94823000D01*
X56145000Y-94823000D01*
X56145000Y-95123000D01*
X58003000Y-95123000D01*
X58003000Y-93128171D01*
X58257000Y-93128171D01*
X58257000Y-95123000D01*
X60115000Y-95123000D01*
X60115000Y-94852490D01*
X60345000Y-94852490D01*
X60345000Y-95647509D01*
X60373722Y-95939127D01*
X60487226Y-96313301D01*
X60671547Y-96658143D01*
X60919602Y-96960398D01*
X61221857Y-97208453D01*
X61566698Y-97392774D01*
X61940872Y-97506278D01*
X62330000Y-97544604D01*
X62719127Y-97506278D01*
X63093301Y-97392774D01*
X63438143Y-97208453D01*
X63740398Y-96960398D01*
X63988453Y-96658143D01*
X64172774Y-96313302D01*
X64286278Y-95939128D01*
X64315000Y-95647510D01*
X64315000Y-95377000D01*
X64545000Y-95377000D01*
X64545000Y-95677000D01*
X64607918Y-96061814D01*
X64744700Y-96426959D01*
X64950090Y-96758403D01*
X65216195Y-97043409D01*
X65532789Y-97271024D01*
X65887705Y-97432501D01*
X66094677Y-97486677D01*
X66403000Y-97371829D01*
X66403000Y-95377000D01*
X66657000Y-95377000D01*
X66657000Y-97371829D01*
X66965323Y-97486677D01*
X67172295Y-97432501D01*
X67527211Y-97271024D01*
X67843805Y-97043409D01*
X68109910Y-96758403D01*
X68315300Y-96426959D01*
X68452082Y-96061814D01*
X68515000Y-95677000D01*
X68515000Y-95377000D01*
X66657000Y-95377000D01*
X66403000Y-95377000D01*
X64545000Y-95377000D01*
X64315000Y-95377000D01*
X64315000Y-94852491D01*
X64312096Y-94823000D01*
X64545000Y-94823000D01*
X64545000Y-95123000D01*
X66403000Y-95123000D01*
X66403000Y-93128171D01*
X66657000Y-93128171D01*
X66657000Y-95123000D01*
X68515000Y-95123000D01*
X68515000Y-94852490D01*
X68745000Y-94852490D01*
X68745000Y-95647509D01*
X68773722Y-95939127D01*
X68887226Y-96313301D01*
X69071547Y-96658143D01*
X69319602Y-96960398D01*
X69621857Y-97208453D01*
X69966698Y-97392774D01*
X70340872Y-97506278D01*
X70730000Y-97544604D01*
X71119127Y-97506278D01*
X71493301Y-97392774D01*
X71838143Y-97208453D01*
X72140398Y-96960398D01*
X72388453Y-96658143D01*
X72572774Y-96313302D01*
X72686278Y-95939128D01*
X72715000Y-95647510D01*
X72715000Y-94852491D01*
X72686278Y-94560873D01*
X72572774Y-94186698D01*
X72392807Y-93850001D01*
X72941928Y-93850001D01*
X72941928Y-96649999D01*
X72958992Y-96823253D01*
X73009529Y-96989850D01*
X73091595Y-97143386D01*
X73202039Y-97277961D01*
X73336614Y-97388405D01*
X73490150Y-97470471D01*
X73656747Y-97521008D01*
X73830001Y-97538072D01*
X76029999Y-97538072D01*
X76203253Y-97521008D01*
X76369850Y-97470471D01*
X76523386Y-97388405D01*
X76657961Y-97277961D01*
X76768405Y-97143386D01*
X76850471Y-96989850D01*
X76901008Y-96823253D01*
X76918072Y-96649999D01*
X76918072Y-93850001D01*
X76901008Y-93676747D01*
X76850471Y-93510150D01*
X76768405Y-93356614D01*
X76657961Y-93222039D01*
X76523386Y-93111595D01*
X76369850Y-93029529D01*
X76203253Y-92978992D01*
X76029999Y-92961928D01*
X73830001Y-92961928D01*
X73656747Y-92978992D01*
X73490150Y-93029529D01*
X73336614Y-93111595D01*
X73202039Y-93222039D01*
X73091595Y-93356614D01*
X73009529Y-93510150D01*
X72958992Y-93676747D01*
X72941928Y-93850001D01*
X72392807Y-93850001D01*
X72388453Y-93841857D01*
X72140398Y-93539602D01*
X71838143Y-93291547D01*
X71493302Y-93107226D01*
X71119128Y-92993722D01*
X70730000Y-92955396D01*
X70340873Y-92993722D01*
X69966699Y-93107226D01*
X69621858Y-93291547D01*
X69319603Y-93539602D01*
X69071547Y-93841857D01*
X68887226Y-94186698D01*
X68773722Y-94560872D01*
X68745000Y-94852490D01*
X68515000Y-94852490D01*
X68515000Y-94823000D01*
X68452082Y-94438186D01*
X68315300Y-94073041D01*
X68109910Y-93741597D01*
X67843805Y-93456591D01*
X67527211Y-93228976D01*
X67172295Y-93067499D01*
X66965323Y-93013323D01*
X66657000Y-93128171D01*
X66403000Y-93128171D01*
X66094677Y-93013323D01*
X65887705Y-93067499D01*
X65532789Y-93228976D01*
X65216195Y-93456591D01*
X64950090Y-93741597D01*
X64744700Y-94073041D01*
X64607918Y-94438186D01*
X64545000Y-94823000D01*
X64312096Y-94823000D01*
X64286278Y-94560873D01*
X64172774Y-94186698D01*
X63988453Y-93841857D01*
X63740398Y-93539602D01*
X63438143Y-93291547D01*
X63093302Y-93107226D01*
X62719128Y-92993722D01*
X62330000Y-92955396D01*
X61940873Y-92993722D01*
X61566699Y-93107226D01*
X61221858Y-93291547D01*
X60919603Y-93539602D01*
X60671547Y-93841857D01*
X60487226Y-94186698D01*
X60373722Y-94560872D01*
X60345000Y-94852490D01*
X60115000Y-94852490D01*
X60115000Y-94823000D01*
X60052082Y-94438186D01*
X59915300Y-94073041D01*
X59709910Y-93741597D01*
X59443805Y-93456591D01*
X59127211Y-93228976D01*
X58772295Y-93067499D01*
X58565323Y-93013323D01*
X58257000Y-93128171D01*
X58003000Y-93128171D01*
X57694677Y-93013323D01*
X57487705Y-93067499D01*
X57132789Y-93228976D01*
X56816195Y-93456591D01*
X56550090Y-93741597D01*
X56344700Y-94073041D01*
X56207918Y-94438186D01*
X56145000Y-94823000D01*
X55912096Y-94823000D01*
X55886278Y-94560873D01*
X55772774Y-94186698D01*
X55588453Y-93841857D01*
X55340398Y-93539602D01*
X55038143Y-93291547D01*
X54693302Y-93107226D01*
X54319128Y-92993722D01*
X53930000Y-92955396D01*
X53540873Y-92993722D01*
X53166699Y-93107226D01*
X52821858Y-93291547D01*
X52519603Y-93539602D01*
X52271547Y-93841857D01*
X52087226Y-94186698D01*
X51973722Y-94560872D01*
X51945000Y-94852490D01*
X51715000Y-94852490D01*
X51715000Y-94823000D01*
X51652082Y-94438186D01*
X51515300Y-94073041D01*
X51309910Y-93741597D01*
X51043805Y-93456591D01*
X50727211Y-93228976D01*
X50372295Y-93067499D01*
X50165323Y-93013323D01*
X49857000Y-93128171D01*
X49603000Y-93128171D01*
X49294677Y-93013323D01*
X49087705Y-93067499D01*
X48732789Y-93228976D01*
X48416195Y-93456591D01*
X48150090Y-93741597D01*
X47944700Y-94073041D01*
X47807918Y-94438186D01*
X47745000Y-94823000D01*
X47512096Y-94823000D01*
X47486278Y-94560873D01*
X47372774Y-94186698D01*
X47188453Y-93841857D01*
X46940398Y-93539602D01*
X46638143Y-93291547D01*
X46293302Y-93107226D01*
X45919128Y-92993722D01*
X45530000Y-92955396D01*
X45140873Y-92993722D01*
X44766699Y-93107226D01*
X44421858Y-93291547D01*
X44119603Y-93539602D01*
X43871547Y-93841857D01*
X43687226Y-94186698D01*
X43573722Y-94560872D01*
X43545000Y-94852490D01*
X43315000Y-94852490D01*
X43286278Y-94560873D01*
X43172774Y-94186698D01*
X42988453Y-93841857D01*
X42740398Y-93539602D01*
X42438143Y-93291547D01*
X42093302Y-93107226D01*
X41719128Y-92993722D01*
X41330000Y-92955396D01*
X40940873Y-92993722D01*
X40566699Y-93107226D01*
X40221858Y-93291547D01*
X39919603Y-93539602D01*
X39671547Y-93841857D01*
X39487226Y-94186698D01*
X39373722Y-94560872D01*
X39345000Y-94852490D01*
X39115000Y-94852490D01*
X39086278Y-94560873D01*
X38972774Y-94186698D01*
X38788453Y-93841857D01*
X38540398Y-93539602D01*
X38238143Y-93291547D01*
X37893302Y-93107226D01*
X37519128Y-92993722D01*
X37130000Y-92955396D01*
X36740873Y-92993722D01*
X36366699Y-93107226D01*
X36021858Y-93291547D01*
X35719603Y-93539602D01*
X35471547Y-93841857D01*
X35287226Y-94186698D01*
X35173722Y-94560872D01*
X35145000Y-94852490D01*
X34915000Y-94852490D01*
X34886278Y-94560873D01*
X34772774Y-94186698D01*
X34588453Y-93841857D01*
X34340398Y-93539602D01*
X34038143Y-93291547D01*
X33693302Y-93107226D01*
X33319128Y-92993722D01*
X32930000Y-92955396D01*
X32540873Y-92993722D01*
X32166699Y-93107226D01*
X31821858Y-93291547D01*
X31519603Y-93539602D01*
X31271547Y-93841857D01*
X31087226Y-94186698D01*
X30973722Y-94560872D01*
X30945000Y-94852490D01*
X30715000Y-94852490D01*
X30686278Y-94560873D01*
X30572774Y-94186698D01*
X30388453Y-93841857D01*
X30140398Y-93539602D01*
X29838143Y-93291547D01*
X29493302Y-93107226D01*
X29119128Y-92993722D01*
X28730000Y-92955396D01*
X28340873Y-92993722D01*
X27966699Y-93107226D01*
X27621858Y-93291547D01*
X27319603Y-93539602D01*
X27071547Y-93841857D01*
X26887226Y-94186698D01*
X26773722Y-94560872D01*
X26745000Y-94852490D01*
X11557000Y-94852490D01*
X11557000Y-89999721D01*
X21895000Y-89999721D01*
X21895000Y-90420279D01*
X21977047Y-90832756D01*
X22137988Y-91221302D01*
X22371637Y-91570983D01*
X22669017Y-91868363D01*
X23018698Y-92102012D01*
X23407244Y-92262953D01*
X23819721Y-92345000D01*
X24240279Y-92345000D01*
X24652756Y-92262953D01*
X25041302Y-92102012D01*
X25390983Y-91868363D01*
X25688363Y-91570983D01*
X25922012Y-91221302D01*
X26082953Y-90832756D01*
X26165000Y-90420279D01*
X26165000Y-89999721D01*
X26082953Y-89587244D01*
X25985715Y-89352490D01*
X26745000Y-89352490D01*
X26745000Y-90147509D01*
X26773722Y-90439127D01*
X26887226Y-90813301D01*
X27071547Y-91158143D01*
X27319602Y-91460398D01*
X27621857Y-91708453D01*
X27966698Y-91892774D01*
X28340872Y-92006278D01*
X28730000Y-92044604D01*
X29119127Y-92006278D01*
X29493301Y-91892774D01*
X29838143Y-91708453D01*
X30140398Y-91460398D01*
X30388453Y-91158143D01*
X30572774Y-90813302D01*
X30686278Y-90439128D01*
X30715000Y-90147510D01*
X30715000Y-89352491D01*
X30715000Y-89352490D01*
X30945000Y-89352490D01*
X30945000Y-90147509D01*
X30973722Y-90439127D01*
X31087226Y-90813301D01*
X31271547Y-91158143D01*
X31519602Y-91460398D01*
X31821857Y-91708453D01*
X32166698Y-91892774D01*
X32540872Y-92006278D01*
X32930000Y-92044604D01*
X33319127Y-92006278D01*
X33693301Y-91892774D01*
X34038143Y-91708453D01*
X34340398Y-91460398D01*
X34588453Y-91158143D01*
X34772774Y-90813302D01*
X34886278Y-90439128D01*
X34915000Y-90147510D01*
X34915000Y-89352491D01*
X34915000Y-89352490D01*
X35145000Y-89352490D01*
X35145000Y-90147509D01*
X35173722Y-90439127D01*
X35287226Y-90813301D01*
X35471547Y-91158143D01*
X35719602Y-91460398D01*
X36021857Y-91708453D01*
X36366698Y-91892774D01*
X36740872Y-92006278D01*
X37130000Y-92044604D01*
X37519127Y-92006278D01*
X37893301Y-91892774D01*
X38238143Y-91708453D01*
X38540398Y-91460398D01*
X38788453Y-91158143D01*
X38972774Y-90813302D01*
X39086278Y-90439128D01*
X39115000Y-90147510D01*
X39115000Y-89352491D01*
X39115000Y-89352490D01*
X39345000Y-89352490D01*
X39345000Y-90147509D01*
X39373722Y-90439127D01*
X39487226Y-90813301D01*
X39671547Y-91158143D01*
X39919602Y-91460398D01*
X40221857Y-91708453D01*
X40566698Y-91892774D01*
X40940872Y-92006278D01*
X41330000Y-92044604D01*
X41719127Y-92006278D01*
X42093301Y-91892774D01*
X42438143Y-91708453D01*
X42740398Y-91460398D01*
X42988453Y-91158143D01*
X43172774Y-90813302D01*
X43286278Y-90439128D01*
X43315000Y-90147510D01*
X43315000Y-89352491D01*
X43315000Y-89352490D01*
X43545000Y-89352490D01*
X43545000Y-90147509D01*
X43573722Y-90439127D01*
X43687226Y-90813301D01*
X43871547Y-91158143D01*
X44119602Y-91460398D01*
X44421857Y-91708453D01*
X44766698Y-91892774D01*
X45140872Y-92006278D01*
X45530000Y-92044604D01*
X45919127Y-92006278D01*
X46293301Y-91892774D01*
X46638143Y-91708453D01*
X46940398Y-91460398D01*
X47188453Y-91158143D01*
X47372774Y-90813302D01*
X47486278Y-90439128D01*
X47515000Y-90147510D01*
X47515000Y-89877000D01*
X47745000Y-89877000D01*
X47745000Y-90177000D01*
X47807918Y-90561814D01*
X47944700Y-90926959D01*
X48150090Y-91258403D01*
X48416195Y-91543409D01*
X48732789Y-91771024D01*
X49087705Y-91932501D01*
X49294677Y-91986677D01*
X49603000Y-91871829D01*
X49603000Y-89877000D01*
X49857000Y-89877000D01*
X49857000Y-91871829D01*
X50165323Y-91986677D01*
X50372295Y-91932501D01*
X50727211Y-91771024D01*
X51043805Y-91543409D01*
X51309910Y-91258403D01*
X51515300Y-90926959D01*
X51652082Y-90561814D01*
X51715000Y-90177000D01*
X51715000Y-89877000D01*
X51945000Y-89877000D01*
X51945000Y-90177000D01*
X52007918Y-90561814D01*
X52144700Y-90926959D01*
X52350090Y-91258403D01*
X52616195Y-91543409D01*
X52932789Y-91771024D01*
X53287705Y-91932501D01*
X53494677Y-91986677D01*
X53803000Y-91871829D01*
X53803000Y-89877000D01*
X54057000Y-89877000D01*
X54057000Y-91871829D01*
X54365323Y-91986677D01*
X54572295Y-91932501D01*
X54927211Y-91771024D01*
X55243805Y-91543409D01*
X55509910Y-91258403D01*
X55715300Y-90926959D01*
X55852082Y-90561814D01*
X55915000Y-90177000D01*
X55915000Y-89877000D01*
X56145000Y-89877000D01*
X56145000Y-90177000D01*
X56207918Y-90561814D01*
X56344700Y-90926959D01*
X56550090Y-91258403D01*
X56816195Y-91543409D01*
X57132789Y-91771024D01*
X57487705Y-91932501D01*
X57694677Y-91986677D01*
X58003000Y-91871829D01*
X58003000Y-89877000D01*
X58257000Y-89877000D01*
X58257000Y-91871829D01*
X58565323Y-91986677D01*
X58772295Y-91932501D01*
X59127211Y-91771024D01*
X59443805Y-91543409D01*
X59709910Y-91258403D01*
X59915300Y-90926959D01*
X60052082Y-90561814D01*
X60115000Y-90177000D01*
X60115000Y-89877000D01*
X58257000Y-89877000D01*
X58003000Y-89877000D01*
X56145000Y-89877000D01*
X55915000Y-89877000D01*
X54057000Y-89877000D01*
X53803000Y-89877000D01*
X51945000Y-89877000D01*
X51715000Y-89877000D01*
X49857000Y-89877000D01*
X49603000Y-89877000D01*
X47745000Y-89877000D01*
X47515000Y-89877000D01*
X47515000Y-89352491D01*
X47512096Y-89323000D01*
X47745000Y-89323000D01*
X47745000Y-89623000D01*
X49603000Y-89623000D01*
X49603000Y-87628171D01*
X49857000Y-87628171D01*
X49857000Y-89623000D01*
X51715000Y-89623000D01*
X51715000Y-89323000D01*
X51945000Y-89323000D01*
X51945000Y-89623000D01*
X53803000Y-89623000D01*
X53803000Y-87628171D01*
X54057000Y-87628171D01*
X54057000Y-89623000D01*
X55915000Y-89623000D01*
X55915000Y-89323000D01*
X56145000Y-89323000D01*
X56145000Y-89623000D01*
X58003000Y-89623000D01*
X58003000Y-87628171D01*
X58257000Y-87628171D01*
X58257000Y-89623000D01*
X60115000Y-89623000D01*
X60115000Y-89352490D01*
X60345000Y-89352490D01*
X60345000Y-90147509D01*
X60373722Y-90439127D01*
X60487226Y-90813301D01*
X60671547Y-91158143D01*
X60919602Y-91460398D01*
X61221857Y-91708453D01*
X61566698Y-91892774D01*
X61940872Y-92006278D01*
X62330000Y-92044604D01*
X62719127Y-92006278D01*
X63093301Y-91892774D01*
X63438143Y-91708453D01*
X63740398Y-91460398D01*
X63988453Y-91158143D01*
X64172774Y-90813302D01*
X64286278Y-90439128D01*
X64315000Y-90147510D01*
X64315000Y-89877000D01*
X64545000Y-89877000D01*
X64545000Y-90177000D01*
X64607918Y-90561814D01*
X64744700Y-90926959D01*
X64950090Y-91258403D01*
X65216195Y-91543409D01*
X65532789Y-91771024D01*
X65887705Y-91932501D01*
X66094677Y-91986677D01*
X66403000Y-91871829D01*
X66403000Y-89877000D01*
X66657000Y-89877000D01*
X66657000Y-91871829D01*
X66965323Y-91986677D01*
X67172295Y-91932501D01*
X67527211Y-91771024D01*
X67843805Y-91543409D01*
X68109910Y-91258403D01*
X68315300Y-90926959D01*
X68452082Y-90561814D01*
X68515000Y-90177000D01*
X68515000Y-89877000D01*
X66657000Y-89877000D01*
X66403000Y-89877000D01*
X64545000Y-89877000D01*
X64315000Y-89877000D01*
X64315000Y-89352491D01*
X64312096Y-89323000D01*
X64545000Y-89323000D01*
X64545000Y-89623000D01*
X66403000Y-89623000D01*
X66403000Y-87628171D01*
X66657000Y-87628171D01*
X66657000Y-89623000D01*
X68515000Y-89623000D01*
X68515000Y-89352490D01*
X68745000Y-89352490D01*
X68745000Y-90147509D01*
X68773722Y-90439127D01*
X68887226Y-90813301D01*
X69071547Y-91158143D01*
X69319602Y-91460398D01*
X69621857Y-91708453D01*
X69966698Y-91892774D01*
X70340872Y-92006278D01*
X70730000Y-92044604D01*
X71119127Y-92006278D01*
X71493301Y-91892774D01*
X71838143Y-91708453D01*
X72140398Y-91460398D01*
X72388453Y-91158143D01*
X72572774Y-90813302D01*
X72686278Y-90439128D01*
X72715000Y-90147510D01*
X72715000Y-89352491D01*
X72715000Y-89352490D01*
X72945000Y-89352490D01*
X72945000Y-90147509D01*
X72973722Y-90439127D01*
X73087226Y-90813301D01*
X73271547Y-91158143D01*
X73519602Y-91460398D01*
X73821857Y-91708453D01*
X74166698Y-91892774D01*
X74540872Y-92006278D01*
X74930000Y-92044604D01*
X75319127Y-92006278D01*
X75693301Y-91892774D01*
X76038143Y-91708453D01*
X76340398Y-91460398D01*
X76588453Y-91158143D01*
X76772774Y-90813302D01*
X76886278Y-90439128D01*
X76915000Y-90147510D01*
X76915000Y-89999721D01*
X77495000Y-89999721D01*
X77495000Y-90420279D01*
X77577047Y-90832756D01*
X77737988Y-91221302D01*
X77971637Y-91570983D01*
X78269017Y-91868363D01*
X78618698Y-92102012D01*
X79007244Y-92262953D01*
X79419721Y-92345000D01*
X79840279Y-92345000D01*
X80252756Y-92262953D01*
X80641302Y-92102012D01*
X80990983Y-91868363D01*
X81288363Y-91570983D01*
X81522012Y-91221302D01*
X81682953Y-90832756D01*
X81765000Y-90420279D01*
X81765000Y-89999721D01*
X81682953Y-89587244D01*
X81522012Y-89198698D01*
X81288363Y-88849017D01*
X80990983Y-88551637D01*
X80641302Y-88317988D01*
X80252756Y-88157047D01*
X79840279Y-88075000D01*
X79419721Y-88075000D01*
X79007244Y-88157047D01*
X78618698Y-88317988D01*
X78269017Y-88551637D01*
X77971637Y-88849017D01*
X77737988Y-89198698D01*
X77577047Y-89587244D01*
X77495000Y-89999721D01*
X76915000Y-89999721D01*
X76915000Y-89352491D01*
X76886278Y-89060873D01*
X76772774Y-88686698D01*
X76588453Y-88341857D01*
X76340398Y-88039602D01*
X76038143Y-87791547D01*
X75693302Y-87607226D01*
X75319128Y-87493722D01*
X74930000Y-87455396D01*
X74540873Y-87493722D01*
X74166699Y-87607226D01*
X73821858Y-87791547D01*
X73519603Y-88039602D01*
X73271547Y-88341857D01*
X73087226Y-88686698D01*
X72973722Y-89060872D01*
X72945000Y-89352490D01*
X72715000Y-89352490D01*
X72686278Y-89060873D01*
X72572774Y-88686698D01*
X72388453Y-88341857D01*
X72140398Y-88039602D01*
X71838143Y-87791547D01*
X71805263Y-87773972D01*
X72330236Y-87249000D01*
X80911765Y-87249000D01*
X96765502Y-103102737D01*
X96793342Y-103136660D01*
X96928710Y-103247754D01*
X97083150Y-103330304D01*
X97149059Y-103350297D01*
X97250725Y-103381137D01*
X97283925Y-103384407D01*
X97381334Y-103394001D01*
X97381340Y-103394001D01*
X97425000Y-103398301D01*
X97468660Y-103394001D01*
X114378017Y-103394001D01*
X114416525Y-103451633D01*
X114623368Y-103658476D01*
X114866589Y-103820991D01*
X115136842Y-103932933D01*
X115423740Y-103990001D01*
X115716260Y-103990001D01*
X116003158Y-103932933D01*
X116273411Y-103820991D01*
X116516632Y-103658476D01*
X116723475Y-103451633D01*
X116761983Y-103394001D01*
X116918017Y-103394001D01*
X116956525Y-103451633D01*
X117163368Y-103658476D01*
X117406589Y-103820991D01*
X117676842Y-103932933D01*
X117963740Y-103990001D01*
X118256260Y-103990001D01*
X118543158Y-103932933D01*
X118813411Y-103820991D01*
X119056632Y-103658476D01*
X119263475Y-103451633D01*
X119301983Y-103394001D01*
X139778017Y-103394001D01*
X139816525Y-103451633D01*
X140023368Y-103658476D01*
X140266589Y-103820991D01*
X140536842Y-103932933D01*
X140823740Y-103990001D01*
X141116260Y-103990001D01*
X141403158Y-103932933D01*
X141673411Y-103820991D01*
X141916632Y-103658476D01*
X142123475Y-103451633D01*
X142161983Y-103394001D01*
X142318017Y-103394001D01*
X142356525Y-103451633D01*
X142563368Y-103658476D01*
X142806589Y-103820991D01*
X143076842Y-103932933D01*
X143363740Y-103990001D01*
X143656260Y-103990001D01*
X143943158Y-103932933D01*
X144213411Y-103820991D01*
X144456632Y-103658476D01*
X144663475Y-103451633D01*
X144701983Y-103394001D01*
X165178017Y-103394001D01*
X165216525Y-103451633D01*
X165423368Y-103658476D01*
X165666589Y-103820991D01*
X165936842Y-103932933D01*
X166223740Y-103990001D01*
X166516260Y-103990001D01*
X166803158Y-103932933D01*
X167073411Y-103820991D01*
X167316632Y-103658476D01*
X167523475Y-103451633D01*
X167561983Y-103394001D01*
X167718017Y-103394001D01*
X167756525Y-103451633D01*
X167963368Y-103658476D01*
X168206589Y-103820991D01*
X168476842Y-103932933D01*
X168763740Y-103990001D01*
X169056260Y-103990001D01*
X169343158Y-103932933D01*
X169613411Y-103820991D01*
X169856632Y-103658476D01*
X170063475Y-103451633D01*
X170101983Y-103394001D01*
X190578017Y-103394001D01*
X190616525Y-103451633D01*
X190823368Y-103658476D01*
X191066589Y-103820991D01*
X191336842Y-103932933D01*
X191623740Y-103990001D01*
X191916260Y-103990001D01*
X192203158Y-103932933D01*
X192473411Y-103820991D01*
X192716632Y-103658476D01*
X192923475Y-103451633D01*
X192961983Y-103394001D01*
X193118017Y-103394001D01*
X193156525Y-103451633D01*
X193363368Y-103658476D01*
X193606589Y-103820991D01*
X193876842Y-103932933D01*
X194163740Y-103990001D01*
X194456260Y-103990001D01*
X194743158Y-103932933D01*
X195013411Y-103820991D01*
X195256632Y-103658476D01*
X195463475Y-103451633D01*
X195501983Y-103394001D01*
X215978017Y-103394001D01*
X216016525Y-103451633D01*
X216223368Y-103658476D01*
X216466589Y-103820991D01*
X216736842Y-103932933D01*
X217023740Y-103990001D01*
X217316260Y-103990001D01*
X217603158Y-103932933D01*
X217873411Y-103820991D01*
X218116632Y-103658476D01*
X218323475Y-103451633D01*
X218361983Y-103394001D01*
X218518017Y-103394001D01*
X218556525Y-103451633D01*
X218763368Y-103658476D01*
X219006589Y-103820991D01*
X219276842Y-103932933D01*
X219563740Y-103990001D01*
X219856260Y-103990001D01*
X220143158Y-103932933D01*
X220413411Y-103820991D01*
X220656632Y-103658476D01*
X220863475Y-103451633D01*
X220901983Y-103394001D01*
X241378017Y-103394001D01*
X241416525Y-103451633D01*
X241623368Y-103658476D01*
X241866589Y-103820991D01*
X242136842Y-103932933D01*
X242423740Y-103990001D01*
X242716260Y-103990001D01*
X243003158Y-103932933D01*
X243273411Y-103820991D01*
X243516632Y-103658476D01*
X243723475Y-103451633D01*
X243761983Y-103394001D01*
X243918017Y-103394001D01*
X243956525Y-103451633D01*
X244163368Y-103658476D01*
X244406589Y-103820991D01*
X244676842Y-103932933D01*
X244963740Y-103990001D01*
X245256260Y-103990001D01*
X245543158Y-103932933D01*
X245813411Y-103820991D01*
X246056632Y-103658476D01*
X246263475Y-103451633D01*
X246301983Y-103394001D01*
X266303018Y-103394001D01*
X266341526Y-103451633D01*
X266548369Y-103658476D01*
X266791590Y-103820991D01*
X267061843Y-103932933D01*
X267348741Y-103990001D01*
X267641261Y-103990001D01*
X267928159Y-103932933D01*
X268198412Y-103820991D01*
X268441633Y-103658476D01*
X268648476Y-103451633D01*
X268686984Y-103394001D01*
X268843018Y-103394001D01*
X268881526Y-103451633D01*
X269088369Y-103658476D01*
X269331590Y-103820991D01*
X269601843Y-103932933D01*
X269888741Y-103990001D01*
X270181261Y-103990001D01*
X270468159Y-103932933D01*
X270738412Y-103820991D01*
X270981633Y-103658476D01*
X271188476Y-103451633D01*
X271226984Y-103394001D01*
X304878017Y-103394001D01*
X304916525Y-103451633D01*
X305123368Y-103658476D01*
X305366589Y-103820991D01*
X305636842Y-103932933D01*
X305923740Y-103990001D01*
X306216260Y-103990001D01*
X306503158Y-103932933D01*
X306773411Y-103820991D01*
X307016632Y-103658476D01*
X307223475Y-103451633D01*
X307261983Y-103394001D01*
X307418017Y-103394001D01*
X307456525Y-103451633D01*
X307663368Y-103658476D01*
X307906589Y-103820991D01*
X308176842Y-103932933D01*
X308463740Y-103990001D01*
X308756260Y-103990001D01*
X309043158Y-103932933D01*
X309313411Y-103820991D01*
X309556632Y-103658476D01*
X309763475Y-103451633D01*
X309925990Y-103208412D01*
X310037932Y-102938159D01*
X310095000Y-102651261D01*
X310095000Y-102358741D01*
X310037932Y-102071843D01*
X309925990Y-101801590D01*
X309763475Y-101558369D01*
X309556632Y-101351526D01*
X309374466Y-101229806D01*
X309491355Y-101160179D01*
X309707588Y-100965270D01*
X309881641Y-100731921D01*
X310006825Y-100469100D01*
X310051476Y-100321891D01*
X309930155Y-100092001D01*
X308737000Y-100092001D01*
X308737000Y-100112001D01*
X308483000Y-100112001D01*
X308483000Y-100092001D01*
X306197000Y-100092001D01*
X306197000Y-100112001D01*
X305943000Y-100112001D01*
X305943000Y-100092001D01*
X304749845Y-100092001D01*
X304628524Y-100321891D01*
X304673175Y-100469100D01*
X304798359Y-100731921D01*
X304972412Y-100965270D01*
X305188645Y-101160179D01*
X305305534Y-101229806D01*
X305123368Y-101351526D01*
X304916525Y-101558369D01*
X304878017Y-101616001D01*
X271226984Y-101616001D01*
X271188476Y-101558369D01*
X270981633Y-101351526D01*
X270799467Y-101229806D01*
X270916356Y-101160179D01*
X271132589Y-100965270D01*
X271306642Y-100731921D01*
X271431826Y-100469100D01*
X271476477Y-100321891D01*
X271355156Y-100092001D01*
X270162001Y-100092001D01*
X270162001Y-100112001D01*
X269908001Y-100112001D01*
X269908001Y-100092001D01*
X267622001Y-100092001D01*
X267622001Y-100112001D01*
X267368001Y-100112001D01*
X267368001Y-100092001D01*
X266174846Y-100092001D01*
X266053525Y-100321891D01*
X266098176Y-100469100D01*
X266223360Y-100731921D01*
X266397413Y-100965270D01*
X266613646Y-101160179D01*
X266730535Y-101229806D01*
X266548369Y-101351526D01*
X266341526Y-101558369D01*
X266303018Y-101616001D01*
X246301983Y-101616001D01*
X246263475Y-101558369D01*
X246056632Y-101351526D01*
X245874466Y-101229806D01*
X245991355Y-101160179D01*
X246207588Y-100965270D01*
X246381641Y-100731921D01*
X246506825Y-100469100D01*
X246551476Y-100321891D01*
X246430155Y-100092001D01*
X245237000Y-100092001D01*
X245237000Y-100112001D01*
X244983000Y-100112001D01*
X244983000Y-100092001D01*
X242697000Y-100092001D01*
X242697000Y-100112001D01*
X242443000Y-100112001D01*
X242443000Y-100092001D01*
X241249845Y-100092001D01*
X241128524Y-100321891D01*
X241173175Y-100469100D01*
X241298359Y-100731921D01*
X241472412Y-100965270D01*
X241688645Y-101160179D01*
X241805534Y-101229806D01*
X241623368Y-101351526D01*
X241416525Y-101558369D01*
X241378017Y-101616001D01*
X220901983Y-101616001D01*
X220863475Y-101558369D01*
X220656632Y-101351526D01*
X220474466Y-101229806D01*
X220591355Y-101160179D01*
X220807588Y-100965270D01*
X220981641Y-100731921D01*
X221106825Y-100469100D01*
X221151476Y-100321891D01*
X221030155Y-100092001D01*
X219837000Y-100092001D01*
X219837000Y-100112001D01*
X219583000Y-100112001D01*
X219583000Y-100092001D01*
X217297000Y-100092001D01*
X217297000Y-100112001D01*
X217043000Y-100112001D01*
X217043000Y-100092001D01*
X215849845Y-100092001D01*
X215728524Y-100321891D01*
X215773175Y-100469100D01*
X215898359Y-100731921D01*
X216072412Y-100965270D01*
X216288645Y-101160179D01*
X216405534Y-101229806D01*
X216223368Y-101351526D01*
X216016525Y-101558369D01*
X215978017Y-101616001D01*
X195501983Y-101616001D01*
X195463475Y-101558369D01*
X195256632Y-101351526D01*
X195074466Y-101229806D01*
X195191355Y-101160179D01*
X195407588Y-100965270D01*
X195581641Y-100731921D01*
X195706825Y-100469100D01*
X195751476Y-100321891D01*
X195630155Y-100092001D01*
X194437000Y-100092001D01*
X194437000Y-100112001D01*
X194183000Y-100112001D01*
X194183000Y-100092001D01*
X191897000Y-100092001D01*
X191897000Y-100112001D01*
X191643000Y-100112001D01*
X191643000Y-100092001D01*
X190449845Y-100092001D01*
X190328524Y-100321891D01*
X190373175Y-100469100D01*
X190498359Y-100731921D01*
X190672412Y-100965270D01*
X190888645Y-101160179D01*
X191005534Y-101229806D01*
X190823368Y-101351526D01*
X190616525Y-101558369D01*
X190578017Y-101616001D01*
X170101983Y-101616001D01*
X170063475Y-101558369D01*
X169856632Y-101351526D01*
X169674466Y-101229806D01*
X169791355Y-101160179D01*
X170007588Y-100965270D01*
X170181641Y-100731921D01*
X170306825Y-100469100D01*
X170351476Y-100321891D01*
X170230155Y-100092001D01*
X169037000Y-100092001D01*
X169037000Y-100112001D01*
X168783000Y-100112001D01*
X168783000Y-100092001D01*
X166497000Y-100092001D01*
X166497000Y-100112001D01*
X166243000Y-100112001D01*
X166243000Y-100092001D01*
X165049845Y-100092001D01*
X164928524Y-100321891D01*
X164973175Y-100469100D01*
X165098359Y-100731921D01*
X165272412Y-100965270D01*
X165488645Y-101160179D01*
X165605534Y-101229806D01*
X165423368Y-101351526D01*
X165216525Y-101558369D01*
X165178017Y-101616001D01*
X144701983Y-101616001D01*
X144663475Y-101558369D01*
X144456632Y-101351526D01*
X144274466Y-101229806D01*
X144391355Y-101160179D01*
X144607588Y-100965270D01*
X144781641Y-100731921D01*
X144906825Y-100469100D01*
X144951476Y-100321891D01*
X144830155Y-100092001D01*
X143637000Y-100092001D01*
X143637000Y-100112001D01*
X143383000Y-100112001D01*
X143383000Y-100092001D01*
X141097000Y-100092001D01*
X141097000Y-100112001D01*
X140843000Y-100112001D01*
X140843000Y-100092001D01*
X139649845Y-100092001D01*
X139528524Y-100321891D01*
X139573175Y-100469100D01*
X139698359Y-100731921D01*
X139872412Y-100965270D01*
X140088645Y-101160179D01*
X140205534Y-101229806D01*
X140023368Y-101351526D01*
X139816525Y-101558369D01*
X139778017Y-101616001D01*
X119301983Y-101616001D01*
X119263475Y-101558369D01*
X119056632Y-101351526D01*
X118874466Y-101229806D01*
X118991355Y-101160179D01*
X119207588Y-100965270D01*
X119381641Y-100731921D01*
X119506825Y-100469100D01*
X119551476Y-100321891D01*
X119430155Y-100092001D01*
X118237000Y-100092001D01*
X118237000Y-100112001D01*
X117983000Y-100112001D01*
X117983000Y-100092001D01*
X115697000Y-100092001D01*
X115697000Y-100112001D01*
X115443000Y-100112001D01*
X115443000Y-100092001D01*
X114249845Y-100092001D01*
X114128524Y-100321891D01*
X114173175Y-100469100D01*
X114298359Y-100731921D01*
X114472412Y-100965270D01*
X114688645Y-101160179D01*
X114805534Y-101229806D01*
X114623368Y-101351526D01*
X114416525Y-101558369D01*
X114378017Y-101616001D01*
X97793236Y-101616001D01*
X93959126Y-97781891D01*
X114128524Y-97781891D01*
X114173175Y-97929100D01*
X114298359Y-98191921D01*
X114472412Y-98425270D01*
X114688645Y-98620179D01*
X114814255Y-98695001D01*
X114688645Y-98769823D01*
X114472412Y-98964732D01*
X114298359Y-99198081D01*
X114173175Y-99460902D01*
X114128524Y-99608111D01*
X114249845Y-99838001D01*
X115443000Y-99838001D01*
X115443000Y-97552001D01*
X115697000Y-97552001D01*
X115697000Y-99838001D01*
X117983000Y-99838001D01*
X117983000Y-97552001D01*
X118237000Y-97552001D01*
X118237000Y-99838001D01*
X119430155Y-99838001D01*
X119551476Y-99608111D01*
X119506825Y-99460902D01*
X119381641Y-99198081D01*
X119207588Y-98964732D01*
X118991355Y-98769823D01*
X118865745Y-98695001D01*
X118991355Y-98620179D01*
X119207588Y-98425270D01*
X119381641Y-98191921D01*
X119506825Y-97929100D01*
X119551476Y-97781891D01*
X139528524Y-97781891D01*
X139573175Y-97929100D01*
X139698359Y-98191921D01*
X139872412Y-98425270D01*
X140088645Y-98620179D01*
X140214255Y-98695001D01*
X140088645Y-98769823D01*
X139872412Y-98964732D01*
X139698359Y-99198081D01*
X139573175Y-99460902D01*
X139528524Y-99608111D01*
X139649845Y-99838001D01*
X140843000Y-99838001D01*
X140843000Y-97552001D01*
X141097000Y-97552001D01*
X141097000Y-99838001D01*
X143383000Y-99838001D01*
X143383000Y-97552001D01*
X143637000Y-97552001D01*
X143637000Y-99838001D01*
X144830155Y-99838001D01*
X144951476Y-99608111D01*
X144906825Y-99460902D01*
X144781641Y-99198081D01*
X144607588Y-98964732D01*
X144391355Y-98769823D01*
X144265745Y-98695001D01*
X144391355Y-98620179D01*
X144607588Y-98425270D01*
X144781641Y-98191921D01*
X144906825Y-97929100D01*
X144951476Y-97781891D01*
X164928524Y-97781891D01*
X164973175Y-97929100D01*
X165098359Y-98191921D01*
X165272412Y-98425270D01*
X165488645Y-98620179D01*
X165614255Y-98695001D01*
X165488645Y-98769823D01*
X165272412Y-98964732D01*
X165098359Y-99198081D01*
X164973175Y-99460902D01*
X164928524Y-99608111D01*
X165049845Y-99838001D01*
X166243000Y-99838001D01*
X166243000Y-97552001D01*
X166497000Y-97552001D01*
X166497000Y-99838001D01*
X168783000Y-99838001D01*
X168783000Y-97552001D01*
X169037000Y-97552001D01*
X169037000Y-99838001D01*
X170230155Y-99838001D01*
X170351476Y-99608111D01*
X170306825Y-99460902D01*
X170181641Y-99198081D01*
X170007588Y-98964732D01*
X169791355Y-98769823D01*
X169665745Y-98695001D01*
X169791355Y-98620179D01*
X170007588Y-98425270D01*
X170181641Y-98191921D01*
X170306825Y-97929100D01*
X170351476Y-97781891D01*
X190328524Y-97781891D01*
X190373175Y-97929100D01*
X190498359Y-98191921D01*
X190672412Y-98425270D01*
X190888645Y-98620179D01*
X191014255Y-98695001D01*
X190888645Y-98769823D01*
X190672412Y-98964732D01*
X190498359Y-99198081D01*
X190373175Y-99460902D01*
X190328524Y-99608111D01*
X190449845Y-99838001D01*
X191643000Y-99838001D01*
X191643000Y-97552001D01*
X191897000Y-97552001D01*
X191897000Y-99838001D01*
X194183000Y-99838001D01*
X194183000Y-97552001D01*
X194437000Y-97552001D01*
X194437000Y-99838001D01*
X195630155Y-99838001D01*
X195751476Y-99608111D01*
X195706825Y-99460902D01*
X195581641Y-99198081D01*
X195407588Y-98964732D01*
X195191355Y-98769823D01*
X195065745Y-98695001D01*
X195191355Y-98620179D01*
X195407588Y-98425270D01*
X195581641Y-98191921D01*
X195706825Y-97929100D01*
X195751476Y-97781891D01*
X215728524Y-97781891D01*
X215773175Y-97929100D01*
X215898359Y-98191921D01*
X216072412Y-98425270D01*
X216288645Y-98620179D01*
X216414255Y-98695001D01*
X216288645Y-98769823D01*
X216072412Y-98964732D01*
X215898359Y-99198081D01*
X215773175Y-99460902D01*
X215728524Y-99608111D01*
X215849845Y-99838001D01*
X217043000Y-99838001D01*
X217043000Y-97552001D01*
X217297000Y-97552001D01*
X217297000Y-99838001D01*
X219583000Y-99838001D01*
X219583000Y-97552001D01*
X219837000Y-97552001D01*
X219837000Y-99838001D01*
X221030155Y-99838001D01*
X221151476Y-99608111D01*
X221106825Y-99460902D01*
X220981641Y-99198081D01*
X220807588Y-98964732D01*
X220591355Y-98769823D01*
X220465745Y-98695001D01*
X220591355Y-98620179D01*
X220807588Y-98425270D01*
X220981641Y-98191921D01*
X221106825Y-97929100D01*
X221151476Y-97781891D01*
X241128524Y-97781891D01*
X241173175Y-97929100D01*
X241298359Y-98191921D01*
X241472412Y-98425270D01*
X241688645Y-98620179D01*
X241814255Y-98695001D01*
X241688645Y-98769823D01*
X241472412Y-98964732D01*
X241298359Y-99198081D01*
X241173175Y-99460902D01*
X241128524Y-99608111D01*
X241249845Y-99838001D01*
X242443000Y-99838001D01*
X242443000Y-97552001D01*
X242697000Y-97552001D01*
X242697000Y-99838001D01*
X244983000Y-99838001D01*
X244983000Y-97552001D01*
X245237000Y-97552001D01*
X245237000Y-99838001D01*
X246430155Y-99838001D01*
X246551476Y-99608111D01*
X246506825Y-99460902D01*
X246381641Y-99198081D01*
X246207588Y-98964732D01*
X245991355Y-98769823D01*
X245865745Y-98695001D01*
X245991355Y-98620179D01*
X246207588Y-98425270D01*
X246381641Y-98191921D01*
X246506825Y-97929100D01*
X246551476Y-97781891D01*
X266053525Y-97781891D01*
X266098176Y-97929100D01*
X266223360Y-98191921D01*
X266397413Y-98425270D01*
X266613646Y-98620179D01*
X266739256Y-98695001D01*
X266613646Y-98769823D01*
X266397413Y-98964732D01*
X266223360Y-99198081D01*
X266098176Y-99460902D01*
X266053525Y-99608111D01*
X266174846Y-99838001D01*
X267368001Y-99838001D01*
X267368001Y-97552001D01*
X267622001Y-97552001D01*
X267622001Y-99838001D01*
X269908001Y-99838001D01*
X269908001Y-97552001D01*
X270162001Y-97552001D01*
X270162001Y-99838001D01*
X271355156Y-99838001D01*
X271476477Y-99608111D01*
X271431826Y-99460902D01*
X271306642Y-99198081D01*
X271132589Y-98964732D01*
X270916356Y-98769823D01*
X270790746Y-98695001D01*
X270916356Y-98620179D01*
X271132589Y-98425270D01*
X271306642Y-98191921D01*
X271431826Y-97929100D01*
X271476477Y-97781891D01*
X304628524Y-97781891D01*
X304673175Y-97929100D01*
X304798359Y-98191921D01*
X304972412Y-98425270D01*
X305188645Y-98620179D01*
X305314255Y-98695001D01*
X305188645Y-98769823D01*
X304972412Y-98964732D01*
X304798359Y-99198081D01*
X304673175Y-99460902D01*
X304628524Y-99608111D01*
X304749845Y-99838001D01*
X305943000Y-99838001D01*
X305943000Y-97552001D01*
X306197000Y-97552001D01*
X306197000Y-99838001D01*
X308483000Y-99838001D01*
X308483000Y-97552001D01*
X308737000Y-97552001D01*
X308737000Y-99838001D01*
X309930155Y-99838001D01*
X310051476Y-99608111D01*
X310006825Y-99460902D01*
X309881641Y-99198081D01*
X309707588Y-98964732D01*
X309491355Y-98769823D01*
X309365745Y-98695001D01*
X309491355Y-98620179D01*
X309707588Y-98425270D01*
X309881641Y-98191921D01*
X310006825Y-97929100D01*
X310051476Y-97781891D01*
X309930155Y-97552001D01*
X308737000Y-97552001D01*
X308483000Y-97552001D01*
X306197000Y-97552001D01*
X305943000Y-97552001D01*
X304749845Y-97552001D01*
X304628524Y-97781891D01*
X271476477Y-97781891D01*
X271355156Y-97552001D01*
X270162001Y-97552001D01*
X269908001Y-97552001D01*
X267622001Y-97552001D01*
X267368001Y-97552001D01*
X266174846Y-97552001D01*
X266053525Y-97781891D01*
X246551476Y-97781891D01*
X246430155Y-97552001D01*
X245237000Y-97552001D01*
X244983000Y-97552001D01*
X242697000Y-97552001D01*
X242443000Y-97552001D01*
X241249845Y-97552001D01*
X241128524Y-97781891D01*
X221151476Y-97781891D01*
X221030155Y-97552001D01*
X219837000Y-97552001D01*
X219583000Y-97552001D01*
X217297000Y-97552001D01*
X217043000Y-97552001D01*
X215849845Y-97552001D01*
X215728524Y-97781891D01*
X195751476Y-97781891D01*
X195630155Y-97552001D01*
X194437000Y-97552001D01*
X194183000Y-97552001D01*
X191897000Y-97552001D01*
X191643000Y-97552001D01*
X190449845Y-97552001D01*
X190328524Y-97781891D01*
X170351476Y-97781891D01*
X170230155Y-97552001D01*
X169037000Y-97552001D01*
X168783000Y-97552001D01*
X166497000Y-97552001D01*
X166243000Y-97552001D01*
X165049845Y-97552001D01*
X164928524Y-97781891D01*
X144951476Y-97781891D01*
X144830155Y-97552001D01*
X143637000Y-97552001D01*
X143383000Y-97552001D01*
X141097000Y-97552001D01*
X140843000Y-97552001D01*
X139649845Y-97552001D01*
X139528524Y-97781891D01*
X119551476Y-97781891D01*
X119430155Y-97552001D01*
X118237000Y-97552001D01*
X117983000Y-97552001D01*
X115697000Y-97552001D01*
X115443000Y-97552001D01*
X114249845Y-97552001D01*
X114128524Y-97781891D01*
X93959126Y-97781891D01*
X91419126Y-95241891D01*
X114128524Y-95241891D01*
X114173175Y-95389100D01*
X114298359Y-95651921D01*
X114472412Y-95885270D01*
X114688645Y-96080179D01*
X114814255Y-96155001D01*
X114688645Y-96229823D01*
X114472412Y-96424732D01*
X114298359Y-96658081D01*
X114173175Y-96920902D01*
X114128524Y-97068111D01*
X114249845Y-97298001D01*
X115443000Y-97298001D01*
X115443000Y-95012001D01*
X115697000Y-95012001D01*
X115697000Y-97298001D01*
X117983000Y-97298001D01*
X117983000Y-95012001D01*
X118237000Y-95012001D01*
X118237000Y-97298001D01*
X119430155Y-97298001D01*
X119551476Y-97068111D01*
X119506825Y-96920902D01*
X119381641Y-96658081D01*
X119207588Y-96424732D01*
X118991355Y-96229823D01*
X118865745Y-96155001D01*
X118991355Y-96080179D01*
X119207588Y-95885270D01*
X119381641Y-95651921D01*
X119506825Y-95389100D01*
X119551476Y-95241891D01*
X139528524Y-95241891D01*
X139573175Y-95389100D01*
X139698359Y-95651921D01*
X139872412Y-95885270D01*
X140088645Y-96080179D01*
X140214255Y-96155001D01*
X140088645Y-96229823D01*
X139872412Y-96424732D01*
X139698359Y-96658081D01*
X139573175Y-96920902D01*
X139528524Y-97068111D01*
X139649845Y-97298001D01*
X140843000Y-97298001D01*
X140843000Y-95012001D01*
X141097000Y-95012001D01*
X141097000Y-97298001D01*
X143383000Y-97298001D01*
X143383000Y-95012001D01*
X143637000Y-95012001D01*
X143637000Y-97298001D01*
X144830155Y-97298001D01*
X144951476Y-97068111D01*
X144906825Y-96920902D01*
X144781641Y-96658081D01*
X144607588Y-96424732D01*
X144391355Y-96229823D01*
X144265745Y-96155001D01*
X144391355Y-96080179D01*
X144607588Y-95885270D01*
X144781641Y-95651921D01*
X144906825Y-95389100D01*
X144951476Y-95241891D01*
X164928524Y-95241891D01*
X164973175Y-95389100D01*
X165098359Y-95651921D01*
X165272412Y-95885270D01*
X165488645Y-96080179D01*
X165614255Y-96155001D01*
X165488645Y-96229823D01*
X165272412Y-96424732D01*
X165098359Y-96658081D01*
X164973175Y-96920902D01*
X164928524Y-97068111D01*
X165049845Y-97298001D01*
X166243000Y-97298001D01*
X166243000Y-95012001D01*
X166497000Y-95012001D01*
X166497000Y-97298001D01*
X168783000Y-97298001D01*
X168783000Y-95012001D01*
X169037000Y-95012001D01*
X169037000Y-97298001D01*
X170230155Y-97298001D01*
X170351476Y-97068111D01*
X170306825Y-96920902D01*
X170181641Y-96658081D01*
X170007588Y-96424732D01*
X169791355Y-96229823D01*
X169665745Y-96155001D01*
X169791355Y-96080179D01*
X170007588Y-95885270D01*
X170181641Y-95651921D01*
X170306825Y-95389100D01*
X170351476Y-95241891D01*
X190328524Y-95241891D01*
X190373175Y-95389100D01*
X190498359Y-95651921D01*
X190672412Y-95885270D01*
X190888645Y-96080179D01*
X191014255Y-96155001D01*
X190888645Y-96229823D01*
X190672412Y-96424732D01*
X190498359Y-96658081D01*
X190373175Y-96920902D01*
X190328524Y-97068111D01*
X190449845Y-97298001D01*
X191643000Y-97298001D01*
X191643000Y-95012001D01*
X191897000Y-95012001D01*
X191897000Y-97298001D01*
X194183000Y-97298001D01*
X194183000Y-95012001D01*
X194437000Y-95012001D01*
X194437000Y-97298001D01*
X195630155Y-97298001D01*
X195751476Y-97068111D01*
X195706825Y-96920902D01*
X195581641Y-96658081D01*
X195407588Y-96424732D01*
X195191355Y-96229823D01*
X195065745Y-96155001D01*
X195191355Y-96080179D01*
X195407588Y-95885270D01*
X195581641Y-95651921D01*
X195706825Y-95389100D01*
X195751476Y-95241891D01*
X215728524Y-95241891D01*
X215773175Y-95389100D01*
X215898359Y-95651921D01*
X216072412Y-95885270D01*
X216288645Y-96080179D01*
X216414255Y-96155001D01*
X216288645Y-96229823D01*
X216072412Y-96424732D01*
X215898359Y-96658081D01*
X215773175Y-96920902D01*
X215728524Y-97068111D01*
X215849845Y-97298001D01*
X217043000Y-97298001D01*
X217043000Y-95012001D01*
X217297000Y-95012001D01*
X217297000Y-97298001D01*
X219583000Y-97298001D01*
X219583000Y-95012001D01*
X219837000Y-95012001D01*
X219837000Y-97298001D01*
X221030155Y-97298001D01*
X221151476Y-97068111D01*
X221106825Y-96920902D01*
X220981641Y-96658081D01*
X220807588Y-96424732D01*
X220591355Y-96229823D01*
X220465745Y-96155001D01*
X220591355Y-96080179D01*
X220807588Y-95885270D01*
X220981641Y-95651921D01*
X221106825Y-95389100D01*
X221151476Y-95241891D01*
X241128524Y-95241891D01*
X241173175Y-95389100D01*
X241298359Y-95651921D01*
X241472412Y-95885270D01*
X241688645Y-96080179D01*
X241814255Y-96155001D01*
X241688645Y-96229823D01*
X241472412Y-96424732D01*
X241298359Y-96658081D01*
X241173175Y-96920902D01*
X241128524Y-97068111D01*
X241249845Y-97298001D01*
X242443000Y-97298001D01*
X242443000Y-95012001D01*
X242697000Y-95012001D01*
X242697000Y-97298001D01*
X244983000Y-97298001D01*
X244983000Y-95012001D01*
X245237000Y-95012001D01*
X245237000Y-97298001D01*
X246430155Y-97298001D01*
X246551476Y-97068111D01*
X246506825Y-96920902D01*
X246381641Y-96658081D01*
X246207588Y-96424732D01*
X245991355Y-96229823D01*
X245865745Y-96155001D01*
X245991355Y-96080179D01*
X246207588Y-95885270D01*
X246381641Y-95651921D01*
X246506825Y-95389100D01*
X246551476Y-95241891D01*
X266053525Y-95241891D01*
X266098176Y-95389100D01*
X266223360Y-95651921D01*
X266397413Y-95885270D01*
X266613646Y-96080179D01*
X266739256Y-96155001D01*
X266613646Y-96229823D01*
X266397413Y-96424732D01*
X266223360Y-96658081D01*
X266098176Y-96920902D01*
X266053525Y-97068111D01*
X266174846Y-97298001D01*
X267368001Y-97298001D01*
X267368001Y-95012001D01*
X267622001Y-95012001D01*
X267622001Y-97298001D01*
X269908001Y-97298001D01*
X269908001Y-95012001D01*
X270162001Y-95012001D01*
X270162001Y-97298001D01*
X271355156Y-97298001D01*
X271476477Y-97068111D01*
X271431826Y-96920902D01*
X271306642Y-96658081D01*
X271132589Y-96424732D01*
X270916356Y-96229823D01*
X270790746Y-96155001D01*
X270916356Y-96080179D01*
X271132589Y-95885270D01*
X271306642Y-95651921D01*
X271431826Y-95389100D01*
X271476477Y-95241891D01*
X304628524Y-95241891D01*
X304673175Y-95389100D01*
X304798359Y-95651921D01*
X304972412Y-95885270D01*
X305188645Y-96080179D01*
X305314255Y-96155001D01*
X305188645Y-96229823D01*
X304972412Y-96424732D01*
X304798359Y-96658081D01*
X304673175Y-96920902D01*
X304628524Y-97068111D01*
X304749845Y-97298001D01*
X305943000Y-97298001D01*
X305943000Y-95012001D01*
X306197000Y-95012001D01*
X306197000Y-97298001D01*
X308483000Y-97298001D01*
X308483000Y-95012001D01*
X308737000Y-95012001D01*
X308737000Y-97298001D01*
X309930155Y-97298001D01*
X310051476Y-97068111D01*
X310006825Y-96920902D01*
X309881641Y-96658081D01*
X309707588Y-96424732D01*
X309491355Y-96229823D01*
X309365745Y-96155001D01*
X309491355Y-96080179D01*
X309707588Y-95885270D01*
X309881641Y-95651921D01*
X310006825Y-95389100D01*
X310051476Y-95241891D01*
X309930155Y-95012001D01*
X308737000Y-95012001D01*
X308483000Y-95012001D01*
X306197000Y-95012001D01*
X305943000Y-95012001D01*
X304749845Y-95012001D01*
X304628524Y-95241891D01*
X271476477Y-95241891D01*
X271355156Y-95012001D01*
X270162001Y-95012001D01*
X269908001Y-95012001D01*
X267622001Y-95012001D01*
X267368001Y-95012001D01*
X266174846Y-95012001D01*
X266053525Y-95241891D01*
X246551476Y-95241891D01*
X246430155Y-95012001D01*
X245237000Y-95012001D01*
X244983000Y-95012001D01*
X242697000Y-95012001D01*
X242443000Y-95012001D01*
X241249845Y-95012001D01*
X241128524Y-95241891D01*
X221151476Y-95241891D01*
X221030155Y-95012001D01*
X219837000Y-95012001D01*
X219583000Y-95012001D01*
X217297000Y-95012001D01*
X217043000Y-95012001D01*
X215849845Y-95012001D01*
X215728524Y-95241891D01*
X195751476Y-95241891D01*
X195630155Y-95012001D01*
X194437000Y-95012001D01*
X194183000Y-95012001D01*
X191897000Y-95012001D01*
X191643000Y-95012001D01*
X190449845Y-95012001D01*
X190328524Y-95241891D01*
X170351476Y-95241891D01*
X170230155Y-95012001D01*
X169037000Y-95012001D01*
X168783000Y-95012001D01*
X166497000Y-95012001D01*
X166243000Y-95012001D01*
X165049845Y-95012001D01*
X164928524Y-95241891D01*
X144951476Y-95241891D01*
X144830155Y-95012001D01*
X143637000Y-95012001D01*
X143383000Y-95012001D01*
X141097000Y-95012001D01*
X140843000Y-95012001D01*
X139649845Y-95012001D01*
X139528524Y-95241891D01*
X119551476Y-95241891D01*
X119430155Y-95012001D01*
X118237000Y-95012001D01*
X117983000Y-95012001D01*
X115697000Y-95012001D01*
X115443000Y-95012001D01*
X114249845Y-95012001D01*
X114128524Y-95241891D01*
X91419126Y-95241891D01*
X81939499Y-85762264D01*
X81911659Y-85728341D01*
X81776291Y-85617247D01*
X81621851Y-85534697D01*
X81454274Y-85483864D01*
X81323667Y-85471000D01*
X81323660Y-85471000D01*
X81280000Y-85466700D01*
X81236340Y-85471000D01*
X72005659Y-85471000D01*
X71961999Y-85466700D01*
X71918339Y-85471000D01*
X71918333Y-85471000D01*
X71820924Y-85480594D01*
X71787724Y-85483864D01*
X71686058Y-85514704D01*
X71620149Y-85534697D01*
X71465709Y-85617247D01*
X71330341Y-85728341D01*
X71302505Y-85762259D01*
X70132259Y-86932506D01*
X70098342Y-86960341D01*
X70070507Y-86994258D01*
X70070505Y-86994260D01*
X69987248Y-87095709D01*
X69904698Y-87250148D01*
X69853864Y-87417726D01*
X69836700Y-87592000D01*
X69841001Y-87635670D01*
X69841001Y-87674413D01*
X69621858Y-87791547D01*
X69319603Y-88039602D01*
X69071547Y-88341857D01*
X68887226Y-88686698D01*
X68773722Y-89060872D01*
X68745000Y-89352490D01*
X68515000Y-89352490D01*
X68515000Y-89323000D01*
X68452082Y-88938186D01*
X68315300Y-88573041D01*
X68109910Y-88241597D01*
X67843805Y-87956591D01*
X67527211Y-87728976D01*
X67172295Y-87567499D01*
X66965323Y-87513323D01*
X66657000Y-87628171D01*
X66403000Y-87628171D01*
X66094677Y-87513323D01*
X65887705Y-87567499D01*
X65532789Y-87728976D01*
X65216195Y-87956591D01*
X64950090Y-88241597D01*
X64744700Y-88573041D01*
X64607918Y-88938186D01*
X64545000Y-89323000D01*
X64312096Y-89323000D01*
X64286278Y-89060873D01*
X64172774Y-88686698D01*
X63988453Y-88341857D01*
X63740398Y-88039602D01*
X63438143Y-87791547D01*
X63093302Y-87607226D01*
X62719128Y-87493722D01*
X62330000Y-87455396D01*
X61940873Y-87493722D01*
X61566699Y-87607226D01*
X61221858Y-87791547D01*
X60919603Y-88039602D01*
X60671547Y-88341857D01*
X60487226Y-88686698D01*
X60373722Y-89060872D01*
X60345000Y-89352490D01*
X60115000Y-89352490D01*
X60115000Y-89323000D01*
X60052082Y-88938186D01*
X59915300Y-88573041D01*
X59709910Y-88241597D01*
X59443805Y-87956591D01*
X59127211Y-87728976D01*
X58772295Y-87567499D01*
X58565323Y-87513323D01*
X58257000Y-87628171D01*
X58003000Y-87628171D01*
X57694677Y-87513323D01*
X57487705Y-87567499D01*
X57132789Y-87728976D01*
X56816195Y-87956591D01*
X56550090Y-88241597D01*
X56344700Y-88573041D01*
X56207918Y-88938186D01*
X56145000Y-89323000D01*
X55915000Y-89323000D01*
X55852082Y-88938186D01*
X55715300Y-88573041D01*
X55509910Y-88241597D01*
X55243805Y-87956591D01*
X54927211Y-87728976D01*
X54572295Y-87567499D01*
X54365323Y-87513323D01*
X54057000Y-87628171D01*
X53803000Y-87628171D01*
X53494677Y-87513323D01*
X53287705Y-87567499D01*
X52932789Y-87728976D01*
X52616195Y-87956591D01*
X52350090Y-88241597D01*
X52144700Y-88573041D01*
X52007918Y-88938186D01*
X51945000Y-89323000D01*
X51715000Y-89323000D01*
X51652082Y-88938186D01*
X51515300Y-88573041D01*
X51309910Y-88241597D01*
X51043805Y-87956591D01*
X50727211Y-87728976D01*
X50372295Y-87567499D01*
X50165323Y-87513323D01*
X49857000Y-87628171D01*
X49603000Y-87628171D01*
X49294677Y-87513323D01*
X49087705Y-87567499D01*
X48732789Y-87728976D01*
X48416195Y-87956591D01*
X48150090Y-88241597D01*
X47944700Y-88573041D01*
X47807918Y-88938186D01*
X47745000Y-89323000D01*
X47512096Y-89323000D01*
X47486278Y-89060873D01*
X47372774Y-88686698D01*
X47188453Y-88341857D01*
X46940398Y-88039602D01*
X46638143Y-87791547D01*
X46293302Y-87607226D01*
X45919128Y-87493722D01*
X45530000Y-87455396D01*
X45140873Y-87493722D01*
X44766699Y-87607226D01*
X44421858Y-87791547D01*
X44119603Y-88039602D01*
X43871547Y-88341857D01*
X43687226Y-88686698D01*
X43573722Y-89060872D01*
X43545000Y-89352490D01*
X43315000Y-89352490D01*
X43286278Y-89060873D01*
X43172774Y-88686698D01*
X42988453Y-88341857D01*
X42740398Y-88039602D01*
X42438143Y-87791547D01*
X42093302Y-87607226D01*
X41719128Y-87493722D01*
X41330000Y-87455396D01*
X40940873Y-87493722D01*
X40566699Y-87607226D01*
X40221858Y-87791547D01*
X39919603Y-88039602D01*
X39671547Y-88341857D01*
X39487226Y-88686698D01*
X39373722Y-89060872D01*
X39345000Y-89352490D01*
X39115000Y-89352490D01*
X39086278Y-89060873D01*
X38972774Y-88686698D01*
X38788453Y-88341857D01*
X38540398Y-88039602D01*
X38238143Y-87791547D01*
X37893302Y-87607226D01*
X37519128Y-87493722D01*
X37130000Y-87455396D01*
X36740873Y-87493722D01*
X36366699Y-87607226D01*
X36021858Y-87791547D01*
X35719603Y-88039602D01*
X35471547Y-88341857D01*
X35287226Y-88686698D01*
X35173722Y-89060872D01*
X35145000Y-89352490D01*
X34915000Y-89352490D01*
X34886278Y-89060873D01*
X34772774Y-88686698D01*
X34588453Y-88341857D01*
X34340398Y-88039602D01*
X34038143Y-87791547D01*
X33693302Y-87607226D01*
X33319128Y-87493722D01*
X32930000Y-87455396D01*
X32540873Y-87493722D01*
X32166699Y-87607226D01*
X31821858Y-87791547D01*
X31519603Y-88039602D01*
X31271547Y-88341857D01*
X31087226Y-88686698D01*
X30973722Y-89060872D01*
X30945000Y-89352490D01*
X30715000Y-89352490D01*
X30686278Y-89060873D01*
X30572774Y-88686698D01*
X30388453Y-88341857D01*
X30140398Y-88039602D01*
X29838143Y-87791547D01*
X29493302Y-87607226D01*
X29119128Y-87493722D01*
X28730000Y-87455396D01*
X28340873Y-87493722D01*
X27966699Y-87607226D01*
X27621858Y-87791547D01*
X27319603Y-88039602D01*
X27071547Y-88341857D01*
X26887226Y-88686698D01*
X26773722Y-89060872D01*
X26745000Y-89352490D01*
X25985715Y-89352490D01*
X25922012Y-89198698D01*
X25688363Y-88849017D01*
X25390983Y-88551637D01*
X25041302Y-88317988D01*
X24652756Y-88157047D01*
X24240279Y-88075000D01*
X23819721Y-88075000D01*
X23407244Y-88157047D01*
X23018698Y-88317988D01*
X22669017Y-88551637D01*
X22371637Y-88849017D01*
X22137988Y-89198698D01*
X21977047Y-89587244D01*
X21895000Y-89999721D01*
X11557000Y-89999721D01*
X11557000Y-84578741D01*
X114085000Y-84578741D01*
X114085000Y-84871261D01*
X114142068Y-85158159D01*
X114254010Y-85428412D01*
X114416525Y-85671633D01*
X114623368Y-85878476D01*
X114797760Y-85995001D01*
X114623368Y-86111526D01*
X114416525Y-86318369D01*
X114254010Y-86561590D01*
X114142068Y-86831843D01*
X114085000Y-87118741D01*
X114085000Y-87411261D01*
X114142068Y-87698159D01*
X114254010Y-87968412D01*
X114416525Y-88211633D01*
X114623368Y-88418476D01*
X114797760Y-88535001D01*
X114623368Y-88651526D01*
X114416525Y-88858369D01*
X114254010Y-89101590D01*
X114142068Y-89371843D01*
X114085000Y-89658741D01*
X114085000Y-89951261D01*
X114142068Y-90238159D01*
X114254010Y-90508412D01*
X114416525Y-90751633D01*
X114623368Y-90958476D01*
X114797760Y-91075001D01*
X114623368Y-91191526D01*
X114416525Y-91398369D01*
X114254010Y-91641590D01*
X114142068Y-91911843D01*
X114085000Y-92198741D01*
X114085000Y-92491261D01*
X114142068Y-92778159D01*
X114254010Y-93048412D01*
X114416525Y-93291633D01*
X114623368Y-93498476D01*
X114805534Y-93620196D01*
X114688645Y-93689823D01*
X114472412Y-93884732D01*
X114298359Y-94118081D01*
X114173175Y-94380902D01*
X114128524Y-94528111D01*
X114249845Y-94758001D01*
X115443000Y-94758001D01*
X115443000Y-94738001D01*
X115697000Y-94738001D01*
X115697000Y-94758001D01*
X117983000Y-94758001D01*
X117983000Y-94738001D01*
X118237000Y-94738001D01*
X118237000Y-94758001D01*
X119430155Y-94758001D01*
X119551476Y-94528111D01*
X119506825Y-94380902D01*
X119381641Y-94118081D01*
X119207588Y-93884732D01*
X118991355Y-93689823D01*
X118874466Y-93620196D01*
X119056632Y-93498476D01*
X119263475Y-93291633D01*
X119425990Y-93048412D01*
X119537932Y-92778159D01*
X119595000Y-92491261D01*
X119595000Y-92198741D01*
X119537932Y-91911843D01*
X119425990Y-91641590D01*
X119263475Y-91398369D01*
X119056632Y-91191526D01*
X118882240Y-91075001D01*
X119056632Y-90958476D01*
X119263475Y-90751633D01*
X119425990Y-90508412D01*
X119537932Y-90238159D01*
X119595000Y-89951261D01*
X119595000Y-89658741D01*
X119537932Y-89371843D01*
X119425990Y-89101590D01*
X119263475Y-88858369D01*
X119056632Y-88651526D01*
X118882240Y-88535001D01*
X119056632Y-88418476D01*
X119263475Y-88211633D01*
X119425990Y-87968412D01*
X119537932Y-87698159D01*
X119595000Y-87411261D01*
X119595000Y-87118741D01*
X119537932Y-86831843D01*
X119425990Y-86561590D01*
X119263475Y-86318369D01*
X119131620Y-86186514D01*
X119204180Y-86164503D01*
X119314494Y-86105538D01*
X119411185Y-86026186D01*
X119490537Y-85929495D01*
X119549502Y-85819181D01*
X119585812Y-85699483D01*
X119598072Y-85575001D01*
X119598072Y-84578741D01*
X139485000Y-84578741D01*
X139485000Y-84871261D01*
X139542068Y-85158159D01*
X139654010Y-85428412D01*
X139816525Y-85671633D01*
X140023368Y-85878476D01*
X140197760Y-85995001D01*
X140023368Y-86111526D01*
X139816525Y-86318369D01*
X139654010Y-86561590D01*
X139542068Y-86831843D01*
X139485000Y-87118741D01*
X139485000Y-87411261D01*
X139542068Y-87698159D01*
X139654010Y-87968412D01*
X139816525Y-88211633D01*
X140023368Y-88418476D01*
X140197760Y-88535001D01*
X140023368Y-88651526D01*
X139816525Y-88858369D01*
X139654010Y-89101590D01*
X139542068Y-89371843D01*
X139485000Y-89658741D01*
X139485000Y-89951261D01*
X139542068Y-90238159D01*
X139654010Y-90508412D01*
X139816525Y-90751633D01*
X140023368Y-90958476D01*
X140197760Y-91075001D01*
X140023368Y-91191526D01*
X139816525Y-91398369D01*
X139654010Y-91641590D01*
X139542068Y-91911843D01*
X139485000Y-92198741D01*
X139485000Y-92491261D01*
X139542068Y-92778159D01*
X139654010Y-93048412D01*
X139816525Y-93291633D01*
X140023368Y-93498476D01*
X140205534Y-93620196D01*
X140088645Y-93689823D01*
X139872412Y-93884732D01*
X139698359Y-94118081D01*
X139573175Y-94380902D01*
X139528524Y-94528111D01*
X139649845Y-94758001D01*
X140843000Y-94758001D01*
X140843000Y-94738001D01*
X141097000Y-94738001D01*
X141097000Y-94758001D01*
X143383000Y-94758001D01*
X143383000Y-94738001D01*
X143637000Y-94738001D01*
X143637000Y-94758001D01*
X144830155Y-94758001D01*
X144951476Y-94528111D01*
X144906825Y-94380902D01*
X144781641Y-94118081D01*
X144607588Y-93884732D01*
X144391355Y-93689823D01*
X144274466Y-93620196D01*
X144456632Y-93498476D01*
X144663475Y-93291633D01*
X144825990Y-93048412D01*
X144937932Y-92778159D01*
X144995000Y-92491261D01*
X144995000Y-92198741D01*
X144937932Y-91911843D01*
X144825990Y-91641590D01*
X144663475Y-91398369D01*
X144456632Y-91191526D01*
X144282240Y-91075001D01*
X144456632Y-90958476D01*
X144663475Y-90751633D01*
X144825990Y-90508412D01*
X144937932Y-90238159D01*
X144995000Y-89951261D01*
X144995000Y-89658741D01*
X144937932Y-89371843D01*
X144825990Y-89101590D01*
X144663475Y-88858369D01*
X144456632Y-88651526D01*
X144282240Y-88535001D01*
X144456632Y-88418476D01*
X144663475Y-88211633D01*
X144825990Y-87968412D01*
X144937932Y-87698159D01*
X144995000Y-87411261D01*
X144995000Y-87118741D01*
X144937932Y-86831843D01*
X144825990Y-86561590D01*
X144663475Y-86318369D01*
X144531620Y-86186514D01*
X144604180Y-86164503D01*
X144714494Y-86105538D01*
X144811185Y-86026186D01*
X144890537Y-85929495D01*
X144949502Y-85819181D01*
X144985812Y-85699483D01*
X144998072Y-85575001D01*
X144998072Y-84578741D01*
X164885000Y-84578741D01*
X164885000Y-84871261D01*
X164942068Y-85158159D01*
X165054010Y-85428412D01*
X165216525Y-85671633D01*
X165423368Y-85878476D01*
X165597760Y-85995001D01*
X165423368Y-86111526D01*
X165216525Y-86318369D01*
X165054010Y-86561590D01*
X164942068Y-86831843D01*
X164885000Y-87118741D01*
X164885000Y-87411261D01*
X164942068Y-87698159D01*
X165054010Y-87968412D01*
X165216525Y-88211633D01*
X165423368Y-88418476D01*
X165597760Y-88535001D01*
X165423368Y-88651526D01*
X165216525Y-88858369D01*
X165054010Y-89101590D01*
X164942068Y-89371843D01*
X164885000Y-89658741D01*
X164885000Y-89951261D01*
X164942068Y-90238159D01*
X165054010Y-90508412D01*
X165216525Y-90751633D01*
X165423368Y-90958476D01*
X165597760Y-91075001D01*
X165423368Y-91191526D01*
X165216525Y-91398369D01*
X165054010Y-91641590D01*
X164942068Y-91911843D01*
X164885000Y-92198741D01*
X164885000Y-92491261D01*
X164942068Y-92778159D01*
X165054010Y-93048412D01*
X165216525Y-93291633D01*
X165423368Y-93498476D01*
X165605534Y-93620196D01*
X165488645Y-93689823D01*
X165272412Y-93884732D01*
X165098359Y-94118081D01*
X164973175Y-94380902D01*
X164928524Y-94528111D01*
X165049845Y-94758001D01*
X166243000Y-94758001D01*
X166243000Y-94738001D01*
X166497000Y-94738001D01*
X166497000Y-94758001D01*
X168783000Y-94758001D01*
X168783000Y-94738001D01*
X169037000Y-94738001D01*
X169037000Y-94758001D01*
X170230155Y-94758001D01*
X170351476Y-94528111D01*
X170306825Y-94380902D01*
X170181641Y-94118081D01*
X170007588Y-93884732D01*
X169791355Y-93689823D01*
X169674466Y-93620196D01*
X169856632Y-93498476D01*
X170063475Y-93291633D01*
X170225990Y-93048412D01*
X170337932Y-92778159D01*
X170395000Y-92491261D01*
X170395000Y-92198741D01*
X170337932Y-91911843D01*
X170225990Y-91641590D01*
X170063475Y-91398369D01*
X169856632Y-91191526D01*
X169682240Y-91075001D01*
X169856632Y-90958476D01*
X170063475Y-90751633D01*
X170225990Y-90508412D01*
X170337932Y-90238159D01*
X170395000Y-89951261D01*
X170395000Y-89658741D01*
X170337932Y-89371843D01*
X170225990Y-89101590D01*
X170063475Y-88858369D01*
X169856632Y-88651526D01*
X169682240Y-88535001D01*
X169856632Y-88418476D01*
X170063475Y-88211633D01*
X170225990Y-87968412D01*
X170337932Y-87698159D01*
X170395000Y-87411261D01*
X170395000Y-87118741D01*
X170337932Y-86831843D01*
X170225990Y-86561590D01*
X170063475Y-86318369D01*
X169931620Y-86186514D01*
X170004180Y-86164503D01*
X170114494Y-86105538D01*
X170211185Y-86026186D01*
X170290537Y-85929495D01*
X170349502Y-85819181D01*
X170385812Y-85699483D01*
X170398072Y-85575001D01*
X170398072Y-83875001D01*
X190281928Y-83875001D01*
X190281928Y-85575001D01*
X190294188Y-85699483D01*
X190330498Y-85819181D01*
X190389463Y-85929495D01*
X190468815Y-86026186D01*
X190565506Y-86105538D01*
X190675820Y-86164503D01*
X190748380Y-86186514D01*
X190616525Y-86318369D01*
X190454010Y-86561590D01*
X190342068Y-86831843D01*
X190285000Y-87118741D01*
X190285000Y-87411261D01*
X190342068Y-87698159D01*
X190454010Y-87968412D01*
X190616525Y-88211633D01*
X190823368Y-88418476D01*
X190997760Y-88535001D01*
X190823368Y-88651526D01*
X190616525Y-88858369D01*
X190454010Y-89101590D01*
X190342068Y-89371843D01*
X190285000Y-89658741D01*
X190285000Y-89951261D01*
X190342068Y-90238159D01*
X190454010Y-90508412D01*
X190616525Y-90751633D01*
X190823368Y-90958476D01*
X190997760Y-91075001D01*
X190823368Y-91191526D01*
X190616525Y-91398369D01*
X190454010Y-91641590D01*
X190342068Y-91911843D01*
X190285000Y-92198741D01*
X190285000Y-92491261D01*
X190342068Y-92778159D01*
X190454010Y-93048412D01*
X190616525Y-93291633D01*
X190823368Y-93498476D01*
X191005534Y-93620196D01*
X190888645Y-93689823D01*
X190672412Y-93884732D01*
X190498359Y-94118081D01*
X190373175Y-94380902D01*
X190328524Y-94528111D01*
X190449845Y-94758001D01*
X191643000Y-94758001D01*
X191643000Y-94738001D01*
X191897000Y-94738001D01*
X191897000Y-94758001D01*
X194183000Y-94758001D01*
X194183000Y-94738001D01*
X194437000Y-94738001D01*
X194437000Y-94758001D01*
X195630155Y-94758001D01*
X195751476Y-94528111D01*
X195706825Y-94380902D01*
X195581641Y-94118081D01*
X195407588Y-93884732D01*
X195191355Y-93689823D01*
X195074466Y-93620196D01*
X195256632Y-93498476D01*
X195463475Y-93291633D01*
X195625990Y-93048412D01*
X195737932Y-92778159D01*
X195795000Y-92491261D01*
X195795000Y-92198741D01*
X195737932Y-91911843D01*
X195625990Y-91641590D01*
X195463475Y-91398369D01*
X195256632Y-91191526D01*
X195082240Y-91075001D01*
X195256632Y-90958476D01*
X195463475Y-90751633D01*
X195625990Y-90508412D01*
X195737932Y-90238159D01*
X195795000Y-89951261D01*
X195795000Y-89658741D01*
X195737932Y-89371843D01*
X195625990Y-89101590D01*
X195463475Y-88858369D01*
X195256632Y-88651526D01*
X195082240Y-88535001D01*
X195256632Y-88418476D01*
X195463475Y-88211633D01*
X195625990Y-87968412D01*
X195737932Y-87698159D01*
X195795000Y-87411261D01*
X195795000Y-87118741D01*
X195737932Y-86831843D01*
X195625990Y-86561590D01*
X195463475Y-86318369D01*
X195256632Y-86111526D01*
X195082240Y-85995001D01*
X195256632Y-85878476D01*
X195463475Y-85671633D01*
X195625990Y-85428412D01*
X195737932Y-85158159D01*
X195795000Y-84871261D01*
X195795000Y-84578741D01*
X215685000Y-84578741D01*
X215685000Y-84871261D01*
X215742068Y-85158159D01*
X215854010Y-85428412D01*
X216016525Y-85671633D01*
X216223368Y-85878476D01*
X216397760Y-85995001D01*
X216223368Y-86111526D01*
X216016525Y-86318369D01*
X215854010Y-86561590D01*
X215742068Y-86831843D01*
X215685000Y-87118741D01*
X215685000Y-87411261D01*
X215742068Y-87698159D01*
X215854010Y-87968412D01*
X216016525Y-88211633D01*
X216223368Y-88418476D01*
X216397760Y-88535001D01*
X216223368Y-88651526D01*
X216016525Y-88858369D01*
X215854010Y-89101590D01*
X215742068Y-89371843D01*
X215685000Y-89658741D01*
X215685000Y-89951261D01*
X215742068Y-90238159D01*
X215854010Y-90508412D01*
X216016525Y-90751633D01*
X216223368Y-90958476D01*
X216397760Y-91075001D01*
X216223368Y-91191526D01*
X216016525Y-91398369D01*
X215854010Y-91641590D01*
X215742068Y-91911843D01*
X215685000Y-92198741D01*
X215685000Y-92491261D01*
X215742068Y-92778159D01*
X215854010Y-93048412D01*
X216016525Y-93291633D01*
X216223368Y-93498476D01*
X216405534Y-93620196D01*
X216288645Y-93689823D01*
X216072412Y-93884732D01*
X215898359Y-94118081D01*
X215773175Y-94380902D01*
X215728524Y-94528111D01*
X215849845Y-94758001D01*
X217043000Y-94758001D01*
X217043000Y-94738001D01*
X217297000Y-94738001D01*
X217297000Y-94758001D01*
X219583000Y-94758001D01*
X219583000Y-94738001D01*
X219837000Y-94738001D01*
X219837000Y-94758001D01*
X221030155Y-94758001D01*
X221151476Y-94528111D01*
X221106825Y-94380902D01*
X220981641Y-94118081D01*
X220807588Y-93884732D01*
X220591355Y-93689823D01*
X220474466Y-93620196D01*
X220656632Y-93498476D01*
X220863475Y-93291633D01*
X221025990Y-93048412D01*
X221137932Y-92778159D01*
X221195000Y-92491261D01*
X221195000Y-92198741D01*
X221137932Y-91911843D01*
X221025990Y-91641590D01*
X220863475Y-91398369D01*
X220656632Y-91191526D01*
X220482240Y-91075001D01*
X220656632Y-90958476D01*
X220863475Y-90751633D01*
X221025990Y-90508412D01*
X221137932Y-90238159D01*
X221195000Y-89951261D01*
X221195000Y-89658741D01*
X221137932Y-89371843D01*
X221025990Y-89101590D01*
X220863475Y-88858369D01*
X220656632Y-88651526D01*
X220482240Y-88535001D01*
X220656632Y-88418476D01*
X220863475Y-88211633D01*
X221025990Y-87968412D01*
X221137932Y-87698159D01*
X221195000Y-87411261D01*
X221195000Y-87118741D01*
X221137932Y-86831843D01*
X221025990Y-86561590D01*
X220863475Y-86318369D01*
X220731620Y-86186514D01*
X220804180Y-86164503D01*
X220914494Y-86105538D01*
X221011185Y-86026186D01*
X221090537Y-85929495D01*
X221149502Y-85819181D01*
X221185812Y-85699483D01*
X221198072Y-85575001D01*
X221198072Y-84578741D01*
X241085000Y-84578741D01*
X241085000Y-84871261D01*
X241142068Y-85158159D01*
X241254010Y-85428412D01*
X241416525Y-85671633D01*
X241623368Y-85878476D01*
X241797760Y-85995001D01*
X241623368Y-86111526D01*
X241416525Y-86318369D01*
X241254010Y-86561590D01*
X241142068Y-86831843D01*
X241085000Y-87118741D01*
X241085000Y-87411261D01*
X241142068Y-87698159D01*
X241254010Y-87968412D01*
X241416525Y-88211633D01*
X241623368Y-88418476D01*
X241797760Y-88535001D01*
X241623368Y-88651526D01*
X241416525Y-88858369D01*
X241254010Y-89101590D01*
X241142068Y-89371843D01*
X241085000Y-89658741D01*
X241085000Y-89951261D01*
X241142068Y-90238159D01*
X241254010Y-90508412D01*
X241416525Y-90751633D01*
X241623368Y-90958476D01*
X241797760Y-91075001D01*
X241623368Y-91191526D01*
X241416525Y-91398369D01*
X241254010Y-91641590D01*
X241142068Y-91911843D01*
X241085000Y-92198741D01*
X241085000Y-92491261D01*
X241142068Y-92778159D01*
X241254010Y-93048412D01*
X241416525Y-93291633D01*
X241623368Y-93498476D01*
X241805534Y-93620196D01*
X241688645Y-93689823D01*
X241472412Y-93884732D01*
X241298359Y-94118081D01*
X241173175Y-94380902D01*
X241128524Y-94528111D01*
X241249845Y-94758001D01*
X242443000Y-94758001D01*
X242443000Y-94738001D01*
X242697000Y-94738001D01*
X242697000Y-94758001D01*
X244983000Y-94758001D01*
X244983000Y-94738001D01*
X245237000Y-94738001D01*
X245237000Y-94758001D01*
X246430155Y-94758001D01*
X246551476Y-94528111D01*
X246506825Y-94380902D01*
X246381641Y-94118081D01*
X246207588Y-93884732D01*
X245991355Y-93689823D01*
X245874466Y-93620196D01*
X246056632Y-93498476D01*
X246263475Y-93291633D01*
X246425990Y-93048412D01*
X246537932Y-92778159D01*
X246595000Y-92491261D01*
X246595000Y-92198741D01*
X246537932Y-91911843D01*
X246425990Y-91641590D01*
X246263475Y-91398369D01*
X246056632Y-91191526D01*
X245882240Y-91075001D01*
X246056632Y-90958476D01*
X246263475Y-90751633D01*
X246425990Y-90508412D01*
X246537932Y-90238159D01*
X246595000Y-89951261D01*
X246595000Y-89658741D01*
X246537932Y-89371843D01*
X246425990Y-89101590D01*
X246263475Y-88858369D01*
X246056632Y-88651526D01*
X245882240Y-88535001D01*
X246056632Y-88418476D01*
X246263475Y-88211633D01*
X246425990Y-87968412D01*
X246537932Y-87698159D01*
X246595000Y-87411261D01*
X246595000Y-87118741D01*
X246537932Y-86831843D01*
X246425990Y-86561590D01*
X246263475Y-86318369D01*
X246131620Y-86186514D01*
X246204180Y-86164503D01*
X246314494Y-86105538D01*
X246411185Y-86026186D01*
X246490537Y-85929495D01*
X246549502Y-85819181D01*
X246585812Y-85699483D01*
X246598072Y-85575001D01*
X246598072Y-84578741D01*
X266010001Y-84578741D01*
X266010001Y-84871261D01*
X266067069Y-85158159D01*
X266179011Y-85428412D01*
X266341526Y-85671633D01*
X266548369Y-85878476D01*
X266722761Y-85995001D01*
X266548369Y-86111526D01*
X266341526Y-86318369D01*
X266179011Y-86561590D01*
X266067069Y-86831843D01*
X266010001Y-87118741D01*
X266010001Y-87411261D01*
X266067069Y-87698159D01*
X266179011Y-87968412D01*
X266341526Y-88211633D01*
X266548369Y-88418476D01*
X266722761Y-88535001D01*
X266548369Y-88651526D01*
X266341526Y-88858369D01*
X266179011Y-89101590D01*
X266067069Y-89371843D01*
X266010001Y-89658741D01*
X266010001Y-89951261D01*
X266067069Y-90238159D01*
X266179011Y-90508412D01*
X266341526Y-90751633D01*
X266548369Y-90958476D01*
X266722761Y-91075001D01*
X266548369Y-91191526D01*
X266341526Y-91398369D01*
X266179011Y-91641590D01*
X266067069Y-91911843D01*
X266010001Y-92198741D01*
X266010001Y-92491261D01*
X266067069Y-92778159D01*
X266179011Y-93048412D01*
X266341526Y-93291633D01*
X266548369Y-93498476D01*
X266730535Y-93620196D01*
X266613646Y-93689823D01*
X266397413Y-93884732D01*
X266223360Y-94118081D01*
X266098176Y-94380902D01*
X266053525Y-94528111D01*
X266174846Y-94758001D01*
X267368001Y-94758001D01*
X267368001Y-94738001D01*
X267622001Y-94738001D01*
X267622001Y-94758001D01*
X269908001Y-94758001D01*
X269908001Y-94738001D01*
X270162001Y-94738001D01*
X270162001Y-94758001D01*
X271355156Y-94758001D01*
X271476477Y-94528111D01*
X271431826Y-94380902D01*
X271306642Y-94118081D01*
X271132589Y-93884732D01*
X270916356Y-93689823D01*
X270799467Y-93620196D01*
X270981633Y-93498476D01*
X271188476Y-93291633D01*
X271350991Y-93048412D01*
X271462933Y-92778159D01*
X271520001Y-92491261D01*
X271520001Y-92198741D01*
X271462933Y-91911843D01*
X271350991Y-91641590D01*
X271188476Y-91398369D01*
X270981633Y-91191526D01*
X270807241Y-91075001D01*
X270981633Y-90958476D01*
X271188476Y-90751633D01*
X271350991Y-90508412D01*
X271462933Y-90238159D01*
X271520001Y-89951261D01*
X271520001Y-89658741D01*
X271462933Y-89371843D01*
X271350991Y-89101590D01*
X271188476Y-88858369D01*
X270981633Y-88651526D01*
X270807241Y-88535001D01*
X270981633Y-88418476D01*
X271188476Y-88211633D01*
X271350991Y-87968412D01*
X271462933Y-87698159D01*
X271520001Y-87411261D01*
X271520001Y-87118741D01*
X271462933Y-86831843D01*
X271350991Y-86561590D01*
X271188476Y-86318369D01*
X271056621Y-86186514D01*
X271129181Y-86164503D01*
X271239495Y-86105538D01*
X271336186Y-86026186D01*
X271415538Y-85929495D01*
X271474503Y-85819181D01*
X271510813Y-85699483D01*
X271523073Y-85575001D01*
X271523073Y-84578741D01*
X304585000Y-84578741D01*
X304585000Y-84871261D01*
X304642068Y-85158159D01*
X304754010Y-85428412D01*
X304916525Y-85671633D01*
X305123368Y-85878476D01*
X305297760Y-85995001D01*
X305123368Y-86111526D01*
X304916525Y-86318369D01*
X304754010Y-86561590D01*
X304642068Y-86831843D01*
X304585000Y-87118741D01*
X304585000Y-87411261D01*
X304642068Y-87698159D01*
X304754010Y-87968412D01*
X304916525Y-88211633D01*
X305123368Y-88418476D01*
X305297760Y-88535001D01*
X305123368Y-88651526D01*
X304916525Y-88858369D01*
X304754010Y-89101590D01*
X304642068Y-89371843D01*
X304585000Y-89658741D01*
X304585000Y-89951261D01*
X304642068Y-90238159D01*
X304754010Y-90508412D01*
X304916525Y-90751633D01*
X305123368Y-90958476D01*
X305297760Y-91075001D01*
X305123368Y-91191526D01*
X304916525Y-91398369D01*
X304754010Y-91641590D01*
X304642068Y-91911843D01*
X304585000Y-92198741D01*
X304585000Y-92491261D01*
X304642068Y-92778159D01*
X304754010Y-93048412D01*
X304916525Y-93291633D01*
X305123368Y-93498476D01*
X305305534Y-93620196D01*
X305188645Y-93689823D01*
X304972412Y-93884732D01*
X304798359Y-94118081D01*
X304673175Y-94380902D01*
X304628524Y-94528111D01*
X304749845Y-94758001D01*
X305943000Y-94758001D01*
X305943000Y-94738001D01*
X306197000Y-94738001D01*
X306197000Y-94758001D01*
X308483000Y-94758001D01*
X308483000Y-94738001D01*
X308737000Y-94738001D01*
X308737000Y-94758001D01*
X309930155Y-94758001D01*
X310051476Y-94528111D01*
X310006825Y-94380902D01*
X309881641Y-94118081D01*
X309707588Y-93884732D01*
X309491355Y-93689823D01*
X309374466Y-93620196D01*
X309556632Y-93498476D01*
X309763475Y-93291633D01*
X309925990Y-93048412D01*
X310037932Y-92778159D01*
X310095000Y-92491261D01*
X310095000Y-92198741D01*
X310037932Y-91911843D01*
X309925990Y-91641590D01*
X309763475Y-91398369D01*
X309556632Y-91191526D01*
X309382240Y-91075001D01*
X309556632Y-90958476D01*
X309763475Y-90751633D01*
X309925990Y-90508412D01*
X310037932Y-90238159D01*
X310095000Y-89951261D01*
X310095000Y-89658741D01*
X310037932Y-89371843D01*
X309925990Y-89101590D01*
X309763475Y-88858369D01*
X309556632Y-88651526D01*
X309382240Y-88535001D01*
X309556632Y-88418476D01*
X309763475Y-88211633D01*
X309925990Y-87968412D01*
X310037932Y-87698159D01*
X310095000Y-87411261D01*
X310095000Y-87118741D01*
X310037932Y-86831843D01*
X309925990Y-86561590D01*
X309763475Y-86318369D01*
X309631620Y-86186514D01*
X309704180Y-86164503D01*
X309814494Y-86105538D01*
X309911185Y-86026186D01*
X309990537Y-85929495D01*
X310049502Y-85819181D01*
X310085812Y-85699483D01*
X310098072Y-85575001D01*
X310098072Y-83875001D01*
X310085812Y-83750519D01*
X310049502Y-83630821D01*
X309990537Y-83520507D01*
X309911185Y-83423816D01*
X309814494Y-83344464D01*
X309704180Y-83285499D01*
X309584482Y-83249189D01*
X309460000Y-83236929D01*
X307760000Y-83236929D01*
X307635518Y-83249189D01*
X307515820Y-83285499D01*
X307405506Y-83344464D01*
X307308815Y-83423816D01*
X307229463Y-83520507D01*
X307170498Y-83630821D01*
X307148487Y-83703381D01*
X307016632Y-83571526D01*
X306773411Y-83409011D01*
X306503158Y-83297069D01*
X306216260Y-83240001D01*
X305923740Y-83240001D01*
X305636842Y-83297069D01*
X305366589Y-83409011D01*
X305123368Y-83571526D01*
X304916525Y-83778369D01*
X304754010Y-84021590D01*
X304642068Y-84291843D01*
X304585000Y-84578741D01*
X271523073Y-84578741D01*
X271523073Y-83875001D01*
X271510813Y-83750519D01*
X271474503Y-83630821D01*
X271415538Y-83520507D01*
X271336186Y-83423816D01*
X271239495Y-83344464D01*
X271129181Y-83285499D01*
X271009483Y-83249189D01*
X270885001Y-83236929D01*
X269185001Y-83236929D01*
X269060519Y-83249189D01*
X268940821Y-83285499D01*
X268830507Y-83344464D01*
X268733816Y-83423816D01*
X268654464Y-83520507D01*
X268595499Y-83630821D01*
X268573488Y-83703381D01*
X268441633Y-83571526D01*
X268198412Y-83409011D01*
X267928159Y-83297069D01*
X267641261Y-83240001D01*
X267348741Y-83240001D01*
X267061843Y-83297069D01*
X266791590Y-83409011D01*
X266548369Y-83571526D01*
X266341526Y-83778369D01*
X266179011Y-84021590D01*
X266067069Y-84291843D01*
X266010001Y-84578741D01*
X246598072Y-84578741D01*
X246598072Y-83875001D01*
X246585812Y-83750519D01*
X246549502Y-83630821D01*
X246490537Y-83520507D01*
X246411185Y-83423816D01*
X246314494Y-83344464D01*
X246204180Y-83285499D01*
X246084482Y-83249189D01*
X245960000Y-83236929D01*
X244260000Y-83236929D01*
X244135518Y-83249189D01*
X244015820Y-83285499D01*
X243905506Y-83344464D01*
X243808815Y-83423816D01*
X243729463Y-83520507D01*
X243670498Y-83630821D01*
X243648487Y-83703381D01*
X243516632Y-83571526D01*
X243273411Y-83409011D01*
X243003158Y-83297069D01*
X242716260Y-83240001D01*
X242423740Y-83240001D01*
X242136842Y-83297069D01*
X241866589Y-83409011D01*
X241623368Y-83571526D01*
X241416525Y-83778369D01*
X241254010Y-84021590D01*
X241142068Y-84291843D01*
X241085000Y-84578741D01*
X221198072Y-84578741D01*
X221198072Y-83875001D01*
X221185812Y-83750519D01*
X221149502Y-83630821D01*
X221090537Y-83520507D01*
X221011185Y-83423816D01*
X220914494Y-83344464D01*
X220804180Y-83285499D01*
X220684482Y-83249189D01*
X220560000Y-83236929D01*
X218860000Y-83236929D01*
X218735518Y-83249189D01*
X218615820Y-83285499D01*
X218505506Y-83344464D01*
X218408815Y-83423816D01*
X218329463Y-83520507D01*
X218270498Y-83630821D01*
X218248487Y-83703381D01*
X218116632Y-83571526D01*
X217873411Y-83409011D01*
X217603158Y-83297069D01*
X217316260Y-83240001D01*
X217023740Y-83240001D01*
X216736842Y-83297069D01*
X216466589Y-83409011D01*
X216223368Y-83571526D01*
X216016525Y-83778369D01*
X215854010Y-84021590D01*
X215742068Y-84291843D01*
X215685000Y-84578741D01*
X195795000Y-84578741D01*
X195737932Y-84291843D01*
X195625990Y-84021590D01*
X195463475Y-83778369D01*
X195256632Y-83571526D01*
X195013411Y-83409011D01*
X194743158Y-83297069D01*
X194456260Y-83240001D01*
X194163740Y-83240001D01*
X193876842Y-83297069D01*
X193606589Y-83409011D01*
X193363368Y-83571526D01*
X193231513Y-83703381D01*
X193209502Y-83630821D01*
X193150537Y-83520507D01*
X193071185Y-83423816D01*
X192974494Y-83344464D01*
X192864180Y-83285499D01*
X192744482Y-83249189D01*
X192620000Y-83236929D01*
X190920000Y-83236929D01*
X190795518Y-83249189D01*
X190675820Y-83285499D01*
X190565506Y-83344464D01*
X190468815Y-83423816D01*
X190389463Y-83520507D01*
X190330498Y-83630821D01*
X190294188Y-83750519D01*
X190281928Y-83875001D01*
X170398072Y-83875001D01*
X170385812Y-83750519D01*
X170349502Y-83630821D01*
X170290537Y-83520507D01*
X170211185Y-83423816D01*
X170114494Y-83344464D01*
X170004180Y-83285499D01*
X169884482Y-83249189D01*
X169760000Y-83236929D01*
X168060000Y-83236929D01*
X167935518Y-83249189D01*
X167815820Y-83285499D01*
X167705506Y-83344464D01*
X167608815Y-83423816D01*
X167529463Y-83520507D01*
X167470498Y-83630821D01*
X167448487Y-83703381D01*
X167316632Y-83571526D01*
X167073411Y-83409011D01*
X166803158Y-83297069D01*
X166516260Y-83240001D01*
X166223740Y-83240001D01*
X165936842Y-83297069D01*
X165666589Y-83409011D01*
X165423368Y-83571526D01*
X165216525Y-83778369D01*
X165054010Y-84021590D01*
X164942068Y-84291843D01*
X164885000Y-84578741D01*
X144998072Y-84578741D01*
X144998072Y-83875001D01*
X144985812Y-83750519D01*
X144949502Y-83630821D01*
X144890537Y-83520507D01*
X144811185Y-83423816D01*
X144714494Y-83344464D01*
X144604180Y-83285499D01*
X144484482Y-83249189D01*
X144360000Y-83236929D01*
X142660000Y-83236929D01*
X142535518Y-83249189D01*
X142415820Y-83285499D01*
X142305506Y-83344464D01*
X142208815Y-83423816D01*
X142129463Y-83520507D01*
X142070498Y-83630821D01*
X142048487Y-83703381D01*
X141916632Y-83571526D01*
X141673411Y-83409011D01*
X141403158Y-83297069D01*
X141116260Y-83240001D01*
X140823740Y-83240001D01*
X140536842Y-83297069D01*
X140266589Y-83409011D01*
X140023368Y-83571526D01*
X139816525Y-83778369D01*
X139654010Y-84021590D01*
X139542068Y-84291843D01*
X139485000Y-84578741D01*
X119598072Y-84578741D01*
X119598072Y-83875001D01*
X119585812Y-83750519D01*
X119549502Y-83630821D01*
X119490537Y-83520507D01*
X119411185Y-83423816D01*
X119314494Y-83344464D01*
X119204180Y-83285499D01*
X119084482Y-83249189D01*
X118960000Y-83236929D01*
X117260000Y-83236929D01*
X117135518Y-83249189D01*
X117015820Y-83285499D01*
X116905506Y-83344464D01*
X116808815Y-83423816D01*
X116729463Y-83520507D01*
X116670498Y-83630821D01*
X116648487Y-83703381D01*
X116516632Y-83571526D01*
X116273411Y-83409011D01*
X116003158Y-83297069D01*
X115716260Y-83240001D01*
X115423740Y-83240001D01*
X115136842Y-83297069D01*
X114866589Y-83409011D01*
X114623368Y-83571526D01*
X114416525Y-83778369D01*
X114254010Y-84021590D01*
X114142068Y-84291843D01*
X114085000Y-84578741D01*
X11557000Y-84578741D01*
X11557000Y-80366890D01*
X65868524Y-80366890D01*
X65913175Y-80514099D01*
X66038359Y-80776920D01*
X66212412Y-81010269D01*
X66428645Y-81205178D01*
X66678748Y-81354157D01*
X66953109Y-81451481D01*
X67183000Y-81330814D01*
X67183000Y-80137000D01*
X67437000Y-80137000D01*
X67437000Y-81330814D01*
X67666891Y-81451481D01*
X67941252Y-81354157D01*
X68191355Y-81205178D01*
X68407588Y-81010269D01*
X68581641Y-80776920D01*
X68706825Y-80514099D01*
X68751476Y-80366890D01*
X68630155Y-80137000D01*
X67437000Y-80137000D01*
X67183000Y-80137000D01*
X65989845Y-80137000D01*
X65868524Y-80366890D01*
X11557000Y-80366890D01*
X11557000Y-78580928D01*
X13038678Y-78580928D01*
X13344860Y-79024502D01*
X13932307Y-79339954D01*
X14570009Y-79534739D01*
X15233458Y-79601372D01*
X15897159Y-79537292D01*
X16535605Y-79344961D01*
X17124262Y-79031771D01*
X17135140Y-79024502D01*
X17441322Y-78580928D01*
X15240000Y-76379605D01*
X13038678Y-78580928D01*
X11557000Y-78580928D01*
X11557000Y-76193458D01*
X11838628Y-76193458D01*
X11902708Y-76857159D01*
X12095039Y-77495605D01*
X12408229Y-78084262D01*
X12415498Y-78095140D01*
X12859072Y-78401322D01*
X15060395Y-76200000D01*
X15419605Y-76200000D01*
X17620928Y-78401322D01*
X18064502Y-78095140D01*
X18379954Y-77507693D01*
X18574739Y-76869991D01*
X18599846Y-76620000D01*
X65821928Y-76620000D01*
X65821928Y-78320000D01*
X65834188Y-78444482D01*
X65870498Y-78564180D01*
X65929463Y-78674494D01*
X66008815Y-78771185D01*
X66105506Y-78850537D01*
X66215820Y-78909502D01*
X66296466Y-78933966D01*
X66212412Y-79009731D01*
X66038359Y-79243080D01*
X65913175Y-79505901D01*
X65868524Y-79653110D01*
X65989845Y-79883000D01*
X67183000Y-79883000D01*
X67183000Y-79863000D01*
X67437000Y-79863000D01*
X67437000Y-79883000D01*
X68630155Y-79883000D01*
X68751476Y-79653110D01*
X68706825Y-79505901D01*
X68581641Y-79243080D01*
X68407588Y-79009731D01*
X68323534Y-78933966D01*
X68404180Y-78909502D01*
X68514494Y-78850537D01*
X68611185Y-78771185D01*
X68690537Y-78674494D01*
X68740549Y-78580928D01*
X86698678Y-78580928D01*
X87004860Y-79024502D01*
X87592307Y-79339954D01*
X88230009Y-79534739D01*
X88893458Y-79601372D01*
X89557159Y-79537292D01*
X90195605Y-79344961D01*
X90784262Y-79031771D01*
X90795140Y-79024502D01*
X91101322Y-78580928D01*
X165438678Y-78580928D01*
X165744860Y-79024502D01*
X166332307Y-79339954D01*
X166970009Y-79534739D01*
X167633458Y-79601372D01*
X168297159Y-79537292D01*
X168935605Y-79344961D01*
X169524262Y-79031771D01*
X169535140Y-79024502D01*
X169841322Y-78580928D01*
X228938678Y-78580928D01*
X229244860Y-79024502D01*
X229832307Y-79339954D01*
X230470009Y-79534739D01*
X231133458Y-79601372D01*
X231797159Y-79537292D01*
X232435605Y-79344961D01*
X233024262Y-79031771D01*
X233035140Y-79024502D01*
X233341322Y-78580928D01*
X305138678Y-78580928D01*
X305444860Y-79024502D01*
X306032307Y-79339954D01*
X306670009Y-79534739D01*
X307333458Y-79601372D01*
X307997159Y-79537292D01*
X308635605Y-79344961D01*
X309224262Y-79031771D01*
X309235140Y-79024502D01*
X309541322Y-78580928D01*
X307340000Y-76379605D01*
X305138678Y-78580928D01*
X233341322Y-78580928D01*
X231140000Y-76379605D01*
X228938678Y-78580928D01*
X169841322Y-78580928D01*
X167640000Y-76379605D01*
X165438678Y-78580928D01*
X91101322Y-78580928D01*
X88900000Y-76379605D01*
X86698678Y-78580928D01*
X68740549Y-78580928D01*
X68749502Y-78564180D01*
X68785812Y-78444482D01*
X68798072Y-78320000D01*
X68798072Y-76620000D01*
X68785812Y-76495518D01*
X68749502Y-76375820D01*
X68690537Y-76265506D01*
X68631409Y-76193458D01*
X85498628Y-76193458D01*
X85562708Y-76857159D01*
X85755039Y-77495605D01*
X86068229Y-78084262D01*
X86075498Y-78095140D01*
X86519072Y-78401322D01*
X88720395Y-76200000D01*
X89079605Y-76200000D01*
X91280928Y-78401322D01*
X91724502Y-78095140D01*
X92039954Y-77507693D01*
X92234739Y-76869991D01*
X92301372Y-76206542D01*
X92300109Y-76193458D01*
X164238628Y-76193458D01*
X164302708Y-76857159D01*
X164495039Y-77495605D01*
X164808229Y-78084262D01*
X164815498Y-78095140D01*
X165259072Y-78401322D01*
X167460395Y-76200000D01*
X167819605Y-76200000D01*
X170020928Y-78401322D01*
X170464502Y-78095140D01*
X170779954Y-77507693D01*
X170974739Y-76869991D01*
X171041372Y-76206542D01*
X171040109Y-76193458D01*
X227738628Y-76193458D01*
X227802708Y-76857159D01*
X227995039Y-77495605D01*
X228308229Y-78084262D01*
X228315498Y-78095140D01*
X228759072Y-78401322D01*
X230960395Y-76200000D01*
X231319605Y-76200000D01*
X233520928Y-78401322D01*
X233964502Y-78095140D01*
X234279954Y-77507693D01*
X234474739Y-76869991D01*
X234541372Y-76206542D01*
X234540109Y-76193458D01*
X303938628Y-76193458D01*
X304002708Y-76857159D01*
X304195039Y-77495605D01*
X304508229Y-78084262D01*
X304515498Y-78095140D01*
X304959072Y-78401322D01*
X307160395Y-76200000D01*
X307519605Y-76200000D01*
X309720928Y-78401322D01*
X310164502Y-78095140D01*
X310479954Y-77507693D01*
X310674739Y-76869991D01*
X310741372Y-76206542D01*
X310677292Y-75542841D01*
X310484961Y-74904395D01*
X310171771Y-74315738D01*
X310164502Y-74304860D01*
X309720928Y-73998678D01*
X307519605Y-76200000D01*
X307160395Y-76200000D01*
X304959072Y-73998678D01*
X304515498Y-74304860D01*
X304200046Y-74892307D01*
X304005261Y-75530009D01*
X303938628Y-76193458D01*
X234540109Y-76193458D01*
X234477292Y-75542841D01*
X234284961Y-74904395D01*
X233971771Y-74315738D01*
X233964502Y-74304860D01*
X233520928Y-73998678D01*
X231319605Y-76200000D01*
X230960395Y-76200000D01*
X228759072Y-73998678D01*
X228315498Y-74304860D01*
X228000046Y-74892307D01*
X227805261Y-75530009D01*
X227738628Y-76193458D01*
X171040109Y-76193458D01*
X170977292Y-75542841D01*
X170784961Y-74904395D01*
X170471771Y-74315738D01*
X170464502Y-74304860D01*
X170020928Y-73998678D01*
X167819605Y-76200000D01*
X167460395Y-76200000D01*
X165259072Y-73998678D01*
X164815498Y-74304860D01*
X164500046Y-74892307D01*
X164305261Y-75530009D01*
X164238628Y-76193458D01*
X92300109Y-76193458D01*
X92237292Y-75542841D01*
X92044961Y-74904395D01*
X91731771Y-74315738D01*
X91724502Y-74304860D01*
X91280928Y-73998678D01*
X89079605Y-76200000D01*
X88720395Y-76200000D01*
X86519072Y-73998678D01*
X86075498Y-74304860D01*
X85760046Y-74892307D01*
X85565261Y-75530009D01*
X85498628Y-76193458D01*
X68631409Y-76193458D01*
X68611185Y-76168815D01*
X68514494Y-76089463D01*
X68404180Y-76030498D01*
X68284482Y-75994188D01*
X68160000Y-75981928D01*
X66460000Y-75981928D01*
X66335518Y-75994188D01*
X66215820Y-76030498D01*
X66105506Y-76089463D01*
X66008815Y-76168815D01*
X65929463Y-76265506D01*
X65870498Y-76375820D01*
X65834188Y-76495518D01*
X65821928Y-76620000D01*
X18599846Y-76620000D01*
X18641372Y-76206542D01*
X18577292Y-75542841D01*
X18384961Y-74904395D01*
X18071771Y-74315738D01*
X18064502Y-74304860D01*
X17620928Y-73998678D01*
X15419605Y-76200000D01*
X15060395Y-76200000D01*
X12859072Y-73998678D01*
X12415498Y-74304860D01*
X12100046Y-74892307D01*
X11905261Y-75530009D01*
X11838628Y-76193458D01*
X11557000Y-76193458D01*
X11557000Y-73819072D01*
X13038678Y-73819072D01*
X15240000Y-76020395D01*
X17441322Y-73819072D01*
X86698678Y-73819072D01*
X88900000Y-76020395D01*
X91101322Y-73819072D01*
X165438678Y-73819072D01*
X167640000Y-76020395D01*
X169841322Y-73819072D01*
X228938678Y-73819072D01*
X231140000Y-76020395D01*
X233341322Y-73819072D01*
X305138678Y-73819072D01*
X307340000Y-76020395D01*
X309541322Y-73819072D01*
X309235140Y-73375498D01*
X308647693Y-73060046D01*
X308009991Y-72865261D01*
X307346542Y-72798628D01*
X306682841Y-72862708D01*
X306044395Y-73055039D01*
X305455738Y-73368229D01*
X305444860Y-73375498D01*
X305138678Y-73819072D01*
X233341322Y-73819072D01*
X233035140Y-73375498D01*
X232447693Y-73060046D01*
X231809991Y-72865261D01*
X231146542Y-72798628D01*
X230482841Y-72862708D01*
X229844395Y-73055039D01*
X229255738Y-73368229D01*
X229244860Y-73375498D01*
X228938678Y-73819072D01*
X169841322Y-73819072D01*
X169535140Y-73375498D01*
X168947693Y-73060046D01*
X168309991Y-72865261D01*
X167646542Y-72798628D01*
X166982841Y-72862708D01*
X166344395Y-73055039D01*
X165755738Y-73368229D01*
X165744860Y-73375498D01*
X165438678Y-73819072D01*
X91101322Y-73819072D01*
X90795140Y-73375498D01*
X90207693Y-73060046D01*
X89569991Y-72865261D01*
X88906542Y-72798628D01*
X88242841Y-72862708D01*
X87604395Y-73055039D01*
X87015738Y-73368229D01*
X87004860Y-73375498D01*
X86698678Y-73819072D01*
X17441322Y-73819072D01*
X17135140Y-73375498D01*
X16547693Y-73060046D01*
X15909991Y-72865261D01*
X15246542Y-72798628D01*
X14582841Y-72862708D01*
X13944395Y-73055039D01*
X13355738Y-73368229D01*
X13344860Y-73375498D01*
X13038678Y-73819072D01*
X11557000Y-73819072D01*
X11557000Y-72517000D01*
X313563000Y-72517000D01*
X313563000Y-120523000D01*
M02*
