G04 #@! TF.GenerationSoftware,KiCad,Pcbnew,5.1.5+dfsg1-2build2*
G04 #@! TF.CreationDate,2020-12-17T01:47:48-07:00*
G04 #@! TF.ProjectId,eurorackBus,6575726f-7261-4636-9b42-75732e6b6963,rev?*
G04 #@! TF.SameCoordinates,Original*
G04 #@! TF.FileFunction,Legend,Top*
G04 #@! TF.FilePolarity,Positive*
%FSLAX46Y46*%
G04 Gerber Fmt 4.6, Leading zero omitted, Abs format (unit mm)*
G04 Created by KiCad (PCBNEW 5.1.5+dfsg1-2build2) date 2020-12-17 01:47:48*
%MOMM*%
%LPD*%
G04 APERTURE LIST*
%ADD10C,0.150000*%
%ADD11C,0.120000*%
%ADD12C,0.177800*%
%ADD13C,0.100000*%
G04 APERTURE END LIST*
D10*
X115292380Y-105227380D02*
X115292380Y-104227380D01*
X115530476Y-104227380D01*
X115673333Y-104275000D01*
X115768571Y-104370238D01*
X115816190Y-104465476D01*
X115863809Y-104655952D01*
X115863809Y-104798809D01*
X115816190Y-104989285D01*
X115768571Y-105084523D01*
X115673333Y-105179761D01*
X115530476Y-105227380D01*
X115292380Y-105227380D01*
X116673333Y-105179761D02*
X116578095Y-105227380D01*
X116387619Y-105227380D01*
X116292380Y-105179761D01*
X116244761Y-105084523D01*
X116244761Y-104703571D01*
X116292380Y-104608333D01*
X116387619Y-104560714D01*
X116578095Y-104560714D01*
X116673333Y-104608333D01*
X116720952Y-104703571D01*
X116720952Y-104798809D01*
X116244761Y-104894047D01*
X117054285Y-104560714D02*
X117292380Y-105227380D01*
X117530476Y-104560714D01*
X118435238Y-105227380D02*
X117863809Y-105227380D01*
X118149523Y-105227380D02*
X118149523Y-104227380D01*
X118054285Y-104370238D01*
X117959047Y-104465476D01*
X117863809Y-104513095D01*
X140692380Y-105227380D02*
X140692380Y-104227380D01*
X140930476Y-104227380D01*
X141073333Y-104275000D01*
X141168571Y-104370238D01*
X141216190Y-104465476D01*
X141263809Y-104655952D01*
X141263809Y-104798809D01*
X141216190Y-104989285D01*
X141168571Y-105084523D01*
X141073333Y-105179761D01*
X140930476Y-105227380D01*
X140692380Y-105227380D01*
X142073333Y-105179761D02*
X141978095Y-105227380D01*
X141787619Y-105227380D01*
X141692380Y-105179761D01*
X141644761Y-105084523D01*
X141644761Y-104703571D01*
X141692380Y-104608333D01*
X141787619Y-104560714D01*
X141978095Y-104560714D01*
X142073333Y-104608333D01*
X142120952Y-104703571D01*
X142120952Y-104798809D01*
X141644761Y-104894047D01*
X142454285Y-104560714D02*
X142692380Y-105227380D01*
X142930476Y-104560714D01*
X143263809Y-104322619D02*
X143311428Y-104275000D01*
X143406666Y-104227380D01*
X143644761Y-104227380D01*
X143740000Y-104275000D01*
X143787619Y-104322619D01*
X143835238Y-104417857D01*
X143835238Y-104513095D01*
X143787619Y-104655952D01*
X143216190Y-105227380D01*
X143835238Y-105227380D01*
X166092380Y-105227380D02*
X166092380Y-104227380D01*
X166330476Y-104227380D01*
X166473333Y-104275000D01*
X166568571Y-104370238D01*
X166616190Y-104465476D01*
X166663809Y-104655952D01*
X166663809Y-104798809D01*
X166616190Y-104989285D01*
X166568571Y-105084523D01*
X166473333Y-105179761D01*
X166330476Y-105227380D01*
X166092380Y-105227380D01*
X167473333Y-105179761D02*
X167378095Y-105227380D01*
X167187619Y-105227380D01*
X167092380Y-105179761D01*
X167044761Y-105084523D01*
X167044761Y-104703571D01*
X167092380Y-104608333D01*
X167187619Y-104560714D01*
X167378095Y-104560714D01*
X167473333Y-104608333D01*
X167520952Y-104703571D01*
X167520952Y-104798809D01*
X167044761Y-104894047D01*
X167854285Y-104560714D02*
X168092380Y-105227380D01*
X168330476Y-104560714D01*
X168616190Y-104227380D02*
X169235238Y-104227380D01*
X168901904Y-104608333D01*
X169044761Y-104608333D01*
X169140000Y-104655952D01*
X169187619Y-104703571D01*
X169235238Y-104798809D01*
X169235238Y-105036904D01*
X169187619Y-105132142D01*
X169140000Y-105179761D01*
X169044761Y-105227380D01*
X168759047Y-105227380D01*
X168663809Y-105179761D01*
X168616190Y-105132142D01*
X191492380Y-105227380D02*
X191492380Y-104227380D01*
X191730476Y-104227380D01*
X191873333Y-104275000D01*
X191968571Y-104370238D01*
X192016190Y-104465476D01*
X192063809Y-104655952D01*
X192063809Y-104798809D01*
X192016190Y-104989285D01*
X191968571Y-105084523D01*
X191873333Y-105179761D01*
X191730476Y-105227380D01*
X191492380Y-105227380D01*
X192873333Y-105179761D02*
X192778095Y-105227380D01*
X192587619Y-105227380D01*
X192492380Y-105179761D01*
X192444761Y-105084523D01*
X192444761Y-104703571D01*
X192492380Y-104608333D01*
X192587619Y-104560714D01*
X192778095Y-104560714D01*
X192873333Y-104608333D01*
X192920952Y-104703571D01*
X192920952Y-104798809D01*
X192444761Y-104894047D01*
X193254285Y-104560714D02*
X193492380Y-105227380D01*
X193730476Y-104560714D01*
X194540000Y-104560714D02*
X194540000Y-105227380D01*
X194301904Y-104179761D02*
X194063809Y-104894047D01*
X194682857Y-104894047D01*
X216892380Y-105227380D02*
X216892380Y-104227380D01*
X217130476Y-104227380D01*
X217273333Y-104275000D01*
X217368571Y-104370238D01*
X217416190Y-104465476D01*
X217463809Y-104655952D01*
X217463809Y-104798809D01*
X217416190Y-104989285D01*
X217368571Y-105084523D01*
X217273333Y-105179761D01*
X217130476Y-105227380D01*
X216892380Y-105227380D01*
X218273333Y-105179761D02*
X218178095Y-105227380D01*
X217987619Y-105227380D01*
X217892380Y-105179761D01*
X217844761Y-105084523D01*
X217844761Y-104703571D01*
X217892380Y-104608333D01*
X217987619Y-104560714D01*
X218178095Y-104560714D01*
X218273333Y-104608333D01*
X218320952Y-104703571D01*
X218320952Y-104798809D01*
X217844761Y-104894047D01*
X218654285Y-104560714D02*
X218892380Y-105227380D01*
X219130476Y-104560714D01*
X219987619Y-104227380D02*
X219511428Y-104227380D01*
X219463809Y-104703571D01*
X219511428Y-104655952D01*
X219606666Y-104608333D01*
X219844761Y-104608333D01*
X219940000Y-104655952D01*
X219987619Y-104703571D01*
X220035238Y-104798809D01*
X220035238Y-105036904D01*
X219987619Y-105132142D01*
X219940000Y-105179761D01*
X219844761Y-105227380D01*
X219606666Y-105227380D01*
X219511428Y-105179761D01*
X219463809Y-105132142D01*
X242165380Y-105227380D02*
X242165380Y-104227380D01*
X242403476Y-104227380D01*
X242546333Y-104275000D01*
X242641571Y-104370238D01*
X242689190Y-104465476D01*
X242736809Y-104655952D01*
X242736809Y-104798809D01*
X242689190Y-104989285D01*
X242641571Y-105084523D01*
X242546333Y-105179761D01*
X242403476Y-105227380D01*
X242165380Y-105227380D01*
X243546333Y-105179761D02*
X243451095Y-105227380D01*
X243260619Y-105227380D01*
X243165380Y-105179761D01*
X243117761Y-105084523D01*
X243117761Y-104703571D01*
X243165380Y-104608333D01*
X243260619Y-104560714D01*
X243451095Y-104560714D01*
X243546333Y-104608333D01*
X243593952Y-104703571D01*
X243593952Y-104798809D01*
X243117761Y-104894047D01*
X243927285Y-104560714D02*
X244165380Y-105227380D01*
X244403476Y-104560714D01*
X245213000Y-104227380D02*
X245022523Y-104227380D01*
X244927285Y-104275000D01*
X244879666Y-104322619D01*
X244784428Y-104465476D01*
X244736809Y-104655952D01*
X244736809Y-105036904D01*
X244784428Y-105132142D01*
X244832047Y-105179761D01*
X244927285Y-105227380D01*
X245117761Y-105227380D01*
X245213000Y-105179761D01*
X245260619Y-105132142D01*
X245308238Y-105036904D01*
X245308238Y-104798809D01*
X245260619Y-104703571D01*
X245213000Y-104655952D01*
X245117761Y-104608333D01*
X244927285Y-104608333D01*
X244832047Y-104655952D01*
X244784428Y-104703571D01*
X244736809Y-104798809D01*
X267184380Y-105227380D02*
X267184380Y-104227380D01*
X267422476Y-104227380D01*
X267565333Y-104275000D01*
X267660571Y-104370238D01*
X267708190Y-104465476D01*
X267755809Y-104655952D01*
X267755809Y-104798809D01*
X267708190Y-104989285D01*
X267660571Y-105084523D01*
X267565333Y-105179761D01*
X267422476Y-105227380D01*
X267184380Y-105227380D01*
X268565333Y-105179761D02*
X268470095Y-105227380D01*
X268279619Y-105227380D01*
X268184380Y-105179761D01*
X268136761Y-105084523D01*
X268136761Y-104703571D01*
X268184380Y-104608333D01*
X268279619Y-104560714D01*
X268470095Y-104560714D01*
X268565333Y-104608333D01*
X268612952Y-104703571D01*
X268612952Y-104798809D01*
X268136761Y-104894047D01*
X268946285Y-104560714D02*
X269184380Y-105227380D01*
X269422476Y-104560714D01*
X269708190Y-104227380D02*
X270374857Y-104227380D01*
X269946285Y-105227380D01*
X302681238Y-105227380D02*
X302681238Y-104227380D01*
X303157428Y-104560714D02*
X303157428Y-105227380D01*
X303157428Y-104655952D02*
X303205047Y-104608333D01*
X303300285Y-104560714D01*
X303443142Y-104560714D01*
X303538380Y-104608333D01*
X303586000Y-104703571D01*
X303586000Y-105227380D01*
X303919333Y-104560714D02*
X304300285Y-104560714D01*
X304062190Y-104227380D02*
X304062190Y-105084523D01*
X304109809Y-105179761D01*
X304205047Y-105227380D01*
X304300285Y-105227380D01*
X305014571Y-105179761D02*
X304919333Y-105227380D01*
X304728857Y-105227380D01*
X304633619Y-105179761D01*
X304586000Y-105084523D01*
X304586000Y-104703571D01*
X304633619Y-104608333D01*
X304728857Y-104560714D01*
X304919333Y-104560714D01*
X305014571Y-104608333D01*
X305062190Y-104703571D01*
X305062190Y-104798809D01*
X304586000Y-104894047D01*
X305490761Y-105227380D02*
X305490761Y-104560714D01*
X305490761Y-104751190D02*
X305538380Y-104655952D01*
X305586000Y-104608333D01*
X305681238Y-104560714D01*
X305776476Y-104560714D01*
X306538380Y-105179761D02*
X306443142Y-105227380D01*
X306252666Y-105227380D01*
X306157428Y-105179761D01*
X306109809Y-105132142D01*
X306062190Y-105036904D01*
X306062190Y-104751190D01*
X306109809Y-104655952D01*
X306157428Y-104608333D01*
X306252666Y-104560714D01*
X306443142Y-104560714D01*
X306538380Y-104608333D01*
X307109809Y-105227380D02*
X307014571Y-105179761D01*
X306966952Y-105132142D01*
X306919333Y-105036904D01*
X306919333Y-104751190D01*
X306966952Y-104655952D01*
X307014571Y-104608333D01*
X307109809Y-104560714D01*
X307252666Y-104560714D01*
X307347904Y-104608333D01*
X307395523Y-104655952D01*
X307443142Y-104751190D01*
X307443142Y-105036904D01*
X307395523Y-105132142D01*
X307347904Y-105179761D01*
X307252666Y-105227380D01*
X307109809Y-105227380D01*
X307871714Y-104560714D02*
X307871714Y-105227380D01*
X307871714Y-104655952D02*
X307919333Y-104608333D01*
X308014571Y-104560714D01*
X308157428Y-104560714D01*
X308252666Y-104608333D01*
X308300285Y-104703571D01*
X308300285Y-105227380D01*
X308776476Y-104560714D02*
X308776476Y-105227380D01*
X308776476Y-104655952D02*
X308824095Y-104608333D01*
X308919333Y-104560714D01*
X309062190Y-104560714D01*
X309157428Y-104608333D01*
X309205047Y-104703571D01*
X309205047Y-105227380D01*
X310062190Y-105179761D02*
X309966952Y-105227380D01*
X309776476Y-105227380D01*
X309681238Y-105179761D01*
X309633619Y-105084523D01*
X309633619Y-104703571D01*
X309681238Y-104608333D01*
X309776476Y-104560714D01*
X309966952Y-104560714D01*
X310062190Y-104608333D01*
X310109809Y-104703571D01*
X310109809Y-104798809D01*
X309633619Y-104894047D01*
X310966952Y-105179761D02*
X310871714Y-105227380D01*
X310681238Y-105227380D01*
X310586000Y-105179761D01*
X310538380Y-105132142D01*
X310490761Y-105036904D01*
X310490761Y-104751190D01*
X310538380Y-104655952D01*
X310586000Y-104608333D01*
X310681238Y-104560714D01*
X310871714Y-104560714D01*
X310966952Y-104608333D01*
X311252666Y-104560714D02*
X311633619Y-104560714D01*
X311395523Y-104227380D02*
X311395523Y-105084523D01*
X311443142Y-105179761D01*
X311538380Y-105227380D01*
X311633619Y-105227380D01*
D11*
X144907000Y-102489000D02*
X164973000Y-102489000D01*
X190373000Y-99949000D02*
X170307000Y-99949000D01*
X170307000Y-102489000D02*
X190373000Y-102489000D01*
X195707000Y-102489000D02*
X215773000Y-102489000D01*
X215773000Y-99949000D02*
X195707000Y-99949000D01*
X195707000Y-97409000D02*
X215773000Y-97409000D01*
X241173000Y-102489000D02*
X221107000Y-102489000D01*
X221107000Y-99949000D02*
X241173000Y-99949000D01*
X241173000Y-97409000D02*
X221107000Y-97409000D01*
X221107000Y-94869000D02*
X241173000Y-94869000D01*
X241173000Y-92329000D02*
X221107000Y-92329000D01*
X221107000Y-89789000D02*
X241300000Y-89789000D01*
X241173000Y-87249000D02*
X221107000Y-87249000D01*
X221107000Y-84709000D02*
X241173000Y-84709000D01*
X266065000Y-84709000D02*
X246380000Y-84709000D01*
X246507000Y-87249000D02*
X266192000Y-87249000D01*
X266192000Y-89789000D02*
X246507000Y-89789000D01*
X246507000Y-92329000D02*
X266192000Y-92329000D01*
X266065000Y-94869000D02*
X246507000Y-94869000D01*
X246507000Y-97409000D02*
X266065000Y-97409000D01*
X266192000Y-99949000D02*
X246507000Y-99949000D01*
X246507000Y-102489000D02*
X266192000Y-102489000D01*
X271399000Y-102489000D02*
X304673000Y-102489000D01*
X304673000Y-99949000D02*
X271399000Y-99949000D01*
X271399000Y-97409000D02*
X304673000Y-97409000D01*
X304673000Y-94869000D02*
X271399000Y-94869000D01*
X271399000Y-92329000D02*
X304673000Y-92329000D01*
X304673000Y-89789000D02*
X271399000Y-89789000D01*
X271399000Y-87249000D02*
X304673000Y-87249000D01*
X304673000Y-84709000D02*
X271526000Y-84709000D01*
X195707000Y-84709000D02*
X215773000Y-84709000D01*
X215773000Y-87249000D02*
X195707000Y-87249000D01*
X195707000Y-89789000D02*
X215773000Y-89789000D01*
X215773000Y-92329000D02*
X195707000Y-92329000D01*
X195707000Y-94869000D02*
X215773000Y-94869000D01*
X170307000Y-84709000D02*
X190373000Y-84709000D01*
X170307000Y-87249000D02*
X190373000Y-87249000D01*
X170307000Y-89789000D02*
X190373000Y-89789000D01*
X170307000Y-92329000D02*
X190373000Y-92329000D01*
X170307000Y-94869000D02*
X190373000Y-94869000D01*
X170307000Y-97409000D02*
X190373000Y-97409000D01*
X144907000Y-99949000D02*
X164973000Y-99949000D01*
X144907000Y-97409000D02*
X164973000Y-97409000D01*
X144907000Y-94869000D02*
X164973000Y-94869000D01*
X144907000Y-92329000D02*
X164973000Y-92329000D01*
X164973000Y-89789000D02*
X144907000Y-89789000D01*
X144907000Y-87249000D02*
X164973000Y-87249000D01*
X119507000Y-102489000D02*
X139573000Y-102489000D01*
X119507000Y-99949000D02*
X139573000Y-99949000D01*
X119507000Y-97409000D02*
X139573000Y-97409000D01*
X119507000Y-94869000D02*
X139573000Y-94869000D01*
X119507000Y-92329000D02*
X139573000Y-92329000D01*
X119507000Y-89789000D02*
X139700000Y-89789000D01*
X119380000Y-87249000D02*
X139700000Y-87249000D01*
X144840000Y-84725001D02*
X165100000Y-84709000D01*
X119440000Y-84725001D02*
X139700000Y-84709000D01*
D10*
X108728095Y-102687428D02*
X109490000Y-102687428D01*
X110490000Y-103068380D02*
X109918571Y-103068380D01*
X110204285Y-103068380D02*
X110204285Y-102068380D01*
X110109047Y-102211238D01*
X110013809Y-102306476D01*
X109918571Y-102354095D01*
X110870952Y-102163619D02*
X110918571Y-102116000D01*
X111013809Y-102068380D01*
X111251904Y-102068380D01*
X111347142Y-102116000D01*
X111394761Y-102163619D01*
X111442380Y-102258857D01*
X111442380Y-102354095D01*
X111394761Y-102496952D01*
X110823333Y-103068380D01*
X111442380Y-103068380D01*
X111728095Y-102068380D02*
X112061428Y-103068380D01*
X112394761Y-102068380D01*
X110236095Y-99449000D02*
X110140857Y-99401380D01*
X109998000Y-99401380D01*
X109855142Y-99449000D01*
X109759904Y-99544238D01*
X109712285Y-99639476D01*
X109664666Y-99829952D01*
X109664666Y-99972809D01*
X109712285Y-100163285D01*
X109759904Y-100258523D01*
X109855142Y-100353761D01*
X109998000Y-100401380D01*
X110093238Y-100401380D01*
X110236095Y-100353761D01*
X110283714Y-100306142D01*
X110283714Y-99972809D01*
X110093238Y-99972809D01*
X110712285Y-100401380D02*
X110712285Y-99401380D01*
X111283714Y-100401380D01*
X111283714Y-99401380D01*
X111759904Y-100401380D02*
X111759904Y-99401380D01*
X111998000Y-99401380D01*
X112140857Y-99449000D01*
X112236095Y-99544238D01*
X112283714Y-99639476D01*
X112331333Y-99829952D01*
X112331333Y-99972809D01*
X112283714Y-100163285D01*
X112236095Y-100258523D01*
X112140857Y-100353761D01*
X111998000Y-100401380D01*
X111759904Y-100401380D01*
X110236095Y-96909000D02*
X110140857Y-96861380D01*
X109998000Y-96861380D01*
X109855142Y-96909000D01*
X109759904Y-97004238D01*
X109712285Y-97099476D01*
X109664666Y-97289952D01*
X109664666Y-97432809D01*
X109712285Y-97623285D01*
X109759904Y-97718523D01*
X109855142Y-97813761D01*
X109998000Y-97861380D01*
X110093238Y-97861380D01*
X110236095Y-97813761D01*
X110283714Y-97766142D01*
X110283714Y-97432809D01*
X110093238Y-97432809D01*
X110712285Y-97861380D02*
X110712285Y-96861380D01*
X111283714Y-97861380D01*
X111283714Y-96861380D01*
X111759904Y-97861380D02*
X111759904Y-96861380D01*
X111998000Y-96861380D01*
X112140857Y-96909000D01*
X112236095Y-97004238D01*
X112283714Y-97099476D01*
X112331333Y-97289952D01*
X112331333Y-97432809D01*
X112283714Y-97623285D01*
X112236095Y-97718523D01*
X112140857Y-97813761D01*
X111998000Y-97861380D01*
X111759904Y-97861380D01*
X110236095Y-94369000D02*
X110140857Y-94321380D01*
X109998000Y-94321380D01*
X109855142Y-94369000D01*
X109759904Y-94464238D01*
X109712285Y-94559476D01*
X109664666Y-94749952D01*
X109664666Y-94892809D01*
X109712285Y-95083285D01*
X109759904Y-95178523D01*
X109855142Y-95273761D01*
X109998000Y-95321380D01*
X110093238Y-95321380D01*
X110236095Y-95273761D01*
X110283714Y-95226142D01*
X110283714Y-94892809D01*
X110093238Y-94892809D01*
X110712285Y-95321380D02*
X110712285Y-94321380D01*
X111283714Y-95321380D01*
X111283714Y-94321380D01*
X111759904Y-95321380D02*
X111759904Y-94321380D01*
X111998000Y-94321380D01*
X112140857Y-94369000D01*
X112236095Y-94464238D01*
X112283714Y-94559476D01*
X112331333Y-94749952D01*
X112331333Y-94892809D01*
X112283714Y-95083285D01*
X112236095Y-95178523D01*
X112140857Y-95273761D01*
X111998000Y-95321380D01*
X111759904Y-95321380D01*
X108601095Y-92527428D02*
X109363000Y-92527428D01*
X108982047Y-92908380D02*
X108982047Y-92146476D01*
X110363000Y-92908380D02*
X109791571Y-92908380D01*
X110077285Y-92908380D02*
X110077285Y-91908380D01*
X109982047Y-92051238D01*
X109886809Y-92146476D01*
X109791571Y-92194095D01*
X110743952Y-92003619D02*
X110791571Y-91956000D01*
X110886809Y-91908380D01*
X111124904Y-91908380D01*
X111220142Y-91956000D01*
X111267761Y-92003619D01*
X111315380Y-92098857D01*
X111315380Y-92194095D01*
X111267761Y-92336952D01*
X110696333Y-92908380D01*
X111315380Y-92908380D01*
X111601095Y-91908380D02*
X111934428Y-92908380D01*
X112267761Y-91908380D01*
X109458285Y-89987428D02*
X110220190Y-89987428D01*
X109839238Y-90368380D02*
X109839238Y-89606476D01*
X111172571Y-89368380D02*
X110696380Y-89368380D01*
X110648761Y-89844571D01*
X110696380Y-89796952D01*
X110791619Y-89749333D01*
X111029714Y-89749333D01*
X111124952Y-89796952D01*
X111172571Y-89844571D01*
X111220190Y-89939809D01*
X111220190Y-90177904D01*
X111172571Y-90273142D01*
X111124952Y-90320761D01*
X111029714Y-90368380D01*
X110791619Y-90368380D01*
X110696380Y-90320761D01*
X110648761Y-90273142D01*
X111505904Y-89368380D02*
X111839238Y-90368380D01*
X112172571Y-89368380D01*
X111259952Y-87606142D02*
X111212333Y-87653761D01*
X111069476Y-87701380D01*
X110974238Y-87701380D01*
X110831380Y-87653761D01*
X110736142Y-87558523D01*
X110688523Y-87463285D01*
X110640904Y-87272809D01*
X110640904Y-87129952D01*
X110688523Y-86939476D01*
X110736142Y-86844238D01*
X110831380Y-86749000D01*
X110974238Y-86701380D01*
X111069476Y-86701380D01*
X111212333Y-86749000D01*
X111259952Y-86796619D01*
X111545666Y-86701380D02*
X111879000Y-87701380D01*
X112212333Y-86701380D01*
X109617000Y-84209000D02*
X109521761Y-84161380D01*
X109378904Y-84161380D01*
X109236047Y-84209000D01*
X109140809Y-84304238D01*
X109093190Y-84399476D01*
X109045571Y-84589952D01*
X109045571Y-84732809D01*
X109093190Y-84923285D01*
X109140809Y-85018523D01*
X109236047Y-85113761D01*
X109378904Y-85161380D01*
X109474142Y-85161380D01*
X109617000Y-85113761D01*
X109664619Y-85066142D01*
X109664619Y-84732809D01*
X109474142Y-84732809D01*
X110045571Y-84875666D02*
X110521761Y-84875666D01*
X109950333Y-85161380D02*
X110283666Y-84161380D01*
X110617000Y-85161380D01*
X110807476Y-84161380D02*
X111378904Y-84161380D01*
X111093190Y-85161380D02*
X111093190Y-84161380D01*
X111712238Y-84637571D02*
X112045571Y-84637571D01*
X112188428Y-85161380D02*
X111712238Y-85161380D01*
X111712238Y-84161380D01*
X112188428Y-84161380D01*
D12*
X94249279Y-82002380D02*
X94362375Y-83002380D01*
X94642137Y-82288095D01*
X94743327Y-83002380D01*
X95106422Y-82002380D01*
X95362375Y-83002380D02*
X95445708Y-82335714D01*
X95487375Y-82002380D02*
X95433803Y-82050000D01*
X95475470Y-82097619D01*
X95529041Y-82050000D01*
X95487375Y-82002380D01*
X95475470Y-82097619D01*
X96273089Y-82954761D02*
X96171898Y-83002380D01*
X95981422Y-83002380D01*
X95892137Y-82954761D01*
X95850470Y-82907142D01*
X95814756Y-82811904D01*
X95850470Y-82526190D01*
X95909994Y-82430952D01*
X95963565Y-82383333D01*
X96064756Y-82335714D01*
X96255232Y-82335714D01*
X96344518Y-82383333D01*
X96695708Y-83002380D02*
X96820708Y-82002380D01*
X97124279Y-83002380D02*
X97189756Y-82478571D01*
X97154041Y-82383333D01*
X97064756Y-82335714D01*
X96921898Y-82335714D01*
X96820708Y-82383333D01*
X96767137Y-82430952D01*
X97630232Y-82002380D02*
X97743327Y-83002380D01*
X98023089Y-82288095D01*
X98124279Y-83002380D01*
X98487375Y-82002380D01*
X98886184Y-83002380D02*
X98796898Y-82954761D01*
X98755232Y-82907142D01*
X98719518Y-82811904D01*
X98755232Y-82526190D01*
X98814756Y-82430952D01*
X98868327Y-82383333D01*
X98969518Y-82335714D01*
X99112375Y-82335714D01*
X99201660Y-82383333D01*
X99243327Y-82430952D01*
X99279041Y-82526190D01*
X99243327Y-82811904D01*
X99183803Y-82907142D01*
X99130232Y-82954761D01*
X99029041Y-83002380D01*
X98886184Y-83002380D01*
X99648089Y-83002380D02*
X99731422Y-82335714D01*
X99707613Y-82526190D02*
X99767137Y-82430952D01*
X99820708Y-82383333D01*
X99921898Y-82335714D01*
X100017137Y-82335714D01*
X100267137Y-83002380D02*
X100392137Y-82002380D01*
X100409994Y-82621428D02*
X100648089Y-83002380D01*
X100731422Y-82335714D02*
X100302851Y-82716666D01*
X101034994Y-82954761D02*
X101124279Y-83002380D01*
X101314756Y-83002380D01*
X101415946Y-82954761D01*
X101475470Y-82859523D01*
X101481422Y-82811904D01*
X101445708Y-82716666D01*
X101356422Y-82669047D01*
X101213565Y-82669047D01*
X101124279Y-82621428D01*
X101088565Y-82526190D01*
X101094518Y-82478571D01*
X101154041Y-82383333D01*
X101255232Y-82335714D01*
X101398089Y-82335714D01*
X101487375Y-82383333D01*
X90874279Y-103036666D02*
X91350470Y-103036666D01*
X90743327Y-103322380D02*
X91201660Y-102322380D01*
X91409994Y-103322380D01*
X91725470Y-102322380D02*
X92296898Y-102322380D01*
X91886184Y-103322380D02*
X92011184Y-102322380D01*
X92487375Y-102322380D02*
X93058803Y-102322380D01*
X92648089Y-103322380D02*
X92773089Y-102322380D01*
X93255232Y-103036666D02*
X93731422Y-103036666D01*
X93124279Y-103322380D02*
X93582613Y-102322380D01*
X93790946Y-103322380D01*
X94707613Y-103227142D02*
X94654041Y-103274761D01*
X94505232Y-103322380D01*
X94409994Y-103322380D01*
X94273089Y-103274761D01*
X94189756Y-103179523D01*
X94154041Y-103084285D01*
X94130232Y-102893809D01*
X94148089Y-102750952D01*
X94219518Y-102560476D01*
X94279041Y-102465238D01*
X94386184Y-102370000D01*
X94534994Y-102322380D01*
X94630232Y-102322380D01*
X94767137Y-102370000D01*
X94808803Y-102417619D01*
X95124279Y-103322380D02*
X95249279Y-102322380D01*
X95695708Y-103322380D02*
X95338565Y-102750952D01*
X95820708Y-102322380D02*
X95177851Y-102893809D01*
X96082613Y-103274761D02*
X96219518Y-103322380D01*
X96457613Y-103322380D01*
X96558803Y-103274761D01*
X96612375Y-103227142D01*
X96671898Y-103131904D01*
X96683803Y-103036666D01*
X96648089Y-102941428D01*
X96606422Y-102893809D01*
X96517137Y-102846190D01*
X96332613Y-102798571D01*
X96243327Y-102750952D01*
X96201660Y-102703333D01*
X96165946Y-102608095D01*
X96177851Y-102512857D01*
X96237375Y-102417619D01*
X96290946Y-102370000D01*
X96392137Y-102322380D01*
X96630232Y-102322380D01*
X96767137Y-102370000D01*
X97314756Y-103703333D02*
X97273089Y-103655714D01*
X97195708Y-103512857D01*
X97159994Y-103417619D01*
X97130232Y-103274761D01*
X97112375Y-103036666D01*
X97136184Y-102846190D01*
X97213565Y-102608095D01*
X97279041Y-102465238D01*
X97338565Y-102370000D01*
X97451660Y-102227142D01*
X97505232Y-102179523D01*
X97731422Y-103036666D02*
X98207613Y-103036666D01*
X97600470Y-103322380D02*
X98058803Y-102322380D01*
X98267137Y-103322380D01*
X98582613Y-102322380D02*
X99154041Y-102322380D01*
X98743327Y-103322380D02*
X98868327Y-102322380D01*
X99392137Y-102322380D02*
X99933803Y-103322380D01*
X100058803Y-102322380D02*
X99267137Y-103322380D01*
X100171898Y-103703333D02*
X100225470Y-103655714D01*
X100338565Y-103512857D01*
X100398089Y-103417619D01*
X100463565Y-103274761D01*
X100540946Y-103036666D01*
X100564756Y-102846190D01*
X100546898Y-102608095D01*
X100517137Y-102465238D01*
X100481422Y-102370000D01*
X100404041Y-102227142D01*
X100362375Y-102179523D01*
X101029041Y-102941428D02*
X101790946Y-102941428D01*
X102618327Y-102798571D02*
X102755232Y-102846190D01*
X102796898Y-102893809D01*
X102832613Y-102989047D01*
X102814756Y-103131904D01*
X102755232Y-103227142D01*
X102701660Y-103274761D01*
X102600470Y-103322380D01*
X102219518Y-103322380D01*
X102344518Y-102322380D01*
X102677851Y-102322380D01*
X102767137Y-102370000D01*
X102808803Y-102417619D01*
X102844518Y-102512857D01*
X102832613Y-102608095D01*
X102773089Y-102703333D01*
X102719518Y-102750952D01*
X102618327Y-102798571D01*
X102284994Y-102798571D01*
X103344518Y-102322380D02*
X103243327Y-103131904D01*
X103279041Y-103227142D01*
X103320708Y-103274761D01*
X103409994Y-103322380D01*
X103600470Y-103322380D01*
X103701660Y-103274761D01*
X103755232Y-103227142D01*
X103814756Y-103131904D01*
X103915946Y-102322380D01*
X104225470Y-103274761D02*
X104362375Y-103322380D01*
X104600470Y-103322380D01*
X104701660Y-103274761D01*
X104755232Y-103227142D01*
X104814756Y-103131904D01*
X104826660Y-103036666D01*
X104790946Y-102941428D01*
X104749279Y-102893809D01*
X104659994Y-102846190D01*
X104475470Y-102798571D01*
X104386184Y-102750952D01*
X104344518Y-102703333D01*
X104308803Y-102608095D01*
X104320708Y-102512857D01*
X104380232Y-102417619D01*
X104433803Y-102370000D01*
X104534994Y-102322380D01*
X104773089Y-102322380D01*
X104909994Y-102370000D01*
D13*
G36*
X105417000Y-100710000D02*
G01*
X105417000Y-100210000D01*
X104917000Y-100210000D01*
X104917000Y-100710000D01*
X105417000Y-100710000D01*
G37*
G36*
X103917000Y-100710000D02*
G01*
X103917000Y-100210000D01*
X103417000Y-100210000D01*
X103417000Y-100710000D01*
X103917000Y-100710000D01*
G37*
G36*
X103417000Y-100710000D02*
G01*
X103417000Y-100210000D01*
X102917000Y-100210000D01*
X102917000Y-100710000D01*
X103417000Y-100710000D01*
G37*
G36*
X101917000Y-100710000D02*
G01*
X101917000Y-100210000D01*
X101417000Y-100210000D01*
X101417000Y-100710000D01*
X101917000Y-100710000D01*
G37*
G36*
X100917000Y-100710000D02*
G01*
X100917000Y-100210000D01*
X100417000Y-100210000D01*
X100417000Y-100710000D01*
X100917000Y-100710000D01*
G37*
G36*
X100417000Y-100710000D02*
G01*
X100417000Y-100210000D01*
X99917000Y-100210000D01*
X99917000Y-100710000D01*
X100417000Y-100710000D01*
G37*
G36*
X99417000Y-100710000D02*
G01*
X99417000Y-100210000D01*
X98917000Y-100210000D01*
X98917000Y-100710000D01*
X99417000Y-100710000D01*
G37*
G36*
X98417000Y-100710000D02*
G01*
X98417000Y-100210000D01*
X97917000Y-100210000D01*
X97917000Y-100710000D01*
X98417000Y-100710000D01*
G37*
G36*
X96917000Y-100710000D02*
G01*
X96917000Y-100210000D01*
X96417000Y-100210000D01*
X96417000Y-100710000D01*
X96917000Y-100710000D01*
G37*
G36*
X95917000Y-100710000D02*
G01*
X95917000Y-100210000D01*
X95417000Y-100210000D01*
X95417000Y-100710000D01*
X95917000Y-100710000D01*
G37*
G36*
X94917000Y-100710000D02*
G01*
X94917000Y-100210000D01*
X94417000Y-100210000D01*
X94417000Y-100710000D01*
X94917000Y-100710000D01*
G37*
G36*
X93917000Y-100710000D02*
G01*
X93917000Y-100210000D01*
X93417000Y-100210000D01*
X93417000Y-100710000D01*
X93917000Y-100710000D01*
G37*
G36*
X92917000Y-100710000D02*
G01*
X92917000Y-100210000D01*
X92417000Y-100210000D01*
X92417000Y-100710000D01*
X92917000Y-100710000D01*
G37*
G36*
X92417000Y-100710000D02*
G01*
X92417000Y-100210000D01*
X91917000Y-100210000D01*
X91917000Y-100710000D01*
X92417000Y-100710000D01*
G37*
G36*
X91917000Y-100710000D02*
G01*
X91917000Y-100210000D01*
X91417000Y-100210000D01*
X91417000Y-100710000D01*
X91917000Y-100710000D01*
G37*
G36*
X91417000Y-100710000D02*
G01*
X91417000Y-100210000D01*
X90917000Y-100210000D01*
X90917000Y-100710000D01*
X91417000Y-100710000D01*
G37*
G36*
X90917000Y-100710000D02*
G01*
X90917000Y-100210000D01*
X90417000Y-100210000D01*
X90417000Y-100710000D01*
X90917000Y-100710000D01*
G37*
G36*
X90417000Y-100710000D02*
G01*
X90417000Y-100210000D01*
X89917000Y-100210000D01*
X89917000Y-100710000D01*
X90417000Y-100710000D01*
G37*
G36*
X89917000Y-100710000D02*
G01*
X89917000Y-100210000D01*
X89417000Y-100210000D01*
X89417000Y-100710000D01*
X89917000Y-100710000D01*
G37*
G36*
X101917000Y-100210000D02*
G01*
X101917000Y-99710000D01*
X101417000Y-99710000D01*
X101417000Y-100210000D01*
X101917000Y-100210000D01*
G37*
G36*
X101417000Y-100210000D02*
G01*
X101417000Y-99710000D01*
X100917000Y-99710000D01*
X100917000Y-100210000D01*
X101417000Y-100210000D01*
G37*
G36*
X100417000Y-100210000D02*
G01*
X100417000Y-99710000D01*
X99917000Y-99710000D01*
X99917000Y-100210000D01*
X100417000Y-100210000D01*
G37*
G36*
X99417000Y-100210000D02*
G01*
X99417000Y-99710000D01*
X98917000Y-99710000D01*
X98917000Y-100210000D01*
X99417000Y-100210000D01*
G37*
G36*
X98917000Y-100210000D02*
G01*
X98917000Y-99710000D01*
X98417000Y-99710000D01*
X98417000Y-100210000D01*
X98917000Y-100210000D01*
G37*
G36*
X98417000Y-100210000D02*
G01*
X98417000Y-99710000D01*
X97917000Y-99710000D01*
X97917000Y-100210000D01*
X98417000Y-100210000D01*
G37*
G36*
X97917000Y-100210000D02*
G01*
X97917000Y-99710000D01*
X97417000Y-99710000D01*
X97417000Y-100210000D01*
X97917000Y-100210000D01*
G37*
G36*
X97417000Y-100210000D02*
G01*
X97417000Y-99710000D01*
X96917000Y-99710000D01*
X96917000Y-100210000D01*
X97417000Y-100210000D01*
G37*
G36*
X96417000Y-100210000D02*
G01*
X96417000Y-99710000D01*
X95917000Y-99710000D01*
X95917000Y-100210000D01*
X96417000Y-100210000D01*
G37*
G36*
X95417000Y-100210000D02*
G01*
X95417000Y-99710000D01*
X94917000Y-99710000D01*
X94917000Y-100210000D01*
X95417000Y-100210000D01*
G37*
G36*
X94417000Y-100210000D02*
G01*
X94417000Y-99710000D01*
X93917000Y-99710000D01*
X93917000Y-100210000D01*
X94417000Y-100210000D01*
G37*
G36*
X92917000Y-100210000D02*
G01*
X92917000Y-99710000D01*
X92417000Y-99710000D01*
X92417000Y-100210000D01*
X92917000Y-100210000D01*
G37*
G36*
X89917000Y-100210000D02*
G01*
X89917000Y-99710000D01*
X89417000Y-99710000D01*
X89417000Y-100210000D01*
X89917000Y-100210000D01*
G37*
G36*
X105917000Y-99710000D02*
G01*
X105917000Y-99210000D01*
X105417000Y-99210000D01*
X105417000Y-99710000D01*
X105917000Y-99710000D01*
G37*
G36*
X104917000Y-99710000D02*
G01*
X104917000Y-99210000D01*
X104417000Y-99210000D01*
X104417000Y-99710000D01*
X104917000Y-99710000D01*
G37*
G36*
X104417000Y-99710000D02*
G01*
X104417000Y-99210000D01*
X103917000Y-99210000D01*
X103917000Y-99710000D01*
X104417000Y-99710000D01*
G37*
G36*
X103917000Y-99710000D02*
G01*
X103917000Y-99210000D01*
X103417000Y-99210000D01*
X103417000Y-99710000D01*
X103917000Y-99710000D01*
G37*
G36*
X103417000Y-99710000D02*
G01*
X103417000Y-99210000D01*
X102917000Y-99210000D01*
X102917000Y-99710000D01*
X103417000Y-99710000D01*
G37*
G36*
X102917000Y-99710000D02*
G01*
X102917000Y-99210000D01*
X102417000Y-99210000D01*
X102417000Y-99710000D01*
X102917000Y-99710000D01*
G37*
G36*
X100917000Y-99710000D02*
G01*
X100917000Y-99210000D01*
X100417000Y-99210000D01*
X100417000Y-99710000D01*
X100917000Y-99710000D01*
G37*
G36*
X100417000Y-99710000D02*
G01*
X100417000Y-99210000D01*
X99917000Y-99210000D01*
X99917000Y-99710000D01*
X100417000Y-99710000D01*
G37*
G36*
X96417000Y-99710000D02*
G01*
X96417000Y-99210000D01*
X95917000Y-99210000D01*
X95917000Y-99710000D01*
X96417000Y-99710000D01*
G37*
G36*
X94417000Y-99710000D02*
G01*
X94417000Y-99210000D01*
X93917000Y-99210000D01*
X93917000Y-99710000D01*
X94417000Y-99710000D01*
G37*
G36*
X92917000Y-99710000D02*
G01*
X92917000Y-99210000D01*
X92417000Y-99210000D01*
X92417000Y-99710000D01*
X92917000Y-99710000D01*
G37*
G36*
X91917000Y-99710000D02*
G01*
X91917000Y-99210000D01*
X91417000Y-99210000D01*
X91417000Y-99710000D01*
X91917000Y-99710000D01*
G37*
G36*
X91417000Y-99710000D02*
G01*
X91417000Y-99210000D01*
X90917000Y-99210000D01*
X90917000Y-99710000D01*
X91417000Y-99710000D01*
G37*
G36*
X90917000Y-99710000D02*
G01*
X90917000Y-99210000D01*
X90417000Y-99210000D01*
X90417000Y-99710000D01*
X90917000Y-99710000D01*
G37*
G36*
X89917000Y-99710000D02*
G01*
X89917000Y-99210000D01*
X89417000Y-99210000D01*
X89417000Y-99710000D01*
X89917000Y-99710000D01*
G37*
G36*
X103917000Y-99210000D02*
G01*
X103917000Y-98710000D01*
X103417000Y-98710000D01*
X103417000Y-99210000D01*
X103917000Y-99210000D01*
G37*
G36*
X103417000Y-99210000D02*
G01*
X103417000Y-98710000D01*
X102917000Y-98710000D01*
X102917000Y-99210000D01*
X103417000Y-99210000D01*
G37*
G36*
X102917000Y-99210000D02*
G01*
X102917000Y-98710000D01*
X102417000Y-98710000D01*
X102417000Y-99210000D01*
X102917000Y-99210000D01*
G37*
G36*
X102417000Y-99210000D02*
G01*
X102417000Y-98710000D01*
X101917000Y-98710000D01*
X101917000Y-99210000D01*
X102417000Y-99210000D01*
G37*
G36*
X101917000Y-99210000D02*
G01*
X101917000Y-98710000D01*
X101417000Y-98710000D01*
X101417000Y-99210000D01*
X101917000Y-99210000D01*
G37*
G36*
X100417000Y-99210000D02*
G01*
X100417000Y-98710000D01*
X99917000Y-98710000D01*
X99917000Y-99210000D01*
X100417000Y-99210000D01*
G37*
G36*
X99917000Y-99210000D02*
G01*
X99917000Y-98710000D01*
X99417000Y-98710000D01*
X99417000Y-99210000D01*
X99917000Y-99210000D01*
G37*
G36*
X97417000Y-99210000D02*
G01*
X97417000Y-98710000D01*
X96917000Y-98710000D01*
X96917000Y-99210000D01*
X97417000Y-99210000D01*
G37*
G36*
X96917000Y-99210000D02*
G01*
X96917000Y-98710000D01*
X96417000Y-98710000D01*
X96417000Y-99210000D01*
X96917000Y-99210000D01*
G37*
G36*
X95917000Y-99210000D02*
G01*
X95917000Y-98710000D01*
X95417000Y-98710000D01*
X95417000Y-99210000D01*
X95917000Y-99210000D01*
G37*
G36*
X95417000Y-99210000D02*
G01*
X95417000Y-98710000D01*
X94917000Y-98710000D01*
X94917000Y-99210000D01*
X95417000Y-99210000D01*
G37*
G36*
X93917000Y-99210000D02*
G01*
X93917000Y-98710000D01*
X93417000Y-98710000D01*
X93417000Y-99210000D01*
X93917000Y-99210000D01*
G37*
G36*
X92917000Y-99210000D02*
G01*
X92917000Y-98710000D01*
X92417000Y-98710000D01*
X92417000Y-99210000D01*
X92917000Y-99210000D01*
G37*
G36*
X91917000Y-99210000D02*
G01*
X91917000Y-98710000D01*
X91417000Y-98710000D01*
X91417000Y-99210000D01*
X91917000Y-99210000D01*
G37*
G36*
X91417000Y-99210000D02*
G01*
X91417000Y-98710000D01*
X90917000Y-98710000D01*
X90917000Y-99210000D01*
X91417000Y-99210000D01*
G37*
G36*
X90917000Y-99210000D02*
G01*
X90917000Y-98710000D01*
X90417000Y-98710000D01*
X90417000Y-99210000D01*
X90917000Y-99210000D01*
G37*
G36*
X89917000Y-99210000D02*
G01*
X89917000Y-98710000D01*
X89417000Y-98710000D01*
X89417000Y-99210000D01*
X89917000Y-99210000D01*
G37*
G36*
X105917000Y-98710000D02*
G01*
X105917000Y-98210000D01*
X105417000Y-98210000D01*
X105417000Y-98710000D01*
X105917000Y-98710000D01*
G37*
G36*
X105417000Y-98710000D02*
G01*
X105417000Y-98210000D01*
X104917000Y-98210000D01*
X104917000Y-98710000D01*
X105417000Y-98710000D01*
G37*
G36*
X104917000Y-98710000D02*
G01*
X104917000Y-98210000D01*
X104417000Y-98210000D01*
X104417000Y-98710000D01*
X104917000Y-98710000D01*
G37*
G36*
X104417000Y-98710000D02*
G01*
X104417000Y-98210000D01*
X103917000Y-98210000D01*
X103917000Y-98710000D01*
X104417000Y-98710000D01*
G37*
G36*
X103917000Y-98710000D02*
G01*
X103917000Y-98210000D01*
X103417000Y-98210000D01*
X103417000Y-98710000D01*
X103917000Y-98710000D01*
G37*
G36*
X103417000Y-98710000D02*
G01*
X103417000Y-98210000D01*
X102917000Y-98210000D01*
X102917000Y-98710000D01*
X103417000Y-98710000D01*
G37*
G36*
X102917000Y-98710000D02*
G01*
X102917000Y-98210000D01*
X102417000Y-98210000D01*
X102417000Y-98710000D01*
X102917000Y-98710000D01*
G37*
G36*
X102417000Y-98710000D02*
G01*
X102417000Y-98210000D01*
X101917000Y-98210000D01*
X101917000Y-98710000D01*
X102417000Y-98710000D01*
G37*
G36*
X101917000Y-98710000D02*
G01*
X101917000Y-98210000D01*
X101417000Y-98210000D01*
X101417000Y-98710000D01*
X101917000Y-98710000D01*
G37*
G36*
X100917000Y-98710000D02*
G01*
X100917000Y-98210000D01*
X100417000Y-98210000D01*
X100417000Y-98710000D01*
X100917000Y-98710000D01*
G37*
G36*
X100417000Y-98710000D02*
G01*
X100417000Y-98210000D01*
X99917000Y-98210000D01*
X99917000Y-98710000D01*
X100417000Y-98710000D01*
G37*
G36*
X99917000Y-98710000D02*
G01*
X99917000Y-98210000D01*
X99417000Y-98210000D01*
X99417000Y-98710000D01*
X99917000Y-98710000D01*
G37*
G36*
X97917000Y-98710000D02*
G01*
X97917000Y-98210000D01*
X97417000Y-98210000D01*
X97417000Y-98710000D01*
X97917000Y-98710000D01*
G37*
G36*
X96917000Y-98710000D02*
G01*
X96917000Y-98210000D01*
X96417000Y-98210000D01*
X96417000Y-98710000D01*
X96917000Y-98710000D01*
G37*
G36*
X96417000Y-98710000D02*
G01*
X96417000Y-98210000D01*
X95917000Y-98210000D01*
X95917000Y-98710000D01*
X96417000Y-98710000D01*
G37*
G36*
X95417000Y-98710000D02*
G01*
X95417000Y-98210000D01*
X94917000Y-98210000D01*
X94917000Y-98710000D01*
X95417000Y-98710000D01*
G37*
G36*
X94917000Y-98710000D02*
G01*
X94917000Y-98210000D01*
X94417000Y-98210000D01*
X94417000Y-98710000D01*
X94917000Y-98710000D01*
G37*
G36*
X92917000Y-98710000D02*
G01*
X92917000Y-98210000D01*
X92417000Y-98210000D01*
X92417000Y-98710000D01*
X92917000Y-98710000D01*
G37*
G36*
X91917000Y-98710000D02*
G01*
X91917000Y-98210000D01*
X91417000Y-98210000D01*
X91417000Y-98710000D01*
X91917000Y-98710000D01*
G37*
G36*
X91417000Y-98710000D02*
G01*
X91417000Y-98210000D01*
X90917000Y-98210000D01*
X90917000Y-98710000D01*
X91417000Y-98710000D01*
G37*
G36*
X90917000Y-98710000D02*
G01*
X90917000Y-98210000D01*
X90417000Y-98210000D01*
X90417000Y-98710000D01*
X90917000Y-98710000D01*
G37*
G36*
X89917000Y-98710000D02*
G01*
X89917000Y-98210000D01*
X89417000Y-98210000D01*
X89417000Y-98710000D01*
X89917000Y-98710000D01*
G37*
G36*
X105417000Y-98210000D02*
G01*
X105417000Y-97710000D01*
X104917000Y-97710000D01*
X104917000Y-98210000D01*
X105417000Y-98210000D01*
G37*
G36*
X103917000Y-98210000D02*
G01*
X103917000Y-97710000D01*
X103417000Y-97710000D01*
X103417000Y-98210000D01*
X103917000Y-98210000D01*
G37*
G36*
X101917000Y-98210000D02*
G01*
X101917000Y-97710000D01*
X101417000Y-97710000D01*
X101417000Y-98210000D01*
X101917000Y-98210000D01*
G37*
G36*
X100417000Y-98210000D02*
G01*
X100417000Y-97710000D01*
X99917000Y-97710000D01*
X99917000Y-98210000D01*
X100417000Y-98210000D01*
G37*
G36*
X99417000Y-98210000D02*
G01*
X99417000Y-97710000D01*
X98917000Y-97710000D01*
X98917000Y-98210000D01*
X99417000Y-98210000D01*
G37*
G36*
X96417000Y-98210000D02*
G01*
X96417000Y-97710000D01*
X95917000Y-97710000D01*
X95917000Y-98210000D01*
X96417000Y-98210000D01*
G37*
G36*
X95417000Y-98210000D02*
G01*
X95417000Y-97710000D01*
X94917000Y-97710000D01*
X94917000Y-98210000D01*
X95417000Y-98210000D01*
G37*
G36*
X94417000Y-98210000D02*
G01*
X94417000Y-97710000D01*
X93917000Y-97710000D01*
X93917000Y-98210000D01*
X94417000Y-98210000D01*
G37*
G36*
X93917000Y-98210000D02*
G01*
X93917000Y-97710000D01*
X93417000Y-97710000D01*
X93417000Y-98210000D01*
X93917000Y-98210000D01*
G37*
G36*
X92917000Y-98210000D02*
G01*
X92917000Y-97710000D01*
X92417000Y-97710000D01*
X92417000Y-98210000D01*
X92917000Y-98210000D01*
G37*
G36*
X89917000Y-98210000D02*
G01*
X89917000Y-97710000D01*
X89417000Y-97710000D01*
X89417000Y-98210000D01*
X89917000Y-98210000D01*
G37*
G36*
X105417000Y-97710000D02*
G01*
X105417000Y-97210000D01*
X104917000Y-97210000D01*
X104917000Y-97710000D01*
X105417000Y-97710000D01*
G37*
G36*
X104917000Y-97710000D02*
G01*
X104917000Y-97210000D01*
X104417000Y-97210000D01*
X104417000Y-97710000D01*
X104917000Y-97710000D01*
G37*
G36*
X104417000Y-97710000D02*
G01*
X104417000Y-97210000D01*
X103917000Y-97210000D01*
X103917000Y-97710000D01*
X104417000Y-97710000D01*
G37*
G36*
X103917000Y-97710000D02*
G01*
X103917000Y-97210000D01*
X103417000Y-97210000D01*
X103417000Y-97710000D01*
X103917000Y-97710000D01*
G37*
G36*
X102917000Y-97710000D02*
G01*
X102917000Y-97210000D01*
X102417000Y-97210000D01*
X102417000Y-97710000D01*
X102917000Y-97710000D01*
G37*
G36*
X101917000Y-97710000D02*
G01*
X101917000Y-97210000D01*
X101417000Y-97210000D01*
X101417000Y-97710000D01*
X101917000Y-97710000D01*
G37*
G36*
X101417000Y-97710000D02*
G01*
X101417000Y-97210000D01*
X100917000Y-97210000D01*
X100917000Y-97710000D01*
X101417000Y-97710000D01*
G37*
G36*
X100417000Y-97710000D02*
G01*
X100417000Y-97210000D01*
X99917000Y-97210000D01*
X99917000Y-97710000D01*
X100417000Y-97710000D01*
G37*
G36*
X95917000Y-97710000D02*
G01*
X95917000Y-97210000D01*
X95417000Y-97210000D01*
X95417000Y-97710000D01*
X95917000Y-97710000D01*
G37*
G36*
X94917000Y-97710000D02*
G01*
X94917000Y-97210000D01*
X94417000Y-97210000D01*
X94417000Y-97710000D01*
X94917000Y-97710000D01*
G37*
G36*
X94417000Y-97710000D02*
G01*
X94417000Y-97210000D01*
X93917000Y-97210000D01*
X93917000Y-97710000D01*
X94417000Y-97710000D01*
G37*
G36*
X92917000Y-97710000D02*
G01*
X92917000Y-97210000D01*
X92417000Y-97210000D01*
X92417000Y-97710000D01*
X92917000Y-97710000D01*
G37*
G36*
X92417000Y-97710000D02*
G01*
X92417000Y-97210000D01*
X91917000Y-97210000D01*
X91917000Y-97710000D01*
X92417000Y-97710000D01*
G37*
G36*
X91917000Y-97710000D02*
G01*
X91917000Y-97210000D01*
X91417000Y-97210000D01*
X91417000Y-97710000D01*
X91917000Y-97710000D01*
G37*
G36*
X91417000Y-97710000D02*
G01*
X91417000Y-97210000D01*
X90917000Y-97210000D01*
X90917000Y-97710000D01*
X91417000Y-97710000D01*
G37*
G36*
X90917000Y-97710000D02*
G01*
X90917000Y-97210000D01*
X90417000Y-97210000D01*
X90417000Y-97710000D01*
X90917000Y-97710000D01*
G37*
G36*
X90417000Y-97710000D02*
G01*
X90417000Y-97210000D01*
X89917000Y-97210000D01*
X89917000Y-97710000D01*
X90417000Y-97710000D01*
G37*
G36*
X89917000Y-97710000D02*
G01*
X89917000Y-97210000D01*
X89417000Y-97210000D01*
X89417000Y-97710000D01*
X89917000Y-97710000D01*
G37*
G36*
X105917000Y-97210000D02*
G01*
X105917000Y-96710000D01*
X105417000Y-96710000D01*
X105417000Y-97210000D01*
X105917000Y-97210000D01*
G37*
G36*
X105417000Y-97210000D02*
G01*
X105417000Y-96710000D01*
X104917000Y-96710000D01*
X104917000Y-97210000D01*
X105417000Y-97210000D01*
G37*
G36*
X104917000Y-97210000D02*
G01*
X104917000Y-96710000D01*
X104417000Y-96710000D01*
X104417000Y-97210000D01*
X104917000Y-97210000D01*
G37*
G36*
X104417000Y-97210000D02*
G01*
X104417000Y-96710000D01*
X103917000Y-96710000D01*
X103917000Y-97210000D01*
X104417000Y-97210000D01*
G37*
G36*
X103917000Y-97210000D02*
G01*
X103917000Y-96710000D01*
X103417000Y-96710000D01*
X103417000Y-97210000D01*
X103917000Y-97210000D01*
G37*
G36*
X101917000Y-97210000D02*
G01*
X101917000Y-96710000D01*
X101417000Y-96710000D01*
X101417000Y-97210000D01*
X101917000Y-97210000D01*
G37*
G36*
X101417000Y-97210000D02*
G01*
X101417000Y-96710000D01*
X100917000Y-96710000D01*
X100917000Y-97210000D01*
X101417000Y-97210000D01*
G37*
G36*
X99917000Y-97210000D02*
G01*
X99917000Y-96710000D01*
X99417000Y-96710000D01*
X99417000Y-97210000D01*
X99917000Y-97210000D01*
G37*
G36*
X98917000Y-97210000D02*
G01*
X98917000Y-96710000D01*
X98417000Y-96710000D01*
X98417000Y-97210000D01*
X98917000Y-97210000D01*
G37*
G36*
X97917000Y-97210000D02*
G01*
X97917000Y-96710000D01*
X97417000Y-96710000D01*
X97417000Y-97210000D01*
X97917000Y-97210000D01*
G37*
G36*
X97417000Y-97210000D02*
G01*
X97417000Y-96710000D01*
X96917000Y-96710000D01*
X96917000Y-97210000D01*
X97417000Y-97210000D01*
G37*
G36*
X96417000Y-97210000D02*
G01*
X96417000Y-96710000D01*
X95917000Y-96710000D01*
X95917000Y-97210000D01*
X96417000Y-97210000D01*
G37*
G36*
X93917000Y-97210000D02*
G01*
X93917000Y-96710000D01*
X93417000Y-96710000D01*
X93417000Y-97210000D01*
X93917000Y-97210000D01*
G37*
G36*
X105917000Y-96710000D02*
G01*
X105917000Y-96210000D01*
X105417000Y-96210000D01*
X105417000Y-96710000D01*
X105917000Y-96710000D01*
G37*
G36*
X105417000Y-96710000D02*
G01*
X105417000Y-96210000D01*
X104917000Y-96210000D01*
X104917000Y-96710000D01*
X105417000Y-96710000D01*
G37*
G36*
X104417000Y-96710000D02*
G01*
X104417000Y-96210000D01*
X103917000Y-96210000D01*
X103917000Y-96710000D01*
X104417000Y-96710000D01*
G37*
G36*
X103917000Y-96710000D02*
G01*
X103917000Y-96210000D01*
X103417000Y-96210000D01*
X103417000Y-96710000D01*
X103917000Y-96710000D01*
G37*
G36*
X103417000Y-96710000D02*
G01*
X103417000Y-96210000D01*
X102917000Y-96210000D01*
X102917000Y-96710000D01*
X103417000Y-96710000D01*
G37*
G36*
X102917000Y-96710000D02*
G01*
X102917000Y-96210000D01*
X102417000Y-96210000D01*
X102417000Y-96710000D01*
X102917000Y-96710000D01*
G37*
G36*
X102417000Y-96710000D02*
G01*
X102417000Y-96210000D01*
X101917000Y-96210000D01*
X101917000Y-96710000D01*
X102417000Y-96710000D01*
G37*
G36*
X101917000Y-96710000D02*
G01*
X101917000Y-96210000D01*
X101417000Y-96210000D01*
X101417000Y-96710000D01*
X101917000Y-96710000D01*
G37*
G36*
X99917000Y-96710000D02*
G01*
X99917000Y-96210000D01*
X99417000Y-96210000D01*
X99417000Y-96710000D01*
X99917000Y-96710000D01*
G37*
G36*
X99417000Y-96710000D02*
G01*
X99417000Y-96210000D01*
X98917000Y-96210000D01*
X98917000Y-96710000D01*
X99417000Y-96710000D01*
G37*
G36*
X97917000Y-96710000D02*
G01*
X97917000Y-96210000D01*
X97417000Y-96210000D01*
X97417000Y-96710000D01*
X97917000Y-96710000D01*
G37*
G36*
X97417000Y-96710000D02*
G01*
X97417000Y-96210000D01*
X96917000Y-96210000D01*
X96917000Y-96710000D01*
X97417000Y-96710000D01*
G37*
G36*
X96917000Y-96710000D02*
G01*
X96917000Y-96210000D01*
X96417000Y-96210000D01*
X96417000Y-96710000D01*
X96917000Y-96710000D01*
G37*
G36*
X96417000Y-96710000D02*
G01*
X96417000Y-96210000D01*
X95917000Y-96210000D01*
X95917000Y-96710000D01*
X96417000Y-96710000D01*
G37*
G36*
X94917000Y-96710000D02*
G01*
X94917000Y-96210000D01*
X94417000Y-96210000D01*
X94417000Y-96710000D01*
X94917000Y-96710000D01*
G37*
G36*
X94417000Y-96710000D02*
G01*
X94417000Y-96210000D01*
X93917000Y-96210000D01*
X93917000Y-96710000D01*
X94417000Y-96710000D01*
G37*
G36*
X92917000Y-96710000D02*
G01*
X92917000Y-96210000D01*
X92417000Y-96210000D01*
X92417000Y-96710000D01*
X92917000Y-96710000D01*
G37*
G36*
X91917000Y-96710000D02*
G01*
X91917000Y-96210000D01*
X91417000Y-96210000D01*
X91417000Y-96710000D01*
X91917000Y-96710000D01*
G37*
G36*
X91417000Y-96710000D02*
G01*
X91417000Y-96210000D01*
X90917000Y-96210000D01*
X90917000Y-96710000D01*
X91417000Y-96710000D01*
G37*
G36*
X89917000Y-96710000D02*
G01*
X89917000Y-96210000D01*
X89417000Y-96210000D01*
X89417000Y-96710000D01*
X89917000Y-96710000D01*
G37*
G36*
X104417000Y-96210000D02*
G01*
X104417000Y-95710000D01*
X103917000Y-95710000D01*
X103917000Y-96210000D01*
X104417000Y-96210000D01*
G37*
G36*
X103417000Y-96210000D02*
G01*
X103417000Y-95710000D01*
X102917000Y-95710000D01*
X102917000Y-96210000D01*
X103417000Y-96210000D01*
G37*
G36*
X100917000Y-96210000D02*
G01*
X100917000Y-95710000D01*
X100417000Y-95710000D01*
X100417000Y-96210000D01*
X100917000Y-96210000D01*
G37*
G36*
X100417000Y-96210000D02*
G01*
X100417000Y-95710000D01*
X99917000Y-95710000D01*
X99917000Y-96210000D01*
X100417000Y-96210000D01*
G37*
G36*
X97917000Y-96210000D02*
G01*
X97917000Y-95710000D01*
X97417000Y-95710000D01*
X97417000Y-96210000D01*
X97917000Y-96210000D01*
G37*
G36*
X95917000Y-96210000D02*
G01*
X95917000Y-95710000D01*
X95417000Y-95710000D01*
X95417000Y-96210000D01*
X95917000Y-96210000D01*
G37*
G36*
X93917000Y-96210000D02*
G01*
X93917000Y-95710000D01*
X93417000Y-95710000D01*
X93417000Y-96210000D01*
X93917000Y-96210000D01*
G37*
G36*
X91917000Y-96210000D02*
G01*
X91917000Y-95710000D01*
X91417000Y-95710000D01*
X91417000Y-96210000D01*
X91917000Y-96210000D01*
G37*
G36*
X90917000Y-96210000D02*
G01*
X90917000Y-95710000D01*
X90417000Y-95710000D01*
X90417000Y-96210000D01*
X90917000Y-96210000D01*
G37*
G36*
X90417000Y-96210000D02*
G01*
X90417000Y-95710000D01*
X89917000Y-95710000D01*
X89917000Y-96210000D01*
X90417000Y-96210000D01*
G37*
G36*
X105917000Y-95710000D02*
G01*
X105917000Y-95210000D01*
X105417000Y-95210000D01*
X105417000Y-95710000D01*
X105917000Y-95710000D01*
G37*
G36*
X104417000Y-95710000D02*
G01*
X104417000Y-95210000D01*
X103917000Y-95210000D01*
X103917000Y-95710000D01*
X104417000Y-95710000D01*
G37*
G36*
X103917000Y-95710000D02*
G01*
X103917000Y-95210000D01*
X103417000Y-95210000D01*
X103417000Y-95710000D01*
X103917000Y-95710000D01*
G37*
G36*
X102917000Y-95710000D02*
G01*
X102917000Y-95210000D01*
X102417000Y-95210000D01*
X102417000Y-95710000D01*
X102917000Y-95710000D01*
G37*
G36*
X102417000Y-95710000D02*
G01*
X102417000Y-95210000D01*
X101917000Y-95210000D01*
X101917000Y-95710000D01*
X102417000Y-95710000D01*
G37*
G36*
X100417000Y-95710000D02*
G01*
X100417000Y-95210000D01*
X99917000Y-95210000D01*
X99917000Y-95710000D01*
X100417000Y-95710000D01*
G37*
G36*
X99417000Y-95710000D02*
G01*
X99417000Y-95210000D01*
X98917000Y-95210000D01*
X98917000Y-95710000D01*
X99417000Y-95710000D01*
G37*
G36*
X98917000Y-95710000D02*
G01*
X98917000Y-95210000D01*
X98417000Y-95210000D01*
X98417000Y-95710000D01*
X98917000Y-95710000D01*
G37*
G36*
X98417000Y-95710000D02*
G01*
X98417000Y-95210000D01*
X97917000Y-95210000D01*
X97917000Y-95710000D01*
X98417000Y-95710000D01*
G37*
G36*
X97417000Y-95710000D02*
G01*
X97417000Y-95210000D01*
X96917000Y-95210000D01*
X96917000Y-95710000D01*
X97417000Y-95710000D01*
G37*
G36*
X96417000Y-95710000D02*
G01*
X96417000Y-95210000D01*
X95917000Y-95210000D01*
X95917000Y-95710000D01*
X96417000Y-95710000D01*
G37*
G36*
X95917000Y-95710000D02*
G01*
X95917000Y-95210000D01*
X95417000Y-95210000D01*
X95417000Y-95710000D01*
X95917000Y-95710000D01*
G37*
G36*
X94417000Y-95710000D02*
G01*
X94417000Y-95210000D01*
X93917000Y-95210000D01*
X93917000Y-95710000D01*
X94417000Y-95710000D01*
G37*
G36*
X93917000Y-95710000D02*
G01*
X93917000Y-95210000D01*
X93417000Y-95210000D01*
X93417000Y-95710000D01*
X93917000Y-95710000D01*
G37*
G36*
X92917000Y-95710000D02*
G01*
X92917000Y-95210000D01*
X92417000Y-95210000D01*
X92417000Y-95710000D01*
X92917000Y-95710000D01*
G37*
G36*
X92417000Y-95710000D02*
G01*
X92417000Y-95210000D01*
X91917000Y-95210000D01*
X91917000Y-95710000D01*
X92417000Y-95710000D01*
G37*
G36*
X91417000Y-95710000D02*
G01*
X91417000Y-95210000D01*
X90917000Y-95210000D01*
X90917000Y-95710000D01*
X91417000Y-95710000D01*
G37*
G36*
X90917000Y-95710000D02*
G01*
X90917000Y-95210000D01*
X90417000Y-95210000D01*
X90417000Y-95710000D01*
X90917000Y-95710000D01*
G37*
G36*
X90417000Y-95710000D02*
G01*
X90417000Y-95210000D01*
X89917000Y-95210000D01*
X89917000Y-95710000D01*
X90417000Y-95710000D01*
G37*
G36*
X89917000Y-95710000D02*
G01*
X89917000Y-95210000D01*
X89417000Y-95210000D01*
X89417000Y-95710000D01*
X89917000Y-95710000D01*
G37*
G36*
X104917000Y-95210000D02*
G01*
X104917000Y-94710000D01*
X104417000Y-94710000D01*
X104417000Y-95210000D01*
X104917000Y-95210000D01*
G37*
G36*
X102917000Y-95210000D02*
G01*
X102917000Y-94710000D01*
X102417000Y-94710000D01*
X102417000Y-95210000D01*
X102917000Y-95210000D01*
G37*
G36*
X101917000Y-95210000D02*
G01*
X101917000Y-94710000D01*
X101417000Y-94710000D01*
X101417000Y-95210000D01*
X101917000Y-95210000D01*
G37*
G36*
X99917000Y-95210000D02*
G01*
X99917000Y-94710000D01*
X99417000Y-94710000D01*
X99417000Y-95210000D01*
X99917000Y-95210000D01*
G37*
G36*
X99417000Y-95210000D02*
G01*
X99417000Y-94710000D01*
X98917000Y-94710000D01*
X98917000Y-95210000D01*
X99417000Y-95210000D01*
G37*
G36*
X98417000Y-95210000D02*
G01*
X98417000Y-94710000D01*
X97917000Y-94710000D01*
X97917000Y-95210000D01*
X98417000Y-95210000D01*
G37*
G36*
X97917000Y-95210000D02*
G01*
X97917000Y-94710000D01*
X97417000Y-94710000D01*
X97417000Y-95210000D01*
X97917000Y-95210000D01*
G37*
G36*
X97417000Y-95210000D02*
G01*
X97417000Y-94710000D01*
X96917000Y-94710000D01*
X96917000Y-95210000D01*
X97417000Y-95210000D01*
G37*
G36*
X95917000Y-95210000D02*
G01*
X95917000Y-94710000D01*
X95417000Y-94710000D01*
X95417000Y-95210000D01*
X95917000Y-95210000D01*
G37*
G36*
X95417000Y-95210000D02*
G01*
X95417000Y-94710000D01*
X94917000Y-94710000D01*
X94917000Y-95210000D01*
X95417000Y-95210000D01*
G37*
G36*
X94917000Y-95210000D02*
G01*
X94917000Y-94710000D01*
X94417000Y-94710000D01*
X94417000Y-95210000D01*
X94917000Y-95210000D01*
G37*
G36*
X94417000Y-95210000D02*
G01*
X94417000Y-94710000D01*
X93917000Y-94710000D01*
X93917000Y-95210000D01*
X94417000Y-95210000D01*
G37*
G36*
X93417000Y-95210000D02*
G01*
X93417000Y-94710000D01*
X92917000Y-94710000D01*
X92917000Y-95210000D01*
X93417000Y-95210000D01*
G37*
G36*
X91917000Y-95210000D02*
G01*
X91917000Y-94710000D01*
X91417000Y-94710000D01*
X91417000Y-95210000D01*
X91917000Y-95210000D01*
G37*
G36*
X90917000Y-95210000D02*
G01*
X90917000Y-94710000D01*
X90417000Y-94710000D01*
X90417000Y-95210000D01*
X90917000Y-95210000D01*
G37*
G36*
X104417000Y-94710000D02*
G01*
X104417000Y-94210000D01*
X103917000Y-94210000D01*
X103917000Y-94710000D01*
X104417000Y-94710000D01*
G37*
G36*
X102417000Y-94710000D02*
G01*
X102417000Y-94210000D01*
X101917000Y-94210000D01*
X101917000Y-94710000D01*
X102417000Y-94710000D01*
G37*
G36*
X101917000Y-94710000D02*
G01*
X101917000Y-94210000D01*
X101417000Y-94210000D01*
X101417000Y-94710000D01*
X101917000Y-94710000D01*
G37*
G36*
X101417000Y-94710000D02*
G01*
X101417000Y-94210000D01*
X100917000Y-94210000D01*
X100917000Y-94710000D01*
X101417000Y-94710000D01*
G37*
G36*
X100417000Y-94710000D02*
G01*
X100417000Y-94210000D01*
X99917000Y-94210000D01*
X99917000Y-94710000D01*
X100417000Y-94710000D01*
G37*
G36*
X99917000Y-94710000D02*
G01*
X99917000Y-94210000D01*
X99417000Y-94210000D01*
X99417000Y-94710000D01*
X99917000Y-94710000D01*
G37*
G36*
X98917000Y-94710000D02*
G01*
X98917000Y-94210000D01*
X98417000Y-94210000D01*
X98417000Y-94710000D01*
X98917000Y-94710000D01*
G37*
G36*
X98417000Y-94710000D02*
G01*
X98417000Y-94210000D01*
X97917000Y-94210000D01*
X97917000Y-94710000D01*
X98417000Y-94710000D01*
G37*
G36*
X97917000Y-94710000D02*
G01*
X97917000Y-94210000D01*
X97417000Y-94210000D01*
X97417000Y-94710000D01*
X97917000Y-94710000D01*
G37*
G36*
X97417000Y-94710000D02*
G01*
X97417000Y-94210000D01*
X96917000Y-94210000D01*
X96917000Y-94710000D01*
X97417000Y-94710000D01*
G37*
G36*
X95917000Y-94710000D02*
G01*
X95917000Y-94210000D01*
X95417000Y-94210000D01*
X95417000Y-94710000D01*
X95917000Y-94710000D01*
G37*
G36*
X95417000Y-94710000D02*
G01*
X95417000Y-94210000D01*
X94917000Y-94210000D01*
X94917000Y-94710000D01*
X95417000Y-94710000D01*
G37*
G36*
X94417000Y-94710000D02*
G01*
X94417000Y-94210000D01*
X93917000Y-94210000D01*
X93917000Y-94710000D01*
X94417000Y-94710000D01*
G37*
G36*
X93917000Y-94710000D02*
G01*
X93917000Y-94210000D01*
X93417000Y-94210000D01*
X93417000Y-94710000D01*
X93917000Y-94710000D01*
G37*
G36*
X93417000Y-94710000D02*
G01*
X93417000Y-94210000D01*
X92917000Y-94210000D01*
X92917000Y-94710000D01*
X93417000Y-94710000D01*
G37*
G36*
X92917000Y-94710000D02*
G01*
X92917000Y-94210000D01*
X92417000Y-94210000D01*
X92417000Y-94710000D01*
X92917000Y-94710000D01*
G37*
G36*
X92417000Y-94710000D02*
G01*
X92417000Y-94210000D01*
X91917000Y-94210000D01*
X91917000Y-94710000D01*
X92417000Y-94710000D01*
G37*
G36*
X91917000Y-94710000D02*
G01*
X91917000Y-94210000D01*
X91417000Y-94210000D01*
X91417000Y-94710000D01*
X91917000Y-94710000D01*
G37*
G36*
X90917000Y-94710000D02*
G01*
X90917000Y-94210000D01*
X90417000Y-94210000D01*
X90417000Y-94710000D01*
X90917000Y-94710000D01*
G37*
G36*
X105917000Y-94210000D02*
G01*
X105917000Y-93710000D01*
X105417000Y-93710000D01*
X105417000Y-94210000D01*
X105917000Y-94210000D01*
G37*
G36*
X105417000Y-94210000D02*
G01*
X105417000Y-93710000D01*
X104917000Y-93710000D01*
X104917000Y-94210000D01*
X105417000Y-94210000D01*
G37*
G36*
X102917000Y-94210000D02*
G01*
X102917000Y-93710000D01*
X102417000Y-93710000D01*
X102417000Y-94210000D01*
X102917000Y-94210000D01*
G37*
G36*
X101417000Y-94210000D02*
G01*
X101417000Y-93710000D01*
X100917000Y-93710000D01*
X100917000Y-94210000D01*
X101417000Y-94210000D01*
G37*
G36*
X100417000Y-94210000D02*
G01*
X100417000Y-93710000D01*
X99917000Y-93710000D01*
X99917000Y-94210000D01*
X100417000Y-94210000D01*
G37*
G36*
X98917000Y-94210000D02*
G01*
X98917000Y-93710000D01*
X98417000Y-93710000D01*
X98417000Y-94210000D01*
X98917000Y-94210000D01*
G37*
G36*
X98417000Y-94210000D02*
G01*
X98417000Y-93710000D01*
X97917000Y-93710000D01*
X97917000Y-94210000D01*
X98417000Y-94210000D01*
G37*
G36*
X97917000Y-94210000D02*
G01*
X97917000Y-93710000D01*
X97417000Y-93710000D01*
X97417000Y-94210000D01*
X97917000Y-94210000D01*
G37*
G36*
X96917000Y-94210000D02*
G01*
X96917000Y-93710000D01*
X96417000Y-93710000D01*
X96417000Y-94210000D01*
X96917000Y-94210000D01*
G37*
G36*
X96417000Y-94210000D02*
G01*
X96417000Y-93710000D01*
X95917000Y-93710000D01*
X95917000Y-94210000D01*
X96417000Y-94210000D01*
G37*
G36*
X95917000Y-94210000D02*
G01*
X95917000Y-93710000D01*
X95417000Y-93710000D01*
X95417000Y-94210000D01*
X95917000Y-94210000D01*
G37*
G36*
X95417000Y-94210000D02*
G01*
X95417000Y-93710000D01*
X94917000Y-93710000D01*
X94917000Y-94210000D01*
X95417000Y-94210000D01*
G37*
G36*
X93917000Y-94210000D02*
G01*
X93917000Y-93710000D01*
X93417000Y-93710000D01*
X93417000Y-94210000D01*
X93917000Y-94210000D01*
G37*
G36*
X93417000Y-94210000D02*
G01*
X93417000Y-93710000D01*
X92917000Y-93710000D01*
X92917000Y-94210000D01*
X93417000Y-94210000D01*
G37*
G36*
X92417000Y-94210000D02*
G01*
X92417000Y-93710000D01*
X91917000Y-93710000D01*
X91917000Y-94210000D01*
X92417000Y-94210000D01*
G37*
G36*
X91917000Y-94210000D02*
G01*
X91917000Y-93710000D01*
X91417000Y-93710000D01*
X91417000Y-94210000D01*
X91917000Y-94210000D01*
G37*
G36*
X91417000Y-94210000D02*
G01*
X91417000Y-93710000D01*
X90917000Y-93710000D01*
X90917000Y-94210000D01*
X91417000Y-94210000D01*
G37*
G36*
X89917000Y-94210000D02*
G01*
X89917000Y-93710000D01*
X89417000Y-93710000D01*
X89417000Y-94210000D01*
X89917000Y-94210000D01*
G37*
G36*
X105917000Y-93710000D02*
G01*
X105917000Y-93210000D01*
X105417000Y-93210000D01*
X105417000Y-93710000D01*
X105917000Y-93710000D01*
G37*
G36*
X104417000Y-93710000D02*
G01*
X104417000Y-93210000D01*
X103917000Y-93210000D01*
X103917000Y-93710000D01*
X104417000Y-93710000D01*
G37*
G36*
X103417000Y-93710000D02*
G01*
X103417000Y-93210000D01*
X102917000Y-93210000D01*
X102917000Y-93710000D01*
X103417000Y-93710000D01*
G37*
G36*
X102417000Y-93710000D02*
G01*
X102417000Y-93210000D01*
X101917000Y-93210000D01*
X101917000Y-93710000D01*
X102417000Y-93710000D01*
G37*
G36*
X100917000Y-93710000D02*
G01*
X100917000Y-93210000D01*
X100417000Y-93210000D01*
X100417000Y-93710000D01*
X100917000Y-93710000D01*
G37*
G36*
X98917000Y-93710000D02*
G01*
X98917000Y-93210000D01*
X98417000Y-93210000D01*
X98417000Y-93710000D01*
X98917000Y-93710000D01*
G37*
G36*
X98417000Y-93710000D02*
G01*
X98417000Y-93210000D01*
X97917000Y-93210000D01*
X97917000Y-93710000D01*
X98417000Y-93710000D01*
G37*
G36*
X97917000Y-93710000D02*
G01*
X97917000Y-93210000D01*
X97417000Y-93210000D01*
X97417000Y-93710000D01*
X97917000Y-93710000D01*
G37*
G36*
X95417000Y-93710000D02*
G01*
X95417000Y-93210000D01*
X94917000Y-93210000D01*
X94917000Y-93710000D01*
X95417000Y-93710000D01*
G37*
G36*
X94417000Y-93710000D02*
G01*
X94417000Y-93210000D01*
X93917000Y-93210000D01*
X93917000Y-93710000D01*
X94417000Y-93710000D01*
G37*
G36*
X93417000Y-93710000D02*
G01*
X93417000Y-93210000D01*
X92917000Y-93210000D01*
X92917000Y-93710000D01*
X93417000Y-93710000D01*
G37*
G36*
X92917000Y-93710000D02*
G01*
X92917000Y-93210000D01*
X92417000Y-93210000D01*
X92417000Y-93710000D01*
X92917000Y-93710000D01*
G37*
G36*
X91417000Y-93710000D02*
G01*
X91417000Y-93210000D01*
X90917000Y-93210000D01*
X90917000Y-93710000D01*
X91417000Y-93710000D01*
G37*
G36*
X89917000Y-93710000D02*
G01*
X89917000Y-93210000D01*
X89417000Y-93210000D01*
X89417000Y-93710000D01*
X89917000Y-93710000D01*
G37*
G36*
X101917000Y-93210000D02*
G01*
X101917000Y-92710000D01*
X101417000Y-92710000D01*
X101417000Y-93210000D01*
X101917000Y-93210000D01*
G37*
G36*
X99417000Y-93210000D02*
G01*
X99417000Y-92710000D01*
X98917000Y-92710000D01*
X98917000Y-93210000D01*
X99417000Y-93210000D01*
G37*
G36*
X97917000Y-93210000D02*
G01*
X97917000Y-92710000D01*
X97417000Y-92710000D01*
X97417000Y-93210000D01*
X97917000Y-93210000D01*
G37*
G36*
X96417000Y-93210000D02*
G01*
X96417000Y-92710000D01*
X95917000Y-92710000D01*
X95917000Y-93210000D01*
X96417000Y-93210000D01*
G37*
G36*
X94917000Y-93210000D02*
G01*
X94917000Y-92710000D01*
X94417000Y-92710000D01*
X94417000Y-93210000D01*
X94917000Y-93210000D01*
G37*
G36*
X94417000Y-93210000D02*
G01*
X94417000Y-92710000D01*
X93917000Y-92710000D01*
X93917000Y-93210000D01*
X94417000Y-93210000D01*
G37*
G36*
X93917000Y-93210000D02*
G01*
X93917000Y-92710000D01*
X93417000Y-92710000D01*
X93417000Y-93210000D01*
X93917000Y-93210000D01*
G37*
G36*
X90917000Y-93210000D02*
G01*
X90917000Y-92710000D01*
X90417000Y-92710000D01*
X90417000Y-93210000D01*
X90917000Y-93210000D01*
G37*
G36*
X89917000Y-93210000D02*
G01*
X89917000Y-92710000D01*
X89417000Y-92710000D01*
X89417000Y-93210000D01*
X89917000Y-93210000D01*
G37*
G36*
X105917000Y-92710000D02*
G01*
X105917000Y-92210000D01*
X105417000Y-92210000D01*
X105417000Y-92710000D01*
X105917000Y-92710000D01*
G37*
G36*
X103917000Y-92710000D02*
G01*
X103917000Y-92210000D01*
X103417000Y-92210000D01*
X103417000Y-92710000D01*
X103917000Y-92710000D01*
G37*
G36*
X103417000Y-92710000D02*
G01*
X103417000Y-92210000D01*
X102917000Y-92210000D01*
X102917000Y-92710000D01*
X103417000Y-92710000D01*
G37*
G36*
X102917000Y-92710000D02*
G01*
X102917000Y-92210000D01*
X102417000Y-92210000D01*
X102417000Y-92710000D01*
X102917000Y-92710000D01*
G37*
G36*
X100917000Y-92710000D02*
G01*
X100917000Y-92210000D01*
X100417000Y-92210000D01*
X100417000Y-92710000D01*
X100917000Y-92710000D01*
G37*
G36*
X96917000Y-92710000D02*
G01*
X96917000Y-92210000D01*
X96417000Y-92210000D01*
X96417000Y-92710000D01*
X96917000Y-92710000D01*
G37*
G36*
X95917000Y-92710000D02*
G01*
X95917000Y-92210000D01*
X95417000Y-92210000D01*
X95417000Y-92710000D01*
X95917000Y-92710000D01*
G37*
G36*
X94917000Y-92710000D02*
G01*
X94917000Y-92210000D01*
X94417000Y-92210000D01*
X94417000Y-92710000D01*
X94917000Y-92710000D01*
G37*
G36*
X94417000Y-92710000D02*
G01*
X94417000Y-92210000D01*
X93917000Y-92210000D01*
X93917000Y-92710000D01*
X94417000Y-92710000D01*
G37*
G36*
X93417000Y-92710000D02*
G01*
X93417000Y-92210000D01*
X92917000Y-92210000D01*
X92917000Y-92710000D01*
X93417000Y-92710000D01*
G37*
G36*
X92917000Y-92710000D02*
G01*
X92917000Y-92210000D01*
X92417000Y-92210000D01*
X92417000Y-92710000D01*
X92917000Y-92710000D01*
G37*
G36*
X91917000Y-92710000D02*
G01*
X91917000Y-92210000D01*
X91417000Y-92210000D01*
X91417000Y-92710000D01*
X91917000Y-92710000D01*
G37*
G36*
X91417000Y-92710000D02*
G01*
X91417000Y-92210000D01*
X90917000Y-92210000D01*
X90917000Y-92710000D01*
X91417000Y-92710000D01*
G37*
G36*
X90917000Y-92710000D02*
G01*
X90917000Y-92210000D01*
X90417000Y-92210000D01*
X90417000Y-92710000D01*
X90917000Y-92710000D01*
G37*
G36*
X105917000Y-92210000D02*
G01*
X105917000Y-91710000D01*
X105417000Y-91710000D01*
X105417000Y-92210000D01*
X105917000Y-92210000D01*
G37*
G36*
X104417000Y-92210000D02*
G01*
X104417000Y-91710000D01*
X103917000Y-91710000D01*
X103917000Y-92210000D01*
X104417000Y-92210000D01*
G37*
G36*
X102917000Y-92210000D02*
G01*
X102917000Y-91710000D01*
X102417000Y-91710000D01*
X102417000Y-92210000D01*
X102917000Y-92210000D01*
G37*
G36*
X101917000Y-92210000D02*
G01*
X101917000Y-91710000D01*
X101417000Y-91710000D01*
X101417000Y-92210000D01*
X101917000Y-92210000D01*
G37*
G36*
X100917000Y-92210000D02*
G01*
X100917000Y-91710000D01*
X100417000Y-91710000D01*
X100417000Y-92210000D01*
X100917000Y-92210000D01*
G37*
G36*
X100417000Y-92210000D02*
G01*
X100417000Y-91710000D01*
X99917000Y-91710000D01*
X99917000Y-92210000D01*
X100417000Y-92210000D01*
G37*
G36*
X98917000Y-92210000D02*
G01*
X98917000Y-91710000D01*
X98417000Y-91710000D01*
X98417000Y-92210000D01*
X98917000Y-92210000D01*
G37*
G36*
X98417000Y-92210000D02*
G01*
X98417000Y-91710000D01*
X97917000Y-91710000D01*
X97917000Y-92210000D01*
X98417000Y-92210000D01*
G37*
G36*
X97417000Y-92210000D02*
G01*
X97417000Y-91710000D01*
X96917000Y-91710000D01*
X96917000Y-92210000D01*
X97417000Y-92210000D01*
G37*
G36*
X96917000Y-92210000D02*
G01*
X96917000Y-91710000D01*
X96417000Y-91710000D01*
X96417000Y-92210000D01*
X96917000Y-92210000D01*
G37*
G36*
X96417000Y-92210000D02*
G01*
X96417000Y-91710000D01*
X95917000Y-91710000D01*
X95917000Y-92210000D01*
X96417000Y-92210000D01*
G37*
G36*
X95917000Y-92210000D02*
G01*
X95917000Y-91710000D01*
X95417000Y-91710000D01*
X95417000Y-92210000D01*
X95917000Y-92210000D01*
G37*
G36*
X95417000Y-92210000D02*
G01*
X95417000Y-91710000D01*
X94917000Y-91710000D01*
X94917000Y-92210000D01*
X95417000Y-92210000D01*
G37*
G36*
X94917000Y-92210000D02*
G01*
X94917000Y-91710000D01*
X94417000Y-91710000D01*
X94417000Y-92210000D01*
X94917000Y-92210000D01*
G37*
G36*
X93917000Y-92210000D02*
G01*
X93917000Y-91710000D01*
X93417000Y-91710000D01*
X93417000Y-92210000D01*
X93917000Y-92210000D01*
G37*
G36*
X90917000Y-92210000D02*
G01*
X90917000Y-91710000D01*
X90417000Y-91710000D01*
X90417000Y-92210000D01*
X90917000Y-92210000D01*
G37*
G36*
X89917000Y-92210000D02*
G01*
X89917000Y-91710000D01*
X89417000Y-91710000D01*
X89417000Y-92210000D01*
X89917000Y-92210000D01*
G37*
G36*
X105417000Y-91710000D02*
G01*
X105417000Y-91210000D01*
X104917000Y-91210000D01*
X104917000Y-91710000D01*
X105417000Y-91710000D01*
G37*
G36*
X103417000Y-91710000D02*
G01*
X103417000Y-91210000D01*
X102917000Y-91210000D01*
X102917000Y-91710000D01*
X103417000Y-91710000D01*
G37*
G36*
X102917000Y-91710000D02*
G01*
X102917000Y-91210000D01*
X102417000Y-91210000D01*
X102417000Y-91710000D01*
X102917000Y-91710000D01*
G37*
G36*
X101417000Y-91710000D02*
G01*
X101417000Y-91210000D01*
X100917000Y-91210000D01*
X100917000Y-91710000D01*
X101417000Y-91710000D01*
G37*
G36*
X100917000Y-91710000D02*
G01*
X100917000Y-91210000D01*
X100417000Y-91210000D01*
X100417000Y-91710000D01*
X100917000Y-91710000D01*
G37*
G36*
X100417000Y-91710000D02*
G01*
X100417000Y-91210000D01*
X99917000Y-91210000D01*
X99917000Y-91710000D01*
X100417000Y-91710000D01*
G37*
G36*
X98417000Y-91710000D02*
G01*
X98417000Y-91210000D01*
X97917000Y-91210000D01*
X97917000Y-91710000D01*
X98417000Y-91710000D01*
G37*
G36*
X96917000Y-91710000D02*
G01*
X96917000Y-91210000D01*
X96417000Y-91210000D01*
X96417000Y-91710000D01*
X96917000Y-91710000D01*
G37*
G36*
X96417000Y-91710000D02*
G01*
X96417000Y-91210000D01*
X95917000Y-91210000D01*
X95917000Y-91710000D01*
X96417000Y-91710000D01*
G37*
G36*
X95917000Y-91710000D02*
G01*
X95917000Y-91210000D01*
X95417000Y-91210000D01*
X95417000Y-91710000D01*
X95917000Y-91710000D01*
G37*
G36*
X95417000Y-91710000D02*
G01*
X95417000Y-91210000D01*
X94917000Y-91210000D01*
X94917000Y-91710000D01*
X95417000Y-91710000D01*
G37*
G36*
X94917000Y-91710000D02*
G01*
X94917000Y-91210000D01*
X94417000Y-91210000D01*
X94417000Y-91710000D01*
X94917000Y-91710000D01*
G37*
G36*
X92917000Y-91710000D02*
G01*
X92917000Y-91210000D01*
X92417000Y-91210000D01*
X92417000Y-91710000D01*
X92917000Y-91710000D01*
G37*
G36*
X90417000Y-91710000D02*
G01*
X90417000Y-91210000D01*
X89917000Y-91210000D01*
X89917000Y-91710000D01*
X90417000Y-91710000D01*
G37*
G36*
X105917000Y-91210000D02*
G01*
X105917000Y-90710000D01*
X105417000Y-90710000D01*
X105417000Y-91210000D01*
X105917000Y-91210000D01*
G37*
G36*
X104917000Y-91210000D02*
G01*
X104917000Y-90710000D01*
X104417000Y-90710000D01*
X104417000Y-91210000D01*
X104917000Y-91210000D01*
G37*
G36*
X103917000Y-91210000D02*
G01*
X103917000Y-90710000D01*
X103417000Y-90710000D01*
X103417000Y-91210000D01*
X103917000Y-91210000D01*
G37*
G36*
X102917000Y-91210000D02*
G01*
X102917000Y-90710000D01*
X102417000Y-90710000D01*
X102417000Y-91210000D01*
X102917000Y-91210000D01*
G37*
G36*
X101917000Y-91210000D02*
G01*
X101917000Y-90710000D01*
X101417000Y-90710000D01*
X101417000Y-91210000D01*
X101917000Y-91210000D01*
G37*
G36*
X100917000Y-91210000D02*
G01*
X100917000Y-90710000D01*
X100417000Y-90710000D01*
X100417000Y-91210000D01*
X100917000Y-91210000D01*
G37*
G36*
X100417000Y-91210000D02*
G01*
X100417000Y-90710000D01*
X99917000Y-90710000D01*
X99917000Y-91210000D01*
X100417000Y-91210000D01*
G37*
G36*
X99917000Y-91210000D02*
G01*
X99917000Y-90710000D01*
X99417000Y-90710000D01*
X99417000Y-91210000D01*
X99917000Y-91210000D01*
G37*
G36*
X98917000Y-91210000D02*
G01*
X98917000Y-90710000D01*
X98417000Y-90710000D01*
X98417000Y-91210000D01*
X98917000Y-91210000D01*
G37*
G36*
X97917000Y-91210000D02*
G01*
X97917000Y-90710000D01*
X97417000Y-90710000D01*
X97417000Y-91210000D01*
X97917000Y-91210000D01*
G37*
G36*
X97417000Y-91210000D02*
G01*
X97417000Y-90710000D01*
X96917000Y-90710000D01*
X96917000Y-91210000D01*
X97417000Y-91210000D01*
G37*
G36*
X96417000Y-91210000D02*
G01*
X96417000Y-90710000D01*
X95917000Y-90710000D01*
X95917000Y-91210000D01*
X96417000Y-91210000D01*
G37*
G36*
X95917000Y-91210000D02*
G01*
X95917000Y-90710000D01*
X95417000Y-90710000D01*
X95417000Y-91210000D01*
X95917000Y-91210000D01*
G37*
G36*
X94917000Y-91210000D02*
G01*
X94917000Y-90710000D01*
X94417000Y-90710000D01*
X94417000Y-91210000D01*
X94917000Y-91210000D01*
G37*
G36*
X94417000Y-91210000D02*
G01*
X94417000Y-90710000D01*
X93917000Y-90710000D01*
X93917000Y-91210000D01*
X94417000Y-91210000D01*
G37*
G36*
X91917000Y-91210000D02*
G01*
X91917000Y-90710000D01*
X91417000Y-90710000D01*
X91417000Y-91210000D01*
X91917000Y-91210000D01*
G37*
G36*
X90917000Y-91210000D02*
G01*
X90917000Y-90710000D01*
X90417000Y-90710000D01*
X90417000Y-91210000D01*
X90917000Y-91210000D01*
G37*
G36*
X90417000Y-91210000D02*
G01*
X90417000Y-90710000D01*
X89917000Y-90710000D01*
X89917000Y-91210000D01*
X90417000Y-91210000D01*
G37*
G36*
X89917000Y-91210000D02*
G01*
X89917000Y-90710000D01*
X89417000Y-90710000D01*
X89417000Y-91210000D01*
X89917000Y-91210000D01*
G37*
G36*
X102917000Y-90710000D02*
G01*
X102917000Y-90210000D01*
X102417000Y-90210000D01*
X102417000Y-90710000D01*
X102917000Y-90710000D01*
G37*
G36*
X101917000Y-90710000D02*
G01*
X101917000Y-90210000D01*
X101417000Y-90210000D01*
X101417000Y-90710000D01*
X101917000Y-90710000D01*
G37*
G36*
X100417000Y-90710000D02*
G01*
X100417000Y-90210000D01*
X99917000Y-90210000D01*
X99917000Y-90710000D01*
X100417000Y-90710000D01*
G37*
G36*
X97417000Y-90710000D02*
G01*
X97417000Y-90210000D01*
X96917000Y-90210000D01*
X96917000Y-90710000D01*
X97417000Y-90710000D01*
G37*
G36*
X95917000Y-90710000D02*
G01*
X95917000Y-90210000D01*
X95417000Y-90210000D01*
X95417000Y-90710000D01*
X95917000Y-90710000D01*
G37*
G36*
X94917000Y-90710000D02*
G01*
X94917000Y-90210000D01*
X94417000Y-90210000D01*
X94417000Y-90710000D01*
X94917000Y-90710000D01*
G37*
G36*
X93917000Y-90710000D02*
G01*
X93917000Y-90210000D01*
X93417000Y-90210000D01*
X93417000Y-90710000D01*
X93917000Y-90710000D01*
G37*
G36*
X93417000Y-90710000D02*
G01*
X93417000Y-90210000D01*
X92917000Y-90210000D01*
X92917000Y-90710000D01*
X93417000Y-90710000D01*
G37*
G36*
X92917000Y-90710000D02*
G01*
X92917000Y-90210000D01*
X92417000Y-90210000D01*
X92417000Y-90710000D01*
X92917000Y-90710000D01*
G37*
G36*
X90417000Y-90710000D02*
G01*
X90417000Y-90210000D01*
X89917000Y-90210000D01*
X89917000Y-90710000D01*
X90417000Y-90710000D01*
G37*
G36*
X89917000Y-90710000D02*
G01*
X89917000Y-90210000D01*
X89417000Y-90210000D01*
X89417000Y-90710000D01*
X89917000Y-90710000D01*
G37*
G36*
X105417000Y-90210000D02*
G01*
X105417000Y-89710000D01*
X104917000Y-89710000D01*
X104917000Y-90210000D01*
X105417000Y-90210000D01*
G37*
G36*
X104417000Y-90210000D02*
G01*
X104417000Y-89710000D01*
X103917000Y-89710000D01*
X103917000Y-90210000D01*
X104417000Y-90210000D01*
G37*
G36*
X103417000Y-90210000D02*
G01*
X103417000Y-89710000D01*
X102917000Y-89710000D01*
X102917000Y-90210000D01*
X103417000Y-90210000D01*
G37*
G36*
X101917000Y-90210000D02*
G01*
X101917000Y-89710000D01*
X101417000Y-89710000D01*
X101417000Y-90210000D01*
X101917000Y-90210000D01*
G37*
G36*
X100417000Y-90210000D02*
G01*
X100417000Y-89710000D01*
X99917000Y-89710000D01*
X99917000Y-90210000D01*
X100417000Y-90210000D01*
G37*
G36*
X99417000Y-90210000D02*
G01*
X99417000Y-89710000D01*
X98917000Y-89710000D01*
X98917000Y-90210000D01*
X99417000Y-90210000D01*
G37*
G36*
X98917000Y-90210000D02*
G01*
X98917000Y-89710000D01*
X98417000Y-89710000D01*
X98417000Y-90210000D01*
X98917000Y-90210000D01*
G37*
G36*
X97417000Y-90210000D02*
G01*
X97417000Y-89710000D01*
X96917000Y-89710000D01*
X96917000Y-90210000D01*
X97417000Y-90210000D01*
G37*
G36*
X96917000Y-90210000D02*
G01*
X96917000Y-89710000D01*
X96417000Y-89710000D01*
X96417000Y-90210000D01*
X96917000Y-90210000D01*
G37*
G36*
X94917000Y-90210000D02*
G01*
X94917000Y-89710000D01*
X94417000Y-89710000D01*
X94417000Y-90210000D01*
X94917000Y-90210000D01*
G37*
G36*
X93917000Y-90210000D02*
G01*
X93917000Y-89710000D01*
X93417000Y-89710000D01*
X93417000Y-90210000D01*
X93917000Y-90210000D01*
G37*
G36*
X93417000Y-90210000D02*
G01*
X93417000Y-89710000D01*
X92917000Y-89710000D01*
X92917000Y-90210000D01*
X93417000Y-90210000D01*
G37*
G36*
X91917000Y-90210000D02*
G01*
X91917000Y-89710000D01*
X91417000Y-89710000D01*
X91417000Y-90210000D01*
X91917000Y-90210000D01*
G37*
G36*
X91417000Y-90210000D02*
G01*
X91417000Y-89710000D01*
X90917000Y-89710000D01*
X90917000Y-90210000D01*
X91417000Y-90210000D01*
G37*
G36*
X90917000Y-90210000D02*
G01*
X90917000Y-89710000D01*
X90417000Y-89710000D01*
X90417000Y-90210000D01*
X90917000Y-90210000D01*
G37*
G36*
X105917000Y-89710000D02*
G01*
X105917000Y-89210000D01*
X105417000Y-89210000D01*
X105417000Y-89710000D01*
X105917000Y-89710000D01*
G37*
G36*
X105417000Y-89710000D02*
G01*
X105417000Y-89210000D01*
X104917000Y-89210000D01*
X104917000Y-89710000D01*
X105417000Y-89710000D01*
G37*
G36*
X104917000Y-89710000D02*
G01*
X104917000Y-89210000D01*
X104417000Y-89210000D01*
X104417000Y-89710000D01*
X104917000Y-89710000D01*
G37*
G36*
X104417000Y-89710000D02*
G01*
X104417000Y-89210000D01*
X103917000Y-89210000D01*
X103917000Y-89710000D01*
X104417000Y-89710000D01*
G37*
G36*
X103917000Y-89710000D02*
G01*
X103917000Y-89210000D01*
X103417000Y-89210000D01*
X103417000Y-89710000D01*
X103917000Y-89710000D01*
G37*
G36*
X101917000Y-89710000D02*
G01*
X101917000Y-89210000D01*
X101417000Y-89210000D01*
X101417000Y-89710000D01*
X101917000Y-89710000D01*
G37*
G36*
X100917000Y-89710000D02*
G01*
X100917000Y-89210000D01*
X100417000Y-89210000D01*
X100417000Y-89710000D01*
X100917000Y-89710000D01*
G37*
G36*
X99917000Y-89710000D02*
G01*
X99917000Y-89210000D01*
X99417000Y-89210000D01*
X99417000Y-89710000D01*
X99917000Y-89710000D01*
G37*
G36*
X99417000Y-89710000D02*
G01*
X99417000Y-89210000D01*
X98917000Y-89210000D01*
X98917000Y-89710000D01*
X99417000Y-89710000D01*
G37*
G36*
X94917000Y-89710000D02*
G01*
X94917000Y-89210000D01*
X94417000Y-89210000D01*
X94417000Y-89710000D01*
X94917000Y-89710000D01*
G37*
G36*
X94417000Y-89710000D02*
G01*
X94417000Y-89210000D01*
X93917000Y-89210000D01*
X93917000Y-89710000D01*
X94417000Y-89710000D01*
G37*
G36*
X93917000Y-89710000D02*
G01*
X93917000Y-89210000D01*
X93417000Y-89210000D01*
X93417000Y-89710000D01*
X93917000Y-89710000D01*
G37*
G36*
X92917000Y-89710000D02*
G01*
X92917000Y-89210000D01*
X92417000Y-89210000D01*
X92417000Y-89710000D01*
X92917000Y-89710000D01*
G37*
G36*
X92417000Y-89710000D02*
G01*
X92417000Y-89210000D01*
X91917000Y-89210000D01*
X91917000Y-89710000D01*
X92417000Y-89710000D01*
G37*
G36*
X90417000Y-89710000D02*
G01*
X90417000Y-89210000D01*
X89917000Y-89210000D01*
X89917000Y-89710000D01*
X90417000Y-89710000D01*
G37*
G36*
X89917000Y-89710000D02*
G01*
X89917000Y-89210000D01*
X89417000Y-89210000D01*
X89417000Y-89710000D01*
X89917000Y-89710000D01*
G37*
G36*
X105917000Y-89210000D02*
G01*
X105917000Y-88710000D01*
X105417000Y-88710000D01*
X105417000Y-89210000D01*
X105917000Y-89210000D01*
G37*
G36*
X105417000Y-89210000D02*
G01*
X105417000Y-88710000D01*
X104917000Y-88710000D01*
X104917000Y-89210000D01*
X105417000Y-89210000D01*
G37*
G36*
X104917000Y-89210000D02*
G01*
X104917000Y-88710000D01*
X104417000Y-88710000D01*
X104417000Y-89210000D01*
X104917000Y-89210000D01*
G37*
G36*
X104417000Y-89210000D02*
G01*
X104417000Y-88710000D01*
X103917000Y-88710000D01*
X103917000Y-89210000D01*
X104417000Y-89210000D01*
G37*
G36*
X102917000Y-89210000D02*
G01*
X102917000Y-88710000D01*
X102417000Y-88710000D01*
X102417000Y-89210000D01*
X102917000Y-89210000D01*
G37*
G36*
X102417000Y-89210000D02*
G01*
X102417000Y-88710000D01*
X101917000Y-88710000D01*
X101917000Y-89210000D01*
X102417000Y-89210000D01*
G37*
G36*
X101917000Y-89210000D02*
G01*
X101917000Y-88710000D01*
X101417000Y-88710000D01*
X101417000Y-89210000D01*
X101917000Y-89210000D01*
G37*
G36*
X101417000Y-89210000D02*
G01*
X101417000Y-88710000D01*
X100917000Y-88710000D01*
X100917000Y-89210000D01*
X101417000Y-89210000D01*
G37*
G36*
X99917000Y-89210000D02*
G01*
X99917000Y-88710000D01*
X99417000Y-88710000D01*
X99417000Y-89210000D01*
X99917000Y-89210000D01*
G37*
G36*
X99417000Y-89210000D02*
G01*
X99417000Y-88710000D01*
X98917000Y-88710000D01*
X98917000Y-89210000D01*
X99417000Y-89210000D01*
G37*
G36*
X97917000Y-89210000D02*
G01*
X97917000Y-88710000D01*
X97417000Y-88710000D01*
X97417000Y-89210000D01*
X97917000Y-89210000D01*
G37*
G36*
X96917000Y-89210000D02*
G01*
X96917000Y-88710000D01*
X96417000Y-88710000D01*
X96417000Y-89210000D01*
X96917000Y-89210000D01*
G37*
G36*
X95417000Y-89210000D02*
G01*
X95417000Y-88710000D01*
X94917000Y-88710000D01*
X94917000Y-89210000D01*
X95417000Y-89210000D01*
G37*
G36*
X94917000Y-89210000D02*
G01*
X94917000Y-88710000D01*
X94417000Y-88710000D01*
X94417000Y-89210000D01*
X94917000Y-89210000D01*
G37*
G36*
X94417000Y-89210000D02*
G01*
X94417000Y-88710000D01*
X93917000Y-88710000D01*
X93917000Y-89210000D01*
X94417000Y-89210000D01*
G37*
G36*
X93917000Y-89210000D02*
G01*
X93917000Y-88710000D01*
X93417000Y-88710000D01*
X93417000Y-89210000D01*
X93917000Y-89210000D01*
G37*
G36*
X90417000Y-89210000D02*
G01*
X90417000Y-88710000D01*
X89917000Y-88710000D01*
X89917000Y-89210000D01*
X90417000Y-89210000D01*
G37*
G36*
X103417000Y-88710000D02*
G01*
X103417000Y-88210000D01*
X102917000Y-88210000D01*
X102917000Y-88710000D01*
X103417000Y-88710000D01*
G37*
G36*
X102417000Y-88710000D02*
G01*
X102417000Y-88210000D01*
X101917000Y-88210000D01*
X101917000Y-88710000D01*
X102417000Y-88710000D01*
G37*
G36*
X101417000Y-88710000D02*
G01*
X101417000Y-88210000D01*
X100917000Y-88210000D01*
X100917000Y-88710000D01*
X101417000Y-88710000D01*
G37*
G36*
X99917000Y-88710000D02*
G01*
X99917000Y-88210000D01*
X99417000Y-88210000D01*
X99417000Y-88710000D01*
X99917000Y-88710000D01*
G37*
G36*
X98917000Y-88710000D02*
G01*
X98917000Y-88210000D01*
X98417000Y-88210000D01*
X98417000Y-88710000D01*
X98917000Y-88710000D01*
G37*
G36*
X97417000Y-88710000D02*
G01*
X97417000Y-88210000D01*
X96917000Y-88210000D01*
X96917000Y-88710000D01*
X97417000Y-88710000D01*
G37*
G36*
X96917000Y-88710000D02*
G01*
X96917000Y-88210000D01*
X96417000Y-88210000D01*
X96417000Y-88710000D01*
X96917000Y-88710000D01*
G37*
G36*
X96417000Y-88710000D02*
G01*
X96417000Y-88210000D01*
X95917000Y-88210000D01*
X95917000Y-88710000D01*
X96417000Y-88710000D01*
G37*
G36*
X94917000Y-88710000D02*
G01*
X94917000Y-88210000D01*
X94417000Y-88210000D01*
X94417000Y-88710000D01*
X94917000Y-88710000D01*
G37*
G36*
X93917000Y-88710000D02*
G01*
X93917000Y-88210000D01*
X93417000Y-88210000D01*
X93417000Y-88710000D01*
X93917000Y-88710000D01*
G37*
G36*
X92917000Y-88710000D02*
G01*
X92917000Y-88210000D01*
X92417000Y-88210000D01*
X92417000Y-88710000D01*
X92917000Y-88710000D01*
G37*
G36*
X92417000Y-88710000D02*
G01*
X92417000Y-88210000D01*
X91917000Y-88210000D01*
X91917000Y-88710000D01*
X92417000Y-88710000D01*
G37*
G36*
X91417000Y-88710000D02*
G01*
X91417000Y-88210000D01*
X90917000Y-88210000D01*
X90917000Y-88710000D01*
X91417000Y-88710000D01*
G37*
G36*
X89917000Y-88710000D02*
G01*
X89917000Y-88210000D01*
X89417000Y-88210000D01*
X89417000Y-88710000D01*
X89917000Y-88710000D01*
G37*
G36*
X101917000Y-88210000D02*
G01*
X101917000Y-87710000D01*
X101417000Y-87710000D01*
X101417000Y-88210000D01*
X101917000Y-88210000D01*
G37*
G36*
X101417000Y-88210000D02*
G01*
X101417000Y-87710000D01*
X100917000Y-87710000D01*
X100917000Y-88210000D01*
X101417000Y-88210000D01*
G37*
G36*
X100417000Y-88210000D02*
G01*
X100417000Y-87710000D01*
X99917000Y-87710000D01*
X99917000Y-88210000D01*
X100417000Y-88210000D01*
G37*
G36*
X98917000Y-88210000D02*
G01*
X98917000Y-87710000D01*
X98417000Y-87710000D01*
X98417000Y-88210000D01*
X98917000Y-88210000D01*
G37*
G36*
X98417000Y-88210000D02*
G01*
X98417000Y-87710000D01*
X97917000Y-87710000D01*
X97917000Y-88210000D01*
X98417000Y-88210000D01*
G37*
G36*
X95917000Y-88210000D02*
G01*
X95917000Y-87710000D01*
X95417000Y-87710000D01*
X95417000Y-88210000D01*
X95917000Y-88210000D01*
G37*
G36*
X95417000Y-88210000D02*
G01*
X95417000Y-87710000D01*
X94917000Y-87710000D01*
X94917000Y-88210000D01*
X95417000Y-88210000D01*
G37*
G36*
X105917000Y-87710000D02*
G01*
X105917000Y-87210000D01*
X105417000Y-87210000D01*
X105417000Y-87710000D01*
X105917000Y-87710000D01*
G37*
G36*
X105417000Y-87710000D02*
G01*
X105417000Y-87210000D01*
X104917000Y-87210000D01*
X104917000Y-87710000D01*
X105417000Y-87710000D01*
G37*
G36*
X104917000Y-87710000D02*
G01*
X104917000Y-87210000D01*
X104417000Y-87210000D01*
X104417000Y-87710000D01*
X104917000Y-87710000D01*
G37*
G36*
X104417000Y-87710000D02*
G01*
X104417000Y-87210000D01*
X103917000Y-87210000D01*
X103917000Y-87710000D01*
X104417000Y-87710000D01*
G37*
G36*
X103917000Y-87710000D02*
G01*
X103917000Y-87210000D01*
X103417000Y-87210000D01*
X103417000Y-87710000D01*
X103917000Y-87710000D01*
G37*
G36*
X103417000Y-87710000D02*
G01*
X103417000Y-87210000D01*
X102917000Y-87210000D01*
X102917000Y-87710000D01*
X103417000Y-87710000D01*
G37*
G36*
X102917000Y-87710000D02*
G01*
X102917000Y-87210000D01*
X102417000Y-87210000D01*
X102417000Y-87710000D01*
X102917000Y-87710000D01*
G37*
G36*
X101917000Y-87710000D02*
G01*
X101917000Y-87210000D01*
X101417000Y-87210000D01*
X101417000Y-87710000D01*
X101917000Y-87710000D01*
G37*
G36*
X100917000Y-87710000D02*
G01*
X100917000Y-87210000D01*
X100417000Y-87210000D01*
X100417000Y-87710000D01*
X100917000Y-87710000D01*
G37*
G36*
X99917000Y-87710000D02*
G01*
X99917000Y-87210000D01*
X99417000Y-87210000D01*
X99417000Y-87710000D01*
X99917000Y-87710000D01*
G37*
G36*
X98917000Y-87710000D02*
G01*
X98917000Y-87210000D01*
X98417000Y-87210000D01*
X98417000Y-87710000D01*
X98917000Y-87710000D01*
G37*
G36*
X97917000Y-87710000D02*
G01*
X97917000Y-87210000D01*
X97417000Y-87210000D01*
X97417000Y-87710000D01*
X97917000Y-87710000D01*
G37*
G36*
X96917000Y-87710000D02*
G01*
X96917000Y-87210000D01*
X96417000Y-87210000D01*
X96417000Y-87710000D01*
X96917000Y-87710000D01*
G37*
G36*
X95917000Y-87710000D02*
G01*
X95917000Y-87210000D01*
X95417000Y-87210000D01*
X95417000Y-87710000D01*
X95917000Y-87710000D01*
G37*
G36*
X94917000Y-87710000D02*
G01*
X94917000Y-87210000D01*
X94417000Y-87210000D01*
X94417000Y-87710000D01*
X94917000Y-87710000D01*
G37*
G36*
X93917000Y-87710000D02*
G01*
X93917000Y-87210000D01*
X93417000Y-87210000D01*
X93417000Y-87710000D01*
X93917000Y-87710000D01*
G37*
G36*
X92917000Y-87710000D02*
G01*
X92917000Y-87210000D01*
X92417000Y-87210000D01*
X92417000Y-87710000D01*
X92917000Y-87710000D01*
G37*
G36*
X92417000Y-87710000D02*
G01*
X92417000Y-87210000D01*
X91917000Y-87210000D01*
X91917000Y-87710000D01*
X92417000Y-87710000D01*
G37*
G36*
X91917000Y-87710000D02*
G01*
X91917000Y-87210000D01*
X91417000Y-87210000D01*
X91417000Y-87710000D01*
X91917000Y-87710000D01*
G37*
G36*
X91417000Y-87710000D02*
G01*
X91417000Y-87210000D01*
X90917000Y-87210000D01*
X90917000Y-87710000D01*
X91417000Y-87710000D01*
G37*
G36*
X90917000Y-87710000D02*
G01*
X90917000Y-87210000D01*
X90417000Y-87210000D01*
X90417000Y-87710000D01*
X90917000Y-87710000D01*
G37*
G36*
X90417000Y-87710000D02*
G01*
X90417000Y-87210000D01*
X89917000Y-87210000D01*
X89917000Y-87710000D01*
X90417000Y-87710000D01*
G37*
G36*
X89917000Y-87710000D02*
G01*
X89917000Y-87210000D01*
X89417000Y-87210000D01*
X89417000Y-87710000D01*
X89917000Y-87710000D01*
G37*
G36*
X105917000Y-87210000D02*
G01*
X105917000Y-86710000D01*
X105417000Y-86710000D01*
X105417000Y-87210000D01*
X105917000Y-87210000D01*
G37*
G36*
X102917000Y-87210000D02*
G01*
X102917000Y-86710000D01*
X102417000Y-86710000D01*
X102417000Y-87210000D01*
X102917000Y-87210000D01*
G37*
G36*
X101917000Y-87210000D02*
G01*
X101917000Y-86710000D01*
X101417000Y-86710000D01*
X101417000Y-87210000D01*
X101917000Y-87210000D01*
G37*
G36*
X100417000Y-87210000D02*
G01*
X100417000Y-86710000D01*
X99917000Y-86710000D01*
X99917000Y-87210000D01*
X100417000Y-87210000D01*
G37*
G36*
X99917000Y-87210000D02*
G01*
X99917000Y-86710000D01*
X99417000Y-86710000D01*
X99417000Y-87210000D01*
X99917000Y-87210000D01*
G37*
G36*
X99417000Y-87210000D02*
G01*
X99417000Y-86710000D01*
X98917000Y-86710000D01*
X98917000Y-87210000D01*
X99417000Y-87210000D01*
G37*
G36*
X96417000Y-87210000D02*
G01*
X96417000Y-86710000D01*
X95917000Y-86710000D01*
X95917000Y-87210000D01*
X96417000Y-87210000D01*
G37*
G36*
X94917000Y-87210000D02*
G01*
X94917000Y-86710000D01*
X94417000Y-86710000D01*
X94417000Y-87210000D01*
X94917000Y-87210000D01*
G37*
G36*
X94417000Y-87210000D02*
G01*
X94417000Y-86710000D01*
X93917000Y-86710000D01*
X93917000Y-87210000D01*
X94417000Y-87210000D01*
G37*
G36*
X93917000Y-87210000D02*
G01*
X93917000Y-86710000D01*
X93417000Y-86710000D01*
X93417000Y-87210000D01*
X93917000Y-87210000D01*
G37*
G36*
X92917000Y-87210000D02*
G01*
X92917000Y-86710000D01*
X92417000Y-86710000D01*
X92417000Y-87210000D01*
X92917000Y-87210000D01*
G37*
G36*
X89917000Y-87210000D02*
G01*
X89917000Y-86710000D01*
X89417000Y-86710000D01*
X89417000Y-87210000D01*
X89917000Y-87210000D01*
G37*
G36*
X105917000Y-86710000D02*
G01*
X105917000Y-86210000D01*
X105417000Y-86210000D01*
X105417000Y-86710000D01*
X105917000Y-86710000D01*
G37*
G36*
X104917000Y-86710000D02*
G01*
X104917000Y-86210000D01*
X104417000Y-86210000D01*
X104417000Y-86710000D01*
X104917000Y-86710000D01*
G37*
G36*
X104417000Y-86710000D02*
G01*
X104417000Y-86210000D01*
X103917000Y-86210000D01*
X103917000Y-86710000D01*
X104417000Y-86710000D01*
G37*
G36*
X103917000Y-86710000D02*
G01*
X103917000Y-86210000D01*
X103417000Y-86210000D01*
X103417000Y-86710000D01*
X103917000Y-86710000D01*
G37*
G36*
X102917000Y-86710000D02*
G01*
X102917000Y-86210000D01*
X102417000Y-86210000D01*
X102417000Y-86710000D01*
X102917000Y-86710000D01*
G37*
G36*
X101917000Y-86710000D02*
G01*
X101917000Y-86210000D01*
X101417000Y-86210000D01*
X101417000Y-86710000D01*
X101917000Y-86710000D01*
G37*
G36*
X101417000Y-86710000D02*
G01*
X101417000Y-86210000D01*
X100917000Y-86210000D01*
X100917000Y-86710000D01*
X101417000Y-86710000D01*
G37*
G36*
X98917000Y-86710000D02*
G01*
X98917000Y-86210000D01*
X98417000Y-86210000D01*
X98417000Y-86710000D01*
X98917000Y-86710000D01*
G37*
G36*
X98417000Y-86710000D02*
G01*
X98417000Y-86210000D01*
X97917000Y-86210000D01*
X97917000Y-86710000D01*
X98417000Y-86710000D01*
G37*
G36*
X97917000Y-86710000D02*
G01*
X97917000Y-86210000D01*
X97417000Y-86210000D01*
X97417000Y-86710000D01*
X97917000Y-86710000D01*
G37*
G36*
X96417000Y-86710000D02*
G01*
X96417000Y-86210000D01*
X95917000Y-86210000D01*
X95917000Y-86710000D01*
X96417000Y-86710000D01*
G37*
G36*
X94917000Y-86710000D02*
G01*
X94917000Y-86210000D01*
X94417000Y-86210000D01*
X94417000Y-86710000D01*
X94917000Y-86710000D01*
G37*
G36*
X94417000Y-86710000D02*
G01*
X94417000Y-86210000D01*
X93917000Y-86210000D01*
X93917000Y-86710000D01*
X94417000Y-86710000D01*
G37*
G36*
X92917000Y-86710000D02*
G01*
X92917000Y-86210000D01*
X92417000Y-86210000D01*
X92417000Y-86710000D01*
X92917000Y-86710000D01*
G37*
G36*
X91917000Y-86710000D02*
G01*
X91917000Y-86210000D01*
X91417000Y-86210000D01*
X91417000Y-86710000D01*
X91917000Y-86710000D01*
G37*
G36*
X91417000Y-86710000D02*
G01*
X91417000Y-86210000D01*
X90917000Y-86210000D01*
X90917000Y-86710000D01*
X91417000Y-86710000D01*
G37*
G36*
X90917000Y-86710000D02*
G01*
X90917000Y-86210000D01*
X90417000Y-86210000D01*
X90417000Y-86710000D01*
X90917000Y-86710000D01*
G37*
G36*
X89917000Y-86710000D02*
G01*
X89917000Y-86210000D01*
X89417000Y-86210000D01*
X89417000Y-86710000D01*
X89917000Y-86710000D01*
G37*
G36*
X105917000Y-86210000D02*
G01*
X105917000Y-85710000D01*
X105417000Y-85710000D01*
X105417000Y-86210000D01*
X105917000Y-86210000D01*
G37*
G36*
X104917000Y-86210000D02*
G01*
X104917000Y-85710000D01*
X104417000Y-85710000D01*
X104417000Y-86210000D01*
X104917000Y-86210000D01*
G37*
G36*
X104417000Y-86210000D02*
G01*
X104417000Y-85710000D01*
X103917000Y-85710000D01*
X103917000Y-86210000D01*
X104417000Y-86210000D01*
G37*
G36*
X103917000Y-86210000D02*
G01*
X103917000Y-85710000D01*
X103417000Y-85710000D01*
X103417000Y-86210000D01*
X103917000Y-86210000D01*
G37*
G36*
X102917000Y-86210000D02*
G01*
X102917000Y-85710000D01*
X102417000Y-85710000D01*
X102417000Y-86210000D01*
X102917000Y-86210000D01*
G37*
G36*
X101417000Y-86210000D02*
G01*
X101417000Y-85710000D01*
X100917000Y-85710000D01*
X100917000Y-86210000D01*
X101417000Y-86210000D01*
G37*
G36*
X100917000Y-86210000D02*
G01*
X100917000Y-85710000D01*
X100417000Y-85710000D01*
X100417000Y-86210000D01*
X100917000Y-86210000D01*
G37*
G36*
X99917000Y-86210000D02*
G01*
X99917000Y-85710000D01*
X99417000Y-85710000D01*
X99417000Y-86210000D01*
X99917000Y-86210000D01*
G37*
G36*
X98917000Y-86210000D02*
G01*
X98917000Y-85710000D01*
X98417000Y-85710000D01*
X98417000Y-86210000D01*
X98917000Y-86210000D01*
G37*
G36*
X98417000Y-86210000D02*
G01*
X98417000Y-85710000D01*
X97917000Y-85710000D01*
X97917000Y-86210000D01*
X98417000Y-86210000D01*
G37*
G36*
X97417000Y-86210000D02*
G01*
X97417000Y-85710000D01*
X96917000Y-85710000D01*
X96917000Y-86210000D01*
X97417000Y-86210000D01*
G37*
G36*
X96417000Y-86210000D02*
G01*
X96417000Y-85710000D01*
X95917000Y-85710000D01*
X95917000Y-86210000D01*
X96417000Y-86210000D01*
G37*
G36*
X95417000Y-86210000D02*
G01*
X95417000Y-85710000D01*
X94917000Y-85710000D01*
X94917000Y-86210000D01*
X95417000Y-86210000D01*
G37*
G36*
X94917000Y-86210000D02*
G01*
X94917000Y-85710000D01*
X94417000Y-85710000D01*
X94417000Y-86210000D01*
X94917000Y-86210000D01*
G37*
G36*
X92917000Y-86210000D02*
G01*
X92917000Y-85710000D01*
X92417000Y-85710000D01*
X92417000Y-86210000D01*
X92917000Y-86210000D01*
G37*
G36*
X91917000Y-86210000D02*
G01*
X91917000Y-85710000D01*
X91417000Y-85710000D01*
X91417000Y-86210000D01*
X91917000Y-86210000D01*
G37*
G36*
X91417000Y-86210000D02*
G01*
X91417000Y-85710000D01*
X90917000Y-85710000D01*
X90917000Y-86210000D01*
X91417000Y-86210000D01*
G37*
G36*
X90917000Y-86210000D02*
G01*
X90917000Y-85710000D01*
X90417000Y-85710000D01*
X90417000Y-86210000D01*
X90917000Y-86210000D01*
G37*
G36*
X89917000Y-86210000D02*
G01*
X89917000Y-85710000D01*
X89417000Y-85710000D01*
X89417000Y-86210000D01*
X89917000Y-86210000D01*
G37*
G36*
X105917000Y-85710000D02*
G01*
X105917000Y-85210000D01*
X105417000Y-85210000D01*
X105417000Y-85710000D01*
X105917000Y-85710000D01*
G37*
G36*
X104917000Y-85710000D02*
G01*
X104917000Y-85210000D01*
X104417000Y-85210000D01*
X104417000Y-85710000D01*
X104917000Y-85710000D01*
G37*
G36*
X104417000Y-85710000D02*
G01*
X104417000Y-85210000D01*
X103917000Y-85210000D01*
X103917000Y-85710000D01*
X104417000Y-85710000D01*
G37*
G36*
X103917000Y-85710000D02*
G01*
X103917000Y-85210000D01*
X103417000Y-85210000D01*
X103417000Y-85710000D01*
X103917000Y-85710000D01*
G37*
G36*
X102917000Y-85710000D02*
G01*
X102917000Y-85210000D01*
X102417000Y-85210000D01*
X102417000Y-85710000D01*
X102917000Y-85710000D01*
G37*
G36*
X101417000Y-85710000D02*
G01*
X101417000Y-85210000D01*
X100917000Y-85210000D01*
X100917000Y-85710000D01*
X101417000Y-85710000D01*
G37*
G36*
X100917000Y-85710000D02*
G01*
X100917000Y-85210000D01*
X100417000Y-85210000D01*
X100417000Y-85710000D01*
X100917000Y-85710000D01*
G37*
G36*
X98417000Y-85710000D02*
G01*
X98417000Y-85210000D01*
X97917000Y-85210000D01*
X97917000Y-85710000D01*
X98417000Y-85710000D01*
G37*
G36*
X96917000Y-85710000D02*
G01*
X96917000Y-85210000D01*
X96417000Y-85210000D01*
X96417000Y-85710000D01*
X96917000Y-85710000D01*
G37*
G36*
X95917000Y-85710000D02*
G01*
X95917000Y-85210000D01*
X95417000Y-85210000D01*
X95417000Y-85710000D01*
X95917000Y-85710000D01*
G37*
G36*
X95417000Y-85710000D02*
G01*
X95417000Y-85210000D01*
X94917000Y-85210000D01*
X94917000Y-85710000D01*
X95417000Y-85710000D01*
G37*
G36*
X94917000Y-85710000D02*
G01*
X94917000Y-85210000D01*
X94417000Y-85210000D01*
X94417000Y-85710000D01*
X94917000Y-85710000D01*
G37*
G36*
X92917000Y-85710000D02*
G01*
X92917000Y-85210000D01*
X92417000Y-85210000D01*
X92417000Y-85710000D01*
X92917000Y-85710000D01*
G37*
G36*
X91917000Y-85710000D02*
G01*
X91917000Y-85210000D01*
X91417000Y-85210000D01*
X91417000Y-85710000D01*
X91917000Y-85710000D01*
G37*
G36*
X91417000Y-85710000D02*
G01*
X91417000Y-85210000D01*
X90917000Y-85210000D01*
X90917000Y-85710000D01*
X91417000Y-85710000D01*
G37*
G36*
X90917000Y-85710000D02*
G01*
X90917000Y-85210000D01*
X90417000Y-85210000D01*
X90417000Y-85710000D01*
X90917000Y-85710000D01*
G37*
G36*
X89917000Y-85710000D02*
G01*
X89917000Y-85210000D01*
X89417000Y-85210000D01*
X89417000Y-85710000D01*
X89917000Y-85710000D01*
G37*
G36*
X105917000Y-85210000D02*
G01*
X105917000Y-84710000D01*
X105417000Y-84710000D01*
X105417000Y-85210000D01*
X105917000Y-85210000D01*
G37*
G36*
X102917000Y-85210000D02*
G01*
X102917000Y-84710000D01*
X102417000Y-84710000D01*
X102417000Y-85210000D01*
X102917000Y-85210000D01*
G37*
G36*
X101417000Y-85210000D02*
G01*
X101417000Y-84710000D01*
X100917000Y-84710000D01*
X100917000Y-85210000D01*
X101417000Y-85210000D01*
G37*
G36*
X98417000Y-85210000D02*
G01*
X98417000Y-84710000D01*
X97917000Y-84710000D01*
X97917000Y-85210000D01*
X98417000Y-85210000D01*
G37*
G36*
X97917000Y-85210000D02*
G01*
X97917000Y-84710000D01*
X97417000Y-84710000D01*
X97417000Y-85210000D01*
X97917000Y-85210000D01*
G37*
G36*
X97417000Y-85210000D02*
G01*
X97417000Y-84710000D01*
X96917000Y-84710000D01*
X96917000Y-85210000D01*
X97417000Y-85210000D01*
G37*
G36*
X95917000Y-85210000D02*
G01*
X95917000Y-84710000D01*
X95417000Y-84710000D01*
X95417000Y-85210000D01*
X95917000Y-85210000D01*
G37*
G36*
X94917000Y-85210000D02*
G01*
X94917000Y-84710000D01*
X94417000Y-84710000D01*
X94417000Y-85210000D01*
X94917000Y-85210000D01*
G37*
G36*
X94417000Y-85210000D02*
G01*
X94417000Y-84710000D01*
X93917000Y-84710000D01*
X93917000Y-85210000D01*
X94417000Y-85210000D01*
G37*
G36*
X92917000Y-85210000D02*
G01*
X92917000Y-84710000D01*
X92417000Y-84710000D01*
X92417000Y-85210000D01*
X92917000Y-85210000D01*
G37*
G36*
X89917000Y-85210000D02*
G01*
X89917000Y-84710000D01*
X89417000Y-84710000D01*
X89417000Y-85210000D01*
X89917000Y-85210000D01*
G37*
G36*
X105917000Y-84710000D02*
G01*
X105917000Y-84210000D01*
X105417000Y-84210000D01*
X105417000Y-84710000D01*
X105917000Y-84710000D01*
G37*
G36*
X105417000Y-84710000D02*
G01*
X105417000Y-84210000D01*
X104917000Y-84210000D01*
X104917000Y-84710000D01*
X105417000Y-84710000D01*
G37*
G36*
X104917000Y-84710000D02*
G01*
X104917000Y-84210000D01*
X104417000Y-84210000D01*
X104417000Y-84710000D01*
X104917000Y-84710000D01*
G37*
G36*
X104417000Y-84710000D02*
G01*
X104417000Y-84210000D01*
X103917000Y-84210000D01*
X103917000Y-84710000D01*
X104417000Y-84710000D01*
G37*
G36*
X103917000Y-84710000D02*
G01*
X103917000Y-84210000D01*
X103417000Y-84210000D01*
X103417000Y-84710000D01*
X103917000Y-84710000D01*
G37*
G36*
X103417000Y-84710000D02*
G01*
X103417000Y-84210000D01*
X102917000Y-84210000D01*
X102917000Y-84710000D01*
X103417000Y-84710000D01*
G37*
G36*
X102917000Y-84710000D02*
G01*
X102917000Y-84210000D01*
X102417000Y-84210000D01*
X102417000Y-84710000D01*
X102917000Y-84710000D01*
G37*
G36*
X100917000Y-84710000D02*
G01*
X100917000Y-84210000D01*
X100417000Y-84210000D01*
X100417000Y-84710000D01*
X100917000Y-84710000D01*
G37*
G36*
X100417000Y-84710000D02*
G01*
X100417000Y-84210000D01*
X99917000Y-84210000D01*
X99917000Y-84710000D01*
X100417000Y-84710000D01*
G37*
G36*
X99917000Y-84710000D02*
G01*
X99917000Y-84210000D01*
X99417000Y-84210000D01*
X99417000Y-84710000D01*
X99917000Y-84710000D01*
G37*
G36*
X99417000Y-84710000D02*
G01*
X99417000Y-84210000D01*
X98917000Y-84210000D01*
X98917000Y-84710000D01*
X99417000Y-84710000D01*
G37*
G36*
X98917000Y-84710000D02*
G01*
X98917000Y-84210000D01*
X98417000Y-84210000D01*
X98417000Y-84710000D01*
X98917000Y-84710000D01*
G37*
G36*
X98417000Y-84710000D02*
G01*
X98417000Y-84210000D01*
X97917000Y-84210000D01*
X97917000Y-84710000D01*
X98417000Y-84710000D01*
G37*
G36*
X97417000Y-84710000D02*
G01*
X97417000Y-84210000D01*
X96917000Y-84210000D01*
X96917000Y-84710000D01*
X97417000Y-84710000D01*
G37*
G36*
X95917000Y-84710000D02*
G01*
X95917000Y-84210000D01*
X95417000Y-84210000D01*
X95417000Y-84710000D01*
X95917000Y-84710000D01*
G37*
G36*
X92917000Y-84710000D02*
G01*
X92917000Y-84210000D01*
X92417000Y-84210000D01*
X92417000Y-84710000D01*
X92917000Y-84710000D01*
G37*
G36*
X92417000Y-84710000D02*
G01*
X92417000Y-84210000D01*
X91917000Y-84210000D01*
X91917000Y-84710000D01*
X92417000Y-84710000D01*
G37*
G36*
X91917000Y-84710000D02*
G01*
X91917000Y-84210000D01*
X91417000Y-84210000D01*
X91417000Y-84710000D01*
X91917000Y-84710000D01*
G37*
G36*
X91417000Y-84710000D02*
G01*
X91417000Y-84210000D01*
X90917000Y-84210000D01*
X90917000Y-84710000D01*
X91417000Y-84710000D01*
G37*
G36*
X90917000Y-84710000D02*
G01*
X90917000Y-84210000D01*
X90417000Y-84210000D01*
X90417000Y-84710000D01*
X90917000Y-84710000D01*
G37*
G36*
X90417000Y-84710000D02*
G01*
X90417000Y-84210000D01*
X89917000Y-84210000D01*
X89917000Y-84710000D01*
X90417000Y-84710000D01*
G37*
G36*
X89917000Y-84710000D02*
G01*
X89917000Y-84210000D01*
X89417000Y-84210000D01*
X89417000Y-84710000D01*
X89917000Y-84710000D01*
G37*
D11*
X65980000Y-81340000D02*
X68640000Y-81340000D01*
X65980000Y-78740000D02*
X65980000Y-81340000D01*
X68640000Y-78740000D02*
X68640000Y-81340000D01*
X65980000Y-78740000D02*
X68640000Y-78740000D01*
X65980000Y-77470000D02*
X65980000Y-76140000D01*
X65980000Y-76140000D02*
X67310000Y-76140000D01*
X51402500Y-110180000D02*
X54087500Y-110180000D01*
X54087500Y-110180000D02*
X54087500Y-108260000D01*
X54087500Y-108260000D02*
X51402500Y-108260000D01*
X54087500Y-113340000D02*
X51402500Y-113340000D01*
X54087500Y-115260000D02*
X54087500Y-113340000D01*
X51402500Y-115260000D02*
X54087500Y-115260000D01*
X114240000Y-83395001D02*
X116840000Y-83395001D01*
X114240000Y-83395001D02*
X114240000Y-103835001D01*
X114240000Y-103835001D02*
X119440000Y-103835001D01*
X119440000Y-85995001D02*
X119440000Y-103835001D01*
X116840000Y-85995001D02*
X119440000Y-85995001D01*
X116840000Y-83395001D02*
X116840000Y-85995001D01*
X119440000Y-83395001D02*
X119440000Y-84725001D01*
X118110000Y-83395001D02*
X119440000Y-83395001D01*
X143510000Y-83395001D02*
X144840000Y-83395001D01*
X144840000Y-83395001D02*
X144840000Y-84725001D01*
X142240000Y-83395001D02*
X142240000Y-85995001D01*
X142240000Y-85995001D02*
X144840000Y-85995001D01*
X144840000Y-85995001D02*
X144840000Y-103835001D01*
X139640000Y-103835001D02*
X144840000Y-103835001D01*
X139640000Y-83395001D02*
X139640000Y-103835001D01*
X139640000Y-83395001D02*
X142240000Y-83395001D01*
X165040000Y-83395001D02*
X167640000Y-83395001D01*
X165040000Y-83395001D02*
X165040000Y-103835001D01*
X165040000Y-103835001D02*
X170240000Y-103835001D01*
X170240000Y-85995001D02*
X170240000Y-103835001D01*
X167640000Y-85995001D02*
X170240000Y-85995001D01*
X167640000Y-83395001D02*
X167640000Y-85995001D01*
X170240000Y-83395001D02*
X170240000Y-84725001D01*
X168910000Y-83395001D02*
X170240000Y-83395001D01*
X190440000Y-103835001D02*
X195640000Y-103835001D01*
X190440000Y-85995001D02*
X190440000Y-103835001D01*
X195640000Y-83395001D02*
X195640000Y-103835001D01*
X190440000Y-85995001D02*
X193040000Y-85995001D01*
X193040000Y-85995001D02*
X193040000Y-83395001D01*
X193040000Y-83395001D02*
X195640000Y-83395001D01*
X190440000Y-84725001D02*
X190440000Y-83395001D01*
X190440000Y-83395001D02*
X191770000Y-83395001D01*
X219710000Y-83395001D02*
X221040000Y-83395001D01*
X221040000Y-83395001D02*
X221040000Y-84725001D01*
X218440000Y-83395001D02*
X218440000Y-85995001D01*
X218440000Y-85995001D02*
X221040000Y-85995001D01*
X221040000Y-85995001D02*
X221040000Y-103835001D01*
X215840000Y-103835001D02*
X221040000Y-103835001D01*
X215840000Y-83395001D02*
X215840000Y-103835001D01*
X215840000Y-83395001D02*
X218440000Y-83395001D01*
X241240000Y-83395001D02*
X243840000Y-83395001D01*
X241240000Y-83395001D02*
X241240000Y-103835001D01*
X241240000Y-103835001D02*
X246440000Y-103835001D01*
X246440000Y-85995001D02*
X246440000Y-103835001D01*
X243840000Y-85995001D02*
X246440000Y-85995001D01*
X243840000Y-83395001D02*
X243840000Y-85995001D01*
X246440000Y-83395001D02*
X246440000Y-84725001D01*
X245110000Y-83395001D02*
X246440000Y-83395001D01*
X270035001Y-83395001D02*
X271365001Y-83395001D01*
X271365001Y-83395001D02*
X271365001Y-84725001D01*
X268765001Y-83395001D02*
X268765001Y-85995001D01*
X268765001Y-85995001D02*
X271365001Y-85995001D01*
X271365001Y-85995001D02*
X271365001Y-103835001D01*
X266165001Y-103835001D02*
X271365001Y-103835001D01*
X266165001Y-83395001D02*
X266165001Y-103835001D01*
X266165001Y-83395001D02*
X268765001Y-83395001D01*
X304740000Y-83395001D02*
X307340000Y-83395001D01*
X304740000Y-83395001D02*
X304740000Y-103835001D01*
X304740000Y-103835001D02*
X309940000Y-103835001D01*
X309940000Y-85995001D02*
X309940000Y-103835001D01*
X307340000Y-85995001D02*
X309940000Y-85995001D01*
X307340000Y-83395001D02*
X307340000Y-85995001D01*
X309940000Y-83395001D02*
X309940000Y-84725001D01*
X308610000Y-83395001D02*
X309940000Y-83395001D01*
X79630000Y-91970000D02*
G75*
G03X79630000Y-88450000I0J1760000D01*
G01*
X24030000Y-88450000D02*
G75*
G03X24030000Y-91970000I0J-1760000D01*
G01*
X79630000Y-91970000D02*
X77740000Y-91970000D01*
X79630000Y-88450000D02*
X77740000Y-88450000D01*
X24030000Y-91970000D02*
X25920000Y-91970000D01*
X24030000Y-88450000D02*
X25920000Y-88450000D01*
X51830000Y-97610000D02*
X77740000Y-97610000D01*
X77740000Y-97610000D02*
X77740000Y-87790000D01*
X77740000Y-87790000D02*
X53640000Y-87790000D01*
X53640000Y-87790000D02*
X53640000Y-86390000D01*
X53640000Y-86390000D02*
X51830000Y-86390000D01*
X51830000Y-97610000D02*
X25920000Y-97610000D01*
X25920000Y-97610000D02*
X25920000Y-87790000D01*
X25920000Y-87790000D02*
X50020000Y-87790000D01*
X50020000Y-87790000D02*
X50020000Y-86390000D01*
X50020000Y-86390000D02*
X51830000Y-86390000D01*
X75130000Y-97850000D02*
X77980000Y-97850000D01*
X77980000Y-97850000D02*
X77980000Y-95000000D01*
X44376078Y-108510000D02*
X43858922Y-108510000D01*
X44376078Y-109930000D02*
X43858922Y-109930000D01*
X60368922Y-108510000D02*
X60886078Y-108510000D01*
X60368922Y-109930000D02*
X60886078Y-109930000D01*
D10*
X66500476Y-74592380D02*
X66500476Y-75306666D01*
X66452857Y-75449523D01*
X66357619Y-75544761D01*
X66214761Y-75592380D01*
X66119523Y-75592380D01*
X67500476Y-75592380D02*
X66929047Y-75592380D01*
X67214761Y-75592380D02*
X67214761Y-74592380D01*
X67119523Y-74735238D01*
X67024285Y-74830476D01*
X66929047Y-74878095D01*
X68119523Y-74592380D02*
X68214761Y-74592380D01*
X68310000Y-74640000D01*
X68357619Y-74687619D01*
X68405238Y-74782857D01*
X68452857Y-74973333D01*
X68452857Y-75211428D01*
X68405238Y-75401904D01*
X68357619Y-75497142D01*
X68310000Y-75544761D01*
X68214761Y-75592380D01*
X68119523Y-75592380D01*
X68024285Y-75544761D01*
X67976666Y-75497142D01*
X67929047Y-75401904D01*
X67881428Y-75211428D01*
X67881428Y-74973333D01*
X67929047Y-74782857D01*
X67976666Y-74687619D01*
X68024285Y-74640000D01*
X68119523Y-74592380D01*
X51664404Y-111322380D02*
X51664404Y-110322380D01*
X51902500Y-110322380D01*
X52045357Y-110370000D01*
X52140595Y-110465238D01*
X52188214Y-110560476D01*
X52235833Y-110750952D01*
X52235833Y-110893809D01*
X52188214Y-111084285D01*
X52140595Y-111179523D01*
X52045357Y-111274761D01*
X51902500Y-111322380D01*
X51664404Y-111322380D01*
X53188214Y-111322380D02*
X52616785Y-111322380D01*
X52902500Y-111322380D02*
X52902500Y-110322380D01*
X52807261Y-110465238D01*
X52712023Y-110560476D01*
X52616785Y-110608095D01*
X51664404Y-116402380D02*
X51664404Y-115402380D01*
X51902500Y-115402380D01*
X52045357Y-115450000D01*
X52140595Y-115545238D01*
X52188214Y-115640476D01*
X52235833Y-115830952D01*
X52235833Y-115973809D01*
X52188214Y-116164285D01*
X52140595Y-116259523D01*
X52045357Y-116354761D01*
X51902500Y-116402380D01*
X51664404Y-116402380D01*
X52616785Y-115497619D02*
X52664404Y-115450000D01*
X52759642Y-115402380D01*
X52997738Y-115402380D01*
X53092976Y-115450000D01*
X53140595Y-115497619D01*
X53188214Y-115592857D01*
X53188214Y-115688095D01*
X53140595Y-115830952D01*
X52569166Y-116402380D01*
X53188214Y-116402380D01*
X116506666Y-81407381D02*
X116506666Y-82121667D01*
X116459047Y-82264524D01*
X116363809Y-82359762D01*
X116220952Y-82407381D01*
X116125714Y-82407381D01*
X117506666Y-82407381D02*
X116935238Y-82407381D01*
X117220952Y-82407381D02*
X117220952Y-81407381D01*
X117125714Y-81550239D01*
X117030476Y-81645477D01*
X116935238Y-81693096D01*
X141906666Y-81407381D02*
X141906666Y-82121667D01*
X141859047Y-82264524D01*
X141763809Y-82359762D01*
X141620952Y-82407381D01*
X141525714Y-82407381D01*
X142335238Y-81502620D02*
X142382857Y-81455001D01*
X142478095Y-81407381D01*
X142716190Y-81407381D01*
X142811428Y-81455001D01*
X142859047Y-81502620D01*
X142906666Y-81597858D01*
X142906666Y-81693096D01*
X142859047Y-81835953D01*
X142287619Y-82407381D01*
X142906666Y-82407381D01*
X167306666Y-81407381D02*
X167306666Y-82121667D01*
X167259047Y-82264524D01*
X167163809Y-82359762D01*
X167020952Y-82407381D01*
X166925714Y-82407381D01*
X167687619Y-81407381D02*
X168306666Y-81407381D01*
X167973333Y-81788334D01*
X168116190Y-81788334D01*
X168211428Y-81835953D01*
X168259047Y-81883572D01*
X168306666Y-81978810D01*
X168306666Y-82216905D01*
X168259047Y-82312143D01*
X168211428Y-82359762D01*
X168116190Y-82407381D01*
X167830476Y-82407381D01*
X167735238Y-82359762D01*
X167687619Y-82312143D01*
X192706666Y-81847381D02*
X192706666Y-82561667D01*
X192659047Y-82704524D01*
X192563809Y-82799762D01*
X192420952Y-82847381D01*
X192325714Y-82847381D01*
X193611428Y-82180715D02*
X193611428Y-82847381D01*
X193373333Y-81799762D02*
X193135238Y-82514048D01*
X193754285Y-82514048D01*
X218106666Y-81407381D02*
X218106666Y-82121667D01*
X218059047Y-82264524D01*
X217963809Y-82359762D01*
X217820952Y-82407381D01*
X217725714Y-82407381D01*
X219059047Y-81407381D02*
X218582857Y-81407381D01*
X218535238Y-81883572D01*
X218582857Y-81835953D01*
X218678095Y-81788334D01*
X218916190Y-81788334D01*
X219011428Y-81835953D01*
X219059047Y-81883572D01*
X219106666Y-81978810D01*
X219106666Y-82216905D01*
X219059047Y-82312143D01*
X219011428Y-82359762D01*
X218916190Y-82407381D01*
X218678095Y-82407381D01*
X218582857Y-82359762D01*
X218535238Y-82312143D01*
X243506666Y-81407381D02*
X243506666Y-82121667D01*
X243459047Y-82264524D01*
X243363809Y-82359762D01*
X243220952Y-82407381D01*
X243125714Y-82407381D01*
X244411428Y-81407381D02*
X244220952Y-81407381D01*
X244125714Y-81455001D01*
X244078095Y-81502620D01*
X243982857Y-81645477D01*
X243935238Y-81835953D01*
X243935238Y-82216905D01*
X243982857Y-82312143D01*
X244030476Y-82359762D01*
X244125714Y-82407381D01*
X244316190Y-82407381D01*
X244411428Y-82359762D01*
X244459047Y-82312143D01*
X244506666Y-82216905D01*
X244506666Y-81978810D01*
X244459047Y-81883572D01*
X244411428Y-81835953D01*
X244316190Y-81788334D01*
X244125714Y-81788334D01*
X244030476Y-81835953D01*
X243982857Y-81883572D01*
X243935238Y-81978810D01*
X268431667Y-81407381D02*
X268431667Y-82121667D01*
X268384048Y-82264524D01*
X268288810Y-82359762D01*
X268145953Y-82407381D01*
X268050715Y-82407381D01*
X268812620Y-81407381D02*
X269479286Y-81407381D01*
X269050715Y-82407381D01*
X307006666Y-81407381D02*
X307006666Y-82121667D01*
X306959047Y-82264524D01*
X306863809Y-82359762D01*
X306720952Y-82407381D01*
X306625714Y-82407381D01*
X307625714Y-81835953D02*
X307530476Y-81788334D01*
X307482857Y-81740715D01*
X307435238Y-81645477D01*
X307435238Y-81597858D01*
X307482857Y-81502620D01*
X307530476Y-81455001D01*
X307625714Y-81407381D01*
X307816190Y-81407381D01*
X307911428Y-81455001D01*
X307959047Y-81502620D01*
X308006666Y-81597858D01*
X308006666Y-81645477D01*
X307959047Y-81740715D01*
X307911428Y-81788334D01*
X307816190Y-81835953D01*
X307625714Y-81835953D01*
X307530476Y-81883572D01*
X307482857Y-81931191D01*
X307435238Y-82026429D01*
X307435238Y-82216905D01*
X307482857Y-82312143D01*
X307530476Y-82359762D01*
X307625714Y-82407381D01*
X307816190Y-82407381D01*
X307911428Y-82359762D01*
X307959047Y-82312143D01*
X308006666Y-82216905D01*
X308006666Y-82026429D01*
X307959047Y-81931191D01*
X307911428Y-81883572D01*
X307816190Y-81835953D01*
X51496666Y-98152380D02*
X51496666Y-98866666D01*
X51449047Y-99009523D01*
X51353809Y-99104761D01*
X51210952Y-99152380D01*
X51115714Y-99152380D01*
X52020476Y-99152380D02*
X52210952Y-99152380D01*
X52306190Y-99104761D01*
X52353809Y-99057142D01*
X52449047Y-98914285D01*
X52496666Y-98723809D01*
X52496666Y-98342857D01*
X52449047Y-98247619D01*
X52401428Y-98200000D01*
X52306190Y-98152380D01*
X52115714Y-98152380D01*
X52020476Y-98200000D01*
X51972857Y-98247619D01*
X51925238Y-98342857D01*
X51925238Y-98580952D01*
X51972857Y-98676190D01*
X52020476Y-98723809D01*
X52115714Y-98771428D01*
X52306190Y-98771428D01*
X52401428Y-98723809D01*
X52449047Y-98676190D01*
X52496666Y-98580952D01*
X43950833Y-111322380D02*
X43617500Y-110846190D01*
X43379404Y-111322380D02*
X43379404Y-110322380D01*
X43760357Y-110322380D01*
X43855595Y-110370000D01*
X43903214Y-110417619D01*
X43950833Y-110512857D01*
X43950833Y-110655714D01*
X43903214Y-110750952D01*
X43855595Y-110798571D01*
X43760357Y-110846190D01*
X43379404Y-110846190D01*
X44903214Y-111322380D02*
X44331785Y-111322380D01*
X44617500Y-111322380D02*
X44617500Y-110322380D01*
X44522261Y-110465238D01*
X44427023Y-110560476D01*
X44331785Y-110608095D01*
X60460833Y-108022380D02*
X60127500Y-107546190D01*
X59889404Y-108022380D02*
X59889404Y-107022380D01*
X60270357Y-107022380D01*
X60365595Y-107070000D01*
X60413214Y-107117619D01*
X60460833Y-107212857D01*
X60460833Y-107355714D01*
X60413214Y-107450952D01*
X60365595Y-107498571D01*
X60270357Y-107546190D01*
X59889404Y-107546190D01*
X60841785Y-107117619D02*
X60889404Y-107070000D01*
X60984642Y-107022380D01*
X61222738Y-107022380D01*
X61317976Y-107070000D01*
X61365595Y-107117619D01*
X61413214Y-107212857D01*
X61413214Y-107308095D01*
X61365595Y-107450952D01*
X60794166Y-108022380D01*
X61413214Y-108022380D01*
M02*
