M48
; DRILL file {KiCad 5.1.5+dfsg1-2build2} date Thu 17 Dec 2020 01:47:25 AM MST
; FORMAT={-:-/ absolute / inch / decimal}
; #@! TF.CreationDate,2020-12-17T01:47:25-07:00
; #@! TF.GenerationSoftware,Kicad,Pcbnew,5.1.5+dfsg1-2build2
FMAT,2
INCH
T1C0.0394
T2C0.0551
T3C0.1260
T4C0.1181
%
G90
G05
T1
X4.55Y-3.3356
X4.55Y-3.4356
X4.55Y-3.5356
X4.55Y-3.6356
X4.55Y-3.7356
X4.55Y-3.8356
X4.55Y-3.9356
X4.55Y-4.0356
X4.65Y-3.3356
X4.65Y-3.4356
X4.65Y-3.5356
X4.65Y-3.6356
X4.65Y-3.7356
X4.65Y-3.8356
X4.65Y-3.9356
X4.65Y-4.0356
X5.55Y-3.3356
X5.55Y-3.4356
X5.55Y-3.5356
X5.55Y-3.6356
X5.55Y-3.7356
X5.55Y-3.8356
X5.55Y-3.9356
X5.55Y-4.0356
X5.65Y-3.3356
X5.65Y-3.4356
X5.65Y-3.5356
X5.65Y-3.6356
X5.65Y-3.7356
X5.65Y-3.8356
X5.65Y-3.9356
X5.65Y-4.0356
X9.55Y-3.3356
X9.55Y-3.4356
X9.55Y-3.5356
X9.55Y-3.6356
X9.55Y-3.7356
X9.55Y-3.8356
X9.55Y-3.9356
X9.55Y-4.0356
X9.65Y-3.3356
X9.65Y-3.4356
X9.65Y-3.5356
X9.65Y-3.6356
X9.65Y-3.7356
X9.65Y-3.8356
X9.65Y-3.9356
X9.65Y-4.0356
X7.55Y-3.3356
X7.55Y-3.4356
X7.55Y-3.5356
X7.55Y-3.6356
X7.55Y-3.7356
X7.55Y-3.8356
X7.55Y-3.9356
X7.55Y-4.0356
X7.65Y-3.3356
X7.65Y-3.4356
X7.65Y-3.5356
X7.65Y-3.6356
X7.65Y-3.7356
X7.65Y-3.8356
X7.65Y-3.9356
X7.65Y-4.0356
X10.5313Y-3.3356
X10.5313Y-3.4356
X10.5313Y-3.5356
X10.5313Y-3.6356
X10.5313Y-3.7356
X10.5313Y-3.8356
X10.5313Y-3.9356
X10.5313Y-4.0356
X10.6313Y-3.3356
X10.6313Y-3.4356
X10.6313Y-3.5356
X10.6313Y-3.6356
X10.6313Y-3.7356
X10.6313Y-3.8356
X10.6313Y-3.9356
X10.6313Y-4.0356
X12.05Y-3.3356
X12.05Y-3.4356
X12.05Y-3.5356
X12.05Y-3.6356
X12.05Y-3.7356
X12.05Y-3.8356
X12.05Y-3.9356
X12.05Y-4.0356
X12.15Y-3.3356
X12.15Y-3.4356
X12.15Y-3.5356
X12.15Y-3.6356
X12.15Y-3.7356
X12.15Y-3.8356
X12.15Y-3.9356
X12.15Y-4.0356
X6.55Y-3.3356
X6.55Y-3.4356
X6.55Y-3.5356
X6.55Y-3.6356
X6.55Y-3.7356
X6.55Y-3.8356
X6.55Y-3.9356
X6.55Y-4.0356
X6.65Y-3.3356
X6.65Y-3.4356
X6.65Y-3.5356
X6.65Y-3.6356
X6.65Y-3.7356
X6.65Y-3.8356
X6.65Y-3.9356
X6.65Y-4.0356
X8.55Y-3.3356
X8.55Y-3.4356
X8.55Y-3.5356
X8.55Y-3.6356
X8.55Y-3.7356
X8.55Y-3.8356
X8.55Y-3.9356
X8.55Y-4.0356
X8.65Y-3.3356
X8.65Y-3.4356
X8.65Y-3.5356
X8.65Y-3.6356
X8.65Y-3.7356
X8.65Y-3.8356
X8.65Y-3.9356
X8.65Y-4.0356
X2.65Y-3.05
X2.65Y-3.15
T2
X1.1311Y-3.5335
X1.1311Y-3.75
X1.2965Y-3.5335
X1.2965Y-3.75
X1.4618Y-3.5335
X1.4618Y-3.75
X1.6272Y-3.5335
X1.6272Y-3.75
X1.7925Y-3.5335
X1.7925Y-3.75
X1.9579Y-3.5335
X1.9579Y-3.75
X2.1232Y-3.5335
X2.1232Y-3.75
X2.2886Y-3.5335
X2.2886Y-3.75
X2.4539Y-3.5335
X2.4539Y-3.75
X2.6193Y-3.5335
X2.6193Y-3.75
X2.7846Y-3.5335
X2.7846Y-3.75
X2.95Y-3.5335
X2.95Y-3.75
T3
X12.1Y-3.0
X0.6Y-4.6
X12.1Y-4.6
X0.6Y-3.0
X6.6Y-3.0
X6.6Y-4.6
X3.5Y-4.6
X9.1Y-4.6
X3.5Y-3.0
X9.1Y-3.0
T4
X0.9461Y-3.5516
X3.135Y-3.5516
T0
M30
